G04 EAGLE Gerber RS-274X export*
G75*
%MOMM*%
%FSLAX34Y34*%
%LPD*%
%INSolder Mask bottom*%
%IPPOS*%
%AMOC8*
5,1,8,0,0,1.08239X$1,22.5*%
G01*
%ADD10C,0.152400*%
%ADD11C,1.683000*%
%ADD12C,1.000000*%
%ADD13C,1.100000*%
%ADD14R,1.100000X1.500000*%
%ADD15R,0.800000X0.900000*%
%ADD16R,1.500000X1.500000*%
%ADD17R,1.300000X1.500000*%
%ADD18C,1.200000*%
%ADD19C,1.800000*%
%ADD20R,1.500000X1.300000*%


D10*
X0Y360000D02*
X108Y368835D01*
X434Y377664D01*
X975Y386483D01*
X1733Y395286D01*
X2707Y404068D01*
X3896Y412823D01*
X5300Y421546D01*
X6917Y430233D01*
X8747Y438876D01*
X10789Y447473D01*
X13041Y456017D01*
X15501Y464502D01*
X18170Y472925D01*
X21044Y481280D01*
X24123Y489562D01*
X27403Y497766D01*
X30884Y505887D01*
X34564Y513920D01*
X38439Y521860D01*
X42508Y529703D01*
X46769Y537443D01*
X51218Y545077D01*
X55853Y552599D01*
X60671Y560005D01*
X65669Y567291D01*
X70845Y574452D01*
X76195Y581483D01*
X81716Y588382D01*
X87405Y595142D01*
X93258Y601761D01*
X99271Y608235D01*
X105442Y614558D01*
X111765Y620729D01*
X118239Y626742D01*
X124858Y632595D01*
X131618Y638284D01*
X138517Y643805D01*
X145548Y649155D01*
X152709Y654331D01*
X159995Y659329D01*
X167401Y664147D01*
X174923Y668782D01*
X182557Y673231D01*
X190297Y677492D01*
X198140Y681561D01*
X206080Y685436D01*
X214113Y689116D01*
X222234Y692597D01*
X230438Y695877D01*
X238720Y698956D01*
X247075Y701830D01*
X255498Y704499D01*
X263983Y706959D01*
X272527Y709211D01*
X281124Y711253D01*
X289767Y713083D01*
X298454Y714700D01*
X307177Y716104D01*
X315932Y717293D01*
X324714Y718267D01*
X333517Y719025D01*
X342336Y719566D01*
X351165Y719892D01*
X360000Y720000D01*
X368835Y719892D01*
X377664Y719566D01*
X386483Y719025D01*
X395286Y718267D01*
X404068Y717293D01*
X412823Y716104D01*
X421546Y714700D01*
X430233Y713083D01*
X438876Y711253D01*
X447473Y709211D01*
X456017Y706959D01*
X464502Y704499D01*
X472925Y701830D01*
X481280Y698956D01*
X489562Y695877D01*
X497766Y692597D01*
X505887Y689116D01*
X513920Y685436D01*
X521860Y681561D01*
X529703Y677492D01*
X537443Y673231D01*
X545077Y668782D01*
X552599Y664147D01*
X560005Y659329D01*
X567291Y654331D01*
X574452Y649155D01*
X581483Y643805D01*
X588382Y638284D01*
X595142Y632595D01*
X601761Y626742D01*
X608235Y620729D01*
X614558Y614558D01*
X620729Y608235D01*
X626742Y601761D01*
X632595Y595142D01*
X638284Y588382D01*
X643805Y581483D01*
X649155Y574452D01*
X654331Y567291D01*
X659329Y560005D01*
X664147Y552599D01*
X668782Y545077D01*
X673231Y537443D01*
X677492Y529703D01*
X681561Y521860D01*
X685436Y513920D01*
X689116Y505887D01*
X692597Y497766D01*
X695877Y489562D01*
X698956Y481280D01*
X701830Y472925D01*
X704499Y464502D01*
X706959Y456017D01*
X709211Y447473D01*
X711253Y438876D01*
X713083Y430233D01*
X714700Y421546D01*
X716104Y412823D01*
X717293Y404068D01*
X718267Y395286D01*
X719025Y386483D01*
X719566Y377664D01*
X719892Y368835D01*
X720000Y360000D01*
X719892Y351165D01*
X719566Y342336D01*
X719025Y333517D01*
X718267Y324714D01*
X717293Y315932D01*
X716104Y307177D01*
X714700Y298454D01*
X713083Y289767D01*
X711253Y281124D01*
X709211Y272527D01*
X706959Y263983D01*
X704499Y255498D01*
X701830Y247075D01*
X698956Y238720D01*
X695877Y230438D01*
X692597Y222234D01*
X689116Y214113D01*
X685436Y206080D01*
X681561Y198140D01*
X677492Y190297D01*
X673231Y182557D01*
X668782Y174923D01*
X664147Y167401D01*
X659329Y159995D01*
X654331Y152709D01*
X649155Y145548D01*
X643805Y138517D01*
X638284Y131618D01*
X632595Y124858D01*
X626742Y118239D01*
X620729Y111765D01*
X614558Y105442D01*
X608235Y99271D01*
X601761Y93258D01*
X595142Y87405D01*
X588382Y81716D01*
X581483Y76195D01*
X574452Y70845D01*
X567291Y65669D01*
X560005Y60671D01*
X552599Y55853D01*
X545077Y51218D01*
X537443Y46769D01*
X529703Y42508D01*
X521860Y38439D01*
X513920Y34564D01*
X505887Y30884D01*
X497766Y27403D01*
X489562Y24123D01*
X481280Y21044D01*
X472925Y18170D01*
X464502Y15501D01*
X456017Y13041D01*
X447473Y10789D01*
X438876Y8747D01*
X430233Y6917D01*
X421546Y5300D01*
X412823Y3896D01*
X404068Y2707D01*
X395286Y1733D01*
X386483Y975D01*
X377664Y434D01*
X368835Y108D01*
X360000Y0D01*
X351165Y108D01*
X342336Y434D01*
X333517Y975D01*
X324714Y1733D01*
X315932Y2707D01*
X307177Y3896D01*
X298454Y5300D01*
X289767Y6917D01*
X281124Y8747D01*
X272527Y10789D01*
X263983Y13041D01*
X255498Y15501D01*
X247075Y18170D01*
X238720Y21044D01*
X230438Y24123D01*
X222234Y27403D01*
X214113Y30884D01*
X206080Y34564D01*
X198140Y38439D01*
X190297Y42508D01*
X182557Y46769D01*
X174923Y51218D01*
X167401Y55853D01*
X159995Y60671D01*
X152709Y65669D01*
X145548Y70845D01*
X138517Y76195D01*
X131618Y81716D01*
X124858Y87405D01*
X118239Y93258D01*
X111765Y99271D01*
X105442Y105442D01*
X99271Y111765D01*
X93258Y118239D01*
X87405Y124858D01*
X81716Y131618D01*
X76195Y138517D01*
X70845Y145548D01*
X65669Y152709D01*
X60671Y159995D01*
X55853Y167401D01*
X51218Y174923D01*
X46769Y182557D01*
X42508Y190297D01*
X38439Y198140D01*
X34564Y206080D01*
X30884Y214113D01*
X27403Y222234D01*
X24123Y230438D01*
X21044Y238720D01*
X18170Y247075D01*
X15501Y255498D01*
X13041Y263983D01*
X10789Y272527D01*
X8747Y281124D01*
X6917Y289767D01*
X5300Y298454D01*
X3896Y307177D01*
X2707Y315932D01*
X1733Y324714D01*
X975Y333517D01*
X434Y342336D01*
X108Y351165D01*
X0Y360000D01*
X460000Y360000D02*
X460015Y361227D01*
X460060Y362453D01*
X460135Y363678D01*
X460241Y364901D01*
X460376Y366121D01*
X460541Y367337D01*
X460736Y368548D01*
X460961Y369755D01*
X461215Y370955D01*
X461498Y372149D01*
X461811Y373336D01*
X462153Y374514D01*
X462524Y375684D01*
X462923Y376844D01*
X463350Y377995D01*
X463806Y379134D01*
X464290Y380262D01*
X464801Y381378D01*
X465339Y382481D01*
X465904Y383570D01*
X466496Y384645D01*
X467114Y385705D01*
X467757Y386750D01*
X468427Y387779D01*
X469121Y388790D01*
X469840Y389785D01*
X470583Y390762D01*
X471349Y391720D01*
X472140Y392659D01*
X472952Y393578D01*
X473788Y394477D01*
X474645Y395355D01*
X475523Y396212D01*
X476422Y397048D01*
X477341Y397860D01*
X478280Y398651D01*
X479238Y399417D01*
X480215Y400160D01*
X481210Y400879D01*
X482221Y401573D01*
X483250Y402243D01*
X484295Y402886D01*
X485355Y403504D01*
X486430Y404096D01*
X487519Y404661D01*
X488622Y405199D01*
X489738Y405710D01*
X490866Y406194D01*
X492005Y406650D01*
X493156Y407077D01*
X494316Y407476D01*
X495486Y407847D01*
X496664Y408189D01*
X497851Y408502D01*
X499045Y408785D01*
X500245Y409039D01*
X501452Y409264D01*
X502663Y409459D01*
X503879Y409624D01*
X505099Y409759D01*
X506322Y409865D01*
X507547Y409940D01*
X508773Y409985D01*
X510000Y410000D01*
X511227Y409985D01*
X512453Y409940D01*
X513678Y409865D01*
X514901Y409759D01*
X516121Y409624D01*
X517337Y409459D01*
X518548Y409264D01*
X519755Y409039D01*
X520955Y408785D01*
X522149Y408502D01*
X523336Y408189D01*
X524514Y407847D01*
X525684Y407476D01*
X526844Y407077D01*
X527995Y406650D01*
X529134Y406194D01*
X530262Y405710D01*
X531378Y405199D01*
X532481Y404661D01*
X533570Y404096D01*
X534645Y403504D01*
X535705Y402886D01*
X536750Y402243D01*
X537779Y401573D01*
X538790Y400879D01*
X539785Y400160D01*
X540762Y399417D01*
X541720Y398651D01*
X542659Y397860D01*
X543578Y397048D01*
X544477Y396212D01*
X545355Y395355D01*
X546212Y394477D01*
X547048Y393578D01*
X547860Y392659D01*
X548651Y391720D01*
X549417Y390762D01*
X550160Y389785D01*
X550879Y388790D01*
X551573Y387779D01*
X552243Y386750D01*
X552886Y385705D01*
X553504Y384645D01*
X554096Y383570D01*
X554661Y382481D01*
X555199Y381378D01*
X555710Y380262D01*
X556194Y379134D01*
X556650Y377995D01*
X557077Y376844D01*
X557476Y375684D01*
X557847Y374514D01*
X558189Y373336D01*
X558502Y372149D01*
X558785Y370955D01*
X559039Y369755D01*
X559264Y368548D01*
X559459Y367337D01*
X559624Y366121D01*
X559759Y364901D01*
X559865Y363678D01*
X559940Y362453D01*
X559985Y361227D01*
X560000Y360000D01*
X559985Y358773D01*
X559940Y357547D01*
X559865Y356322D01*
X559759Y355099D01*
X559624Y353879D01*
X559459Y352663D01*
X559264Y351452D01*
X559039Y350245D01*
X558785Y349045D01*
X558502Y347851D01*
X558189Y346664D01*
X557847Y345486D01*
X557476Y344316D01*
X557077Y343156D01*
X556650Y342005D01*
X556194Y340866D01*
X555710Y339738D01*
X555199Y338622D01*
X554661Y337519D01*
X554096Y336430D01*
X553504Y335355D01*
X552886Y334295D01*
X552243Y333250D01*
X551573Y332221D01*
X550879Y331210D01*
X550160Y330215D01*
X549417Y329238D01*
X548651Y328280D01*
X547860Y327341D01*
X547048Y326422D01*
X546212Y325523D01*
X545355Y324645D01*
X544477Y323788D01*
X543578Y322952D01*
X542659Y322140D01*
X541720Y321349D01*
X540762Y320583D01*
X539785Y319840D01*
X538790Y319121D01*
X537779Y318427D01*
X536750Y317757D01*
X535705Y317114D01*
X534645Y316496D01*
X533570Y315904D01*
X532481Y315339D01*
X531378Y314801D01*
X530262Y314290D01*
X529134Y313806D01*
X527995Y313350D01*
X526844Y312923D01*
X525684Y312524D01*
X524514Y312153D01*
X523336Y311811D01*
X522149Y311498D01*
X520955Y311215D01*
X519755Y310961D01*
X518548Y310736D01*
X517337Y310541D01*
X516121Y310376D01*
X514901Y310241D01*
X513678Y310135D01*
X512453Y310060D01*
X511227Y310015D01*
X510000Y310000D01*
X508773Y310015D01*
X507547Y310060D01*
X506322Y310135D01*
X505099Y310241D01*
X503879Y310376D01*
X502663Y310541D01*
X501452Y310736D01*
X500245Y310961D01*
X499045Y311215D01*
X497851Y311498D01*
X496664Y311811D01*
X495486Y312153D01*
X494316Y312524D01*
X493156Y312923D01*
X492005Y313350D01*
X490866Y313806D01*
X489738Y314290D01*
X488622Y314801D01*
X487519Y315339D01*
X486430Y315904D01*
X485355Y316496D01*
X484295Y317114D01*
X483250Y317757D01*
X482221Y318427D01*
X481210Y319121D01*
X480215Y319840D01*
X479238Y320583D01*
X478280Y321349D01*
X477341Y322140D01*
X476422Y322952D01*
X475523Y323788D01*
X474645Y324645D01*
X473788Y325523D01*
X472952Y326422D01*
X472140Y327341D01*
X471349Y328280D01*
X470583Y329238D01*
X469840Y330215D01*
X469121Y331210D01*
X468427Y332221D01*
X467757Y333250D01*
X467114Y334295D01*
X466496Y335355D01*
X465904Y336430D01*
X465339Y337519D01*
X464801Y338622D01*
X464290Y339738D01*
X463806Y340866D01*
X463350Y342005D01*
X462923Y343156D01*
X462524Y344316D01*
X462153Y345486D01*
X461811Y346664D01*
X461498Y347851D01*
X461215Y349045D01*
X460961Y350245D01*
X460736Y351452D01*
X460541Y352663D01*
X460376Y353879D01*
X460241Y355099D01*
X460135Y356322D01*
X460060Y357547D01*
X460015Y358773D01*
X460000Y360000D01*
X160000Y360000D02*
X160015Y361227D01*
X160060Y362453D01*
X160135Y363678D01*
X160241Y364901D01*
X160376Y366121D01*
X160541Y367337D01*
X160736Y368548D01*
X160961Y369755D01*
X161215Y370955D01*
X161498Y372149D01*
X161811Y373336D01*
X162153Y374514D01*
X162524Y375684D01*
X162923Y376844D01*
X163350Y377995D01*
X163806Y379134D01*
X164290Y380262D01*
X164801Y381378D01*
X165339Y382481D01*
X165904Y383570D01*
X166496Y384645D01*
X167114Y385705D01*
X167757Y386750D01*
X168427Y387779D01*
X169121Y388790D01*
X169840Y389785D01*
X170583Y390762D01*
X171349Y391720D01*
X172140Y392659D01*
X172952Y393578D01*
X173788Y394477D01*
X174645Y395355D01*
X175523Y396212D01*
X176422Y397048D01*
X177341Y397860D01*
X178280Y398651D01*
X179238Y399417D01*
X180215Y400160D01*
X181210Y400879D01*
X182221Y401573D01*
X183250Y402243D01*
X184295Y402886D01*
X185355Y403504D01*
X186430Y404096D01*
X187519Y404661D01*
X188622Y405199D01*
X189738Y405710D01*
X190866Y406194D01*
X192005Y406650D01*
X193156Y407077D01*
X194316Y407476D01*
X195486Y407847D01*
X196664Y408189D01*
X197851Y408502D01*
X199045Y408785D01*
X200245Y409039D01*
X201452Y409264D01*
X202663Y409459D01*
X203879Y409624D01*
X205099Y409759D01*
X206322Y409865D01*
X207547Y409940D01*
X208773Y409985D01*
X210000Y410000D01*
X211227Y409985D01*
X212453Y409940D01*
X213678Y409865D01*
X214901Y409759D01*
X216121Y409624D01*
X217337Y409459D01*
X218548Y409264D01*
X219755Y409039D01*
X220955Y408785D01*
X222149Y408502D01*
X223336Y408189D01*
X224514Y407847D01*
X225684Y407476D01*
X226844Y407077D01*
X227995Y406650D01*
X229134Y406194D01*
X230262Y405710D01*
X231378Y405199D01*
X232481Y404661D01*
X233570Y404096D01*
X234645Y403504D01*
X235705Y402886D01*
X236750Y402243D01*
X237779Y401573D01*
X238790Y400879D01*
X239785Y400160D01*
X240762Y399417D01*
X241720Y398651D01*
X242659Y397860D01*
X243578Y397048D01*
X244477Y396212D01*
X245355Y395355D01*
X246212Y394477D01*
X247048Y393578D01*
X247860Y392659D01*
X248651Y391720D01*
X249417Y390762D01*
X250160Y389785D01*
X250879Y388790D01*
X251573Y387779D01*
X252243Y386750D01*
X252886Y385705D01*
X253504Y384645D01*
X254096Y383570D01*
X254661Y382481D01*
X255199Y381378D01*
X255710Y380262D01*
X256194Y379134D01*
X256650Y377995D01*
X257077Y376844D01*
X257476Y375684D01*
X257847Y374514D01*
X258189Y373336D01*
X258502Y372149D01*
X258785Y370955D01*
X259039Y369755D01*
X259264Y368548D01*
X259459Y367337D01*
X259624Y366121D01*
X259759Y364901D01*
X259865Y363678D01*
X259940Y362453D01*
X259985Y361227D01*
X260000Y360000D01*
X259985Y358773D01*
X259940Y357547D01*
X259865Y356322D01*
X259759Y355099D01*
X259624Y353879D01*
X259459Y352663D01*
X259264Y351452D01*
X259039Y350245D01*
X258785Y349045D01*
X258502Y347851D01*
X258189Y346664D01*
X257847Y345486D01*
X257476Y344316D01*
X257077Y343156D01*
X256650Y342005D01*
X256194Y340866D01*
X255710Y339738D01*
X255199Y338622D01*
X254661Y337519D01*
X254096Y336430D01*
X253504Y335355D01*
X252886Y334295D01*
X252243Y333250D01*
X251573Y332221D01*
X250879Y331210D01*
X250160Y330215D01*
X249417Y329238D01*
X248651Y328280D01*
X247860Y327341D01*
X247048Y326422D01*
X246212Y325523D01*
X245355Y324645D01*
X244477Y323788D01*
X243578Y322952D01*
X242659Y322140D01*
X241720Y321349D01*
X240762Y320583D01*
X239785Y319840D01*
X238790Y319121D01*
X237779Y318427D01*
X236750Y317757D01*
X235705Y317114D01*
X234645Y316496D01*
X233570Y315904D01*
X232481Y315339D01*
X231378Y314801D01*
X230262Y314290D01*
X229134Y313806D01*
X227995Y313350D01*
X226844Y312923D01*
X225684Y312524D01*
X224514Y312153D01*
X223336Y311811D01*
X222149Y311498D01*
X220955Y311215D01*
X219755Y310961D01*
X218548Y310736D01*
X217337Y310541D01*
X216121Y310376D01*
X214901Y310241D01*
X213678Y310135D01*
X212453Y310060D01*
X211227Y310015D01*
X210000Y310000D01*
X208773Y310015D01*
X207547Y310060D01*
X206322Y310135D01*
X205099Y310241D01*
X203879Y310376D01*
X202663Y310541D01*
X201452Y310736D01*
X200245Y310961D01*
X199045Y311215D01*
X197851Y311498D01*
X196664Y311811D01*
X195486Y312153D01*
X194316Y312524D01*
X193156Y312923D01*
X192005Y313350D01*
X190866Y313806D01*
X189738Y314290D01*
X188622Y314801D01*
X187519Y315339D01*
X186430Y315904D01*
X185355Y316496D01*
X184295Y317114D01*
X183250Y317757D01*
X182221Y318427D01*
X181210Y319121D01*
X180215Y319840D01*
X179238Y320583D01*
X178280Y321349D01*
X177341Y322140D01*
X176422Y322952D01*
X175523Y323788D01*
X174645Y324645D01*
X173788Y325523D01*
X172952Y326422D01*
X172140Y327341D01*
X171349Y328280D01*
X170583Y329238D01*
X169840Y330215D01*
X169121Y331210D01*
X168427Y332221D01*
X167757Y333250D01*
X167114Y334295D01*
X166496Y335355D01*
X165904Y336430D01*
X165339Y337519D01*
X164801Y338622D01*
X164290Y339738D01*
X163806Y340866D01*
X163350Y342005D01*
X162923Y343156D01*
X162524Y344316D01*
X162153Y345486D01*
X161811Y346664D01*
X161498Y347851D01*
X161215Y349045D01*
X160961Y350245D01*
X160736Y351452D01*
X160541Y352663D01*
X160376Y353879D01*
X160241Y355099D01*
X160135Y356322D01*
X160060Y357547D01*
X160015Y358773D01*
X160000Y360000D01*
D11*
X409915Y360085D02*
X410085Y360085D01*
X410085Y359915D01*
X409915Y359915D01*
X409915Y360085D01*
X360085Y360085D02*
X359915Y360085D01*
X360085Y360085D02*
X360085Y359915D01*
X359915Y359915D01*
X359915Y360085D01*
X310085Y360085D02*
X309915Y360085D01*
X310085Y360085D02*
X310085Y359915D01*
X309915Y359915D01*
X309915Y360085D01*
D12*
X316820Y22930D02*
X316820Y12930D01*
X403180Y12930D02*
X403180Y22930D01*
D13*
X316820Y54340D02*
X316820Y65340D01*
X403180Y65340D02*
X403180Y54340D01*
D14*
X543330Y524770D03*
X517930Y524770D03*
X543330Y587770D03*
X517930Y587770D03*
D15*
X410350Y547256D03*
X391350Y547256D03*
X400850Y567256D03*
D16*
X588022Y531776D03*
X623022Y531776D03*
D17*
X605100Y485430D03*
X624100Y485430D03*
D16*
X168170Y566050D03*
X133170Y566050D03*
D17*
X152176Y522446D03*
X133176Y522446D03*
D16*
X133852Y212475D03*
X168852Y212475D03*
D17*
X188010Y167320D03*
X169010Y167320D03*
D16*
X593530Y212475D03*
X558530Y212475D03*
D17*
X539210Y164000D03*
X558210Y164000D03*
D18*
X499580Y56660D02*
X499580Y44660D01*
X451610Y64330D02*
X451610Y76330D01*
X499610Y115270D02*
X499610Y127270D01*
D19*
X475585Y50510D03*
X475585Y110700D03*
D20*
X410260Y526130D03*
X410260Y507130D03*
M02*
