G04 EAGLE Gerber RS-274X export*
G75*
%MOMM*%
%FSLAX34Y34*%
%LPD*%
%INTop Layer*%
%IPPOS*%
%AMOC8*
5,1,8,0,0,1.08239X$1,22.5*%
G01*
%ADD10C,0.152400*%
%ADD11R,1.600000X1.803000*%
%ADD12R,1.300000X1.500000*%
%ADD13R,1.500000X1.300000*%
%ADD14R,0.300000X1.150000*%
%ADD15C,0.127000*%
%ADD16C,1.000000*%
%ADD17C,1.100000*%
%ADD18R,0.600000X1.200000*%
%ADD19C,1.200000*%
%ADD20C,1.800000*%
%ADD21R,1.500000X1.000000*%
%ADD22R,1.000000X1.500000*%
%ADD23R,4.500000X4.500000*%
%ADD24R,0.660000X0.300000*%
%ADD25R,0.550000X1.200000*%
%ADD26R,0.500000X0.700000*%
%ADD27R,1.200000X0.600000*%
%ADD28C,0.254000*%
%ADD29C,0.508000*%
%ADD30C,0.863600*%
%ADD31C,0.609600*%

G36*
X300093Y11147D02*
X300093Y11147D01*
X300148Y11148D01*
X300213Y11172D01*
X300280Y11187D01*
X300327Y11215D01*
X300378Y11235D01*
X300432Y11278D01*
X300491Y11313D01*
X300527Y11355D01*
X300569Y11390D01*
X300606Y11448D01*
X300651Y11500D01*
X300671Y11551D01*
X300701Y11598D01*
X300717Y11664D01*
X300743Y11728D01*
X300751Y11805D01*
X300759Y11837D01*
X300757Y11858D01*
X300761Y11895D01*
X300761Y74239D01*
X330964Y74239D01*
X330984Y74242D01*
X331003Y74240D01*
X331105Y74262D01*
X331207Y74279D01*
X331224Y74288D01*
X331244Y74292D01*
X331333Y74345D01*
X331424Y74394D01*
X331438Y74408D01*
X331455Y74418D01*
X331522Y74497D01*
X331594Y74572D01*
X331602Y74590D01*
X331615Y74605D01*
X331654Y74701D01*
X331697Y74795D01*
X331699Y74815D01*
X331707Y74833D01*
X331725Y75000D01*
X331725Y125476D01*
X331722Y125496D01*
X331724Y125515D01*
X331702Y125617D01*
X331686Y125719D01*
X331676Y125736D01*
X331672Y125756D01*
X331619Y125845D01*
X331570Y125936D01*
X331556Y125950D01*
X331546Y125967D01*
X331467Y126034D01*
X331392Y126106D01*
X331374Y126114D01*
X331359Y126127D01*
X331263Y126166D01*
X331169Y126209D01*
X331149Y126211D01*
X331131Y126219D01*
X330964Y126237D01*
X327178Y126237D01*
X325987Y127428D01*
X325987Y127477D01*
X325983Y127501D01*
X325986Y127525D01*
X325964Y127622D01*
X325948Y127720D01*
X325936Y127741D01*
X325931Y127765D01*
X325879Y127850D01*
X325832Y127937D01*
X325815Y127954D01*
X325802Y127974D01*
X325726Y128038D01*
X325654Y128107D01*
X325632Y128117D01*
X325614Y128132D01*
X325521Y128168D01*
X325431Y128210D01*
X325407Y128213D01*
X325385Y128222D01*
X325285Y128226D01*
X325187Y128237D01*
X325163Y128232D01*
X325139Y128233D01*
X325044Y128206D01*
X324946Y128185D01*
X324925Y128173D01*
X324902Y128166D01*
X324821Y128110D01*
X324735Y128059D01*
X324719Y128041D01*
X324700Y128027D01*
X324640Y127948D01*
X324575Y127872D01*
X324566Y127850D01*
X324552Y127830D01*
X324491Y127674D01*
X324388Y127289D01*
X324053Y126710D01*
X323580Y126237D01*
X323001Y125902D01*
X322354Y125729D01*
X317043Y125729D01*
X317043Y135008D01*
X317040Y135028D01*
X317042Y135047D01*
X317020Y135149D01*
X317003Y135251D01*
X316994Y135268D01*
X316990Y135288D01*
X316937Y135377D01*
X316888Y135468D01*
X316874Y135482D01*
X316864Y135499D01*
X316785Y135566D01*
X316710Y135637D01*
X316692Y135646D01*
X316677Y135659D01*
X316581Y135698D01*
X316487Y135741D01*
X316467Y135743D01*
X316449Y135751D01*
X316282Y135769D01*
X315519Y135769D01*
X315519Y135771D01*
X316282Y135771D01*
X316302Y135774D01*
X316321Y135772D01*
X316423Y135794D01*
X316525Y135811D01*
X316542Y135820D01*
X316562Y135824D01*
X316651Y135877D01*
X316742Y135926D01*
X316756Y135940D01*
X316773Y135950D01*
X316840Y136029D01*
X316911Y136104D01*
X316920Y136122D01*
X316933Y136137D01*
X316972Y136233D01*
X317015Y136327D01*
X317017Y136347D01*
X317025Y136365D01*
X317043Y136532D01*
X317043Y145811D01*
X322354Y145811D01*
X323001Y145638D01*
X323580Y145303D01*
X324053Y144830D01*
X324388Y144251D01*
X324491Y143866D01*
X324501Y143844D01*
X324505Y143820D01*
X324551Y143732D01*
X324592Y143642D01*
X324608Y143624D01*
X324620Y143603D01*
X324692Y143534D01*
X324759Y143461D01*
X324780Y143450D01*
X324798Y143433D01*
X324888Y143391D01*
X324975Y143344D01*
X324999Y143340D01*
X325021Y143330D01*
X325120Y143319D01*
X325218Y143302D01*
X325242Y143305D01*
X325265Y143303D01*
X325362Y143324D01*
X325461Y143339D01*
X325482Y143350D01*
X325506Y143355D01*
X325591Y143406D01*
X325680Y143451D01*
X325696Y143469D01*
X325717Y143481D01*
X325782Y143557D01*
X325851Y143628D01*
X325861Y143650D01*
X325877Y143668D01*
X325914Y143760D01*
X325957Y143850D01*
X325960Y143874D01*
X325969Y143896D01*
X325987Y144063D01*
X325987Y144112D01*
X327178Y145303D01*
X329186Y145303D01*
X329206Y145306D01*
X329225Y145304D01*
X329327Y145326D01*
X329429Y145342D01*
X329446Y145352D01*
X329466Y145356D01*
X329555Y145409D01*
X329646Y145458D01*
X329660Y145472D01*
X329677Y145482D01*
X329744Y145561D01*
X329816Y145636D01*
X329824Y145654D01*
X329837Y145669D01*
X329876Y145765D01*
X329919Y145859D01*
X329921Y145879D01*
X329929Y145897D01*
X329947Y146064D01*
X329947Y154508D01*
X329944Y154528D01*
X329946Y154547D01*
X329924Y154649D01*
X329908Y154751D01*
X329898Y154768D01*
X329894Y154788D01*
X329841Y154877D01*
X329792Y154968D01*
X329778Y154982D01*
X329768Y154999D01*
X329689Y155066D01*
X329614Y155138D01*
X329596Y155146D01*
X329581Y155159D01*
X329485Y155198D01*
X329391Y155241D01*
X329371Y155243D01*
X329353Y155251D01*
X329186Y155269D01*
X326386Y155269D01*
X325195Y156460D01*
X325195Y156509D01*
X325191Y156533D01*
X325194Y156557D01*
X325172Y156654D01*
X325156Y156752D01*
X325144Y156773D01*
X325139Y156797D01*
X325087Y156882D01*
X325040Y156969D01*
X325023Y156986D01*
X325010Y157007D01*
X324934Y157070D01*
X324862Y157139D01*
X324840Y157149D01*
X324822Y157164D01*
X324729Y157200D01*
X324639Y157242D01*
X324615Y157245D01*
X324593Y157254D01*
X324493Y157258D01*
X324395Y157269D01*
X324371Y157264D01*
X324347Y157265D01*
X324251Y157238D01*
X324154Y157217D01*
X324133Y157205D01*
X324110Y157198D01*
X324028Y157142D01*
X323943Y157091D01*
X323927Y157073D01*
X323908Y157059D01*
X323848Y156980D01*
X323783Y156904D01*
X323774Y156882D01*
X323760Y156862D01*
X323699Y156706D01*
X323596Y156321D01*
X323261Y155742D01*
X322788Y155269D01*
X322209Y154934D01*
X321562Y154761D01*
X316251Y154761D01*
X316251Y164040D01*
X316248Y164060D01*
X316250Y164079D01*
X316228Y164181D01*
X316211Y164283D01*
X316202Y164300D01*
X316198Y164320D01*
X316145Y164409D01*
X316096Y164500D01*
X316082Y164514D01*
X316072Y164531D01*
X315993Y164598D01*
X315918Y164669D01*
X315900Y164678D01*
X315885Y164691D01*
X315789Y164730D01*
X315695Y164773D01*
X315675Y164775D01*
X315657Y164783D01*
X315490Y164801D01*
X314727Y164801D01*
X314727Y164803D01*
X315490Y164803D01*
X315510Y164806D01*
X315529Y164804D01*
X315631Y164826D01*
X315733Y164843D01*
X315750Y164852D01*
X315770Y164856D01*
X315859Y164909D01*
X315950Y164958D01*
X315964Y164972D01*
X315981Y164982D01*
X316048Y165061D01*
X316119Y165136D01*
X316128Y165154D01*
X316141Y165169D01*
X316180Y165265D01*
X316223Y165359D01*
X316225Y165379D01*
X316233Y165397D01*
X316251Y165564D01*
X316251Y174843D01*
X321562Y174843D01*
X322209Y174670D01*
X322788Y174335D01*
X323261Y173862D01*
X323596Y173283D01*
X323699Y172898D01*
X323709Y172876D01*
X323713Y172852D01*
X323759Y172764D01*
X323800Y172674D01*
X323816Y172656D01*
X323828Y172635D01*
X323899Y172566D01*
X323967Y172493D01*
X323988Y172482D01*
X324006Y172465D01*
X324096Y172423D01*
X324183Y172376D01*
X324207Y172372D01*
X324229Y172362D01*
X324328Y172351D01*
X324426Y172334D01*
X324450Y172337D01*
X324473Y172335D01*
X324570Y172356D01*
X324669Y172371D01*
X324690Y172382D01*
X324714Y172387D01*
X324799Y172438D01*
X324888Y172483D01*
X324904Y172501D01*
X324925Y172513D01*
X324990Y172589D01*
X325059Y172660D01*
X325069Y172682D01*
X325085Y172700D01*
X325122Y172792D01*
X325165Y172882D01*
X325168Y172906D01*
X325177Y172928D01*
X325195Y173095D01*
X325195Y173144D01*
X326000Y173949D01*
X326012Y173965D01*
X326027Y173977D01*
X326083Y174065D01*
X326143Y174148D01*
X326149Y174167D01*
X326160Y174184D01*
X326185Y174285D01*
X326216Y174383D01*
X326215Y174403D01*
X326220Y174423D01*
X326212Y174526D01*
X326209Y174629D01*
X326203Y174648D01*
X326201Y174668D01*
X326161Y174763D01*
X326125Y174860D01*
X326113Y174876D01*
X326105Y174894D01*
X326000Y175025D01*
X324719Y176306D01*
X324645Y176359D01*
X324575Y176419D01*
X324545Y176431D01*
X324519Y176450D01*
X324432Y176477D01*
X324347Y176511D01*
X324306Y176515D01*
X324284Y176522D01*
X324252Y176521D01*
X324181Y176529D01*
X316876Y176529D01*
X313974Y179431D01*
X311461Y181944D01*
X311461Y187978D01*
X311447Y188068D01*
X311439Y188159D01*
X311427Y188188D01*
X311422Y188220D01*
X311379Y188301D01*
X311343Y188385D01*
X311317Y188417D01*
X311306Y188438D01*
X311283Y188460D01*
X311251Y188500D01*
X311251Y202187D01*
X312442Y203378D01*
X319626Y203378D01*
X319886Y203117D01*
X319903Y203106D01*
X319915Y203090D01*
X320002Y203034D01*
X320086Y202974D01*
X320105Y202968D01*
X320122Y202957D01*
X320222Y202932D01*
X320321Y202901D01*
X320341Y202902D01*
X320361Y202897D01*
X320464Y202905D01*
X320567Y202908D01*
X320586Y202915D01*
X320606Y202916D01*
X320701Y202957D01*
X320798Y202992D01*
X320814Y203005D01*
X320832Y203012D01*
X320963Y203117D01*
X321224Y203378D01*
X321803Y203713D01*
X322450Y203886D01*
X324160Y203886D01*
X324160Y195958D01*
X324163Y195939D01*
X324161Y195919D01*
X324183Y195817D01*
X324199Y195715D01*
X324209Y195698D01*
X324213Y195678D01*
X324266Y195589D01*
X324315Y195498D01*
X324329Y195484D01*
X324339Y195467D01*
X324418Y195400D01*
X324493Y195329D01*
X324511Y195320D01*
X324526Y195307D01*
X324622Y195269D01*
X324716Y195225D01*
X324736Y195223D01*
X324754Y195215D01*
X324921Y195197D01*
X326147Y195197D01*
X326167Y195200D01*
X326186Y195198D01*
X326288Y195220D01*
X326390Y195237D01*
X326407Y195246D01*
X326427Y195250D01*
X326516Y195303D01*
X326607Y195352D01*
X326621Y195366D01*
X326638Y195376D01*
X326705Y195455D01*
X326777Y195530D01*
X326785Y195548D01*
X326798Y195563D01*
X326836Y195659D01*
X326880Y195753D01*
X326882Y195773D01*
X326890Y195791D01*
X326908Y195958D01*
X326908Y203886D01*
X328618Y203886D01*
X329265Y203713D01*
X329844Y203378D01*
X330105Y203117D01*
X330121Y203106D01*
X330134Y203090D01*
X330221Y203034D01*
X330305Y202974D01*
X330324Y202968D01*
X330340Y202957D01*
X330441Y202932D01*
X330540Y202901D01*
X330560Y202902D01*
X330579Y202897D01*
X330682Y202905D01*
X330786Y202908D01*
X330804Y202915D01*
X330824Y202916D01*
X330919Y202957D01*
X331017Y202992D01*
X331032Y203005D01*
X331051Y203012D01*
X331182Y203117D01*
X331442Y203378D01*
X338626Y203378D01*
X339817Y202187D01*
X339817Y188503D01*
X339794Y188480D01*
X339740Y188406D01*
X339681Y188337D01*
X339669Y188306D01*
X339650Y188280D01*
X339623Y188193D01*
X339589Y188108D01*
X339585Y188067D01*
X339578Y188045D01*
X339579Y188013D01*
X339571Y187942D01*
X339571Y179208D01*
X339540Y179177D01*
X339487Y179103D01*
X339427Y179033D01*
X339415Y179003D01*
X339396Y178977D01*
X339369Y178890D01*
X339335Y178805D01*
X339331Y178764D01*
X339324Y178742D01*
X339325Y178710D01*
X339317Y178639D01*
X339317Y175096D01*
X339320Y175076D01*
X339318Y175057D01*
X339340Y174955D01*
X339356Y174853D01*
X339366Y174836D01*
X339370Y174816D01*
X339423Y174727D01*
X339472Y174636D01*
X339486Y174622D01*
X339496Y174605D01*
X339575Y174538D01*
X339650Y174466D01*
X339668Y174458D01*
X339683Y174445D01*
X339779Y174406D01*
X339873Y174363D01*
X339893Y174361D01*
X339911Y174353D01*
X340078Y174335D01*
X341070Y174335D01*
X342261Y173144D01*
X342261Y156460D01*
X341070Y155269D01*
X339854Y155269D01*
X339834Y155266D01*
X339815Y155268D01*
X339713Y155246D01*
X339611Y155230D01*
X339594Y155220D01*
X339574Y155216D01*
X339485Y155163D01*
X339394Y155114D01*
X339380Y155100D01*
X339363Y155090D01*
X339296Y155011D01*
X339224Y154936D01*
X339216Y154918D01*
X339203Y154903D01*
X339164Y154807D01*
X339121Y154713D01*
X339119Y154693D01*
X339111Y154675D01*
X339093Y154508D01*
X339093Y146064D01*
X339096Y146044D01*
X339094Y146025D01*
X339116Y145923D01*
X339132Y145821D01*
X339142Y145804D01*
X339146Y145784D01*
X339199Y145695D01*
X339248Y145604D01*
X339262Y145590D01*
X339272Y145573D01*
X339351Y145506D01*
X339426Y145434D01*
X339444Y145426D01*
X339459Y145413D01*
X339555Y145374D01*
X339649Y145331D01*
X339669Y145329D01*
X339687Y145321D01*
X339854Y145303D01*
X341862Y145303D01*
X343053Y144112D01*
X343053Y127428D01*
X341862Y126237D01*
X341632Y126237D01*
X341612Y126234D01*
X341593Y126236D01*
X341491Y126214D01*
X341389Y126198D01*
X341372Y126188D01*
X341352Y126184D01*
X341263Y126131D01*
X341172Y126082D01*
X341158Y126068D01*
X341141Y126058D01*
X341074Y125979D01*
X341002Y125904D01*
X340994Y125886D01*
X340981Y125871D01*
X340942Y125775D01*
X340899Y125681D01*
X340897Y125661D01*
X340889Y125643D01*
X340871Y125476D01*
X340871Y90814D01*
X340882Y90743D01*
X340884Y90671D01*
X340902Y90622D01*
X340910Y90571D01*
X340944Y90508D01*
X340969Y90440D01*
X341001Y90400D01*
X341026Y90354D01*
X341078Y90304D01*
X341122Y90248D01*
X341166Y90220D01*
X341204Y90184D01*
X341269Y90154D01*
X341329Y90115D01*
X341380Y90103D01*
X341427Y90081D01*
X341498Y90073D01*
X341568Y90055D01*
X341620Y90059D01*
X341671Y90054D01*
X341742Y90069D01*
X341813Y90074D01*
X341861Y90095D01*
X341912Y90106D01*
X341973Y90143D01*
X342039Y90171D01*
X342095Y90215D01*
X342123Y90232D01*
X342138Y90250D01*
X342170Y90275D01*
X344859Y92965D01*
X349069Y92965D01*
X352045Y89989D01*
X352045Y85779D01*
X350828Y84562D01*
X350775Y84488D01*
X350715Y84419D01*
X350703Y84389D01*
X350684Y84363D01*
X350657Y84276D01*
X350623Y84191D01*
X350619Y84150D01*
X350612Y84128D01*
X350613Y84095D01*
X350605Y84024D01*
X350605Y82793D01*
X350616Y82723D01*
X350618Y82651D01*
X350636Y82602D01*
X350644Y82551D01*
X350678Y82487D01*
X350703Y82420D01*
X350735Y82379D01*
X350760Y82333D01*
X350812Y82284D01*
X350856Y82228D01*
X350900Y82200D01*
X350938Y82164D01*
X351003Y82134D01*
X351063Y82095D01*
X351114Y82082D01*
X351161Y82060D01*
X351232Y82052D01*
X351302Y82035D01*
X351354Y82039D01*
X351405Y82033D01*
X351476Y82048D01*
X351547Y82054D01*
X351595Y82074D01*
X351646Y82085D01*
X351707Y82122D01*
X351773Y82150D01*
X351829Y82195D01*
X351857Y82212D01*
X351872Y82229D01*
X351904Y82255D01*
X353598Y83949D01*
X353651Y84023D01*
X353711Y84092D01*
X353723Y84123D01*
X353742Y84149D01*
X353769Y84236D01*
X353803Y84321D01*
X353807Y84362D01*
X353814Y84384D01*
X353813Y84416D01*
X353821Y84487D01*
X353821Y111626D01*
X353819Y111643D01*
X353820Y111658D01*
X353806Y111724D01*
X353799Y111807D01*
X353787Y111837D01*
X353782Y111869D01*
X353770Y111892D01*
X353768Y111899D01*
X353749Y111931D01*
X353739Y111950D01*
X353703Y112033D01*
X353677Y112066D01*
X353666Y112086D01*
X353643Y112108D01*
X353598Y112164D01*
X352043Y113719D01*
X352043Y117929D01*
X355019Y120905D01*
X359229Y120905D01*
X362205Y117929D01*
X362205Y113719D01*
X360650Y112164D01*
X360597Y112091D01*
X360566Y112055D01*
X360558Y112047D01*
X360558Y112045D01*
X360537Y112021D01*
X360525Y111991D01*
X360506Y111965D01*
X360479Y111878D01*
X360476Y111869D01*
X360455Y111824D01*
X360454Y111814D01*
X360445Y111793D01*
X360441Y111752D01*
X360434Y111730D01*
X360435Y111697D01*
X360427Y111626D01*
X360427Y84836D01*
X360430Y84816D01*
X360428Y84797D01*
X360450Y84695D01*
X360466Y84593D01*
X360476Y84576D01*
X360480Y84556D01*
X360533Y84467D01*
X360582Y84376D01*
X360596Y84362D01*
X360606Y84345D01*
X360685Y84278D01*
X360760Y84206D01*
X360778Y84198D01*
X360793Y84185D01*
X360889Y84146D01*
X360983Y84103D01*
X361003Y84101D01*
X361008Y84098D01*
X362898Y82209D01*
X362956Y82167D01*
X363008Y82118D01*
X363055Y82096D01*
X363097Y82065D01*
X363166Y82044D01*
X363231Y82014D01*
X363283Y82008D01*
X363333Y81993D01*
X363404Y81995D01*
X363475Y81987D01*
X363526Y81998D01*
X363578Y81999D01*
X363646Y82024D01*
X363716Y82039D01*
X363761Y82066D01*
X363809Y82084D01*
X363865Y82129D01*
X363927Y82166D01*
X363961Y82205D01*
X364001Y82238D01*
X364040Y82298D01*
X364087Y82352D01*
X364106Y82401D01*
X364134Y82445D01*
X364152Y82514D01*
X364179Y82581D01*
X364187Y82652D01*
X364195Y82683D01*
X364193Y82706D01*
X364197Y82747D01*
X364197Y127641D01*
X364183Y127731D01*
X364175Y127822D01*
X364163Y127851D01*
X364158Y127883D01*
X364115Y127964D01*
X364079Y128048D01*
X364053Y128080D01*
X364042Y128101D01*
X364019Y128123D01*
X363974Y128179D01*
X351789Y140364D01*
X351789Y167738D01*
X356854Y172803D01*
X358206Y172803D01*
X358226Y172806D01*
X358245Y172804D01*
X358347Y172826D01*
X358449Y172842D01*
X358466Y172852D01*
X358486Y172856D01*
X358575Y172909D01*
X358666Y172958D01*
X358680Y172972D01*
X358697Y172982D01*
X358764Y173061D01*
X358836Y173136D01*
X358844Y173154D01*
X358857Y173169D01*
X358896Y173265D01*
X358900Y173275D01*
X360158Y174533D01*
X373842Y174533D01*
X375033Y173342D01*
X375033Y165658D01*
X375022Y165648D01*
X375011Y165631D01*
X374995Y165619D01*
X374939Y165532D01*
X374879Y165448D01*
X374873Y165429D01*
X374862Y165412D01*
X374837Y165311D01*
X374806Y165213D01*
X374807Y165193D01*
X374802Y165173D01*
X374810Y165070D01*
X374813Y164967D01*
X374820Y164948D01*
X374821Y164928D01*
X374862Y164833D01*
X374897Y164736D01*
X374910Y164720D01*
X374917Y164702D01*
X375022Y164571D01*
X375033Y164560D01*
X375368Y163981D01*
X375541Y163334D01*
X375541Y161499D01*
X367738Y161499D01*
X367719Y161496D01*
X367699Y161498D01*
X367597Y161476D01*
X367495Y161460D01*
X367478Y161450D01*
X367458Y161446D01*
X367369Y161393D01*
X367278Y161344D01*
X367264Y161330D01*
X367247Y161320D01*
X367180Y161241D01*
X367109Y161166D01*
X367100Y161148D01*
X367087Y161133D01*
X367049Y161037D01*
X367005Y160943D01*
X367003Y160923D01*
X366995Y160905D01*
X366977Y160738D01*
X366977Y159262D01*
X366980Y159242D01*
X366978Y159222D01*
X367000Y159121D01*
X367017Y159019D01*
X367026Y159002D01*
X367030Y158982D01*
X367083Y158893D01*
X367132Y158802D01*
X367146Y158788D01*
X367156Y158771D01*
X367235Y158704D01*
X367310Y158632D01*
X367328Y158624D01*
X367343Y158611D01*
X367440Y158572D01*
X367533Y158529D01*
X367553Y158527D01*
X367571Y158519D01*
X367738Y158501D01*
X375541Y158501D01*
X375541Y156666D01*
X375368Y156019D01*
X375033Y155440D01*
X375022Y155429D01*
X375011Y155413D01*
X374995Y155400D01*
X374939Y155313D01*
X374879Y155229D01*
X374873Y155210D01*
X374862Y155193D01*
X374837Y155093D01*
X374806Y154994D01*
X374807Y154974D01*
X374802Y154955D01*
X374810Y154852D01*
X374813Y154749D01*
X374820Y154730D01*
X374821Y154710D01*
X374862Y154615D01*
X374897Y154517D01*
X374910Y154502D01*
X374917Y154483D01*
X375022Y154352D01*
X375033Y154342D01*
X375033Y146658D01*
X373842Y145467D01*
X371064Y145467D01*
X371044Y145464D01*
X371025Y145466D01*
X370923Y145444D01*
X370821Y145428D01*
X370804Y145418D01*
X370784Y145414D01*
X370695Y145361D01*
X370604Y145312D01*
X370590Y145298D01*
X370573Y145288D01*
X370506Y145209D01*
X370434Y145134D01*
X370426Y145116D01*
X370413Y145101D01*
X370374Y145005D01*
X370331Y144911D01*
X370329Y144891D01*
X370321Y144873D01*
X370303Y144706D01*
X370303Y143293D01*
X370317Y143203D01*
X370325Y143112D01*
X370337Y143083D01*
X370342Y143051D01*
X370385Y142970D01*
X370421Y142886D01*
X370447Y142854D01*
X370458Y142833D01*
X370481Y142811D01*
X370526Y142755D01*
X374881Y138400D01*
X374955Y138347D01*
X375024Y138287D01*
X375055Y138275D01*
X375081Y138256D01*
X375168Y138229D01*
X375253Y138195D01*
X375294Y138191D01*
X375316Y138184D01*
X375348Y138185D01*
X375419Y138177D01*
X377009Y138177D01*
X379985Y135201D01*
X379985Y130991D01*
X377009Y128015D01*
X372799Y128015D01*
X372102Y128713D01*
X372044Y128754D01*
X371992Y128804D01*
X371945Y128826D01*
X371903Y128856D01*
X371834Y128877D01*
X371769Y128907D01*
X371717Y128913D01*
X371667Y128928D01*
X371596Y128927D01*
X371525Y128934D01*
X371474Y128923D01*
X371422Y128922D01*
X371354Y128897D01*
X371284Y128882D01*
X371239Y128855D01*
X371191Y128838D01*
X371135Y128793D01*
X371073Y128756D01*
X371039Y128716D01*
X370999Y128684D01*
X370960Y128624D01*
X370913Y128569D01*
X370894Y128521D01*
X370866Y128477D01*
X370848Y128407D01*
X370821Y128341D01*
X370813Y128270D01*
X370805Y128238D01*
X370807Y128215D01*
X370803Y128174D01*
X370803Y75000D01*
X370806Y74980D01*
X370804Y74961D01*
X370826Y74859D01*
X370842Y74757D01*
X370852Y74740D01*
X370856Y74720D01*
X370909Y74631D01*
X370958Y74540D01*
X370972Y74526D01*
X370982Y74509D01*
X371061Y74442D01*
X371136Y74371D01*
X371154Y74362D01*
X371169Y74349D01*
X371265Y74310D01*
X371359Y74267D01*
X371379Y74265D01*
X371397Y74257D01*
X371564Y74239D01*
X373380Y74239D01*
X373400Y74242D01*
X373419Y74240D01*
X373521Y74262D01*
X373623Y74279D01*
X373640Y74288D01*
X373660Y74292D01*
X373749Y74345D01*
X373840Y74394D01*
X373854Y74408D01*
X373871Y74418D01*
X373938Y74497D01*
X374010Y74572D01*
X374018Y74590D01*
X374031Y74605D01*
X374070Y74701D01*
X374113Y74795D01*
X374115Y74815D01*
X374123Y74833D01*
X374141Y75000D01*
X374141Y93316D01*
X399518Y118693D01*
X404840Y118693D01*
X404860Y118696D01*
X404879Y118694D01*
X404981Y118716D01*
X405083Y118732D01*
X405100Y118742D01*
X405120Y118746D01*
X405209Y118799D01*
X405300Y118848D01*
X405314Y118862D01*
X405331Y118872D01*
X405398Y118951D01*
X405470Y119026D01*
X405478Y119044D01*
X405491Y119059D01*
X405530Y119155D01*
X405573Y119249D01*
X405575Y119269D01*
X405583Y119287D01*
X405601Y119454D01*
X405601Y122732D01*
X406792Y123923D01*
X406841Y123923D01*
X406865Y123927D01*
X406889Y123924D01*
X406986Y123946D01*
X407084Y123962D01*
X407105Y123974D01*
X407129Y123979D01*
X407214Y124031D01*
X407301Y124078D01*
X407318Y124095D01*
X407338Y124108D01*
X407402Y124184D01*
X407471Y124256D01*
X407481Y124278D01*
X407496Y124296D01*
X407532Y124389D01*
X407574Y124479D01*
X407577Y124503D01*
X407586Y124525D01*
X407590Y124625D01*
X407601Y124723D01*
X407596Y124747D01*
X407597Y124771D01*
X407570Y124866D01*
X407549Y124964D01*
X407537Y124985D01*
X407530Y125008D01*
X407474Y125089D01*
X407423Y125175D01*
X407405Y125191D01*
X407391Y125210D01*
X407312Y125270D01*
X407236Y125335D01*
X407214Y125344D01*
X407194Y125358D01*
X407038Y125419D01*
X406653Y125522D01*
X406074Y125857D01*
X405601Y126330D01*
X405266Y126909D01*
X405093Y127556D01*
X405093Y132867D01*
X414372Y132867D01*
X414392Y132870D01*
X414411Y132868D01*
X414513Y132890D01*
X414615Y132907D01*
X414632Y132916D01*
X414652Y132920D01*
X414741Y132973D01*
X414832Y133022D01*
X414846Y133036D01*
X414863Y133046D01*
X414930Y133125D01*
X415001Y133200D01*
X415010Y133218D01*
X415023Y133233D01*
X415062Y133329D01*
X415105Y133423D01*
X415107Y133443D01*
X415115Y133461D01*
X415133Y133628D01*
X415133Y134391D01*
X415135Y134391D01*
X415135Y133628D01*
X415138Y133608D01*
X415136Y133589D01*
X415158Y133487D01*
X415175Y133385D01*
X415184Y133368D01*
X415188Y133348D01*
X415241Y133259D01*
X415290Y133168D01*
X415304Y133154D01*
X415314Y133137D01*
X415393Y133070D01*
X415468Y132999D01*
X415486Y132990D01*
X415501Y132977D01*
X415597Y132938D01*
X415691Y132895D01*
X415711Y132893D01*
X415729Y132885D01*
X415896Y132867D01*
X425175Y132867D01*
X425175Y127556D01*
X425002Y126909D01*
X424667Y126330D01*
X424194Y125857D01*
X423615Y125522D01*
X423230Y125419D01*
X423208Y125409D01*
X423184Y125405D01*
X423096Y125359D01*
X423006Y125318D01*
X422988Y125302D01*
X422967Y125290D01*
X422898Y125219D01*
X422825Y125151D01*
X422814Y125130D01*
X422797Y125112D01*
X422755Y125022D01*
X422708Y124935D01*
X422704Y124911D01*
X422694Y124889D01*
X422683Y124790D01*
X422666Y124692D01*
X422669Y124668D01*
X422667Y124645D01*
X422688Y124548D01*
X422703Y124449D01*
X422714Y124428D01*
X422719Y124404D01*
X422770Y124319D01*
X422815Y124230D01*
X422833Y124214D01*
X422845Y124193D01*
X422921Y124128D01*
X422992Y124059D01*
X423014Y124049D01*
X423032Y124033D01*
X423124Y123996D01*
X423214Y123953D01*
X423238Y123950D01*
X423260Y123941D01*
X423427Y123923D01*
X423476Y123923D01*
X424667Y122732D01*
X424667Y108048D01*
X423476Y106857D01*
X406792Y106857D01*
X405601Y108048D01*
X405601Y111326D01*
X405598Y111346D01*
X405600Y111365D01*
X405578Y111467D01*
X405562Y111569D01*
X405552Y111586D01*
X405548Y111606D01*
X405495Y111695D01*
X405446Y111786D01*
X405432Y111800D01*
X405422Y111817D01*
X405343Y111884D01*
X405268Y111956D01*
X405250Y111964D01*
X405235Y111977D01*
X405139Y112016D01*
X405045Y112059D01*
X405025Y112061D01*
X405007Y112069D01*
X404840Y112087D01*
X402569Y112087D01*
X402479Y112073D01*
X402388Y112065D01*
X402359Y112053D01*
X402327Y112048D01*
X402246Y112005D01*
X402162Y111969D01*
X402130Y111943D01*
X402109Y111932D01*
X402087Y111909D01*
X402031Y111864D01*
X393067Y102900D01*
X393025Y102842D01*
X392976Y102790D01*
X392954Y102743D01*
X392923Y102701D01*
X392902Y102632D01*
X392872Y102567D01*
X392866Y102515D01*
X392851Y102465D01*
X392853Y102394D01*
X392845Y102323D01*
X392856Y102272D01*
X392857Y102220D01*
X392882Y102152D01*
X392897Y102082D01*
X392924Y102037D01*
X392942Y101989D01*
X392987Y101933D01*
X393024Y101871D01*
X393063Y101837D01*
X393096Y101797D01*
X393156Y101758D01*
X393210Y101711D01*
X393259Y101692D01*
X393303Y101664D01*
X393372Y101646D01*
X393439Y101619D01*
X393510Y101611D01*
X393541Y101603D01*
X393564Y101605D01*
X393605Y101601D01*
X429083Y101601D01*
X429173Y101615D01*
X429264Y101623D01*
X429293Y101635D01*
X429325Y101640D01*
X429406Y101683D01*
X429490Y101719D01*
X429522Y101745D01*
X429543Y101756D01*
X429565Y101779D01*
X429621Y101824D01*
X450452Y122655D01*
X450505Y122729D01*
X450565Y122799D01*
X450577Y122829D01*
X450596Y122855D01*
X450623Y122942D01*
X450657Y123027D01*
X450661Y123068D01*
X450668Y123090D01*
X450667Y123122D01*
X450675Y123193D01*
X450675Y166372D01*
X450661Y166462D01*
X450653Y166553D01*
X450641Y166583D01*
X450636Y166615D01*
X450593Y166696D01*
X450557Y166779D01*
X450531Y166812D01*
X450520Y166832D01*
X450497Y166854D01*
X450452Y166910D01*
X449864Y167499D01*
X448897Y169833D01*
X448897Y172359D01*
X449864Y174693D01*
X450452Y175282D01*
X450505Y175356D01*
X450565Y175425D01*
X450577Y175455D01*
X450596Y175481D01*
X450622Y175568D01*
X450657Y175653D01*
X450661Y175694D01*
X450668Y175716D01*
X450667Y175749D01*
X450675Y175820D01*
X450675Y193744D01*
X488980Y232049D01*
X489033Y232123D01*
X489093Y232193D01*
X489105Y232223D01*
X489124Y232249D01*
X489151Y232336D01*
X489185Y232421D01*
X489189Y232462D01*
X489196Y232484D01*
X489195Y232516D01*
X489203Y232587D01*
X489203Y238862D01*
X489189Y238952D01*
X489181Y239043D01*
X489169Y239073D01*
X489164Y239105D01*
X489121Y239186D01*
X489085Y239269D01*
X489059Y239302D01*
X489048Y239322D01*
X489025Y239344D01*
X488980Y239400D01*
X488392Y239989D01*
X487425Y242323D01*
X487425Y244849D01*
X488392Y247183D01*
X490179Y248970D01*
X492513Y249937D01*
X495039Y249937D01*
X497373Y248970D01*
X499160Y247183D01*
X500127Y244849D01*
X500127Y242323D01*
X499160Y239989D01*
X498572Y239400D01*
X498519Y239326D01*
X498459Y239257D01*
X498447Y239227D01*
X498428Y239201D01*
X498401Y239114D01*
X498367Y239029D01*
X498363Y238988D01*
X498356Y238966D01*
X498357Y238933D01*
X498349Y238862D01*
X498349Y228484D01*
X460044Y190179D01*
X459991Y190105D01*
X459931Y190035D01*
X459919Y190005D01*
X459900Y189979D01*
X459873Y189892D01*
X459839Y189807D01*
X459835Y189766D01*
X459828Y189744D01*
X459829Y189712D01*
X459821Y189641D01*
X459821Y175820D01*
X459835Y175730D01*
X459843Y175639D01*
X459855Y175609D01*
X459860Y175577D01*
X459903Y175496D01*
X459939Y175413D01*
X459965Y175380D01*
X459976Y175360D01*
X459999Y175338D01*
X460044Y175282D01*
X460632Y174693D01*
X461599Y172359D01*
X461599Y169833D01*
X460632Y167499D01*
X460044Y166910D01*
X459991Y166836D01*
X459931Y166767D01*
X459919Y166737D01*
X459900Y166711D01*
X459873Y166624D01*
X459839Y166539D01*
X459835Y166498D01*
X459828Y166476D01*
X459829Y166443D01*
X459821Y166372D01*
X459821Y124049D01*
X459835Y123959D01*
X459843Y123868D01*
X459855Y123839D01*
X459860Y123807D01*
X459903Y123726D01*
X459939Y123642D01*
X459965Y123610D01*
X459976Y123589D01*
X459999Y123567D01*
X460044Y123511D01*
X460249Y123306D01*
X460249Y119518D01*
X457347Y116616D01*
X433186Y92455D01*
X396011Y92455D01*
X395921Y92441D01*
X395830Y92433D01*
X395801Y92421D01*
X395769Y92416D01*
X395688Y92373D01*
X395604Y92337D01*
X395572Y92311D01*
X395551Y92300D01*
X395529Y92277D01*
X395473Y92232D01*
X389098Y85857D01*
X389045Y85783D01*
X388985Y85713D01*
X388973Y85683D01*
X388954Y85657D01*
X388927Y85570D01*
X388893Y85485D01*
X388889Y85444D01*
X388882Y85422D01*
X388883Y85390D01*
X388875Y85319D01*
X388875Y75000D01*
X388878Y74980D01*
X388876Y74961D01*
X388898Y74859D01*
X388914Y74757D01*
X388924Y74740D01*
X388928Y74720D01*
X388981Y74631D01*
X389030Y74540D01*
X389044Y74526D01*
X389054Y74509D01*
X389133Y74442D01*
X389208Y74371D01*
X389226Y74362D01*
X389241Y74349D01*
X389337Y74310D01*
X389431Y74267D01*
X389451Y74265D01*
X389469Y74257D01*
X389636Y74239D01*
X419239Y74239D01*
X419239Y12194D01*
X419253Y12107D01*
X419259Y12019D01*
X419273Y11986D01*
X419279Y11951D01*
X419320Y11874D01*
X419354Y11792D01*
X419377Y11765D01*
X419394Y11734D01*
X419457Y11673D01*
X419516Y11607D01*
X419546Y11589D01*
X419572Y11565D01*
X419652Y11528D01*
X419728Y11483D01*
X419763Y11476D01*
X419795Y11461D01*
X419883Y11451D01*
X419969Y11434D01*
X420015Y11437D01*
X420039Y11434D01*
X420070Y11441D01*
X420136Y11445D01*
X441307Y15303D01*
X441333Y15312D01*
X441384Y15321D01*
X476318Y25490D01*
X476343Y25502D01*
X476392Y25516D01*
X500108Y35161D01*
X500193Y35213D01*
X500281Y35260D01*
X500297Y35277D01*
X500317Y35289D01*
X500382Y35366D01*
X500450Y35438D01*
X500460Y35459D01*
X500475Y35478D01*
X500512Y35570D01*
X500554Y35661D01*
X500557Y35685D01*
X500565Y35707D01*
X500570Y35806D01*
X500581Y35905D01*
X500576Y35929D01*
X500577Y35952D01*
X500550Y36048D01*
X500529Y36146D01*
X500517Y36166D01*
X500510Y36189D01*
X500454Y36271D01*
X500403Y36357D01*
X500385Y36372D01*
X500371Y36392D01*
X500292Y36452D01*
X500216Y36517D01*
X500194Y36526D01*
X500175Y36540D01*
X500080Y36571D01*
X499987Y36609D01*
X499958Y36612D01*
X499941Y36618D01*
X499909Y36618D01*
X499821Y36627D01*
X497982Y36627D01*
X495030Y37850D01*
X492770Y40110D01*
X491547Y43062D01*
X491547Y58258D01*
X492770Y61210D01*
X495030Y63470D01*
X497982Y64693D01*
X501178Y64693D01*
X504130Y63470D01*
X506390Y61210D01*
X507613Y58258D01*
X507613Y43062D01*
X506390Y40110D01*
X505016Y38736D01*
X504961Y38659D01*
X504900Y38586D01*
X504889Y38560D01*
X504873Y38536D01*
X504845Y38446D01*
X504810Y38357D01*
X504809Y38329D01*
X504800Y38301D01*
X504803Y38206D01*
X504798Y38112D01*
X504806Y38084D01*
X504807Y38055D01*
X504839Y37966D01*
X504865Y37875D01*
X504881Y37851D01*
X504891Y37824D01*
X504950Y37750D01*
X505004Y37672D01*
X505027Y37655D01*
X505045Y37632D01*
X505125Y37581D01*
X505200Y37524D01*
X505227Y37515D01*
X505252Y37499D01*
X505344Y37476D01*
X505434Y37446D01*
X505462Y37446D01*
X505490Y37439D01*
X505585Y37447D01*
X505680Y37447D01*
X505714Y37457D01*
X505735Y37458D01*
X505766Y37471D01*
X505841Y37493D01*
X510096Y39223D01*
X510120Y39237D01*
X510167Y39256D01*
X542284Y56356D01*
X542305Y56373D01*
X542351Y56397D01*
X572538Y76708D01*
X572558Y76727D01*
X572601Y76755D01*
X600540Y100063D01*
X600558Y100084D01*
X600598Y100117D01*
X625992Y126174D01*
X626008Y126196D01*
X626044Y126232D01*
X648625Y154762D01*
X648638Y154786D01*
X648670Y154826D01*
X668198Y185527D01*
X668208Y185552D01*
X668236Y185595D01*
X684504Y218141D01*
X684512Y218167D01*
X684535Y218213D01*
X697370Y252259D01*
X697375Y252285D01*
X697394Y252333D01*
X706660Y287518D01*
X706662Y287546D01*
X706676Y287595D01*
X712275Y323546D01*
X712275Y323573D01*
X712283Y323624D01*
X714156Y359961D01*
X714153Y359988D01*
X714156Y360039D01*
X712283Y396376D01*
X712277Y396402D01*
X712275Y396454D01*
X706676Y432405D01*
X706667Y432431D01*
X706660Y432482D01*
X697394Y467667D01*
X697383Y467692D01*
X697370Y467742D01*
X684535Y501787D01*
X684521Y501811D01*
X684504Y501859D01*
X668236Y534405D01*
X668220Y534427D01*
X668198Y534473D01*
X648670Y565174D01*
X648652Y565194D01*
X648625Y565238D01*
X626044Y593768D01*
X626024Y593786D01*
X625992Y593826D01*
X600598Y619883D01*
X600576Y619900D01*
X600540Y619937D01*
X572601Y643245D01*
X572577Y643258D01*
X572538Y643292D01*
X542351Y663603D01*
X542326Y663615D01*
X542283Y663644D01*
X510167Y680744D01*
X510142Y680752D01*
X510096Y680777D01*
X476392Y694484D01*
X476366Y694490D01*
X476318Y694510D01*
X441383Y704679D01*
X441356Y704682D01*
X441307Y704697D01*
X405512Y711220D01*
X405485Y711220D01*
X405434Y711230D01*
X369158Y714038D01*
X369131Y714036D01*
X369080Y714040D01*
X332707Y713103D01*
X332680Y713098D01*
X332629Y713097D01*
X296545Y708425D01*
X296519Y708417D01*
X296468Y708411D01*
X261056Y700054D01*
X261031Y700044D01*
X260981Y700032D01*
X226616Y688078D01*
X226592Y688065D01*
X226543Y688049D01*
X193589Y672625D01*
X193567Y672609D01*
X193520Y672588D01*
X162327Y653857D01*
X162306Y653840D01*
X162262Y653813D01*
X133160Y631975D01*
X133141Y631955D01*
X133100Y631925D01*
X106398Y607209D01*
X106381Y607188D01*
X106343Y607153D01*
X82323Y579823D01*
X82309Y579800D01*
X82275Y579762D01*
X61193Y550107D01*
X61181Y550083D01*
X61151Y550041D01*
X43229Y518376D01*
X43220Y518350D01*
X43194Y518306D01*
X28624Y484966D01*
X28617Y484940D01*
X28596Y484893D01*
X17531Y450231D01*
X17527Y450204D01*
X17511Y450155D01*
X10069Y414540D01*
X10067Y414513D01*
X10056Y414463D01*
X6315Y378271D01*
X6317Y378243D01*
X6311Y378192D01*
X6311Y341808D01*
X6316Y341781D01*
X6315Y341729D01*
X10056Y305537D01*
X10064Y305511D01*
X10069Y305460D01*
X17511Y269845D01*
X17521Y269819D01*
X17531Y269769D01*
X28596Y235107D01*
X28609Y235083D01*
X28624Y235034D01*
X43194Y201694D01*
X43209Y201671D01*
X43229Y201624D01*
X61151Y169959D01*
X61168Y169938D01*
X61193Y169893D01*
X82275Y140238D01*
X82294Y140219D01*
X82323Y140177D01*
X106343Y112847D01*
X106364Y112829D01*
X106398Y112791D01*
X133100Y88075D01*
X133123Y88060D01*
X133160Y88025D01*
X162262Y66187D01*
X162286Y66174D01*
X162327Y66143D01*
X165010Y64532D01*
X166278Y63771D01*
X166278Y63770D01*
X167545Y63009D01*
X167546Y63009D01*
X168813Y62248D01*
X173884Y59203D01*
X175152Y58442D01*
X176420Y57681D01*
X176420Y57680D01*
X181491Y54636D01*
X181491Y54635D01*
X182759Y53874D01*
X184026Y53113D01*
X185294Y52352D01*
X190365Y49307D01*
X191633Y48546D01*
X191633Y48545D01*
X192901Y47784D01*
X193520Y47412D01*
X193546Y47402D01*
X193589Y47375D01*
X226543Y31951D01*
X226569Y31944D01*
X226616Y31922D01*
X260981Y19968D01*
X261008Y19963D01*
X261056Y19946D01*
X296468Y11589D01*
X296495Y11587D01*
X296545Y11575D01*
X299902Y11140D01*
X299971Y11142D01*
X300039Y11135D01*
X300093Y11147D01*
G37*
%LPC*%
G36*
X377848Y217507D02*
X377848Y217507D01*
X376657Y218698D01*
X376657Y232382D01*
X377900Y233625D01*
X377906Y233626D01*
X377995Y233679D01*
X378086Y233728D01*
X378100Y233742D01*
X378117Y233752D01*
X378184Y233831D01*
X378256Y233906D01*
X378264Y233924D01*
X378277Y233939D01*
X378316Y234035D01*
X378359Y234129D01*
X378361Y234149D01*
X378369Y234167D01*
X378387Y234334D01*
X378387Y237516D01*
X397666Y256795D01*
X401415Y256795D01*
X401505Y256809D01*
X401596Y256817D01*
X401625Y256829D01*
X401657Y256834D01*
X401738Y256877D01*
X401822Y256913D01*
X401854Y256939D01*
X401875Y256950D01*
X401897Y256973D01*
X401953Y257018D01*
X413668Y268733D01*
X464915Y268733D01*
X465005Y268747D01*
X465096Y268755D01*
X465125Y268767D01*
X465157Y268772D01*
X465238Y268815D01*
X465322Y268851D01*
X465354Y268877D01*
X465375Y268888D01*
X465397Y268911D01*
X465453Y268956D01*
X468914Y272417D01*
X468967Y272491D01*
X469027Y272560D01*
X469039Y272591D01*
X469058Y272617D01*
X469085Y272704D01*
X469119Y272789D01*
X469123Y272830D01*
X469130Y272852D01*
X469129Y272884D01*
X469137Y272955D01*
X469137Y284321D01*
X469123Y284411D01*
X469115Y284502D01*
X469103Y284531D01*
X469098Y284563D01*
X469055Y284644D01*
X469019Y284728D01*
X468993Y284760D01*
X468982Y284781D01*
X468959Y284803D01*
X468914Y284859D01*
X443355Y310418D01*
X441197Y312576D01*
X441197Y368649D01*
X441183Y368739D01*
X441175Y368830D01*
X441163Y368859D01*
X441158Y368891D01*
X441115Y368972D01*
X441079Y369056D01*
X441053Y369088D01*
X441042Y369109D01*
X441019Y369131D01*
X440974Y369187D01*
X431037Y379124D01*
X431037Y522830D01*
X440710Y532503D01*
X442206Y532503D01*
X442226Y532506D01*
X442245Y532504D01*
X442347Y532526D01*
X442449Y532542D01*
X442466Y532552D01*
X442486Y532556D01*
X442575Y532609D01*
X442666Y532658D01*
X442680Y532672D01*
X442697Y532682D01*
X442764Y532761D01*
X442836Y532836D01*
X442844Y532854D01*
X442857Y532869D01*
X442896Y532965D01*
X442939Y533059D01*
X442941Y533079D01*
X442949Y533097D01*
X442967Y533264D01*
X442967Y535045D01*
X443020Y535127D01*
X443081Y535211D01*
X443086Y535230D01*
X443097Y535247D01*
X443122Y535347D01*
X443153Y535446D01*
X443152Y535466D01*
X443157Y535486D01*
X443149Y535589D01*
X443147Y535692D01*
X443140Y535711D01*
X443138Y535731D01*
X443098Y535826D01*
X443062Y535923D01*
X443050Y535939D01*
X443042Y535957D01*
X442967Y536050D01*
X442967Y547745D01*
X443020Y547827D01*
X443081Y547911D01*
X443086Y547930D01*
X443097Y547947D01*
X443122Y548047D01*
X443153Y548146D01*
X443152Y548166D01*
X443157Y548186D01*
X443149Y548289D01*
X443147Y548392D01*
X443140Y548411D01*
X443138Y548431D01*
X443098Y548526D01*
X443062Y548623D01*
X443050Y548639D01*
X443042Y548657D01*
X442967Y548750D01*
X442967Y560445D01*
X443020Y560527D01*
X443081Y560611D01*
X443086Y560630D01*
X443097Y560647D01*
X443122Y560747D01*
X443153Y560846D01*
X443152Y560866D01*
X443157Y560886D01*
X443149Y560989D01*
X443147Y561092D01*
X443140Y561111D01*
X443138Y561131D01*
X443098Y561226D01*
X443062Y561323D01*
X443050Y561339D01*
X443042Y561357D01*
X442967Y561450D01*
X442967Y573235D01*
X442949Y573348D01*
X442933Y573462D01*
X442929Y573472D01*
X442928Y573478D01*
X442917Y573498D01*
X442865Y573616D01*
X442632Y574019D01*
X442459Y574666D01*
X442459Y578477D01*
X451738Y578477D01*
X451758Y578480D01*
X451777Y578478D01*
X451879Y578500D01*
X451981Y578517D01*
X451998Y578526D01*
X452018Y578530D01*
X452107Y578583D01*
X452198Y578632D01*
X452212Y578646D01*
X452229Y578656D01*
X452296Y578735D01*
X452367Y578810D01*
X452376Y578828D01*
X452389Y578843D01*
X452428Y578939D01*
X452471Y579033D01*
X452473Y579053D01*
X452481Y579071D01*
X452499Y579238D01*
X452499Y580001D01*
X452501Y580001D01*
X452501Y579238D01*
X452504Y579218D01*
X452502Y579199D01*
X452524Y579097D01*
X452541Y578995D01*
X452550Y578978D01*
X452554Y578958D01*
X452607Y578869D01*
X452656Y578778D01*
X452670Y578764D01*
X452680Y578747D01*
X452759Y578680D01*
X452834Y578609D01*
X452852Y578600D01*
X452867Y578587D01*
X452963Y578548D01*
X453057Y578505D01*
X453077Y578503D01*
X453095Y578495D01*
X453262Y578477D01*
X462541Y578477D01*
X462541Y574666D01*
X462435Y574271D01*
X462430Y574223D01*
X462416Y574177D01*
X462418Y574101D01*
X462410Y574026D01*
X462421Y573979D01*
X462422Y573931D01*
X462448Y573860D01*
X462465Y573786D01*
X462490Y573745D01*
X462507Y573700D01*
X462554Y573641D01*
X462594Y573576D01*
X462631Y573546D01*
X462661Y573508D01*
X462724Y573467D01*
X462782Y573418D01*
X462827Y573401D01*
X462867Y573375D01*
X462941Y573357D01*
X463012Y573329D01*
X463059Y573327D01*
X463106Y573315D01*
X463182Y573321D01*
X463257Y573317D01*
X463303Y573330D01*
X463351Y573334D01*
X463421Y573364D01*
X463494Y573384D01*
X463533Y573412D01*
X463578Y573430D01*
X463678Y573511D01*
X463697Y573524D01*
X463701Y573529D01*
X463708Y573535D01*
X492028Y601855D01*
X492081Y601929D01*
X492141Y601998D01*
X492153Y602029D01*
X492172Y602055D01*
X492199Y602142D01*
X492233Y602227D01*
X492237Y602268D01*
X492244Y602290D01*
X492243Y602322D01*
X492251Y602393D01*
X492251Y664559D01*
X492237Y664649D01*
X492229Y664740D01*
X492217Y664769D01*
X492212Y664801D01*
X492169Y664882D01*
X492133Y664966D01*
X492107Y664998D01*
X492096Y665019D01*
X492073Y665041D01*
X492028Y665097D01*
X476121Y681004D01*
X476047Y681057D01*
X475978Y681117D01*
X475947Y681129D01*
X475921Y681148D01*
X475834Y681175D01*
X475749Y681209D01*
X475708Y681213D01*
X475686Y681220D01*
X475654Y681219D01*
X475583Y681227D01*
X445814Y681227D01*
X445794Y681224D01*
X445775Y681226D01*
X445673Y681204D01*
X445571Y681188D01*
X445554Y681178D01*
X445534Y681174D01*
X445445Y681121D01*
X445354Y681072D01*
X445340Y681058D01*
X445323Y681048D01*
X445256Y680969D01*
X445184Y680894D01*
X445176Y680876D01*
X445163Y680861D01*
X445124Y680765D01*
X445081Y680671D01*
X445079Y680651D01*
X445071Y680633D01*
X445053Y680466D01*
X445053Y677178D01*
X443862Y675987D01*
X429178Y675987D01*
X427987Y677178D01*
X427987Y693862D01*
X429178Y695053D01*
X443862Y695053D01*
X445053Y693862D01*
X445053Y688594D01*
X445056Y688574D01*
X445054Y688555D01*
X445076Y688453D01*
X445092Y688351D01*
X445102Y688334D01*
X445106Y688314D01*
X445159Y688225D01*
X445208Y688134D01*
X445222Y688120D01*
X445232Y688103D01*
X445311Y688036D01*
X445386Y687964D01*
X445404Y687956D01*
X445419Y687943D01*
X445515Y687904D01*
X445609Y687861D01*
X445629Y687859D01*
X445647Y687851D01*
X445814Y687833D01*
X478634Y687833D01*
X498857Y667610D01*
X498857Y599342D01*
X489666Y590151D01*
X489609Y590072D01*
X489547Y589997D01*
X489538Y589973D01*
X489522Y589951D01*
X489494Y589858D01*
X489459Y589767D01*
X489458Y589741D01*
X489450Y589716D01*
X489453Y589619D01*
X489448Y589522D01*
X489456Y589497D01*
X489456Y589470D01*
X489490Y589379D01*
X489517Y589286D01*
X489532Y589264D01*
X489541Y589239D01*
X489602Y589163D01*
X489657Y589083D01*
X489678Y589068D01*
X489695Y589047D01*
X489776Y588995D01*
X489855Y588937D01*
X489879Y588929D01*
X489901Y588914D01*
X489996Y588891D01*
X490088Y588860D01*
X490115Y588861D01*
X490140Y588854D01*
X490237Y588862D01*
X490334Y588863D01*
X490366Y588872D01*
X490385Y588873D01*
X490415Y588886D01*
X490496Y588910D01*
X492005Y589535D01*
X494531Y589535D01*
X496865Y588568D01*
X498652Y586781D01*
X499619Y584447D01*
X499619Y581921D01*
X498652Y579587D01*
X496865Y577800D01*
X494531Y576833D01*
X491903Y576833D01*
X491813Y576819D01*
X491722Y576811D01*
X491693Y576799D01*
X491661Y576794D01*
X491580Y576751D01*
X491496Y576715D01*
X491464Y576689D01*
X491443Y576678D01*
X491421Y576655D01*
X491365Y576610D01*
X466052Y551297D01*
X462794Y551297D01*
X462774Y551294D01*
X462755Y551296D01*
X462653Y551274D01*
X462551Y551258D01*
X462534Y551248D01*
X462514Y551244D01*
X462425Y551191D01*
X462334Y551142D01*
X462320Y551128D01*
X462303Y551118D01*
X462236Y551039D01*
X462164Y550964D01*
X462156Y550946D01*
X462143Y550931D01*
X462104Y550835D01*
X462061Y550741D01*
X462059Y550721D01*
X462051Y550703D01*
X462033Y550536D01*
X462033Y548755D01*
X461980Y548672D01*
X461919Y548589D01*
X461914Y548570D01*
X461903Y548553D01*
X461878Y548452D01*
X461847Y548353D01*
X461848Y548333D01*
X461843Y548314D01*
X461851Y548211D01*
X461853Y548108D01*
X461860Y548089D01*
X461862Y548069D01*
X461902Y547974D01*
X461938Y547877D01*
X461950Y547861D01*
X461958Y547843D01*
X462033Y547750D01*
X462033Y545964D01*
X462036Y545944D01*
X462034Y545925D01*
X462056Y545823D01*
X462072Y545721D01*
X462082Y545704D01*
X462086Y545684D01*
X462139Y545595D01*
X462188Y545504D01*
X462202Y545490D01*
X462212Y545473D01*
X462291Y545406D01*
X462366Y545334D01*
X462384Y545326D01*
X462399Y545313D01*
X462495Y545274D01*
X462589Y545231D01*
X462609Y545229D01*
X462627Y545221D01*
X462794Y545203D01*
X464292Y545203D01*
X491491Y518004D01*
X491491Y417897D01*
X489333Y415739D01*
X484561Y410968D01*
X484505Y410889D01*
X484443Y410814D01*
X484433Y410789D01*
X484418Y410768D01*
X484389Y410675D01*
X484354Y410584D01*
X484353Y410558D01*
X484346Y410533D01*
X484348Y410436D01*
X484344Y410338D01*
X484351Y410313D01*
X484352Y410287D01*
X484385Y410195D01*
X484413Y410102D01*
X484427Y410081D01*
X484436Y410056D01*
X484497Y409980D01*
X484553Y409900D01*
X484574Y409884D01*
X484590Y409864D01*
X484672Y409811D01*
X484750Y409753D01*
X484775Y409745D01*
X484797Y409731D01*
X484891Y409707D01*
X484984Y409677D01*
X485010Y409677D01*
X485036Y409671D01*
X485132Y409679D01*
X485230Y409679D01*
X485261Y409689D01*
X485281Y409690D01*
X485311Y409703D01*
X485391Y409726D01*
X495548Y413934D01*
X510000Y415836D01*
X524452Y413934D01*
X537918Y408355D01*
X549482Y399482D01*
X558355Y387918D01*
X563934Y374452D01*
X565836Y360000D01*
X563934Y345548D01*
X558355Y332082D01*
X549482Y320518D01*
X537918Y311645D01*
X524452Y306066D01*
X510000Y304164D01*
X495548Y306066D01*
X482082Y311645D01*
X470518Y320518D01*
X461645Y332082D01*
X456893Y343552D01*
X456842Y343635D01*
X456796Y343721D01*
X456777Y343739D01*
X456764Y343761D01*
X456689Y343823D01*
X456618Y343890D01*
X456594Y343902D01*
X456574Y343918D01*
X456483Y343953D01*
X456395Y343994D01*
X456369Y343997D01*
X456345Y344006D01*
X456247Y344010D01*
X456151Y344021D01*
X456125Y344016D01*
X456099Y344017D01*
X456005Y343990D01*
X455910Y343969D01*
X455888Y343956D01*
X455863Y343948D01*
X455783Y343893D01*
X455699Y343843D01*
X455682Y343823D01*
X455661Y343808D01*
X455602Y343730D01*
X455539Y343656D01*
X455529Y343632D01*
X455514Y343611D01*
X455484Y343518D01*
X455447Y343428D01*
X455444Y343395D01*
X455438Y343377D01*
X455438Y343344D01*
X455429Y343261D01*
X455429Y318669D01*
X455431Y318653D01*
X455430Y318639D01*
X455444Y318575D01*
X455451Y318488D01*
X455463Y318459D01*
X455468Y318427D01*
X455481Y318402D01*
X455482Y318399D01*
X455491Y318383D01*
X455511Y318346D01*
X455547Y318262D01*
X455573Y318230D01*
X455584Y318209D01*
X455607Y318187D01*
X455652Y318131D01*
X483745Y290038D01*
X485903Y287880D01*
X485903Y265840D01*
X483745Y263682D01*
X477236Y257173D01*
X475078Y255015D01*
X420021Y255015D01*
X419931Y255001D01*
X419840Y254993D01*
X419811Y254981D01*
X419779Y254976D01*
X419698Y254933D01*
X419614Y254897D01*
X419582Y254871D01*
X419561Y254860D01*
X419539Y254837D01*
X419483Y254792D01*
X398786Y234095D01*
X398774Y234079D01*
X398759Y234067D01*
X398703Y233979D01*
X398642Y233896D01*
X398637Y233877D01*
X398626Y233860D01*
X398601Y233759D01*
X398570Y233660D01*
X398571Y233641D01*
X398566Y233621D01*
X398574Y233518D01*
X398576Y233415D01*
X398583Y233396D01*
X398585Y233376D01*
X398625Y233281D01*
X398661Y233184D01*
X398673Y233168D01*
X398681Y233150D01*
X398786Y233019D01*
X399423Y232382D01*
X399423Y218698D01*
X398232Y217507D01*
X390548Y217507D01*
X389357Y218698D01*
X389357Y232382D01*
X390600Y233625D01*
X390606Y233626D01*
X390695Y233679D01*
X390786Y233728D01*
X390800Y233742D01*
X390817Y233752D01*
X390884Y233831D01*
X390956Y233906D01*
X390964Y233924D01*
X390977Y233939D01*
X391016Y234035D01*
X391059Y234129D01*
X391061Y234149D01*
X391069Y234167D01*
X391087Y234334D01*
X391087Y235738D01*
X393245Y237896D01*
X404239Y248890D01*
X404281Y248948D01*
X404330Y249000D01*
X404352Y249047D01*
X404383Y249089D01*
X404404Y249158D01*
X404434Y249223D01*
X404440Y249275D01*
X404455Y249325D01*
X404453Y249396D01*
X404461Y249467D01*
X404450Y249518D01*
X404449Y249570D01*
X404424Y249638D01*
X404409Y249708D01*
X404382Y249752D01*
X404364Y249801D01*
X404319Y249857D01*
X404282Y249919D01*
X404243Y249953D01*
X404210Y249993D01*
X404150Y250032D01*
X404096Y250079D01*
X404047Y250098D01*
X404003Y250126D01*
X403934Y250144D01*
X403867Y250171D01*
X403796Y250179D01*
X403765Y250187D01*
X403742Y250185D01*
X403701Y250189D01*
X400717Y250189D01*
X400627Y250175D01*
X400536Y250167D01*
X400507Y250155D01*
X400475Y250150D01*
X400394Y250107D01*
X400310Y250071D01*
X400278Y250045D01*
X400257Y250034D01*
X400237Y250013D01*
X400234Y250012D01*
X400230Y250007D01*
X400179Y249966D01*
X385216Y235003D01*
X385163Y234929D01*
X385103Y234860D01*
X385091Y234829D01*
X385072Y234803D01*
X385045Y234716D01*
X385011Y234631D01*
X385007Y234590D01*
X385000Y234568D01*
X385001Y234536D01*
X384993Y234465D01*
X384993Y234334D01*
X384996Y234314D01*
X384994Y234295D01*
X385016Y234193D01*
X385032Y234091D01*
X385042Y234074D01*
X385046Y234054D01*
X385099Y233965D01*
X385148Y233874D01*
X385162Y233860D01*
X385172Y233843D01*
X385251Y233776D01*
X385326Y233704D01*
X385344Y233696D01*
X385359Y233683D01*
X385455Y233644D01*
X385465Y233640D01*
X386723Y232382D01*
X386723Y218698D01*
X385532Y217507D01*
X377848Y217507D01*
G37*
%LPD*%
%LPC*%
G36*
X249689Y589249D02*
X249689Y589249D01*
X249249Y589689D01*
X249249Y670311D01*
X249689Y670751D01*
X470311Y670751D01*
X470751Y670311D01*
X470751Y589689D01*
X470311Y589249D01*
X249689Y589249D01*
G37*
%LPD*%
%LPC*%
G36*
X195548Y306066D02*
X195548Y306066D01*
X182082Y311645D01*
X170518Y320518D01*
X161645Y332082D01*
X156066Y345548D01*
X154164Y360000D01*
X156066Y374452D01*
X161645Y387918D01*
X170518Y399482D01*
X182082Y408355D01*
X195548Y413934D01*
X210000Y415836D01*
X224452Y413934D01*
X237918Y408355D01*
X249482Y399482D01*
X258355Y387918D01*
X263934Y374452D01*
X265836Y360000D01*
X263934Y345548D01*
X258355Y332082D01*
X249482Y320518D01*
X237918Y311645D01*
X224452Y306066D01*
X210000Y304164D01*
X195548Y306066D01*
G37*
%LPD*%
%LPC*%
G36*
X58128Y373987D02*
X58128Y373987D01*
X56937Y375178D01*
X56937Y383862D01*
X58128Y385053D01*
X64812Y385053D01*
X66003Y383862D01*
X66003Y383584D01*
X66006Y383564D01*
X66004Y383545D01*
X66026Y383443D01*
X66042Y383341D01*
X66052Y383324D01*
X66056Y383304D01*
X66109Y383215D01*
X66158Y383124D01*
X66172Y383110D01*
X66182Y383093D01*
X66261Y383026D01*
X66336Y382954D01*
X66354Y382946D01*
X66369Y382933D01*
X66465Y382894D01*
X66559Y382851D01*
X66579Y382849D01*
X66597Y382841D01*
X66764Y382823D01*
X98176Y382823D01*
X98196Y382826D01*
X98215Y382824D01*
X98317Y382846D01*
X98419Y382862D01*
X98436Y382872D01*
X98456Y382876D01*
X98545Y382929D01*
X98636Y382978D01*
X98650Y382992D01*
X98667Y383002D01*
X98734Y383081D01*
X98806Y383156D01*
X98814Y383174D01*
X98827Y383189D01*
X98866Y383285D01*
X98909Y383379D01*
X98911Y383399D01*
X98919Y383417D01*
X98937Y383584D01*
X98937Y383862D01*
X100128Y385053D01*
X102477Y385053D01*
X102567Y385067D01*
X102658Y385075D01*
X102687Y385087D01*
X102719Y385092D01*
X102800Y385135D01*
X102884Y385171D01*
X102916Y385197D01*
X102937Y385208D01*
X102959Y385231D01*
X103015Y385276D01*
X212454Y494715D01*
X212507Y494789D01*
X212567Y494858D01*
X212579Y494889D01*
X212598Y494915D01*
X212625Y495002D01*
X212659Y495087D01*
X212663Y495128D01*
X212670Y495150D01*
X212669Y495182D01*
X212677Y495253D01*
X212677Y499522D01*
X213868Y500713D01*
X218146Y500713D01*
X218166Y500716D01*
X218185Y500714D01*
X218287Y500736D01*
X218389Y500752D01*
X218406Y500762D01*
X218426Y500766D01*
X218515Y500819D01*
X218606Y500868D01*
X218620Y500882D01*
X218637Y500892D01*
X218704Y500971D01*
X218776Y501046D01*
X218784Y501064D01*
X218797Y501079D01*
X218836Y501175D01*
X218879Y501269D01*
X218881Y501289D01*
X218889Y501307D01*
X218907Y501474D01*
X218907Y513346D01*
X218904Y513366D01*
X218906Y513385D01*
X218884Y513487D01*
X218868Y513589D01*
X218858Y513606D01*
X218854Y513626D01*
X218801Y513715D01*
X218752Y513806D01*
X218738Y513820D01*
X218728Y513837D01*
X218649Y513904D01*
X218574Y513976D01*
X218556Y513984D01*
X218541Y513997D01*
X218445Y514036D01*
X218351Y514079D01*
X218331Y514081D01*
X218313Y514089D01*
X218146Y514107D01*
X214808Y514107D01*
X213617Y515298D01*
X213617Y531876D01*
X213614Y531896D01*
X213616Y531915D01*
X213594Y532017D01*
X213578Y532119D01*
X213568Y532136D01*
X213564Y532156D01*
X213511Y532245D01*
X213462Y532336D01*
X213448Y532350D01*
X213438Y532367D01*
X213359Y532434D01*
X213284Y532506D01*
X213266Y532514D01*
X213251Y532527D01*
X213155Y532566D01*
X213061Y532609D01*
X213041Y532611D01*
X213023Y532619D01*
X212856Y532637D01*
X212444Y532637D01*
X212424Y532634D01*
X212405Y532636D01*
X212303Y532614D01*
X212201Y532598D01*
X212184Y532588D01*
X212164Y532584D01*
X212075Y532531D01*
X211984Y532482D01*
X211970Y532468D01*
X211953Y532458D01*
X211886Y532379D01*
X211814Y532304D01*
X211806Y532286D01*
X211793Y532271D01*
X211754Y532175D01*
X211711Y532081D01*
X211709Y532061D01*
X211701Y532043D01*
X211683Y531876D01*
X211683Y515298D01*
X210492Y514107D01*
X195808Y514107D01*
X194617Y515298D01*
X194617Y516636D01*
X194616Y516643D01*
X194616Y516646D01*
X194614Y516656D01*
X194616Y516675D01*
X194594Y516777D01*
X194578Y516879D01*
X194568Y516896D01*
X194564Y516916D01*
X194511Y517005D01*
X194462Y517096D01*
X194448Y517110D01*
X194438Y517127D01*
X194359Y517194D01*
X194284Y517266D01*
X194266Y517274D01*
X194251Y517287D01*
X194155Y517326D01*
X194061Y517369D01*
X194041Y517371D01*
X194023Y517379D01*
X193856Y517397D01*
X182270Y517397D01*
X182180Y517383D01*
X182089Y517375D01*
X182059Y517363D01*
X182027Y517358D01*
X181946Y517315D01*
X181863Y517279D01*
X181830Y517253D01*
X181810Y517242D01*
X181788Y517219D01*
X181732Y517174D01*
X181397Y516840D01*
X179063Y515873D01*
X176537Y515873D01*
X174203Y516840D01*
X172416Y518627D01*
X171449Y520961D01*
X171449Y523487D01*
X172416Y525821D01*
X174203Y527608D01*
X176537Y528575D01*
X179063Y528575D01*
X181397Y527608D01*
X182240Y526766D01*
X182314Y526713D01*
X182383Y526653D01*
X182413Y526641D01*
X182439Y526622D01*
X182526Y526595D01*
X182611Y526561D01*
X182652Y526557D01*
X182674Y526550D01*
X182707Y526551D01*
X182778Y526543D01*
X193856Y526543D01*
X193876Y526546D01*
X193895Y526544D01*
X193997Y526566D01*
X194099Y526582D01*
X194116Y526592D01*
X194136Y526596D01*
X194225Y526649D01*
X194316Y526698D01*
X194330Y526712D01*
X194347Y526722D01*
X194414Y526801D01*
X194486Y526876D01*
X194494Y526894D01*
X194507Y526909D01*
X194546Y527005D01*
X194589Y527099D01*
X194591Y527119D01*
X194599Y527137D01*
X194617Y527304D01*
X194617Y531982D01*
X195808Y533173D01*
X198477Y533173D01*
X198567Y533187D01*
X198658Y533195D01*
X198687Y533207D01*
X198719Y533212D01*
X198800Y533255D01*
X198884Y533291D01*
X198916Y533317D01*
X198937Y533328D01*
X198959Y533351D01*
X199015Y533396D01*
X201479Y535860D01*
X204500Y538881D01*
X207402Y541783D01*
X210389Y541783D01*
X210479Y541797D01*
X210570Y541805D01*
X210599Y541817D01*
X210631Y541822D01*
X210712Y541865D01*
X210796Y541901D01*
X210828Y541927D01*
X210849Y541938D01*
X210871Y541961D01*
X210927Y542006D01*
X215619Y546698D01*
X215661Y546756D01*
X215710Y546808D01*
X215732Y546855D01*
X215762Y546897D01*
X215784Y546966D01*
X215814Y547031D01*
X215820Y547083D01*
X215835Y547133D01*
X215833Y547204D01*
X215841Y547275D01*
X215830Y547326D01*
X215828Y547378D01*
X215804Y547446D01*
X215789Y547516D01*
X215762Y547560D01*
X215744Y547609D01*
X215699Y547665D01*
X215662Y547727D01*
X215623Y547761D01*
X215590Y547801D01*
X215530Y547840D01*
X215476Y547887D01*
X215427Y547906D01*
X215383Y547934D01*
X215314Y547952D01*
X215247Y547979D01*
X215176Y547987D01*
X215145Y547995D01*
X215122Y547993D01*
X215081Y547997D01*
X214248Y547997D01*
X213057Y549188D01*
X213057Y549237D01*
X213053Y549261D01*
X213056Y549285D01*
X213034Y549382D01*
X213018Y549480D01*
X213006Y549501D01*
X213001Y549525D01*
X212949Y549610D01*
X212902Y549697D01*
X212885Y549714D01*
X212872Y549735D01*
X212796Y549798D01*
X212724Y549867D01*
X212702Y549877D01*
X212684Y549892D01*
X212591Y549928D01*
X212501Y549970D01*
X212477Y549973D01*
X212455Y549982D01*
X212355Y549986D01*
X212257Y549997D01*
X212233Y549992D01*
X212209Y549993D01*
X212113Y549966D01*
X212016Y549945D01*
X211995Y549933D01*
X211972Y549926D01*
X211890Y549870D01*
X211805Y549819D01*
X211789Y549801D01*
X211770Y549787D01*
X211710Y549708D01*
X211645Y549632D01*
X211636Y549610D01*
X211622Y549590D01*
X211561Y549434D01*
X211458Y549049D01*
X211123Y548470D01*
X210650Y547997D01*
X210071Y547662D01*
X209424Y547489D01*
X204113Y547489D01*
X204113Y556768D01*
X204110Y556788D01*
X204112Y556807D01*
X204090Y556909D01*
X204073Y557011D01*
X204064Y557028D01*
X204060Y557048D01*
X204007Y557137D01*
X203958Y557228D01*
X203944Y557242D01*
X203934Y557259D01*
X203855Y557326D01*
X203780Y557397D01*
X203762Y557406D01*
X203747Y557419D01*
X203651Y557458D01*
X203557Y557501D01*
X203537Y557503D01*
X203519Y557511D01*
X203352Y557529D01*
X202589Y557529D01*
X202589Y557531D01*
X203352Y557531D01*
X203372Y557534D01*
X203391Y557532D01*
X203493Y557554D01*
X203595Y557571D01*
X203612Y557580D01*
X203632Y557584D01*
X203721Y557637D01*
X203812Y557686D01*
X203826Y557700D01*
X203843Y557710D01*
X203910Y557789D01*
X203981Y557864D01*
X203990Y557882D01*
X204003Y557897D01*
X204042Y557993D01*
X204085Y558087D01*
X204087Y558107D01*
X204095Y558125D01*
X204113Y558292D01*
X204113Y567571D01*
X209424Y567571D01*
X210071Y567398D01*
X210650Y567063D01*
X211123Y566590D01*
X211458Y566011D01*
X211561Y565626D01*
X211571Y565604D01*
X211575Y565580D01*
X211621Y565492D01*
X211662Y565402D01*
X211678Y565384D01*
X211690Y565363D01*
X211761Y565294D01*
X211829Y565221D01*
X211850Y565210D01*
X211868Y565193D01*
X211958Y565151D01*
X212045Y565104D01*
X212069Y565100D01*
X212091Y565090D01*
X212190Y565079D01*
X212288Y565062D01*
X212312Y565065D01*
X212335Y565063D01*
X212432Y565084D01*
X212531Y565099D01*
X212552Y565110D01*
X212576Y565115D01*
X212661Y565166D01*
X212750Y565211D01*
X212766Y565229D01*
X212787Y565241D01*
X212852Y565317D01*
X212921Y565388D01*
X212931Y565410D01*
X212947Y565428D01*
X212984Y565520D01*
X213027Y565610D01*
X213030Y565634D01*
X213039Y565656D01*
X213057Y565823D01*
X213057Y565872D01*
X214248Y567063D01*
X215494Y567063D01*
X215514Y567066D01*
X215533Y567064D01*
X215635Y567086D01*
X215737Y567102D01*
X215754Y567112D01*
X215774Y567116D01*
X215863Y567169D01*
X215954Y567218D01*
X215968Y567232D01*
X215985Y567242D01*
X216052Y567321D01*
X216124Y567396D01*
X216132Y567414D01*
X216145Y567429D01*
X216184Y567525D01*
X216227Y567619D01*
X216229Y567639D01*
X216237Y567657D01*
X216255Y567824D01*
X216255Y578706D01*
X216252Y578726D01*
X216254Y578745D01*
X216232Y578847D01*
X216216Y578949D01*
X216206Y578966D01*
X216202Y578986D01*
X216149Y579075D01*
X216100Y579166D01*
X216086Y579180D01*
X216076Y579197D01*
X215997Y579264D01*
X215922Y579336D01*
X215904Y579344D01*
X215889Y579357D01*
X215793Y579396D01*
X215699Y579439D01*
X215679Y579441D01*
X215661Y579449D01*
X215494Y579467D01*
X207908Y579467D01*
X206717Y580658D01*
X206717Y580707D01*
X206713Y580731D01*
X206716Y580755D01*
X206694Y580852D01*
X206678Y580950D01*
X206666Y580971D01*
X206661Y580995D01*
X206609Y581080D01*
X206562Y581167D01*
X206545Y581184D01*
X206532Y581205D01*
X206456Y581268D01*
X206384Y581337D01*
X206362Y581347D01*
X206344Y581362D01*
X206251Y581398D01*
X206161Y581440D01*
X206137Y581443D01*
X206115Y581452D01*
X206015Y581456D01*
X205917Y581467D01*
X205893Y581462D01*
X205869Y581463D01*
X205773Y581436D01*
X205676Y581415D01*
X205655Y581403D01*
X205632Y581396D01*
X205550Y581340D01*
X205465Y581289D01*
X205449Y581271D01*
X205430Y581257D01*
X205370Y581178D01*
X205305Y581102D01*
X205296Y581080D01*
X205282Y581060D01*
X205221Y580904D01*
X205118Y580519D01*
X204783Y579940D01*
X204310Y579467D01*
X203731Y579132D01*
X203084Y578959D01*
X197773Y578959D01*
X197773Y588238D01*
X197770Y588258D01*
X197772Y588277D01*
X197750Y588379D01*
X197733Y588481D01*
X197724Y588498D01*
X197720Y588518D01*
X197667Y588607D01*
X197618Y588698D01*
X197604Y588712D01*
X197594Y588729D01*
X197515Y588796D01*
X197440Y588867D01*
X197422Y588876D01*
X197407Y588889D01*
X197311Y588928D01*
X197217Y588971D01*
X197197Y588973D01*
X197179Y588981D01*
X197012Y588999D01*
X196249Y588999D01*
X196249Y589001D01*
X197012Y589001D01*
X197032Y589004D01*
X197051Y589002D01*
X197153Y589024D01*
X197255Y589041D01*
X197272Y589050D01*
X197292Y589054D01*
X197381Y589107D01*
X197472Y589156D01*
X197486Y589170D01*
X197503Y589180D01*
X197570Y589259D01*
X197641Y589334D01*
X197650Y589352D01*
X197663Y589367D01*
X197702Y589463D01*
X197745Y589557D01*
X197747Y589577D01*
X197755Y589595D01*
X197773Y589762D01*
X197773Y599041D01*
X203084Y599041D01*
X203731Y598868D01*
X204310Y598533D01*
X204783Y598060D01*
X205118Y597481D01*
X205221Y597096D01*
X205231Y597074D01*
X205235Y597050D01*
X205244Y597033D01*
X205247Y597017D01*
X205285Y596953D01*
X205322Y596872D01*
X205338Y596854D01*
X205350Y596833D01*
X205367Y596816D01*
X205373Y596805D01*
X205422Y596763D01*
X205489Y596691D01*
X205510Y596680D01*
X205528Y596663D01*
X205553Y596652D01*
X205560Y596645D01*
X205606Y596627D01*
X205618Y596621D01*
X205705Y596574D01*
X205729Y596570D01*
X205751Y596560D01*
X205782Y596556D01*
X205788Y596554D01*
X205880Y596543D01*
X205948Y596532D01*
X205972Y596535D01*
X205995Y596533D01*
X206092Y596554D01*
X206191Y596569D01*
X206212Y596580D01*
X206236Y596585D01*
X206321Y596636D01*
X206410Y596681D01*
X206426Y596699D01*
X206447Y596711D01*
X206512Y596787D01*
X206581Y596858D01*
X206591Y596880D01*
X206607Y596898D01*
X206644Y596990D01*
X206687Y597080D01*
X206688Y597089D01*
X206689Y597091D01*
X206691Y597106D01*
X206699Y597126D01*
X206717Y597293D01*
X206717Y597342D01*
X207908Y598533D01*
X222592Y598533D01*
X223783Y597342D01*
X223783Y587249D01*
X223797Y587159D01*
X223805Y587068D01*
X223817Y587039D01*
X223822Y587007D01*
X223865Y586926D01*
X223901Y586842D01*
X223927Y586810D01*
X223938Y586789D01*
X223961Y586767D01*
X224006Y586711D01*
X225401Y585316D01*
X225401Y567824D01*
X225404Y567804D01*
X225402Y567785D01*
X225424Y567683D01*
X225440Y567581D01*
X225450Y567564D01*
X225454Y567544D01*
X225507Y567455D01*
X225556Y567364D01*
X225570Y567350D01*
X225580Y567333D01*
X225659Y567266D01*
X225734Y567194D01*
X225752Y567186D01*
X225767Y567173D01*
X225863Y567134D01*
X225957Y567091D01*
X225977Y567089D01*
X225995Y567081D01*
X226162Y567063D01*
X228932Y567063D01*
X230123Y565872D01*
X230123Y563626D01*
X230126Y563606D01*
X230124Y563587D01*
X230146Y563485D01*
X230162Y563383D01*
X230172Y563366D01*
X230176Y563346D01*
X230229Y563257D01*
X230278Y563166D01*
X230292Y563152D01*
X230302Y563135D01*
X230381Y563068D01*
X230456Y562996D01*
X230474Y562988D01*
X230489Y562975D01*
X230585Y562936D01*
X230679Y562893D01*
X230699Y562891D01*
X230717Y562883D01*
X230884Y562865D01*
X236555Y562865D01*
X236645Y562879D01*
X236736Y562887D01*
X236766Y562899D01*
X236798Y562904D01*
X236878Y562947D01*
X236962Y562983D01*
X236994Y563009D01*
X237015Y563020D01*
X237037Y563043D01*
X237093Y563088D01*
X245798Y571793D01*
X257206Y571793D01*
X257226Y571796D01*
X257245Y571794D01*
X257347Y571816D01*
X257449Y571832D01*
X257466Y571842D01*
X257486Y571846D01*
X257575Y571899D01*
X257666Y571948D01*
X257680Y571962D01*
X257697Y571972D01*
X257764Y572051D01*
X257836Y572126D01*
X257844Y572144D01*
X257857Y572159D01*
X257896Y572255D01*
X257939Y572349D01*
X257941Y572369D01*
X257949Y572387D01*
X257967Y572554D01*
X257967Y573235D01*
X257949Y573348D01*
X257933Y573462D01*
X257929Y573472D01*
X257928Y573478D01*
X257917Y573498D01*
X257865Y573616D01*
X257632Y574019D01*
X257459Y574666D01*
X257459Y578477D01*
X266738Y578477D01*
X266758Y578480D01*
X266777Y578478D01*
X266879Y578500D01*
X266981Y578517D01*
X266998Y578526D01*
X267018Y578530D01*
X267107Y578583D01*
X267198Y578632D01*
X267212Y578646D01*
X267229Y578656D01*
X267296Y578735D01*
X267367Y578810D01*
X267376Y578828D01*
X267389Y578843D01*
X267428Y578939D01*
X267471Y579033D01*
X267473Y579053D01*
X267481Y579071D01*
X267499Y579238D01*
X267499Y580001D01*
X267501Y580001D01*
X267501Y579238D01*
X267504Y579218D01*
X267502Y579199D01*
X267524Y579097D01*
X267541Y578995D01*
X267550Y578978D01*
X267554Y578958D01*
X267607Y578869D01*
X267656Y578778D01*
X267670Y578764D01*
X267680Y578747D01*
X267759Y578680D01*
X267834Y578609D01*
X267852Y578600D01*
X267867Y578587D01*
X267963Y578548D01*
X268057Y578505D01*
X268077Y578503D01*
X268095Y578495D01*
X268262Y578477D01*
X277541Y578477D01*
X277541Y574665D01*
X277368Y574019D01*
X277135Y573616D01*
X277094Y573509D01*
X277051Y573402D01*
X277050Y573392D01*
X277048Y573386D01*
X277047Y573364D01*
X277033Y573235D01*
X277033Y561455D01*
X276980Y561372D01*
X276919Y561289D01*
X276914Y561270D01*
X276903Y561253D01*
X276878Y561152D01*
X276847Y561053D01*
X276848Y561033D01*
X276843Y561014D01*
X276851Y560911D01*
X276853Y560808D01*
X276860Y560789D01*
X276862Y560769D01*
X276902Y560674D01*
X276938Y560577D01*
X276950Y560561D01*
X276958Y560543D01*
X277033Y560450D01*
X277033Y548755D01*
X276980Y548672D01*
X276919Y548589D01*
X276914Y548570D01*
X276903Y548553D01*
X276878Y548452D01*
X276847Y548353D01*
X276848Y548333D01*
X276843Y548314D01*
X276851Y548211D01*
X276853Y548108D01*
X276860Y548089D01*
X276862Y548069D01*
X276902Y547974D01*
X276938Y547877D01*
X276950Y547861D01*
X276958Y547843D01*
X277033Y547750D01*
X277033Y536055D01*
X276980Y535973D01*
X276919Y535889D01*
X276914Y535870D01*
X276903Y535853D01*
X276878Y535753D01*
X276847Y535654D01*
X276848Y535634D01*
X276843Y535614D01*
X276851Y535511D01*
X276853Y535408D01*
X276860Y535389D01*
X276862Y535369D01*
X276902Y535274D01*
X276938Y535177D01*
X276950Y535161D01*
X276958Y535143D01*
X277033Y535050D01*
X277033Y523355D01*
X276980Y523273D01*
X276919Y523189D01*
X276914Y523170D01*
X276903Y523153D01*
X276878Y523053D01*
X276847Y522954D01*
X276848Y522934D01*
X276843Y522914D01*
X276851Y522811D01*
X276853Y522708D01*
X276860Y522689D01*
X276862Y522669D01*
X276902Y522574D01*
X276938Y522477D01*
X276950Y522461D01*
X276958Y522443D01*
X277033Y522350D01*
X277033Y510655D01*
X276980Y510573D01*
X276919Y510489D01*
X276914Y510470D01*
X276903Y510453D01*
X276878Y510353D01*
X276847Y510254D01*
X276848Y510234D01*
X276843Y510214D01*
X276851Y510111D01*
X276853Y510008D01*
X276860Y509989D01*
X276862Y509969D01*
X276902Y509874D01*
X276938Y509777D01*
X276950Y509761D01*
X276958Y509743D01*
X277033Y509650D01*
X277033Y497955D01*
X276980Y497873D01*
X276919Y497789D01*
X276914Y497770D01*
X276903Y497753D01*
X276878Y497653D01*
X276847Y497554D01*
X276848Y497534D01*
X276843Y497514D01*
X276851Y497411D01*
X276853Y497308D01*
X276860Y497289D01*
X276862Y497269D01*
X276902Y497174D01*
X276938Y497077D01*
X276950Y497061D01*
X276958Y497043D01*
X277033Y496950D01*
X277033Y485255D01*
X276980Y485173D01*
X276919Y485089D01*
X276914Y485070D01*
X276903Y485053D01*
X276878Y484953D01*
X276847Y484854D01*
X276848Y484834D01*
X276843Y484814D01*
X276851Y484711D01*
X276853Y484608D01*
X276860Y484589D01*
X276862Y484569D01*
X276902Y484474D01*
X276938Y484377D01*
X276950Y484361D01*
X276958Y484343D01*
X277033Y484250D01*
X277033Y472555D01*
X276980Y472473D01*
X276919Y472389D01*
X276914Y472370D01*
X276903Y472353D01*
X276878Y472253D01*
X276847Y472154D01*
X276848Y472134D01*
X276843Y472114D01*
X276851Y472011D01*
X276853Y471908D01*
X276860Y471889D01*
X276862Y471869D01*
X276902Y471774D01*
X276938Y471677D01*
X276950Y471661D01*
X276958Y471643D01*
X277033Y471550D01*
X277033Y459855D01*
X276980Y459773D01*
X276919Y459689D01*
X276914Y459670D01*
X276903Y459653D01*
X276878Y459553D01*
X276847Y459454D01*
X276848Y459434D01*
X276843Y459414D01*
X276851Y459311D01*
X276853Y459208D01*
X276860Y459189D01*
X276862Y459169D01*
X276902Y459074D01*
X276938Y458977D01*
X276950Y458961D01*
X276958Y458943D01*
X277033Y458850D01*
X277033Y447155D01*
X276980Y447073D01*
X276919Y446989D01*
X276914Y446970D01*
X276903Y446953D01*
X276878Y446853D01*
X276847Y446754D01*
X276848Y446734D01*
X276843Y446714D01*
X276851Y446611D01*
X276853Y446508D01*
X276860Y446489D01*
X276862Y446469D01*
X276902Y446374D01*
X276938Y446277D01*
X276950Y446261D01*
X276958Y446243D01*
X277033Y446150D01*
X277033Y434455D01*
X276980Y434373D01*
X276919Y434289D01*
X276914Y434270D01*
X276903Y434253D01*
X276878Y434153D01*
X276847Y434054D01*
X276848Y434034D01*
X276843Y434014D01*
X276851Y433911D01*
X276853Y433808D01*
X276860Y433789D01*
X276862Y433769D01*
X276902Y433674D01*
X276938Y433577D01*
X276950Y433561D01*
X276958Y433543D01*
X277033Y433450D01*
X277033Y421755D01*
X276980Y421673D01*
X276919Y421589D01*
X276914Y421570D01*
X276903Y421553D01*
X276878Y421453D01*
X276847Y421354D01*
X276848Y421334D01*
X276843Y421314D01*
X276851Y421211D01*
X276853Y421108D01*
X276860Y421089D01*
X276862Y421069D01*
X276902Y420974D01*
X276938Y420877D01*
X276950Y420861D01*
X276958Y420843D01*
X277033Y420750D01*
X277033Y409058D01*
X275842Y407867D01*
X259158Y407867D01*
X257967Y409058D01*
X257967Y420745D01*
X258020Y420828D01*
X258081Y420911D01*
X258086Y420930D01*
X258097Y420947D01*
X258122Y421048D01*
X258153Y421147D01*
X258152Y421167D01*
X258157Y421186D01*
X258149Y421289D01*
X258147Y421392D01*
X258140Y421411D01*
X258138Y421431D01*
X258098Y421526D01*
X258062Y421623D01*
X258050Y421639D01*
X258042Y421657D01*
X257967Y421750D01*
X257967Y433445D01*
X258020Y433528D01*
X258081Y433611D01*
X258086Y433630D01*
X258097Y433647D01*
X258122Y433748D01*
X258153Y433847D01*
X258152Y433867D01*
X258157Y433886D01*
X258149Y433989D01*
X258147Y434092D01*
X258140Y434111D01*
X258138Y434131D01*
X258098Y434226D01*
X258062Y434323D01*
X258050Y434339D01*
X258042Y434357D01*
X257967Y434450D01*
X257967Y446145D01*
X258020Y446228D01*
X258081Y446311D01*
X258086Y446330D01*
X258097Y446347D01*
X258122Y446448D01*
X258153Y446547D01*
X258152Y446567D01*
X258157Y446586D01*
X258149Y446689D01*
X258147Y446792D01*
X258140Y446811D01*
X258138Y446831D01*
X258098Y446926D01*
X258062Y447023D01*
X258050Y447039D01*
X258042Y447057D01*
X257967Y447150D01*
X257967Y458845D01*
X258020Y458928D01*
X258081Y459011D01*
X258086Y459030D01*
X258097Y459047D01*
X258122Y459148D01*
X258153Y459247D01*
X258152Y459267D01*
X258157Y459286D01*
X258149Y459389D01*
X258147Y459492D01*
X258140Y459511D01*
X258138Y459531D01*
X258098Y459626D01*
X258062Y459723D01*
X258050Y459739D01*
X258042Y459757D01*
X257967Y459850D01*
X257967Y471545D01*
X258020Y471628D01*
X258081Y471711D01*
X258086Y471730D01*
X258097Y471747D01*
X258122Y471848D01*
X258153Y471947D01*
X258152Y471967D01*
X258157Y471986D01*
X258149Y472089D01*
X258147Y472192D01*
X258140Y472211D01*
X258138Y472231D01*
X258098Y472326D01*
X258062Y472423D01*
X258050Y472439D01*
X258042Y472457D01*
X257967Y472550D01*
X257967Y484245D01*
X258020Y484328D01*
X258081Y484411D01*
X258086Y484430D01*
X258097Y484447D01*
X258122Y484548D01*
X258153Y484647D01*
X258152Y484667D01*
X258157Y484686D01*
X258149Y484789D01*
X258147Y484892D01*
X258140Y484911D01*
X258138Y484931D01*
X258098Y485026D01*
X258062Y485123D01*
X258050Y485139D01*
X258042Y485157D01*
X257967Y485250D01*
X257967Y496945D01*
X258020Y497028D01*
X258081Y497111D01*
X258086Y497130D01*
X258097Y497147D01*
X258122Y497248D01*
X258153Y497347D01*
X258152Y497367D01*
X258157Y497386D01*
X258149Y497489D01*
X258147Y497592D01*
X258140Y497611D01*
X258138Y497631D01*
X258098Y497726D01*
X258062Y497823D01*
X258050Y497839D01*
X258042Y497857D01*
X257967Y497950D01*
X257967Y509645D01*
X258020Y509728D01*
X258081Y509811D01*
X258086Y509830D01*
X258097Y509847D01*
X258122Y509948D01*
X258153Y510047D01*
X258152Y510067D01*
X258157Y510086D01*
X258149Y510189D01*
X258147Y510292D01*
X258140Y510311D01*
X258138Y510331D01*
X258098Y510426D01*
X258062Y510523D01*
X258050Y510539D01*
X258042Y510557D01*
X257967Y510650D01*
X257967Y522345D01*
X258020Y522428D01*
X258081Y522511D01*
X258086Y522530D01*
X258097Y522547D01*
X258122Y522648D01*
X258153Y522747D01*
X258152Y522767D01*
X258157Y522786D01*
X258149Y522889D01*
X258147Y522992D01*
X258140Y523011D01*
X258138Y523031D01*
X258098Y523126D01*
X258062Y523223D01*
X258050Y523239D01*
X258042Y523257D01*
X257967Y523350D01*
X257967Y535045D01*
X258020Y535128D01*
X258081Y535211D01*
X258086Y535230D01*
X258097Y535247D01*
X258122Y535348D01*
X258153Y535447D01*
X258152Y535467D01*
X258157Y535486D01*
X258149Y535589D01*
X258147Y535692D01*
X258140Y535711D01*
X258138Y535731D01*
X258098Y535826D01*
X258062Y535923D01*
X258050Y535939D01*
X258042Y535957D01*
X257967Y536050D01*
X257967Y547745D01*
X258020Y547827D01*
X258081Y547911D01*
X258086Y547930D01*
X258097Y547947D01*
X258122Y548047D01*
X258153Y548146D01*
X258152Y548166D01*
X258157Y548186D01*
X258149Y548289D01*
X258147Y548392D01*
X258140Y548411D01*
X258138Y548431D01*
X258098Y548526D01*
X258062Y548623D01*
X258050Y548639D01*
X258042Y548657D01*
X257967Y548750D01*
X257967Y549401D01*
X257956Y549471D01*
X257954Y549543D01*
X257936Y549592D01*
X257928Y549643D01*
X257894Y549707D01*
X257869Y549774D01*
X257837Y549815D01*
X257812Y549861D01*
X257760Y549910D01*
X257716Y549966D01*
X257672Y549994D01*
X257634Y550030D01*
X257569Y550060D01*
X257509Y550099D01*
X257458Y550112D01*
X257411Y550134D01*
X257340Y550142D01*
X257270Y550159D01*
X257218Y550155D01*
X257167Y550161D01*
X257096Y550146D01*
X257025Y550140D01*
X256977Y550120D01*
X256926Y550109D01*
X256865Y550072D01*
X256799Y550044D01*
X256743Y549999D01*
X256715Y549982D01*
X256700Y549965D01*
X256668Y549939D01*
X230906Y524177D01*
X230853Y524103D01*
X230793Y524034D01*
X230781Y524003D01*
X230762Y523977D01*
X230735Y523890D01*
X230701Y523805D01*
X230697Y523764D01*
X230690Y523742D01*
X230691Y523710D01*
X230683Y523639D01*
X230683Y515298D01*
X229492Y514107D01*
X226274Y514107D01*
X226254Y514104D01*
X226235Y514106D01*
X226133Y514084D01*
X226031Y514068D01*
X226014Y514058D01*
X225994Y514054D01*
X225905Y514001D01*
X225814Y513952D01*
X225800Y513938D01*
X225783Y513928D01*
X225716Y513849D01*
X225644Y513774D01*
X225636Y513756D01*
X225623Y513741D01*
X225584Y513645D01*
X225541Y513551D01*
X225539Y513531D01*
X225531Y513513D01*
X225513Y513346D01*
X225513Y501474D01*
X225516Y501454D01*
X225514Y501435D01*
X225536Y501333D01*
X225552Y501231D01*
X225562Y501214D01*
X225566Y501194D01*
X225619Y501105D01*
X225668Y501014D01*
X225682Y501000D01*
X225692Y500983D01*
X225771Y500916D01*
X225846Y500844D01*
X225864Y500836D01*
X225879Y500823D01*
X225975Y500784D01*
X226069Y500741D01*
X226089Y500739D01*
X226107Y500731D01*
X226274Y500713D01*
X230552Y500713D01*
X231743Y499522D01*
X231743Y494538D01*
X231746Y494518D01*
X231744Y494499D01*
X231766Y494397D01*
X231782Y494295D01*
X231792Y494278D01*
X231796Y494258D01*
X231849Y494169D01*
X231898Y494078D01*
X231912Y494064D01*
X231922Y494047D01*
X232001Y493980D01*
X232076Y493908D01*
X232094Y493900D01*
X232109Y493887D01*
X232205Y493848D01*
X232299Y493805D01*
X232319Y493803D01*
X232337Y493795D01*
X232504Y493777D01*
X238096Y493777D01*
X240413Y491460D01*
X240487Y491407D01*
X240556Y491347D01*
X240587Y491335D01*
X240613Y491316D01*
X240700Y491289D01*
X240785Y491255D01*
X240826Y491251D01*
X240848Y491244D01*
X240880Y491245D01*
X240951Y491237D01*
X243151Y491237D01*
X246127Y488261D01*
X246127Y484051D01*
X243151Y481075D01*
X238941Y481075D01*
X235965Y484051D01*
X235965Y486251D01*
X235951Y486341D01*
X235943Y486432D01*
X235931Y486461D01*
X235926Y486493D01*
X235883Y486574D01*
X235847Y486658D01*
X235821Y486690D01*
X235810Y486711D01*
X235787Y486733D01*
X235742Y486789D01*
X235583Y486948D01*
X235509Y487001D01*
X235440Y487061D01*
X235409Y487073D01*
X235383Y487092D01*
X235296Y487119D01*
X235211Y487153D01*
X235170Y487157D01*
X235148Y487164D01*
X235116Y487163D01*
X235045Y487171D01*
X232504Y487171D01*
X232484Y487168D01*
X232465Y487170D01*
X232363Y487148D01*
X232261Y487132D01*
X232244Y487122D01*
X232224Y487118D01*
X232135Y487065D01*
X232044Y487016D01*
X232030Y487002D01*
X232013Y486992D01*
X231946Y486913D01*
X231874Y486838D01*
X231866Y486820D01*
X231853Y486805D01*
X231814Y486709D01*
X231771Y486615D01*
X231769Y486595D01*
X231761Y486577D01*
X231743Y486410D01*
X231743Y484838D01*
X230552Y483647D01*
X230503Y483647D01*
X230479Y483643D01*
X230455Y483646D01*
X230358Y483624D01*
X230260Y483608D01*
X230239Y483596D01*
X230215Y483591D01*
X230130Y483539D01*
X230043Y483492D01*
X230026Y483475D01*
X230005Y483462D01*
X229942Y483386D01*
X229873Y483314D01*
X229863Y483292D01*
X229848Y483274D01*
X229812Y483181D01*
X229770Y483091D01*
X229767Y483067D01*
X229758Y483045D01*
X229754Y482945D01*
X229743Y482847D01*
X229748Y482823D01*
X229747Y482799D01*
X229774Y482703D01*
X229795Y482606D01*
X229807Y482585D01*
X229814Y482562D01*
X229870Y482480D01*
X229921Y482395D01*
X229939Y482379D01*
X229953Y482360D01*
X230032Y482300D01*
X230108Y482235D01*
X230130Y482226D01*
X230150Y482212D01*
X230306Y482151D01*
X230691Y482048D01*
X231270Y481713D01*
X231743Y481240D01*
X232078Y480661D01*
X232251Y480014D01*
X232251Y474703D01*
X222972Y474703D01*
X222952Y474700D01*
X222933Y474702D01*
X222831Y474680D01*
X222729Y474663D01*
X222712Y474654D01*
X222692Y474650D01*
X222603Y474597D01*
X222512Y474548D01*
X222498Y474534D01*
X222481Y474524D01*
X222414Y474445D01*
X222343Y474370D01*
X222334Y474352D01*
X222321Y474337D01*
X222282Y474241D01*
X222239Y474147D01*
X222237Y474127D01*
X222229Y474109D01*
X222211Y473942D01*
X222211Y473179D01*
X222209Y473179D01*
X222209Y473942D01*
X222206Y473962D01*
X222208Y473981D01*
X222186Y474083D01*
X222169Y474185D01*
X222160Y474202D01*
X222156Y474222D01*
X222103Y474311D01*
X222054Y474402D01*
X222040Y474416D01*
X222030Y474433D01*
X221951Y474500D01*
X221876Y474571D01*
X221858Y474580D01*
X221843Y474593D01*
X221747Y474632D01*
X221653Y474675D01*
X221633Y474677D01*
X221615Y474685D01*
X221448Y474703D01*
X212169Y474703D01*
X212169Y480014D01*
X212342Y480661D01*
X212677Y481240D01*
X213150Y481713D01*
X213729Y482048D01*
X214114Y482151D01*
X214136Y482161D01*
X214160Y482165D01*
X214248Y482211D01*
X214338Y482252D01*
X214356Y482268D01*
X214377Y482280D01*
X214446Y482351D01*
X214519Y482419D01*
X214530Y482440D01*
X214547Y482458D01*
X214589Y482548D01*
X214636Y482635D01*
X214640Y482659D01*
X214650Y482681D01*
X214661Y482780D01*
X214678Y482878D01*
X214675Y482902D01*
X214677Y482925D01*
X214656Y483022D01*
X214641Y483121D01*
X214630Y483142D01*
X214625Y483166D01*
X214574Y483251D01*
X214529Y483340D01*
X214511Y483356D01*
X214499Y483377D01*
X214423Y483442D01*
X214352Y483511D01*
X214330Y483521D01*
X214312Y483537D01*
X214220Y483574D01*
X214130Y483617D01*
X214106Y483620D01*
X214084Y483629D01*
X213917Y483647D01*
X213868Y483647D01*
X212836Y484679D01*
X212820Y484691D01*
X212808Y484706D01*
X212720Y484762D01*
X212637Y484823D01*
X212618Y484828D01*
X212601Y484839D01*
X212500Y484864D01*
X212401Y484895D01*
X212382Y484894D01*
X212362Y484899D01*
X212259Y484891D01*
X212156Y484889D01*
X212137Y484882D01*
X212117Y484880D01*
X212022Y484840D01*
X211925Y484804D01*
X211909Y484792D01*
X211891Y484784D01*
X211760Y484679D01*
X108226Y381145D01*
X108173Y381071D01*
X108113Y381002D01*
X108101Y380971D01*
X108082Y380945D01*
X108055Y380858D01*
X108021Y380773D01*
X108017Y380732D01*
X108010Y380710D01*
X108011Y380678D01*
X108003Y380607D01*
X108003Y375178D01*
X106812Y373987D01*
X100128Y373987D01*
X98937Y375178D01*
X98937Y375456D01*
X98934Y375476D01*
X98936Y375495D01*
X98914Y375597D01*
X98898Y375699D01*
X98888Y375716D01*
X98884Y375736D01*
X98831Y375825D01*
X98782Y375916D01*
X98768Y375930D01*
X98758Y375947D01*
X98679Y376014D01*
X98604Y376086D01*
X98586Y376094D01*
X98571Y376107D01*
X98475Y376146D01*
X98381Y376189D01*
X98361Y376191D01*
X98343Y376199D01*
X98176Y376217D01*
X66764Y376217D01*
X66744Y376214D01*
X66725Y376216D01*
X66623Y376194D01*
X66521Y376178D01*
X66504Y376168D01*
X66484Y376164D01*
X66395Y376111D01*
X66304Y376062D01*
X66290Y376048D01*
X66273Y376038D01*
X66206Y375959D01*
X66134Y375884D01*
X66126Y375866D01*
X66113Y375851D01*
X66074Y375755D01*
X66031Y375661D01*
X66029Y375641D01*
X66021Y375623D01*
X66003Y375456D01*
X66003Y375178D01*
X64812Y373987D01*
X58128Y373987D01*
G37*
%LPD*%
%LPC*%
G36*
X236735Y163829D02*
X236735Y163829D01*
X234401Y164796D01*
X232614Y166583D01*
X231647Y168917D01*
X231647Y171443D01*
X232614Y173777D01*
X234401Y175564D01*
X236735Y176531D01*
X239261Y176531D01*
X241595Y175564D01*
X242184Y174976D01*
X242258Y174923D01*
X242327Y174863D01*
X242357Y174851D01*
X242383Y174832D01*
X242470Y174805D01*
X242555Y174771D01*
X242596Y174767D01*
X242618Y174760D01*
X242651Y174761D01*
X242722Y174753D01*
X255855Y174753D01*
X255945Y174767D01*
X256036Y174775D01*
X256065Y174787D01*
X256097Y174792D01*
X256178Y174835D01*
X256262Y174871D01*
X256294Y174897D01*
X256315Y174908D01*
X256337Y174931D01*
X256393Y174976D01*
X281262Y199845D01*
X281315Y199919D01*
X281375Y199989D01*
X281387Y200019D01*
X281406Y200045D01*
X281433Y200132D01*
X281467Y200217D01*
X281471Y200258D01*
X281478Y200280D01*
X281477Y200312D01*
X281485Y200383D01*
X281485Y204292D01*
X281482Y204312D01*
X281484Y204331D01*
X281462Y204433D01*
X281446Y204535D01*
X281436Y204552D01*
X281432Y204572D01*
X281379Y204661D01*
X281330Y204752D01*
X281316Y204766D01*
X281306Y204783D01*
X281227Y204850D01*
X281152Y204922D01*
X281134Y204930D01*
X281119Y204943D01*
X281023Y204982D01*
X280929Y205025D01*
X280909Y205027D01*
X280891Y205035D01*
X280724Y205053D01*
X278716Y205053D01*
X277525Y206244D01*
X277525Y206293D01*
X277521Y206317D01*
X277524Y206341D01*
X277502Y206438D01*
X277486Y206536D01*
X277474Y206557D01*
X277469Y206581D01*
X277417Y206666D01*
X277370Y206753D01*
X277353Y206770D01*
X277340Y206790D01*
X277264Y206854D01*
X277192Y206923D01*
X277170Y206933D01*
X277152Y206948D01*
X277059Y206984D01*
X276969Y207026D01*
X276945Y207029D01*
X276923Y207038D01*
X276823Y207042D01*
X276725Y207053D01*
X276701Y207048D01*
X276677Y207049D01*
X276582Y207022D01*
X276484Y207001D01*
X276463Y206989D01*
X276440Y206982D01*
X276359Y206926D01*
X276273Y206875D01*
X276257Y206857D01*
X276238Y206843D01*
X276178Y206764D01*
X276113Y206688D01*
X276104Y206666D01*
X276090Y206646D01*
X276029Y206490D01*
X275926Y206105D01*
X275591Y205526D01*
X275118Y205053D01*
X274539Y204718D01*
X273892Y204545D01*
X268581Y204545D01*
X268581Y213824D01*
X268578Y213844D01*
X268580Y213863D01*
X268558Y213965D01*
X268541Y214067D01*
X268532Y214084D01*
X268528Y214104D01*
X268475Y214193D01*
X268426Y214284D01*
X268412Y214298D01*
X268402Y214315D01*
X268323Y214382D01*
X268248Y214453D01*
X268230Y214462D01*
X268215Y214475D01*
X268119Y214514D01*
X268025Y214557D01*
X268005Y214559D01*
X267987Y214567D01*
X267820Y214585D01*
X267057Y214585D01*
X267057Y214587D01*
X267820Y214587D01*
X267840Y214590D01*
X267859Y214588D01*
X267961Y214610D01*
X268063Y214627D01*
X268080Y214636D01*
X268100Y214640D01*
X268189Y214693D01*
X268280Y214742D01*
X268294Y214756D01*
X268311Y214766D01*
X268378Y214845D01*
X268449Y214920D01*
X268458Y214938D01*
X268471Y214953D01*
X268510Y215049D01*
X268553Y215143D01*
X268555Y215163D01*
X268563Y215181D01*
X268581Y215348D01*
X268581Y224627D01*
X273892Y224627D01*
X274539Y224454D01*
X275118Y224119D01*
X275591Y223646D01*
X275926Y223067D01*
X276029Y222682D01*
X276039Y222660D01*
X276043Y222636D01*
X276089Y222548D01*
X276130Y222458D01*
X276146Y222440D01*
X276158Y222419D01*
X276229Y222350D01*
X276297Y222277D01*
X276318Y222266D01*
X276336Y222249D01*
X276426Y222207D01*
X276513Y222160D01*
X276537Y222156D01*
X276559Y222146D01*
X276658Y222135D01*
X276756Y222118D01*
X276780Y222121D01*
X276803Y222119D01*
X276900Y222140D01*
X276999Y222155D01*
X277020Y222166D01*
X277044Y222171D01*
X277129Y222222D01*
X277218Y222267D01*
X277234Y222285D01*
X277255Y222297D01*
X277320Y222373D01*
X277389Y222444D01*
X277399Y222466D01*
X277415Y222484D01*
X277452Y222576D01*
X277495Y222666D01*
X277498Y222690D01*
X277507Y222712D01*
X277525Y222879D01*
X277525Y222928D01*
X278716Y224119D01*
X280724Y224119D01*
X280744Y224122D01*
X280763Y224120D01*
X280865Y224142D01*
X280967Y224158D01*
X280984Y224168D01*
X281004Y224172D01*
X281093Y224225D01*
X281184Y224274D01*
X281198Y224288D01*
X281215Y224298D01*
X281282Y224377D01*
X281354Y224452D01*
X281362Y224470D01*
X281375Y224485D01*
X281414Y224581D01*
X281457Y224675D01*
X281459Y224695D01*
X281467Y224713D01*
X281485Y224880D01*
X281485Y235227D01*
X281471Y235317D01*
X281463Y235408D01*
X281451Y235437D01*
X281446Y235469D01*
X281403Y235550D01*
X281367Y235634D01*
X281341Y235666D01*
X281330Y235687D01*
X281307Y235709D01*
X281262Y235765D01*
X268223Y248804D01*
X268223Y286954D01*
X268220Y286974D01*
X268222Y286993D01*
X268200Y287095D01*
X268184Y287197D01*
X268174Y287214D01*
X268170Y287234D01*
X268117Y287323D01*
X268068Y287414D01*
X268054Y287428D01*
X268044Y287445D01*
X267965Y287512D01*
X267890Y287584D01*
X267872Y287592D01*
X267857Y287605D01*
X267761Y287644D01*
X267667Y287687D01*
X267647Y287689D01*
X267629Y287697D01*
X267462Y287715D01*
X262864Y287715D01*
X261673Y288906D01*
X261673Y303590D01*
X262864Y304781D01*
X279548Y304781D01*
X280519Y303810D01*
X280535Y303798D01*
X280547Y303783D01*
X280635Y303727D01*
X280718Y303667D01*
X280737Y303661D01*
X280754Y303650D01*
X280855Y303625D01*
X280953Y303594D01*
X280973Y303595D01*
X280993Y303590D01*
X281096Y303598D01*
X281199Y303601D01*
X281218Y303607D01*
X281238Y303609D01*
X281333Y303649D01*
X281430Y303685D01*
X281446Y303697D01*
X281464Y303705D01*
X281595Y303810D01*
X289844Y312059D01*
X289887Y312119D01*
X289927Y312161D01*
X289934Y312176D01*
X289957Y312203D01*
X289969Y312233D01*
X289988Y312259D01*
X290015Y312346D01*
X290026Y312373D01*
X290031Y312384D01*
X290031Y312386D01*
X290049Y312431D01*
X290053Y312472D01*
X290060Y312494D01*
X290059Y312526D01*
X290067Y312597D01*
X290067Y313683D01*
X291034Y316017D01*
X292821Y317804D01*
X295155Y318771D01*
X297681Y318771D01*
X300015Y317804D01*
X301802Y316017D01*
X302769Y313683D01*
X302769Y311157D01*
X301802Y308823D01*
X300015Y307036D01*
X297681Y306069D01*
X297103Y306069D01*
X297013Y306055D01*
X296922Y306047D01*
X296893Y306035D01*
X296861Y306030D01*
X296780Y305987D01*
X296696Y305951D01*
X296664Y305925D01*
X296643Y305914D01*
X296621Y305891D01*
X296565Y305846D01*
X282394Y291675D01*
X281500Y291675D01*
X281480Y291672D01*
X281461Y291674D01*
X281359Y291652D01*
X281257Y291636D01*
X281240Y291626D01*
X281220Y291622D01*
X281131Y291569D01*
X281040Y291520D01*
X281026Y291506D01*
X281009Y291496D01*
X280942Y291417D01*
X280870Y291342D01*
X280862Y291324D01*
X280849Y291309D01*
X280810Y291213D01*
X280767Y291119D01*
X280765Y291099D01*
X280757Y291081D01*
X280739Y290914D01*
X280739Y288906D01*
X279548Y287715D01*
X278130Y287715D01*
X278110Y287712D01*
X278091Y287714D01*
X277989Y287692D01*
X277887Y287676D01*
X277870Y287666D01*
X277850Y287662D01*
X277761Y287609D01*
X277670Y287560D01*
X277656Y287546D01*
X277639Y287536D01*
X277572Y287457D01*
X277500Y287382D01*
X277492Y287364D01*
X277479Y287349D01*
X277440Y287253D01*
X277397Y287159D01*
X277395Y287139D01*
X277387Y287121D01*
X277369Y286954D01*
X277369Y252907D01*
X277383Y252817D01*
X277391Y252726D01*
X277403Y252697D01*
X277408Y252665D01*
X277451Y252584D01*
X277487Y252500D01*
X277513Y252468D01*
X277524Y252447D01*
X277547Y252425D01*
X277592Y252369D01*
X290631Y239330D01*
X290631Y224880D01*
X290634Y224860D01*
X290632Y224841D01*
X290654Y224739D01*
X290670Y224637D01*
X290680Y224620D01*
X290684Y224600D01*
X290737Y224511D01*
X290786Y224420D01*
X290800Y224406D01*
X290810Y224389D01*
X290889Y224322D01*
X290964Y224250D01*
X290982Y224242D01*
X290997Y224229D01*
X291093Y224190D01*
X291187Y224147D01*
X291207Y224145D01*
X291225Y224137D01*
X291392Y224119D01*
X293400Y224119D01*
X294591Y222928D01*
X294591Y219920D01*
X294594Y219900D01*
X294592Y219881D01*
X294614Y219779D01*
X294630Y219677D01*
X294640Y219660D01*
X294644Y219640D01*
X294697Y219551D01*
X294746Y219460D01*
X294760Y219446D01*
X294770Y219429D01*
X294849Y219362D01*
X294924Y219290D01*
X294942Y219282D01*
X294957Y219269D01*
X295053Y219230D01*
X295147Y219187D01*
X295167Y219185D01*
X295185Y219177D01*
X295352Y219159D01*
X307064Y219159D01*
X307154Y219173D01*
X307245Y219181D01*
X307274Y219193D01*
X307306Y219198D01*
X307387Y219241D01*
X307471Y219277D01*
X307503Y219303D01*
X307524Y219314D01*
X307546Y219337D01*
X307602Y219382D01*
X311028Y222808D01*
X311081Y222882D01*
X311141Y222952D01*
X311153Y222982D01*
X311172Y223008D01*
X311198Y223095D01*
X311233Y223180D01*
X311237Y223221D01*
X311244Y223243D01*
X311243Y223275D01*
X311251Y223346D01*
X311251Y228189D01*
X311688Y228626D01*
X311741Y228700D01*
X311801Y228769D01*
X311813Y228800D01*
X311832Y228826D01*
X311859Y228913D01*
X311893Y228998D01*
X311897Y229039D01*
X311904Y229061D01*
X311903Y229093D01*
X311911Y229164D01*
X311911Y239130D01*
X314813Y242032D01*
X331830Y259049D01*
X332084Y259303D01*
X332137Y259377D01*
X332197Y259447D01*
X332209Y259477D01*
X332228Y259503D01*
X332255Y259590D01*
X332289Y259675D01*
X332293Y259716D01*
X332300Y259738D01*
X332299Y259770D01*
X332307Y259841D01*
X332307Y272156D01*
X332304Y272176D01*
X332306Y272195D01*
X332284Y272297D01*
X332268Y272399D01*
X332258Y272416D01*
X332254Y272436D01*
X332201Y272525D01*
X332152Y272616D01*
X332138Y272630D01*
X332128Y272647D01*
X332049Y272714D01*
X331974Y272786D01*
X331956Y272794D01*
X331941Y272807D01*
X331845Y272846D01*
X331751Y272889D01*
X331731Y272891D01*
X331713Y272899D01*
X331546Y272917D01*
X329538Y272917D01*
X328347Y274108D01*
X328347Y274157D01*
X328343Y274181D01*
X328346Y274205D01*
X328324Y274302D01*
X328308Y274400D01*
X328296Y274421D01*
X328291Y274445D01*
X328239Y274530D01*
X328192Y274617D01*
X328175Y274634D01*
X328162Y274654D01*
X328086Y274718D01*
X328014Y274787D01*
X327992Y274797D01*
X327974Y274812D01*
X327881Y274848D01*
X327791Y274890D01*
X327767Y274893D01*
X327745Y274902D01*
X327645Y274906D01*
X327547Y274917D01*
X327523Y274912D01*
X327499Y274913D01*
X327404Y274886D01*
X327306Y274865D01*
X327285Y274853D01*
X327262Y274846D01*
X327181Y274790D01*
X327095Y274739D01*
X327079Y274721D01*
X327060Y274707D01*
X327000Y274628D01*
X326935Y274552D01*
X326926Y274530D01*
X326912Y274510D01*
X326851Y274354D01*
X326748Y273969D01*
X326413Y273390D01*
X325940Y272917D01*
X325361Y272582D01*
X324714Y272409D01*
X319403Y272409D01*
X319403Y281688D01*
X319400Y281708D01*
X319402Y281727D01*
X319380Y281829D01*
X319363Y281931D01*
X319354Y281948D01*
X319350Y281968D01*
X319297Y282057D01*
X319248Y282148D01*
X319234Y282162D01*
X319224Y282179D01*
X319145Y282246D01*
X319070Y282317D01*
X319052Y282326D01*
X319037Y282339D01*
X318941Y282378D01*
X318847Y282421D01*
X318827Y282423D01*
X318809Y282431D01*
X318642Y282449D01*
X317879Y282449D01*
X317879Y282451D01*
X318642Y282451D01*
X318662Y282454D01*
X318681Y282452D01*
X318783Y282474D01*
X318885Y282491D01*
X318902Y282500D01*
X318922Y282504D01*
X319011Y282557D01*
X319102Y282606D01*
X319116Y282620D01*
X319133Y282630D01*
X319200Y282709D01*
X319271Y282784D01*
X319280Y282802D01*
X319293Y282817D01*
X319332Y282913D01*
X319375Y283007D01*
X319377Y283027D01*
X319385Y283045D01*
X319403Y283212D01*
X319403Y292491D01*
X324714Y292491D01*
X325361Y292318D01*
X325940Y291983D01*
X326413Y291510D01*
X326748Y290931D01*
X326851Y290546D01*
X326861Y290524D01*
X326865Y290500D01*
X326911Y290412D01*
X326952Y290322D01*
X326968Y290304D01*
X326980Y290283D01*
X327052Y290214D01*
X327119Y290141D01*
X327140Y290130D01*
X327158Y290113D01*
X327248Y290071D01*
X327335Y290024D01*
X327359Y290020D01*
X327381Y290010D01*
X327480Y289999D01*
X327578Y289982D01*
X327602Y289985D01*
X327625Y289983D01*
X327722Y290004D01*
X327821Y290019D01*
X327842Y290030D01*
X327866Y290035D01*
X327951Y290086D01*
X328040Y290131D01*
X328056Y290149D01*
X328077Y290161D01*
X328142Y290237D01*
X328211Y290308D01*
X328221Y290330D01*
X328237Y290348D01*
X328274Y290440D01*
X328317Y290530D01*
X328320Y290554D01*
X328329Y290576D01*
X328347Y290743D01*
X328347Y290792D01*
X329538Y291983D01*
X344222Y291983D01*
X345413Y290792D01*
X345413Y287530D01*
X345416Y287510D01*
X345414Y287491D01*
X345436Y287389D01*
X345452Y287287D01*
X345462Y287270D01*
X345466Y287250D01*
X345519Y287161D01*
X345568Y287070D01*
X345582Y287056D01*
X345592Y287039D01*
X345671Y286972D01*
X345746Y286900D01*
X345764Y286892D01*
X345779Y286879D01*
X345875Y286840D01*
X345969Y286797D01*
X345989Y286795D01*
X346007Y286787D01*
X346174Y286769D01*
X363196Y286769D01*
X363216Y286772D01*
X363235Y286770D01*
X363337Y286792D01*
X363439Y286808D01*
X363456Y286818D01*
X363476Y286822D01*
X363565Y286875D01*
X363656Y286924D01*
X363670Y286938D01*
X363687Y286948D01*
X363754Y287027D01*
X363826Y287102D01*
X363834Y287120D01*
X363847Y287135D01*
X363886Y287231D01*
X363929Y287325D01*
X363931Y287345D01*
X363939Y287363D01*
X363957Y287530D01*
X363957Y288382D01*
X365148Y289573D01*
X372832Y289573D01*
X374023Y288382D01*
X374023Y274698D01*
X372832Y273507D01*
X365148Y273507D01*
X363957Y274698D01*
X363957Y276862D01*
X363954Y276882D01*
X363956Y276901D01*
X363934Y277003D01*
X363918Y277105D01*
X363908Y277122D01*
X363904Y277142D01*
X363851Y277231D01*
X363802Y277322D01*
X363788Y277336D01*
X363778Y277353D01*
X363699Y277420D01*
X363624Y277492D01*
X363606Y277500D01*
X363591Y277513D01*
X363495Y277552D01*
X363401Y277595D01*
X363381Y277597D01*
X363363Y277605D01*
X363196Y277623D01*
X346174Y277623D01*
X346154Y277620D01*
X346135Y277622D01*
X346033Y277600D01*
X345931Y277584D01*
X345914Y277574D01*
X345894Y277570D01*
X345805Y277517D01*
X345714Y277468D01*
X345700Y277454D01*
X345683Y277444D01*
X345616Y277365D01*
X345544Y277290D01*
X345536Y277272D01*
X345523Y277257D01*
X345484Y277161D01*
X345441Y277067D01*
X345439Y277047D01*
X345431Y277029D01*
X345413Y276862D01*
X345413Y274108D01*
X344222Y272917D01*
X342214Y272917D01*
X342194Y272914D01*
X342175Y272916D01*
X342073Y272894D01*
X341971Y272878D01*
X341954Y272868D01*
X341934Y272864D01*
X341845Y272811D01*
X341754Y272762D01*
X341740Y272748D01*
X341723Y272738D01*
X341656Y272659D01*
X341584Y272584D01*
X341576Y272566D01*
X341563Y272551D01*
X341524Y272455D01*
X341481Y272361D01*
X341479Y272341D01*
X341471Y272323D01*
X341453Y272156D01*
X341453Y255738D01*
X341422Y255707D01*
X341369Y255633D01*
X341309Y255563D01*
X341297Y255533D01*
X341278Y255507D01*
X341251Y255420D01*
X341217Y255335D01*
X341213Y255294D01*
X341206Y255272D01*
X341207Y255240D01*
X341199Y255169D01*
X341199Y245211D01*
X341213Y245121D01*
X341221Y245030D01*
X341233Y245001D01*
X341238Y244969D01*
X341281Y244888D01*
X341317Y244804D01*
X341343Y244772D01*
X341354Y244751D01*
X341377Y244729D01*
X341422Y244673D01*
X356109Y229986D01*
X356109Y218617D01*
X356123Y218527D01*
X356131Y218436D01*
X356143Y218407D01*
X356148Y218375D01*
X356191Y218294D01*
X356227Y218210D01*
X356253Y218178D01*
X356264Y218157D01*
X356287Y218135D01*
X356332Y218079D01*
X367939Y206472D01*
X368013Y206419D01*
X368083Y206359D01*
X368113Y206347D01*
X368139Y206328D01*
X368226Y206301D01*
X368311Y206267D01*
X368352Y206263D01*
X368374Y206256D01*
X368406Y206257D01*
X368477Y206249D01*
X394056Y206249D01*
X394146Y206263D01*
X394237Y206271D01*
X394267Y206283D01*
X394299Y206288D01*
X394380Y206331D01*
X394463Y206367D01*
X394496Y206393D01*
X394516Y206404D01*
X394538Y206427D01*
X394594Y206472D01*
X395183Y207060D01*
X397517Y208027D01*
X398349Y208027D01*
X398439Y208041D01*
X398530Y208049D01*
X398559Y208061D01*
X398591Y208066D01*
X398672Y208109D01*
X398756Y208145D01*
X398788Y208171D01*
X398809Y208182D01*
X398831Y208205D01*
X398887Y208250D01*
X402112Y211475D01*
X402165Y211549D01*
X402225Y211619D01*
X402237Y211649D01*
X402256Y211675D01*
X402283Y211762D01*
X402317Y211847D01*
X402321Y211888D01*
X402328Y211910D01*
X402327Y211942D01*
X402335Y212013D01*
X402335Y218105D01*
X402321Y218195D01*
X402313Y218286D01*
X402301Y218315D01*
X402296Y218347D01*
X402253Y218428D01*
X402217Y218512D01*
X402191Y218544D01*
X402180Y218565D01*
X402157Y218587D01*
X402112Y218643D01*
X402057Y218698D01*
X402057Y232382D01*
X403248Y233573D01*
X410932Y233573D01*
X412123Y232382D01*
X412123Y218698D01*
X411704Y218279D01*
X411651Y218205D01*
X411591Y218136D01*
X411579Y218105D01*
X411560Y218079D01*
X411533Y217992D01*
X411499Y217907D01*
X411495Y217866D01*
X411488Y217844D01*
X411489Y217812D01*
X411481Y217741D01*
X411481Y207910D01*
X405354Y201783D01*
X405301Y201709D01*
X405241Y201639D01*
X405229Y201609D01*
X405210Y201583D01*
X405183Y201496D01*
X405149Y201411D01*
X405145Y201370D01*
X405138Y201348D01*
X405139Y201316D01*
X405131Y201245D01*
X405131Y200413D01*
X404164Y198079D01*
X402377Y196292D01*
X400043Y195325D01*
X397517Y195325D01*
X395183Y196292D01*
X394594Y196880D01*
X394520Y196933D01*
X394451Y196993D01*
X394421Y197005D01*
X394395Y197024D01*
X394308Y197051D01*
X394223Y197085D01*
X394182Y197089D01*
X394160Y197096D01*
X394127Y197095D01*
X394056Y197103D01*
X364374Y197103D01*
X346963Y214514D01*
X346963Y225883D01*
X346949Y225973D01*
X346941Y226064D01*
X346929Y226093D01*
X346924Y226125D01*
X346881Y226206D01*
X346845Y226290D01*
X346819Y226322D01*
X346808Y226343D01*
X346785Y226365D01*
X346740Y226421D01*
X332053Y241108D01*
X332053Y244501D01*
X332042Y244571D01*
X332040Y244643D01*
X332022Y244692D01*
X332014Y244743D01*
X331980Y244807D01*
X331955Y244874D01*
X331923Y244915D01*
X331898Y244961D01*
X331846Y245010D01*
X331802Y245066D01*
X331758Y245094D01*
X331720Y245130D01*
X331655Y245160D01*
X331595Y245199D01*
X331544Y245212D01*
X331497Y245234D01*
X331426Y245242D01*
X331356Y245259D01*
X331304Y245255D01*
X331253Y245261D01*
X331182Y245246D01*
X331111Y245240D01*
X331063Y245220D01*
X331012Y245209D01*
X330951Y245172D01*
X330885Y245144D01*
X330829Y245099D01*
X330801Y245082D01*
X330786Y245065D01*
X330754Y245039D01*
X321280Y235565D01*
X321227Y235491D01*
X321167Y235421D01*
X321155Y235391D01*
X321136Y235365D01*
X321109Y235278D01*
X321075Y235193D01*
X321071Y235152D01*
X321064Y235130D01*
X321065Y235098D01*
X321057Y235027D01*
X321057Y219903D01*
X321040Y219886D01*
X320987Y219812D01*
X320927Y219742D01*
X320915Y219712D01*
X320896Y219686D01*
X320869Y219599D01*
X320835Y219514D01*
X320831Y219473D01*
X320824Y219451D01*
X320825Y219419D01*
X320817Y219348D01*
X320817Y214505D01*
X319626Y213314D01*
X314783Y213314D01*
X314693Y213300D01*
X314602Y213292D01*
X314573Y213280D01*
X314541Y213275D01*
X314460Y213232D01*
X314376Y213196D01*
X314344Y213170D01*
X314323Y213159D01*
X314301Y213136D01*
X314245Y213091D01*
X311167Y210013D01*
X295352Y210013D01*
X295332Y210010D01*
X295313Y210012D01*
X295211Y209990D01*
X295109Y209974D01*
X295092Y209964D01*
X295072Y209960D01*
X294983Y209907D01*
X294892Y209858D01*
X294878Y209844D01*
X294861Y209834D01*
X294794Y209755D01*
X294722Y209680D01*
X294714Y209662D01*
X294701Y209647D01*
X294662Y209551D01*
X294619Y209457D01*
X294617Y209437D01*
X294609Y209419D01*
X294591Y209252D01*
X294591Y206244D01*
X293400Y205053D01*
X291392Y205053D01*
X291372Y205050D01*
X291353Y205052D01*
X291251Y205030D01*
X291149Y205014D01*
X291132Y205004D01*
X291112Y205000D01*
X291023Y204947D01*
X290932Y204898D01*
X290918Y204884D01*
X290901Y204874D01*
X290834Y204795D01*
X290762Y204720D01*
X290754Y204702D01*
X290741Y204687D01*
X290702Y204591D01*
X290659Y204497D01*
X290657Y204477D01*
X290649Y204459D01*
X290631Y204292D01*
X290631Y196280D01*
X259958Y165607D01*
X242722Y165607D01*
X242632Y165593D01*
X242541Y165585D01*
X242511Y165573D01*
X242479Y165568D01*
X242398Y165525D01*
X242315Y165489D01*
X242282Y165463D01*
X242262Y165452D01*
X242240Y165429D01*
X242184Y165384D01*
X241595Y164796D01*
X239261Y163829D01*
X236735Y163829D01*
G37*
%LPD*%
%LPC*%
G36*
X392641Y260885D02*
X392641Y260885D01*
X384785Y268740D01*
X384785Y272746D01*
X384782Y272766D01*
X384784Y272785D01*
X384762Y272887D01*
X384746Y272989D01*
X384736Y273006D01*
X384732Y273026D01*
X384679Y273115D01*
X384630Y273206D01*
X384616Y273220D01*
X384606Y273237D01*
X384527Y273304D01*
X384452Y273376D01*
X384434Y273384D01*
X384419Y273397D01*
X384323Y273436D01*
X384229Y273479D01*
X384209Y273481D01*
X384191Y273489D01*
X384024Y273507D01*
X377848Y273507D01*
X376657Y274698D01*
X376657Y288382D01*
X377848Y289573D01*
X383913Y289573D01*
X383983Y289584D01*
X384055Y289586D01*
X384104Y289604D01*
X384155Y289612D01*
X384219Y289646D01*
X384286Y289671D01*
X384327Y289703D01*
X384373Y289728D01*
X384422Y289779D01*
X384478Y289824D01*
X384506Y289868D01*
X384542Y289906D01*
X384572Y289971D01*
X384611Y290031D01*
X384624Y290082D01*
X384646Y290129D01*
X384654Y290200D01*
X384671Y290270D01*
X384667Y290322D01*
X384673Y290373D01*
X384658Y290444D01*
X384652Y290515D01*
X384632Y290563D01*
X384621Y290614D01*
X384584Y290675D01*
X384556Y290741D01*
X384511Y290797D01*
X384494Y290825D01*
X384477Y290840D01*
X384451Y290872D01*
X372192Y303131D01*
X372134Y303173D01*
X372082Y303222D01*
X372035Y303244D01*
X371993Y303275D01*
X371924Y303296D01*
X371859Y303326D01*
X371807Y303332D01*
X371757Y303347D01*
X371686Y303345D01*
X371615Y303353D01*
X371564Y303342D01*
X371512Y303341D01*
X371444Y303316D01*
X371374Y303301D01*
X371330Y303274D01*
X371281Y303256D01*
X371225Y303211D01*
X371163Y303174D01*
X371129Y303135D01*
X371089Y303102D01*
X371050Y303042D01*
X371003Y302988D01*
X370984Y302939D01*
X370956Y302895D01*
X370938Y302826D01*
X370911Y302759D01*
X370903Y302688D01*
X370895Y302657D01*
X370897Y302634D01*
X370893Y302593D01*
X370893Y301548D01*
X369702Y300357D01*
X353018Y300357D01*
X351827Y301548D01*
X351827Y316232D01*
X353018Y317423D01*
X369702Y317423D01*
X370893Y316232D01*
X370893Y312954D01*
X370896Y312934D01*
X370894Y312915D01*
X370916Y312813D01*
X370932Y312711D01*
X370942Y312694D01*
X370946Y312674D01*
X370999Y312585D01*
X371048Y312494D01*
X371062Y312480D01*
X371072Y312463D01*
X371151Y312396D01*
X371226Y312324D01*
X371244Y312316D01*
X371259Y312303D01*
X371355Y312264D01*
X371449Y312221D01*
X371469Y312219D01*
X371487Y312211D01*
X371654Y312193D01*
X372472Y312193D01*
X377922Y306743D01*
X377980Y306701D01*
X378032Y306652D01*
X378079Y306630D01*
X378121Y306599D01*
X378190Y306578D01*
X378255Y306548D01*
X378307Y306542D01*
X378357Y306527D01*
X378428Y306529D01*
X378499Y306521D01*
X378550Y306532D01*
X378602Y306533D01*
X378670Y306558D01*
X378740Y306573D01*
X378785Y306600D01*
X378833Y306618D01*
X378889Y306663D01*
X378951Y306700D01*
X378985Y306739D01*
X379025Y306772D01*
X379064Y306832D01*
X379111Y306886D01*
X379130Y306935D01*
X379158Y306979D01*
X379176Y307048D01*
X379203Y307115D01*
X379211Y307186D01*
X379219Y307217D01*
X379217Y307240D01*
X379221Y307281D01*
X379221Y311223D01*
X382197Y314199D01*
X384397Y314199D01*
X384487Y314213D01*
X384578Y314221D01*
X384607Y314233D01*
X384639Y314238D01*
X384720Y314281D01*
X384804Y314317D01*
X384836Y314343D01*
X384857Y314354D01*
X384879Y314377D01*
X384935Y314422D01*
X385316Y314803D01*
X385328Y314819D01*
X385343Y314831D01*
X385399Y314919D01*
X385459Y315002D01*
X385465Y315021D01*
X385476Y315038D01*
X385501Y315139D01*
X385532Y315237D01*
X385531Y315257D01*
X385536Y315277D01*
X385528Y315380D01*
X385525Y315483D01*
X385519Y315502D01*
X385517Y315522D01*
X385477Y315617D01*
X385441Y315714D01*
X385429Y315730D01*
X385421Y315748D01*
X385316Y315879D01*
X376831Y324364D01*
X376757Y324417D01*
X376688Y324477D01*
X376657Y324489D01*
X376631Y324508D01*
X376544Y324535D01*
X376459Y324569D01*
X376418Y324573D01*
X376396Y324580D01*
X376364Y324579D01*
X376293Y324587D01*
X371654Y324587D01*
X371634Y324584D01*
X371615Y324586D01*
X371513Y324564D01*
X371411Y324548D01*
X371394Y324538D01*
X371374Y324534D01*
X371285Y324481D01*
X371194Y324432D01*
X371180Y324418D01*
X371163Y324408D01*
X371096Y324329D01*
X371024Y324254D01*
X371016Y324236D01*
X371003Y324221D01*
X370964Y324125D01*
X370921Y324031D01*
X370919Y324011D01*
X370911Y323993D01*
X370893Y323826D01*
X370893Y320548D01*
X369702Y319357D01*
X353018Y319357D01*
X351827Y320548D01*
X351827Y335232D01*
X353018Y336423D01*
X369702Y336423D01*
X370893Y335232D01*
X370893Y331954D01*
X370896Y331934D01*
X370894Y331915D01*
X370916Y331813D01*
X370932Y331711D01*
X370942Y331694D01*
X370946Y331674D01*
X370999Y331585D01*
X371048Y331494D01*
X371062Y331480D01*
X371072Y331463D01*
X371151Y331396D01*
X371226Y331324D01*
X371244Y331316D01*
X371259Y331303D01*
X371355Y331264D01*
X371449Y331221D01*
X371469Y331219D01*
X371487Y331211D01*
X371654Y331193D01*
X379344Y331193D01*
X381502Y329035D01*
X386958Y323579D01*
X387016Y323537D01*
X387068Y323488D01*
X387115Y323466D01*
X387157Y323435D01*
X387226Y323414D01*
X387291Y323384D01*
X387343Y323378D01*
X387393Y323363D01*
X387464Y323365D01*
X387535Y323357D01*
X387586Y323368D01*
X387638Y323369D01*
X387706Y323394D01*
X387776Y323409D01*
X387821Y323436D01*
X387869Y323454D01*
X387925Y323499D01*
X387987Y323536D01*
X388021Y323575D01*
X388061Y323608D01*
X388100Y323668D01*
X388147Y323722D01*
X388166Y323771D01*
X388194Y323815D01*
X388212Y323884D01*
X388239Y323951D01*
X388247Y324022D01*
X388255Y324053D01*
X388253Y324076D01*
X388257Y324117D01*
X388257Y327402D01*
X389448Y328593D01*
X397013Y328593D01*
X397103Y328607D01*
X397194Y328615D01*
X397223Y328627D01*
X397255Y328632D01*
X397336Y328675D01*
X397420Y328711D01*
X397452Y328737D01*
X397473Y328748D01*
X397495Y328771D01*
X397551Y328816D01*
X404678Y335943D01*
X404731Y336017D01*
X404791Y336086D01*
X404803Y336117D01*
X404822Y336143D01*
X404849Y336230D01*
X404883Y336315D01*
X404887Y336356D01*
X404894Y336378D01*
X404893Y336410D01*
X404901Y336481D01*
X404901Y341936D01*
X404898Y341956D01*
X404900Y341975D01*
X404878Y342077D01*
X404862Y342179D01*
X404852Y342196D01*
X404848Y342216D01*
X404795Y342305D01*
X404746Y342396D01*
X404732Y342410D01*
X404722Y342427D01*
X404643Y342494D01*
X404568Y342566D01*
X404550Y342574D01*
X404535Y342587D01*
X404439Y342626D01*
X404345Y342669D01*
X404325Y342671D01*
X404307Y342679D01*
X404140Y342697D01*
X400862Y342697D01*
X399671Y343888D01*
X399671Y360572D01*
X400862Y361763D01*
X415546Y361763D01*
X416737Y360572D01*
X416737Y343888D01*
X415546Y342697D01*
X412268Y342697D01*
X412248Y342694D01*
X412229Y342696D01*
X412127Y342674D01*
X412025Y342658D01*
X412008Y342648D01*
X411988Y342644D01*
X411899Y342591D01*
X411808Y342542D01*
X411794Y342528D01*
X411777Y342518D01*
X411710Y342439D01*
X411638Y342364D01*
X411630Y342346D01*
X411617Y342331D01*
X411578Y342235D01*
X411535Y342141D01*
X411533Y342121D01*
X411525Y342103D01*
X411507Y341936D01*
X411507Y337218D01*
X411518Y337147D01*
X411520Y337075D01*
X411538Y337026D01*
X411546Y336975D01*
X411580Y336912D01*
X411605Y336844D01*
X411637Y336804D01*
X411662Y336758D01*
X411714Y336708D01*
X411758Y336652D01*
X411802Y336624D01*
X411840Y336588D01*
X411905Y336558D01*
X411965Y336519D01*
X412016Y336507D01*
X412063Y336485D01*
X412134Y336477D01*
X412204Y336459D01*
X412256Y336463D01*
X412307Y336458D01*
X412378Y336473D01*
X412449Y336478D01*
X412497Y336499D01*
X412548Y336510D01*
X412609Y336547D01*
X412675Y336575D01*
X412731Y336619D01*
X412759Y336636D01*
X412774Y336654D01*
X412806Y336679D01*
X415471Y339345D01*
X419681Y339345D01*
X422602Y336423D01*
X422660Y336382D01*
X422712Y336332D01*
X422759Y336310D01*
X422801Y336280D01*
X422870Y336259D01*
X422935Y336229D01*
X422987Y336223D01*
X423037Y336208D01*
X423108Y336209D01*
X423179Y336202D01*
X423230Y336213D01*
X423282Y336214D01*
X423350Y336239D01*
X423420Y336254D01*
X423465Y336281D01*
X423513Y336298D01*
X423569Y336343D01*
X423631Y336380D01*
X423665Y336420D01*
X423705Y336452D01*
X423744Y336512D01*
X423791Y336567D01*
X423810Y336615D01*
X423838Y336659D01*
X423856Y336728D01*
X423883Y336795D01*
X423891Y336866D01*
X423899Y336898D01*
X423897Y336921D01*
X423901Y336962D01*
X423901Y341936D01*
X423898Y341956D01*
X423900Y341975D01*
X423878Y342077D01*
X423862Y342179D01*
X423852Y342196D01*
X423848Y342216D01*
X423795Y342305D01*
X423746Y342396D01*
X423732Y342410D01*
X423722Y342427D01*
X423643Y342494D01*
X423568Y342566D01*
X423550Y342574D01*
X423535Y342587D01*
X423439Y342626D01*
X423345Y342669D01*
X423325Y342671D01*
X423307Y342679D01*
X423140Y342697D01*
X419862Y342697D01*
X418671Y343888D01*
X418671Y360572D01*
X419862Y361763D01*
X434546Y361763D01*
X435737Y360572D01*
X435737Y343888D01*
X434546Y342697D01*
X431268Y342697D01*
X431248Y342694D01*
X431229Y342696D01*
X431127Y342674D01*
X431025Y342658D01*
X431008Y342648D01*
X430988Y342644D01*
X430899Y342591D01*
X430808Y342542D01*
X430794Y342528D01*
X430777Y342518D01*
X430710Y342439D01*
X430638Y342364D01*
X430630Y342346D01*
X430617Y342331D01*
X430578Y342235D01*
X430535Y342141D01*
X430533Y342121D01*
X430525Y342103D01*
X430507Y341936D01*
X430507Y323728D01*
X422036Y315257D01*
X418084Y315257D01*
X418064Y315254D01*
X418045Y315256D01*
X417943Y315234D01*
X417841Y315218D01*
X417824Y315208D01*
X417804Y315204D01*
X417715Y315151D01*
X417624Y315102D01*
X417610Y315088D01*
X417593Y315078D01*
X417526Y314999D01*
X417454Y314924D01*
X417446Y314906D01*
X417433Y314891D01*
X417394Y314795D01*
X417351Y314701D01*
X417349Y314681D01*
X417341Y314663D01*
X417323Y314496D01*
X417323Y309718D01*
X416132Y308527D01*
X416054Y308527D01*
X416034Y308524D01*
X416015Y308526D01*
X415913Y308504D01*
X415811Y308488D01*
X415794Y308478D01*
X415774Y308474D01*
X415685Y308421D01*
X415594Y308372D01*
X415580Y308358D01*
X415563Y308348D01*
X415496Y308269D01*
X415424Y308194D01*
X415416Y308176D01*
X415403Y308161D01*
X415364Y308065D01*
X415321Y307971D01*
X415319Y307951D01*
X415311Y307933D01*
X415293Y307766D01*
X415293Y295452D01*
X410711Y290870D01*
X410699Y290854D01*
X410684Y290842D01*
X410628Y290754D01*
X410567Y290671D01*
X410562Y290652D01*
X410551Y290635D01*
X410526Y290534D01*
X410495Y290435D01*
X410496Y290416D01*
X410491Y290396D01*
X410499Y290293D01*
X410501Y290190D01*
X410508Y290171D01*
X410510Y290151D01*
X410550Y290056D01*
X410586Y289959D01*
X410598Y289943D01*
X410606Y289925D01*
X410711Y289794D01*
X412123Y288382D01*
X412123Y274698D01*
X410880Y273455D01*
X410874Y273454D01*
X410785Y273401D01*
X410694Y273352D01*
X410680Y273338D01*
X410663Y273328D01*
X410596Y273249D01*
X410524Y273174D01*
X410516Y273156D01*
X410503Y273141D01*
X410464Y273045D01*
X410421Y272951D01*
X410419Y272931D01*
X410411Y272913D01*
X410393Y272746D01*
X410393Y269324D01*
X401953Y260885D01*
X392641Y260885D01*
G37*
%LPD*%
%LPC*%
G36*
X262864Y306715D02*
X262864Y306715D01*
X261673Y307906D01*
X261673Y322590D01*
X262864Y323781D01*
X274753Y323781D01*
X274843Y323795D01*
X274934Y323803D01*
X274963Y323815D01*
X274995Y323820D01*
X275076Y323863D01*
X275160Y323899D01*
X275192Y323925D01*
X275213Y323936D01*
X275235Y323959D01*
X275291Y324004D01*
X312664Y361377D01*
X312717Y361451D01*
X312777Y361520D01*
X312789Y361551D01*
X312808Y361577D01*
X312835Y361664D01*
X312869Y361749D01*
X312873Y361790D01*
X312880Y361812D01*
X312879Y361844D01*
X312887Y361915D01*
X312887Y387206D01*
X312885Y387220D01*
X312886Y387231D01*
X312885Y387236D01*
X312886Y387245D01*
X312864Y387347D01*
X312848Y387449D01*
X312838Y387466D01*
X312834Y387486D01*
X312781Y387575D01*
X312732Y387666D01*
X312718Y387680D01*
X312708Y387697D01*
X312629Y387764D01*
X312554Y387836D01*
X312536Y387844D01*
X312521Y387857D01*
X312425Y387896D01*
X312331Y387939D01*
X312311Y387941D01*
X312293Y387949D01*
X312126Y387967D01*
X309765Y387967D01*
X309652Y387949D01*
X309538Y387933D01*
X309528Y387929D01*
X309522Y387928D01*
X309502Y387917D01*
X309384Y387865D01*
X308981Y387632D01*
X308334Y387459D01*
X304523Y387459D01*
X304523Y396738D01*
X304520Y396758D01*
X304522Y396777D01*
X304500Y396879D01*
X304483Y396981D01*
X304474Y396998D01*
X304470Y397018D01*
X304417Y397107D01*
X304368Y397198D01*
X304354Y397212D01*
X304344Y397229D01*
X304265Y397296D01*
X304190Y397367D01*
X304172Y397376D01*
X304157Y397389D01*
X304061Y397428D01*
X303967Y397471D01*
X303947Y397473D01*
X303929Y397481D01*
X303762Y397499D01*
X302999Y397499D01*
X302999Y397501D01*
X303762Y397501D01*
X303782Y397504D01*
X303801Y397502D01*
X303903Y397524D01*
X304005Y397541D01*
X304022Y397550D01*
X304042Y397554D01*
X304131Y397607D01*
X304222Y397656D01*
X304236Y397670D01*
X304253Y397680D01*
X304320Y397759D01*
X304391Y397834D01*
X304400Y397852D01*
X304413Y397867D01*
X304452Y397963D01*
X304495Y398057D01*
X304497Y398077D01*
X304505Y398095D01*
X304523Y398262D01*
X304523Y407541D01*
X308335Y407541D01*
X308981Y407368D01*
X309384Y407135D01*
X309491Y407094D01*
X309598Y407051D01*
X309608Y407050D01*
X309614Y407048D01*
X309636Y407047D01*
X309765Y407033D01*
X321545Y407033D01*
X321628Y406980D01*
X321711Y406919D01*
X321730Y406914D01*
X321747Y406903D01*
X321848Y406878D01*
X321947Y406847D01*
X321967Y406848D01*
X321986Y406843D01*
X322089Y406851D01*
X322192Y406853D01*
X322211Y406860D01*
X322231Y406862D01*
X322326Y406902D01*
X322423Y406938D01*
X322439Y406950D01*
X322457Y406958D01*
X322550Y407033D01*
X334245Y407033D01*
X334328Y406980D01*
X334411Y406919D01*
X334430Y406914D01*
X334447Y406903D01*
X334548Y406878D01*
X334647Y406847D01*
X334667Y406848D01*
X334686Y406843D01*
X334789Y406851D01*
X334892Y406853D01*
X334911Y406860D01*
X334931Y406862D01*
X335026Y406902D01*
X335123Y406938D01*
X335139Y406950D01*
X335157Y406958D01*
X335250Y407033D01*
X346945Y407033D01*
X347027Y406980D01*
X347111Y406919D01*
X347130Y406914D01*
X347147Y406903D01*
X347247Y406878D01*
X347346Y406847D01*
X347366Y406848D01*
X347386Y406843D01*
X347489Y406851D01*
X347592Y406853D01*
X347611Y406860D01*
X347631Y406862D01*
X347726Y406902D01*
X347823Y406938D01*
X347839Y406950D01*
X347857Y406958D01*
X347950Y407033D01*
X359645Y407033D01*
X359727Y406980D01*
X359811Y406919D01*
X359830Y406914D01*
X359847Y406903D01*
X359947Y406878D01*
X360046Y406847D01*
X360066Y406848D01*
X360086Y406843D01*
X360189Y406851D01*
X360292Y406853D01*
X360311Y406860D01*
X360331Y406862D01*
X360426Y406902D01*
X360523Y406938D01*
X360539Y406950D01*
X360557Y406958D01*
X360650Y407033D01*
X372345Y407033D01*
X372427Y406980D01*
X372511Y406919D01*
X372530Y406914D01*
X372547Y406903D01*
X372647Y406878D01*
X372746Y406847D01*
X372766Y406848D01*
X372786Y406843D01*
X372889Y406851D01*
X372992Y406853D01*
X373011Y406860D01*
X373031Y406862D01*
X373126Y406902D01*
X373223Y406938D01*
X373239Y406950D01*
X373257Y406958D01*
X373350Y407033D01*
X385045Y407033D01*
X385128Y406980D01*
X385211Y406919D01*
X385230Y406914D01*
X385247Y406903D01*
X385348Y406878D01*
X385447Y406847D01*
X385467Y406848D01*
X385486Y406843D01*
X385589Y406851D01*
X385692Y406853D01*
X385711Y406860D01*
X385731Y406862D01*
X385826Y406902D01*
X385923Y406938D01*
X385939Y406950D01*
X385957Y406958D01*
X386050Y407033D01*
X397745Y407033D01*
X397828Y406980D01*
X397911Y406919D01*
X397930Y406914D01*
X397947Y406903D01*
X398048Y406878D01*
X398147Y406847D01*
X398167Y406848D01*
X398186Y406843D01*
X398289Y406851D01*
X398392Y406853D01*
X398411Y406860D01*
X398431Y406862D01*
X398526Y406902D01*
X398623Y406938D01*
X398639Y406950D01*
X398657Y406958D01*
X398750Y407033D01*
X410445Y407033D01*
X410527Y406980D01*
X410611Y406919D01*
X410630Y406914D01*
X410647Y406903D01*
X410747Y406878D01*
X410846Y406847D01*
X410866Y406848D01*
X410886Y406843D01*
X410989Y406851D01*
X411092Y406853D01*
X411111Y406860D01*
X411131Y406862D01*
X411226Y406902D01*
X411323Y406938D01*
X411339Y406950D01*
X411357Y406958D01*
X411450Y407033D01*
X423142Y407033D01*
X424333Y405842D01*
X424333Y389158D01*
X423142Y387967D01*
X411455Y387967D01*
X411372Y388020D01*
X411289Y388081D01*
X411270Y388086D01*
X411253Y388097D01*
X411152Y388122D01*
X411053Y388153D01*
X411033Y388152D01*
X411014Y388157D01*
X410911Y388149D01*
X410808Y388147D01*
X410789Y388140D01*
X410769Y388138D01*
X410674Y388098D01*
X410577Y388062D01*
X410561Y388050D01*
X410543Y388042D01*
X410450Y387967D01*
X398755Y387967D01*
X398673Y388020D01*
X398589Y388081D01*
X398570Y388086D01*
X398553Y388097D01*
X398453Y388122D01*
X398354Y388153D01*
X398334Y388152D01*
X398314Y388157D01*
X398211Y388149D01*
X398108Y388147D01*
X398089Y388140D01*
X398069Y388138D01*
X397974Y388098D01*
X397877Y388062D01*
X397861Y388050D01*
X397843Y388042D01*
X397750Y387967D01*
X386055Y387967D01*
X385973Y388020D01*
X385889Y388081D01*
X385870Y388086D01*
X385853Y388097D01*
X385753Y388122D01*
X385654Y388153D01*
X385634Y388152D01*
X385614Y388157D01*
X385511Y388149D01*
X385408Y388147D01*
X385389Y388140D01*
X385369Y388138D01*
X385274Y388098D01*
X385177Y388062D01*
X385161Y388050D01*
X385143Y388042D01*
X385050Y387967D01*
X373355Y387967D01*
X373272Y388020D01*
X373189Y388081D01*
X373170Y388086D01*
X373153Y388097D01*
X373052Y388122D01*
X372953Y388153D01*
X372933Y388152D01*
X372914Y388157D01*
X372811Y388149D01*
X372708Y388147D01*
X372689Y388140D01*
X372669Y388138D01*
X372574Y388098D01*
X372477Y388062D01*
X372461Y388050D01*
X372443Y388042D01*
X372350Y387967D01*
X360655Y387967D01*
X360572Y388020D01*
X360489Y388081D01*
X360470Y388086D01*
X360453Y388097D01*
X360352Y388122D01*
X360253Y388153D01*
X360233Y388152D01*
X360214Y388157D01*
X360111Y388149D01*
X360008Y388147D01*
X359989Y388140D01*
X359969Y388138D01*
X359874Y388098D01*
X359777Y388062D01*
X359761Y388050D01*
X359743Y388042D01*
X359650Y387967D01*
X347955Y387967D01*
X347872Y388020D01*
X347789Y388081D01*
X347770Y388086D01*
X347753Y388097D01*
X347652Y388122D01*
X347553Y388153D01*
X347533Y388152D01*
X347514Y388157D01*
X347411Y388149D01*
X347308Y388147D01*
X347289Y388140D01*
X347269Y388138D01*
X347174Y388098D01*
X347077Y388062D01*
X347061Y388050D01*
X347043Y388042D01*
X346950Y387967D01*
X335255Y387967D01*
X335173Y388020D01*
X335089Y388081D01*
X335070Y388086D01*
X335053Y388097D01*
X334953Y388122D01*
X334854Y388153D01*
X334834Y388152D01*
X334814Y388157D01*
X334711Y388149D01*
X334608Y388147D01*
X334589Y388140D01*
X334569Y388138D01*
X334474Y388098D01*
X334377Y388062D01*
X334361Y388050D01*
X334343Y388042D01*
X334250Y387967D01*
X322555Y387967D01*
X322473Y388020D01*
X322389Y388081D01*
X322370Y388086D01*
X322353Y388097D01*
X322253Y388122D01*
X322154Y388153D01*
X322134Y388152D01*
X322114Y388157D01*
X322011Y388149D01*
X321908Y388147D01*
X321889Y388140D01*
X321869Y388138D01*
X321774Y388098D01*
X321677Y388062D01*
X321661Y388050D01*
X321643Y388042D01*
X321550Y387967D01*
X320254Y387967D01*
X320234Y387964D01*
X320215Y387966D01*
X320113Y387944D01*
X320011Y387928D01*
X319994Y387918D01*
X319974Y387914D01*
X319885Y387861D01*
X319794Y387812D01*
X319780Y387798D01*
X319763Y387788D01*
X319696Y387709D01*
X319624Y387634D01*
X319616Y387616D01*
X319603Y387601D01*
X319564Y387505D01*
X319521Y387411D01*
X319519Y387391D01*
X319511Y387373D01*
X319493Y387206D01*
X319493Y364336D01*
X319495Y364324D01*
X319494Y364314D01*
X319495Y364308D01*
X319494Y364297D01*
X319516Y364195D01*
X319532Y364093D01*
X319542Y364076D01*
X319546Y364056D01*
X319599Y363967D01*
X319648Y363876D01*
X319662Y363862D01*
X319672Y363845D01*
X319751Y363778D01*
X319826Y363706D01*
X319844Y363698D01*
X319859Y363685D01*
X319955Y363646D01*
X320049Y363603D01*
X320069Y363601D01*
X320087Y363593D01*
X320254Y363575D01*
X332452Y363575D01*
X332542Y363589D01*
X332633Y363597D01*
X332663Y363609D01*
X332695Y363614D01*
X332776Y363657D01*
X332859Y363693D01*
X332892Y363719D01*
X332912Y363730D01*
X332928Y363746D01*
X332930Y363747D01*
X332938Y363756D01*
X332990Y363798D01*
X334445Y365253D01*
X338655Y365253D01*
X341631Y362277D01*
X341631Y358067D01*
X338655Y355091D01*
X334445Y355091D01*
X332790Y356746D01*
X332717Y356799D01*
X332647Y356859D01*
X332617Y356871D01*
X332591Y356890D01*
X332504Y356917D01*
X332419Y356951D01*
X332378Y356955D01*
X332356Y356962D01*
X332323Y356961D01*
X332252Y356969D01*
X317913Y356969D01*
X317823Y356955D01*
X317732Y356947D01*
X317703Y356935D01*
X317671Y356930D01*
X317590Y356887D01*
X317506Y356851D01*
X317474Y356825D01*
X317453Y356814D01*
X317431Y356791D01*
X317375Y356746D01*
X280962Y320333D01*
X280909Y320259D01*
X280849Y320190D01*
X280837Y320159D01*
X280818Y320133D01*
X280791Y320046D01*
X280757Y319961D01*
X280753Y319920D01*
X280746Y319898D01*
X280747Y319866D01*
X280739Y319795D01*
X280739Y307906D01*
X279548Y306715D01*
X262864Y306715D01*
G37*
%LPD*%
G36*
X369122Y5967D02*
X369122Y5967D01*
X369170Y5963D01*
X395638Y8012D01*
X395717Y8029D01*
X395796Y8037D01*
X395853Y8059D01*
X395913Y8073D01*
X395984Y8111D01*
X396058Y8141D01*
X396107Y8179D01*
X396161Y8209D01*
X396217Y8265D01*
X396281Y8315D01*
X396317Y8365D01*
X396360Y8408D01*
X396399Y8478D01*
X396446Y8543D01*
X396466Y8601D01*
X396496Y8655D01*
X396513Y8733D01*
X396540Y8809D01*
X396544Y8870D01*
X396557Y8930D01*
X396552Y9011D01*
X396557Y9091D01*
X396543Y9146D01*
X396539Y9212D01*
X396504Y9310D01*
X396484Y9390D01*
X395929Y10730D01*
X395639Y12187D01*
X395639Y16931D01*
X403180Y16931D01*
X403243Y16940D01*
X403308Y16939D01*
X403382Y16959D01*
X403459Y16970D01*
X403517Y16997D01*
X403579Y17014D01*
X403645Y17055D01*
X403716Y17087D01*
X403765Y17128D01*
X403819Y17162D01*
X403820Y17163D01*
X403871Y17220D01*
X403930Y17270D01*
X403931Y17271D01*
X403966Y17324D01*
X404009Y17372D01*
X404043Y17442D01*
X404085Y17506D01*
X404104Y17568D01*
X404132Y17626D01*
X404143Y17695D01*
X404167Y17776D01*
X404169Y17861D01*
X404179Y17930D01*
X404179Y30420D01*
X405380Y30181D01*
X406752Y29613D01*
X407987Y28787D01*
X409037Y27737D01*
X409169Y27540D01*
X409256Y27443D01*
X409340Y27344D01*
X409350Y27338D01*
X409357Y27330D01*
X409468Y27261D01*
X409576Y27190D01*
X409587Y27186D01*
X409597Y27180D01*
X409722Y27145D01*
X409846Y27107D01*
X409857Y27107D01*
X409868Y27104D01*
X409998Y27105D01*
X410128Y27104D01*
X410139Y27107D01*
X410150Y27107D01*
X410274Y27144D01*
X410400Y27179D01*
X410409Y27185D01*
X410420Y27188D01*
X410529Y27259D01*
X410640Y27327D01*
X410647Y27335D01*
X410657Y27342D01*
X410741Y27440D01*
X410829Y27536D01*
X410834Y27547D01*
X410841Y27555D01*
X410895Y27673D01*
X410952Y27790D01*
X410953Y27801D01*
X410958Y27812D01*
X410999Y28091D01*
X410999Y28093D01*
X410999Y28095D01*
X410999Y48376D01*
X410995Y48407D01*
X410997Y48440D01*
X410975Y48547D01*
X410959Y48655D01*
X410946Y48684D01*
X410940Y48716D01*
X410888Y48812D01*
X410843Y48912D01*
X410822Y48936D01*
X410807Y48965D01*
X410731Y49043D01*
X410660Y49126D01*
X410633Y49144D01*
X410610Y49167D01*
X410515Y49220D01*
X410424Y49280D01*
X410393Y49290D01*
X410365Y49306D01*
X410258Y49331D01*
X410154Y49363D01*
X410122Y49363D01*
X410091Y49371D01*
X409981Y49365D01*
X409872Y49367D01*
X409841Y49358D01*
X409809Y49356D01*
X409706Y49320D01*
X409600Y49291D01*
X409573Y49274D01*
X409542Y49264D01*
X409469Y49211D01*
X409360Y49143D01*
X409328Y49107D01*
X409293Y49082D01*
X408306Y48094D01*
X406989Y47214D01*
X405525Y46608D01*
X404179Y46341D01*
X404179Y59840D01*
X404170Y59903D01*
X404171Y59968D01*
X404151Y60042D01*
X404140Y60119D01*
X404113Y60177D01*
X404096Y60239D01*
X404055Y60305D01*
X404023Y60376D01*
X403982Y60425D01*
X403948Y60479D01*
X403890Y60531D01*
X403840Y60590D01*
X403786Y60625D01*
X403739Y60668D01*
X403669Y60702D01*
X403604Y60745D01*
X403542Y60763D01*
X403485Y60791D01*
X403415Y60802D01*
X403334Y60827D01*
X403250Y60828D01*
X403180Y60839D01*
X403116Y60830D01*
X403052Y60831D01*
X402977Y60810D01*
X402901Y60799D01*
X402842Y60773D01*
X402780Y60756D01*
X402714Y60715D01*
X402644Y60683D01*
X402595Y60641D01*
X402540Y60607D01*
X402488Y60550D01*
X402429Y60499D01*
X402394Y60446D01*
X402351Y60398D01*
X402317Y60328D01*
X402275Y60264D01*
X402256Y60202D01*
X402228Y60144D01*
X402217Y60075D01*
X402193Y59994D01*
X402191Y59909D01*
X402181Y59840D01*
X402181Y46341D01*
X400835Y46608D01*
X399371Y47214D01*
X398054Y48094D01*
X396934Y49214D01*
X396054Y50531D01*
X395448Y51995D01*
X395139Y53548D01*
X395139Y55968D01*
X395131Y56028D01*
X395131Y56050D01*
X395130Y56052D01*
X395131Y56096D01*
X395110Y56171D01*
X395099Y56247D01*
X395073Y56306D01*
X395056Y56368D01*
X395015Y56434D01*
X394983Y56504D01*
X394941Y56553D01*
X394908Y56608D01*
X394850Y56660D01*
X394800Y56718D01*
X394746Y56754D01*
X394698Y56797D01*
X394629Y56830D01*
X394564Y56873D01*
X394502Y56892D01*
X394445Y56920D01*
X394375Y56931D01*
X394294Y56955D01*
X394209Y56956D01*
X394140Y56967D01*
X387842Y56967D01*
X387778Y56958D01*
X387714Y56959D01*
X387639Y56938D01*
X387563Y56927D01*
X387504Y56901D01*
X387442Y56884D01*
X387376Y56843D01*
X387306Y56811D01*
X387257Y56769D01*
X387202Y56736D01*
X387150Y56678D01*
X387092Y56628D01*
X387056Y56574D01*
X387013Y56526D01*
X386980Y56457D01*
X386937Y56392D01*
X386918Y56330D01*
X386890Y56273D01*
X386879Y56203D01*
X386855Y56122D01*
X386854Y56037D01*
X386843Y55968D01*
X386843Y49806D01*
X386856Y49711D01*
X386861Y49615D01*
X386876Y49572D01*
X386883Y49527D01*
X386922Y49439D01*
X386954Y49348D01*
X386979Y49314D01*
X386999Y49270D01*
X387082Y49173D01*
X387135Y49099D01*
X388113Y48122D01*
X388113Y44334D01*
X379084Y35305D01*
X341768Y35305D01*
X331855Y45218D01*
X331855Y49006D01*
X332833Y49983D01*
X332890Y50060D01*
X332955Y50132D01*
X332975Y50173D01*
X333002Y50209D01*
X333036Y50299D01*
X333078Y50385D01*
X333084Y50427D01*
X333101Y50473D01*
X333111Y50601D01*
X333125Y50690D01*
X333125Y55968D01*
X333117Y56028D01*
X333117Y56050D01*
X333116Y56052D01*
X333117Y56096D01*
X333096Y56171D01*
X333085Y56247D01*
X333059Y56306D01*
X333042Y56368D01*
X333001Y56434D01*
X332969Y56504D01*
X332927Y56553D01*
X332894Y56608D01*
X332836Y56660D01*
X332786Y56718D01*
X332732Y56754D01*
X332684Y56797D01*
X332615Y56830D01*
X332550Y56873D01*
X332488Y56892D01*
X332431Y56920D01*
X332361Y56931D01*
X332280Y56955D01*
X332195Y56956D01*
X332126Y56967D01*
X325860Y56967D01*
X325796Y56958D01*
X325732Y56959D01*
X325657Y56938D01*
X325581Y56927D01*
X325522Y56901D01*
X325460Y56884D01*
X325394Y56843D01*
X325324Y56811D01*
X325275Y56769D01*
X325220Y56736D01*
X325168Y56678D01*
X325110Y56628D01*
X325074Y56574D01*
X325031Y56526D01*
X324998Y56457D01*
X324955Y56392D01*
X324936Y56330D01*
X324908Y56273D01*
X324897Y56203D01*
X324873Y56122D01*
X324872Y56037D01*
X324861Y55968D01*
X324861Y53548D01*
X324552Y51995D01*
X323946Y50531D01*
X323066Y49214D01*
X321946Y48094D01*
X320629Y47214D01*
X319165Y46608D01*
X317819Y46341D01*
X317819Y59840D01*
X317810Y59903D01*
X317811Y59968D01*
X317791Y60042D01*
X317780Y60119D01*
X317753Y60177D01*
X317736Y60239D01*
X317695Y60305D01*
X317663Y60376D01*
X317622Y60425D01*
X317588Y60479D01*
X317530Y60531D01*
X317480Y60590D01*
X317426Y60625D01*
X317379Y60668D01*
X317309Y60702D01*
X317244Y60745D01*
X317182Y60763D01*
X317125Y60791D01*
X317055Y60802D01*
X316974Y60827D01*
X316890Y60828D01*
X316820Y60839D01*
X316756Y60830D01*
X316692Y60831D01*
X316617Y60810D01*
X316541Y60799D01*
X316482Y60773D01*
X316420Y60756D01*
X316354Y60715D01*
X316284Y60683D01*
X316235Y60641D01*
X316180Y60607D01*
X316128Y60550D01*
X316069Y60499D01*
X316034Y60446D01*
X315991Y60398D01*
X315957Y60328D01*
X315915Y60264D01*
X315896Y60202D01*
X315868Y60144D01*
X315857Y60075D01*
X315833Y59994D01*
X315831Y59909D01*
X315821Y59840D01*
X315821Y46341D01*
X314475Y46608D01*
X313011Y47214D01*
X311694Y48094D01*
X310707Y49082D01*
X310681Y49101D01*
X310660Y49126D01*
X310568Y49186D01*
X310481Y49251D01*
X310451Y49263D01*
X310424Y49280D01*
X310319Y49312D01*
X310217Y49351D01*
X310185Y49353D01*
X310154Y49363D01*
X310045Y49364D01*
X309936Y49373D01*
X309904Y49366D01*
X309872Y49367D01*
X309767Y49337D01*
X309660Y49315D01*
X309631Y49300D01*
X309600Y49291D01*
X309507Y49234D01*
X309411Y49183D01*
X309388Y49160D01*
X309360Y49143D01*
X309287Y49062D01*
X309209Y48986D01*
X309193Y48958D01*
X309171Y48934D01*
X309124Y48836D01*
X309070Y48741D01*
X309062Y48709D01*
X309048Y48680D01*
X309034Y48591D01*
X309005Y48466D01*
X309007Y48418D01*
X309001Y48376D01*
X309001Y28095D01*
X309019Y27966D01*
X309035Y27837D01*
X309039Y27827D01*
X309041Y27815D01*
X309094Y27698D01*
X309145Y27578D01*
X309152Y27569D01*
X309157Y27559D01*
X309241Y27460D01*
X309323Y27359D01*
X309333Y27353D01*
X309340Y27344D01*
X309449Y27273D01*
X309556Y27200D01*
X309567Y27196D01*
X309576Y27190D01*
X309700Y27152D01*
X309824Y27111D01*
X309835Y27111D01*
X309846Y27107D01*
X309976Y27106D01*
X310105Y27101D01*
X310116Y27104D01*
X310128Y27104D01*
X310254Y27138D01*
X310379Y27170D01*
X310389Y27176D01*
X310400Y27179D01*
X310510Y27247D01*
X310622Y27313D01*
X310630Y27321D01*
X310640Y27327D01*
X310829Y27536D01*
X310830Y27538D01*
X310831Y27540D01*
X310963Y27737D01*
X312013Y28787D01*
X313248Y29613D01*
X314620Y30181D01*
X315821Y30420D01*
X315821Y17930D01*
X315829Y17868D01*
X315829Y17823D01*
X315829Y17822D01*
X315829Y17802D01*
X315849Y17728D01*
X315860Y17651D01*
X315887Y17593D01*
X315904Y17531D01*
X315945Y17465D01*
X315977Y17394D01*
X316018Y17345D01*
X316052Y17291D01*
X316053Y17290D01*
X316110Y17239D01*
X316160Y17180D01*
X316161Y17179D01*
X316214Y17144D01*
X316262Y17101D01*
X316332Y17067D01*
X316396Y17025D01*
X316458Y17006D01*
X316516Y16978D01*
X316585Y16967D01*
X316666Y16943D01*
X316751Y16941D01*
X316820Y16931D01*
X324361Y16931D01*
X324361Y12187D01*
X324071Y10730D01*
X323501Y9355D01*
X323488Y9302D01*
X323465Y9252D01*
X323453Y9166D01*
X323431Y9082D01*
X323433Y9027D01*
X323425Y8973D01*
X323437Y8887D01*
X323440Y8800D01*
X323457Y8748D01*
X323465Y8694D01*
X323501Y8614D01*
X323528Y8532D01*
X323558Y8487D01*
X323581Y8437D01*
X323637Y8371D01*
X323686Y8299D01*
X323729Y8264D01*
X323764Y8222D01*
X323837Y8175D01*
X323904Y8119D01*
X323954Y8098D01*
X324000Y8068D01*
X324075Y8046D01*
X324163Y8008D01*
X324236Y7999D01*
X324296Y7982D01*
X332617Y6904D01*
X332672Y6905D01*
X332719Y6896D01*
X369067Y5960D01*
X369122Y5967D01*
G37*
%LPC*%
G36*
X383158Y145467D02*
X383158Y145467D01*
X381967Y146658D01*
X381967Y154342D01*
X382337Y154712D01*
X382349Y154728D01*
X382364Y154740D01*
X382420Y154827D01*
X382481Y154911D01*
X382486Y154930D01*
X382497Y154947D01*
X382522Y155048D01*
X382553Y155147D01*
X382552Y155166D01*
X382557Y155186D01*
X382549Y155289D01*
X382547Y155392D01*
X382540Y155411D01*
X382538Y155431D01*
X382498Y155526D01*
X382462Y155623D01*
X382450Y155639D01*
X382442Y155657D01*
X382337Y155788D01*
X381967Y156158D01*
X381967Y163842D01*
X382337Y164212D01*
X382349Y164228D01*
X382364Y164240D01*
X382420Y164327D01*
X382481Y164411D01*
X382486Y164430D01*
X382497Y164447D01*
X382522Y164548D01*
X382553Y164647D01*
X382552Y164666D01*
X382557Y164686D01*
X382549Y164789D01*
X382547Y164892D01*
X382540Y164911D01*
X382538Y164931D01*
X382498Y165026D01*
X382462Y165123D01*
X382450Y165139D01*
X382442Y165157D01*
X382337Y165288D01*
X381967Y165658D01*
X381967Y173342D01*
X383158Y174533D01*
X396842Y174533D01*
X398085Y173290D01*
X398086Y173284D01*
X398139Y173195D01*
X398188Y173104D01*
X398202Y173090D01*
X398212Y173073D01*
X398291Y173006D01*
X398366Y172934D01*
X398384Y172926D01*
X398399Y172913D01*
X398495Y172874D01*
X398589Y172831D01*
X398609Y172829D01*
X398627Y172821D01*
X398794Y172803D01*
X400255Y172803D01*
X400345Y172817D01*
X400436Y172825D01*
X400465Y172837D01*
X400497Y172842D01*
X400578Y172885D01*
X400662Y172921D01*
X400694Y172947D01*
X400715Y172958D01*
X400737Y172981D01*
X400793Y173026D01*
X416264Y188497D01*
X416317Y188571D01*
X416377Y188640D01*
X416389Y188671D01*
X416408Y188697D01*
X416435Y188784D01*
X416469Y188869D01*
X416473Y188910D01*
X416480Y188932D01*
X416479Y188964D01*
X416487Y189035D01*
X416487Y216746D01*
X416484Y216766D01*
X416486Y216785D01*
X416464Y216887D01*
X416448Y216989D01*
X416438Y217006D01*
X416434Y217026D01*
X416381Y217115D01*
X416332Y217206D01*
X416318Y217220D01*
X416308Y217237D01*
X416229Y217304D01*
X416154Y217376D01*
X416136Y217384D01*
X416121Y217397D01*
X416025Y217436D01*
X416015Y217440D01*
X414757Y218698D01*
X414757Y232382D01*
X415948Y233573D01*
X423632Y233573D01*
X424823Y232382D01*
X424823Y218698D01*
X423580Y217455D01*
X423574Y217454D01*
X423485Y217401D01*
X423394Y217352D01*
X423380Y217338D01*
X423363Y217328D01*
X423296Y217249D01*
X423224Y217174D01*
X423216Y217156D01*
X423203Y217141D01*
X423164Y217045D01*
X423121Y216951D01*
X423119Y216931D01*
X423111Y216913D01*
X423093Y216746D01*
X423093Y185984D01*
X403306Y166197D01*
X398794Y166197D01*
X398774Y166194D01*
X398755Y166196D01*
X398653Y166174D01*
X398551Y166158D01*
X398534Y166148D01*
X398514Y166144D01*
X398425Y166091D01*
X398334Y166042D01*
X398320Y166028D01*
X398303Y166018D01*
X398236Y165939D01*
X398164Y165864D01*
X398156Y165846D01*
X398143Y165831D01*
X398104Y165735D01*
X398100Y165725D01*
X397663Y165288D01*
X397651Y165272D01*
X397636Y165260D01*
X397580Y165173D01*
X397519Y165089D01*
X397514Y165070D01*
X397503Y165053D01*
X397478Y164952D01*
X397447Y164853D01*
X397448Y164834D01*
X397443Y164814D01*
X397451Y164715D01*
X397449Y164703D01*
X397451Y164693D01*
X397453Y164608D01*
X397460Y164589D01*
X397462Y164569D01*
X397495Y164491D01*
X397501Y164462D01*
X397515Y164439D01*
X397538Y164377D01*
X397550Y164361D01*
X397558Y164343D01*
X397616Y164271D01*
X397628Y164251D01*
X397640Y164240D01*
X397663Y164212D01*
X397671Y164204D01*
X397683Y164195D01*
X397692Y164185D01*
X397746Y164149D01*
X397814Y164091D01*
X397845Y164079D01*
X397871Y164060D01*
X397898Y164052D01*
X397899Y164052D01*
X397899Y164051D01*
X397958Y164033D01*
X398043Y163999D01*
X398084Y163995D01*
X398106Y163988D01*
X398138Y163989D01*
X398209Y163981D01*
X408178Y163981D01*
X408198Y163984D01*
X408217Y163982D01*
X408319Y164004D01*
X408421Y164020D01*
X408438Y164030D01*
X408458Y164034D01*
X408547Y164087D01*
X408638Y164136D01*
X408652Y164150D01*
X408669Y164160D01*
X408736Y164239D01*
X408808Y164314D01*
X408816Y164332D01*
X408829Y164347D01*
X408868Y164443D01*
X408911Y164537D01*
X408913Y164557D01*
X408921Y164575D01*
X408939Y164742D01*
X408939Y165093D01*
X409906Y167427D01*
X411693Y169214D01*
X414027Y170181D01*
X416553Y170181D01*
X418887Y169214D01*
X420674Y167427D01*
X421641Y165093D01*
X421641Y162567D01*
X420674Y160233D01*
X418887Y158446D01*
X416553Y157479D01*
X415721Y157479D01*
X415631Y157465D01*
X415540Y157457D01*
X415511Y157445D01*
X415479Y157440D01*
X415398Y157397D01*
X415314Y157361D01*
X415282Y157335D01*
X415261Y157324D01*
X415239Y157301D01*
X415183Y157256D01*
X413687Y155760D01*
X413645Y155702D01*
X413596Y155650D01*
X413574Y155603D01*
X413544Y155561D01*
X413522Y155492D01*
X413492Y155427D01*
X413487Y155375D01*
X413471Y155325D01*
X413473Y155254D01*
X413465Y155183D01*
X413476Y155132D01*
X413478Y155080D01*
X413502Y155012D01*
X413517Y154942D01*
X413544Y154897D01*
X413562Y154849D01*
X413607Y154793D01*
X413644Y154731D01*
X413683Y154697D01*
X413716Y154657D01*
X413776Y154618D01*
X413830Y154571D01*
X413879Y154552D01*
X413923Y154524D01*
X413992Y154506D01*
X414059Y154479D01*
X414130Y154471D01*
X414161Y154463D01*
X414184Y154465D01*
X414225Y154461D01*
X417622Y154461D01*
X417712Y154475D01*
X417803Y154483D01*
X417833Y154495D01*
X417865Y154500D01*
X417946Y154543D01*
X418030Y154579D01*
X418062Y154605D01*
X418083Y154616D01*
X418105Y154639D01*
X418161Y154684D01*
X428964Y165487D01*
X429017Y165561D01*
X429077Y165631D01*
X429089Y165661D01*
X429108Y165687D01*
X429135Y165774D01*
X429169Y165859D01*
X429173Y165900D01*
X429180Y165922D01*
X429179Y165954D01*
X429187Y166026D01*
X429187Y216746D01*
X429184Y216766D01*
X429186Y216785D01*
X429164Y216887D01*
X429148Y216989D01*
X429138Y217006D01*
X429134Y217026D01*
X429081Y217115D01*
X429032Y217206D01*
X429018Y217220D01*
X429008Y217237D01*
X428929Y217304D01*
X428854Y217376D01*
X428836Y217384D01*
X428821Y217397D01*
X428725Y217436D01*
X428715Y217440D01*
X427457Y218698D01*
X427457Y232382D01*
X428648Y233573D01*
X436332Y233573D01*
X437523Y232382D01*
X437523Y218698D01*
X436280Y217455D01*
X436274Y217454D01*
X436185Y217401D01*
X436094Y217352D01*
X436080Y217338D01*
X436063Y217328D01*
X435996Y217249D01*
X435924Y217174D01*
X435916Y217156D01*
X435903Y217141D01*
X435864Y217045D01*
X435821Y216951D01*
X435819Y216931D01*
X435811Y216913D01*
X435793Y216746D01*
X435793Y184381D01*
X435807Y184291D01*
X435815Y184200D01*
X435827Y184171D01*
X435832Y184139D01*
X435865Y184078D01*
X435865Y181185D01*
X435845Y181122D01*
X435811Y181037D01*
X435807Y180996D01*
X435800Y180974D01*
X435801Y180942D01*
X435793Y180871D01*
X435793Y162974D01*
X420674Y147855D01*
X398794Y147855D01*
X398774Y147852D01*
X398755Y147854D01*
X398653Y147832D01*
X398551Y147816D01*
X398534Y147806D01*
X398514Y147802D01*
X398425Y147749D01*
X398334Y147700D01*
X398320Y147686D01*
X398303Y147676D01*
X398236Y147597D01*
X398164Y147522D01*
X398156Y147504D01*
X398143Y147489D01*
X398104Y147393D01*
X398061Y147299D01*
X398059Y147279D01*
X398051Y147261D01*
X398033Y147094D01*
X398033Y146658D01*
X396842Y145467D01*
X383158Y145467D01*
G37*
%LPD*%
%LPC*%
G36*
X450012Y56297D02*
X450012Y56297D01*
X447060Y57520D01*
X444800Y59780D01*
X443577Y62732D01*
X443577Y77928D01*
X444800Y80880D01*
X447060Y83140D01*
X450012Y84363D01*
X453208Y84363D01*
X456160Y83140D01*
X458420Y80880D01*
X459643Y77928D01*
X459643Y74394D01*
X459646Y74374D01*
X459644Y74355D01*
X459666Y74253D01*
X459682Y74151D01*
X459692Y74134D01*
X459696Y74114D01*
X459749Y74025D01*
X459798Y73934D01*
X459812Y73920D01*
X459822Y73903D01*
X459901Y73836D01*
X459976Y73764D01*
X459994Y73756D01*
X460009Y73743D01*
X460105Y73704D01*
X460199Y73661D01*
X460219Y73659D01*
X460237Y73651D01*
X460404Y73633D01*
X474031Y73633D01*
X474121Y73647D01*
X474212Y73655D01*
X474241Y73667D01*
X474273Y73672D01*
X474354Y73715D01*
X474438Y73751D01*
X474470Y73777D01*
X474491Y73788D01*
X474513Y73811D01*
X474569Y73856D01*
X496084Y95371D01*
X496137Y95445D01*
X496197Y95514D01*
X496209Y95545D01*
X496228Y95571D01*
X496255Y95658D01*
X496289Y95743D01*
X496293Y95784D01*
X496300Y95806D01*
X496299Y95838D01*
X496307Y95909D01*
X496307Y107435D01*
X496288Y107550D01*
X496271Y107666D01*
X496269Y107671D01*
X496268Y107678D01*
X496213Y107780D01*
X496160Y107885D01*
X496155Y107889D01*
X496152Y107895D01*
X496068Y107975D01*
X495984Y108057D01*
X495978Y108061D01*
X495974Y108064D01*
X495957Y108072D01*
X495837Y108138D01*
X495060Y108460D01*
X492800Y110720D01*
X491577Y113672D01*
X491577Y128868D01*
X492800Y131820D01*
X495060Y134080D01*
X498012Y135303D01*
X501208Y135303D01*
X504160Y134080D01*
X506420Y131820D01*
X507643Y128868D01*
X507643Y113672D01*
X506420Y110720D01*
X504160Y108460D01*
X503383Y108138D01*
X503283Y108077D01*
X503183Y108017D01*
X503179Y108012D01*
X503174Y108009D01*
X503099Y107919D01*
X503023Y107830D01*
X503021Y107824D01*
X503017Y107819D01*
X502975Y107711D01*
X502931Y107602D01*
X502930Y107594D01*
X502929Y107589D01*
X502928Y107571D01*
X502913Y107435D01*
X502913Y104037D01*
X502924Y103967D01*
X502926Y103895D01*
X502944Y103846D01*
X502952Y103795D01*
X502986Y103731D01*
X503011Y103664D01*
X503043Y103623D01*
X503068Y103577D01*
X503119Y103528D01*
X503164Y103472D01*
X503208Y103444D01*
X503246Y103408D01*
X503311Y103378D01*
X503371Y103339D01*
X503422Y103326D01*
X503469Y103304D01*
X503540Y103296D01*
X503610Y103279D01*
X503662Y103283D01*
X503713Y103277D01*
X503784Y103292D01*
X503855Y103298D01*
X503903Y103318D01*
X503954Y103329D01*
X504015Y103366D01*
X504081Y103394D01*
X504137Y103439D01*
X504165Y103456D01*
X504180Y103473D01*
X504212Y103499D01*
X504588Y103875D01*
X506746Y106033D01*
X523906Y106033D01*
X523926Y106036D01*
X523945Y106034D01*
X524047Y106056D01*
X524149Y106072D01*
X524166Y106082D01*
X524186Y106086D01*
X524275Y106139D01*
X524366Y106188D01*
X524380Y106202D01*
X524397Y106212D01*
X524464Y106291D01*
X524536Y106366D01*
X524544Y106384D01*
X524557Y106399D01*
X524596Y106495D01*
X524639Y106589D01*
X524641Y106609D01*
X524649Y106627D01*
X524667Y106794D01*
X524667Y110072D01*
X525858Y111263D01*
X542542Y111263D01*
X543733Y110072D01*
X543733Y95388D01*
X542542Y94197D01*
X525858Y94197D01*
X524667Y95388D01*
X524667Y98666D01*
X524664Y98686D01*
X524666Y98705D01*
X524644Y98807D01*
X524628Y98909D01*
X524618Y98926D01*
X524614Y98946D01*
X524561Y99035D01*
X524512Y99126D01*
X524498Y99140D01*
X524488Y99157D01*
X524409Y99224D01*
X524334Y99296D01*
X524316Y99304D01*
X524301Y99317D01*
X524205Y99356D01*
X524111Y99399D01*
X524091Y99401D01*
X524073Y99409D01*
X523906Y99427D01*
X509797Y99427D01*
X509707Y99413D01*
X509616Y99405D01*
X509587Y99393D01*
X509555Y99388D01*
X509474Y99345D01*
X509390Y99309D01*
X509358Y99283D01*
X509337Y99272D01*
X509315Y99249D01*
X509259Y99204D01*
X477082Y67027D01*
X460404Y67027D01*
X460384Y67024D01*
X460365Y67026D01*
X460263Y67004D01*
X460161Y66988D01*
X460144Y66978D01*
X460124Y66974D01*
X460035Y66921D01*
X459944Y66872D01*
X459930Y66858D01*
X459913Y66848D01*
X459846Y66769D01*
X459774Y66694D01*
X459766Y66676D01*
X459753Y66661D01*
X459714Y66565D01*
X459671Y66471D01*
X459669Y66451D01*
X459661Y66433D01*
X459643Y66266D01*
X459643Y62732D01*
X458420Y59780D01*
X456160Y57520D01*
X453208Y56297D01*
X450012Y56297D01*
G37*
%LPD*%
%LPC*%
G36*
X616288Y373987D02*
X616288Y373987D01*
X615097Y375178D01*
X615097Y375456D01*
X615094Y375476D01*
X615096Y375495D01*
X615074Y375597D01*
X615058Y375699D01*
X615048Y375716D01*
X615044Y375736D01*
X614991Y375825D01*
X614942Y375916D01*
X614928Y375930D01*
X614918Y375947D01*
X614839Y376014D01*
X614764Y376086D01*
X614746Y376094D01*
X614731Y376107D01*
X614635Y376146D01*
X614541Y376189D01*
X614521Y376191D01*
X614503Y376199D01*
X614336Y376217D01*
X596250Y376217D01*
X594092Y378375D01*
X559433Y413034D01*
X559359Y413087D01*
X559290Y413147D01*
X559259Y413159D01*
X559233Y413178D01*
X559146Y413205D01*
X559061Y413239D01*
X559020Y413243D01*
X558998Y413250D01*
X558966Y413249D01*
X558895Y413257D01*
X533048Y413257D01*
X515873Y430432D01*
X515873Y432038D01*
X515870Y432058D01*
X515872Y432077D01*
X515850Y432179D01*
X515834Y432281D01*
X515824Y432298D01*
X515820Y432318D01*
X515767Y432407D01*
X515718Y432498D01*
X515704Y432512D01*
X515694Y432529D01*
X515615Y432596D01*
X515540Y432668D01*
X515522Y432676D01*
X515507Y432689D01*
X515411Y432728D01*
X515317Y432771D01*
X515297Y432773D01*
X515279Y432781D01*
X515112Y432799D01*
X511998Y432799D01*
X510807Y433990D01*
X510807Y435864D01*
X510804Y435884D01*
X510806Y435903D01*
X510784Y436005D01*
X510768Y436107D01*
X510758Y436124D01*
X510754Y436144D01*
X510701Y436233D01*
X510652Y436324D01*
X510638Y436338D01*
X510628Y436355D01*
X510549Y436422D01*
X510474Y436494D01*
X510456Y436502D01*
X510441Y436515D01*
X510345Y436554D01*
X510251Y436597D01*
X510231Y436599D01*
X510213Y436607D01*
X510046Y436625D01*
X505340Y436625D01*
X505250Y436611D01*
X505159Y436603D01*
X505129Y436591D01*
X505097Y436586D01*
X505016Y436543D01*
X504933Y436507D01*
X504900Y436481D01*
X504880Y436470D01*
X504858Y436447D01*
X504802Y436402D01*
X503247Y434847D01*
X499037Y434847D01*
X496061Y437823D01*
X496061Y442033D01*
X499037Y445009D01*
X503247Y445009D01*
X504802Y443454D01*
X504875Y443401D01*
X504945Y443341D01*
X504975Y443329D01*
X505001Y443310D01*
X505088Y443283D01*
X505173Y443249D01*
X505214Y443245D01*
X505236Y443238D01*
X505269Y443239D01*
X505340Y443231D01*
X510046Y443231D01*
X510066Y443234D01*
X510085Y443232D01*
X510187Y443254D01*
X510289Y443270D01*
X510306Y443280D01*
X510326Y443284D01*
X510415Y443337D01*
X510506Y443386D01*
X510520Y443400D01*
X510537Y443410D01*
X510604Y443489D01*
X510676Y443564D01*
X510684Y443582D01*
X510697Y443597D01*
X510736Y443693D01*
X510779Y443787D01*
X510781Y443807D01*
X510789Y443825D01*
X510807Y443992D01*
X510807Y450674D01*
X511998Y451865D01*
X526682Y451865D01*
X527873Y450674D01*
X527873Y433990D01*
X526682Y432799D01*
X524685Y432799D01*
X524615Y432788D01*
X524543Y432786D01*
X524494Y432768D01*
X524443Y432760D01*
X524379Y432726D01*
X524312Y432701D01*
X524271Y432669D01*
X524225Y432644D01*
X524176Y432592D01*
X524120Y432548D01*
X524092Y432504D01*
X524056Y432466D01*
X524026Y432401D01*
X523987Y432341D01*
X523974Y432290D01*
X523952Y432243D01*
X523944Y432172D01*
X523927Y432102D01*
X523931Y432050D01*
X523925Y431999D01*
X523940Y431928D01*
X523946Y431857D01*
X523966Y431809D01*
X523977Y431758D01*
X524014Y431697D01*
X524042Y431631D01*
X524087Y431575D01*
X524104Y431547D01*
X524121Y431532D01*
X524147Y431500D01*
X535561Y420086D01*
X535635Y420033D01*
X535704Y419973D01*
X535735Y419961D01*
X535761Y419942D01*
X535848Y419915D01*
X535933Y419881D01*
X535974Y419877D01*
X535996Y419870D01*
X536028Y419871D01*
X536099Y419863D01*
X561946Y419863D01*
X564104Y417705D01*
X598763Y383046D01*
X598837Y382993D01*
X598906Y382933D01*
X598937Y382921D01*
X598963Y382902D01*
X599050Y382875D01*
X599135Y382841D01*
X599176Y382837D01*
X599198Y382830D01*
X599230Y382831D01*
X599301Y382823D01*
X614336Y382823D01*
X614356Y382826D01*
X614375Y382824D01*
X614477Y382846D01*
X614579Y382862D01*
X614596Y382872D01*
X614616Y382876D01*
X614705Y382929D01*
X614796Y382978D01*
X614810Y382992D01*
X614827Y383002D01*
X614894Y383081D01*
X614966Y383156D01*
X614974Y383174D01*
X614987Y383189D01*
X615026Y383285D01*
X615069Y383379D01*
X615071Y383399D01*
X615079Y383417D01*
X615097Y383584D01*
X615097Y383862D01*
X616288Y385053D01*
X622972Y385053D01*
X624163Y383862D01*
X624163Y383584D01*
X624166Y383564D01*
X624164Y383545D01*
X624186Y383443D01*
X624202Y383341D01*
X624212Y383324D01*
X624216Y383304D01*
X624269Y383215D01*
X624318Y383124D01*
X624332Y383110D01*
X624342Y383093D01*
X624421Y383026D01*
X624496Y382954D01*
X624514Y382946D01*
X624529Y382933D01*
X624625Y382894D01*
X624719Y382851D01*
X624739Y382849D01*
X624757Y382841D01*
X624924Y382823D01*
X656336Y382823D01*
X656356Y382826D01*
X656375Y382824D01*
X656477Y382846D01*
X656579Y382862D01*
X656596Y382872D01*
X656616Y382876D01*
X656705Y382929D01*
X656796Y382978D01*
X656810Y382992D01*
X656827Y383002D01*
X656894Y383081D01*
X656966Y383156D01*
X656974Y383174D01*
X656987Y383189D01*
X657026Y383285D01*
X657069Y383379D01*
X657071Y383399D01*
X657079Y383417D01*
X657097Y383584D01*
X657097Y383862D01*
X658288Y385053D01*
X664972Y385053D01*
X666163Y383862D01*
X666163Y375178D01*
X664972Y373987D01*
X658288Y373987D01*
X657097Y375178D01*
X657097Y375456D01*
X657094Y375476D01*
X657096Y375495D01*
X657074Y375597D01*
X657058Y375699D01*
X657048Y375716D01*
X657044Y375736D01*
X656991Y375825D01*
X656942Y375916D01*
X656928Y375930D01*
X656918Y375947D01*
X656839Y376014D01*
X656764Y376086D01*
X656746Y376094D01*
X656731Y376107D01*
X656635Y376146D01*
X656541Y376189D01*
X656521Y376191D01*
X656503Y376199D01*
X656336Y376217D01*
X624924Y376217D01*
X624904Y376214D01*
X624885Y376216D01*
X624783Y376194D01*
X624681Y376178D01*
X624664Y376168D01*
X624644Y376164D01*
X624555Y376111D01*
X624464Y376062D01*
X624450Y376048D01*
X624433Y376038D01*
X624366Y375959D01*
X624294Y375884D01*
X624286Y375866D01*
X624273Y375851D01*
X624234Y375755D01*
X624191Y375661D01*
X624189Y375641D01*
X624181Y375623D01*
X624163Y375456D01*
X624163Y375178D01*
X622972Y373987D01*
X616288Y373987D01*
G37*
%LPD*%
%LPC*%
G36*
X410178Y675987D02*
X410178Y675987D01*
X408987Y677178D01*
X408987Y681456D01*
X408984Y681476D01*
X408986Y681495D01*
X408964Y681597D01*
X408948Y681699D01*
X408938Y681716D01*
X408934Y681736D01*
X408881Y681825D01*
X408832Y681916D01*
X408818Y681930D01*
X408808Y681947D01*
X408729Y682014D01*
X408654Y682086D01*
X408636Y682094D01*
X408621Y682107D01*
X408525Y682146D01*
X408431Y682189D01*
X408411Y682191D01*
X408393Y682199D01*
X408226Y682217D01*
X386232Y682217D01*
X381910Y686539D01*
X381836Y686592D01*
X381767Y686652D01*
X381736Y686664D01*
X381710Y686683D01*
X381623Y686710D01*
X381538Y686744D01*
X381497Y686748D01*
X381475Y686755D01*
X381443Y686754D01*
X381372Y686762D01*
X366468Y686762D01*
X365277Y687953D01*
X365277Y707667D01*
X366468Y708858D01*
X384152Y708858D01*
X385343Y707667D01*
X385343Y692763D01*
X385357Y692673D01*
X385365Y692582D01*
X385377Y692553D01*
X385382Y692521D01*
X385425Y692440D01*
X385461Y692356D01*
X385487Y692324D01*
X385498Y692303D01*
X385521Y692281D01*
X385566Y692225D01*
X388745Y689046D01*
X388819Y688993D01*
X388888Y688933D01*
X388919Y688921D01*
X388945Y688902D01*
X389032Y688875D01*
X389117Y688841D01*
X389158Y688837D01*
X389180Y688830D01*
X389212Y688831D01*
X389283Y688823D01*
X408226Y688823D01*
X408246Y688826D01*
X408265Y688824D01*
X408367Y688846D01*
X408469Y688862D01*
X408486Y688872D01*
X408506Y688876D01*
X408595Y688929D01*
X408686Y688978D01*
X408700Y688992D01*
X408717Y689002D01*
X408784Y689081D01*
X408856Y689156D01*
X408864Y689174D01*
X408877Y689189D01*
X408916Y689285D01*
X408959Y689379D01*
X408961Y689399D01*
X408969Y689417D01*
X408987Y689584D01*
X408987Y693862D01*
X410178Y695053D01*
X424862Y695053D01*
X426053Y693862D01*
X426053Y677178D01*
X424862Y675987D01*
X410178Y675987D01*
G37*
%LPD*%
%LPC*%
G36*
X584461Y544321D02*
X584461Y544321D01*
X582127Y545288D01*
X580340Y547075D01*
X579373Y549409D01*
X579373Y552037D01*
X579359Y552127D01*
X579351Y552218D01*
X579339Y552247D01*
X579334Y552279D01*
X579291Y552360D01*
X579255Y552444D01*
X579229Y552476D01*
X579218Y552497D01*
X579195Y552519D01*
X579150Y552575D01*
X575943Y555782D01*
X575869Y555835D01*
X575800Y555895D01*
X575769Y555907D01*
X575743Y555926D01*
X575656Y555953D01*
X575571Y555987D01*
X575530Y555991D01*
X575508Y555998D01*
X575476Y555997D01*
X575405Y556005D01*
X498626Y556005D01*
X498511Y555986D01*
X498395Y555969D01*
X498389Y555967D01*
X498383Y555966D01*
X498280Y555911D01*
X498176Y555858D01*
X498171Y555853D01*
X498166Y555850D01*
X498085Y555766D01*
X498003Y555682D01*
X498000Y555676D01*
X497996Y555672D01*
X497988Y555655D01*
X497923Y555535D01*
X497890Y555457D01*
X496103Y553670D01*
X493769Y552703D01*
X491243Y552703D01*
X488909Y553670D01*
X487122Y555457D01*
X486155Y557791D01*
X486155Y560317D01*
X487122Y562651D01*
X488909Y564438D01*
X491243Y565405D01*
X493769Y565405D01*
X496103Y564438D01*
X497708Y562834D01*
X497782Y562781D01*
X497851Y562721D01*
X497881Y562709D01*
X497907Y562690D01*
X497994Y562663D01*
X498079Y562629D01*
X498120Y562625D01*
X498142Y562618D01*
X498175Y562619D01*
X498246Y562611D01*
X578456Y562611D01*
X583821Y557246D01*
X583895Y557193D01*
X583964Y557133D01*
X583995Y557121D01*
X584021Y557102D01*
X584108Y557075D01*
X584193Y557041D01*
X584234Y557037D01*
X584256Y557030D01*
X584288Y557031D01*
X584359Y557023D01*
X586987Y557023D01*
X589321Y556056D01*
X591108Y554269D01*
X592075Y551935D01*
X592075Y549409D01*
X591108Y547075D01*
X589321Y545288D01*
X586987Y544321D01*
X584461Y544321D01*
G37*
%LPD*%
%LPC*%
G36*
X525858Y113197D02*
X525858Y113197D01*
X524667Y114388D01*
X524667Y124481D01*
X524653Y124571D01*
X524645Y124662D01*
X524633Y124691D01*
X524628Y124723D01*
X524585Y124804D01*
X524549Y124888D01*
X524523Y124920D01*
X524512Y124941D01*
X524489Y124963D01*
X524444Y125019D01*
X516889Y132574D01*
X516889Y151207D01*
X516886Y151225D01*
X516888Y151243D01*
X516873Y151312D01*
X516867Y151388D01*
X516855Y151417D01*
X516850Y151449D01*
X516839Y151469D01*
X516836Y151484D01*
X516803Y151539D01*
X516771Y151614D01*
X516745Y151646D01*
X516734Y151667D01*
X516716Y151684D01*
X516710Y151695D01*
X516699Y151704D01*
X516666Y151745D01*
X510985Y157426D01*
X510911Y157479D01*
X510841Y157539D01*
X510811Y157551D01*
X510785Y157570D01*
X510698Y157597D01*
X510613Y157631D01*
X510572Y157635D01*
X510550Y157642D01*
X510518Y157641D01*
X510447Y157649D01*
X509615Y157649D01*
X507281Y158616D01*
X505494Y160403D01*
X504527Y162737D01*
X504527Y165263D01*
X505494Y167597D01*
X507281Y169384D01*
X509615Y170351D01*
X512141Y170351D01*
X514475Y169384D01*
X516262Y167597D01*
X517229Y165263D01*
X517229Y164431D01*
X517243Y164341D01*
X517251Y164250D01*
X517263Y164221D01*
X517268Y164189D01*
X517311Y164108D01*
X517347Y164024D01*
X517373Y163992D01*
X517384Y163971D01*
X517407Y163949D01*
X517452Y163893D01*
X526035Y155310D01*
X526035Y136677D01*
X526049Y136587D01*
X526057Y136496D01*
X526069Y136467D01*
X526074Y136435D01*
X526117Y136354D01*
X526153Y136270D01*
X526179Y136238D01*
X526190Y136217D01*
X526213Y136195D01*
X526258Y136139D01*
X531911Y130486D01*
X531985Y130433D01*
X532055Y130373D01*
X532085Y130361D01*
X532111Y130342D01*
X532198Y130315D01*
X532283Y130281D01*
X532324Y130277D01*
X532346Y130270D01*
X532378Y130271D01*
X532449Y130263D01*
X542542Y130263D01*
X543733Y129072D01*
X543733Y114388D01*
X542542Y113197D01*
X525858Y113197D01*
G37*
%LPD*%
%LPC*%
G36*
X530998Y432799D02*
X530998Y432799D01*
X529807Y433990D01*
X529807Y450674D01*
X530998Y451865D01*
X543381Y451865D01*
X543471Y451879D01*
X543562Y451887D01*
X543591Y451899D01*
X543623Y451904D01*
X543704Y451947D01*
X543788Y451983D01*
X543820Y452009D01*
X543841Y452020D01*
X543863Y452043D01*
X543919Y452088D01*
X564906Y473075D01*
X564944Y473128D01*
X564990Y473175D01*
X565030Y473248D01*
X565049Y473274D01*
X565055Y473293D01*
X565071Y473322D01*
X565354Y474005D01*
X567141Y475792D01*
X569475Y476759D01*
X572001Y476759D01*
X574335Y475792D01*
X576122Y474005D01*
X577089Y471671D01*
X577089Y469145D01*
X576122Y466811D01*
X574335Y465024D01*
X572001Y464057D01*
X569468Y464057D01*
X569370Y464080D01*
X569256Y464109D01*
X569250Y464109D01*
X569244Y464110D01*
X569127Y464099D01*
X569011Y464090D01*
X569005Y464087D01*
X568999Y464087D01*
X568892Y464039D01*
X568785Y463994D01*
X568779Y463989D01*
X568774Y463987D01*
X568761Y463974D01*
X568654Y463889D01*
X547096Y442331D01*
X547043Y442257D01*
X546983Y442187D01*
X546971Y442157D01*
X546952Y442131D01*
X546925Y442044D01*
X546891Y441959D01*
X546887Y441918D01*
X546880Y441896D01*
X546881Y441864D01*
X546873Y441793D01*
X546873Y433990D01*
X545682Y432799D01*
X530998Y432799D01*
G37*
%LPD*%
%LPC*%
G36*
X287425Y91305D02*
X287425Y91305D01*
X287425Y100584D01*
X287422Y100604D01*
X287424Y100623D01*
X287402Y100725D01*
X287385Y100827D01*
X287376Y100844D01*
X287372Y100864D01*
X287319Y100953D01*
X287270Y101044D01*
X287256Y101058D01*
X287246Y101075D01*
X287167Y101142D01*
X287092Y101213D01*
X287074Y101222D01*
X287059Y101235D01*
X286963Y101274D01*
X286869Y101317D01*
X286849Y101319D01*
X286831Y101327D01*
X286664Y101345D01*
X285901Y101345D01*
X285901Y101347D01*
X286664Y101347D01*
X286684Y101350D01*
X286703Y101348D01*
X286805Y101370D01*
X286907Y101387D01*
X286924Y101396D01*
X286944Y101400D01*
X287033Y101453D01*
X287124Y101502D01*
X287138Y101516D01*
X287155Y101526D01*
X287222Y101605D01*
X287293Y101680D01*
X287302Y101698D01*
X287315Y101713D01*
X287354Y101809D01*
X287397Y101903D01*
X287399Y101923D01*
X287407Y101941D01*
X287425Y102108D01*
X287425Y111387D01*
X292736Y111387D01*
X293383Y111214D01*
X293962Y110879D01*
X294435Y110406D01*
X294770Y109827D01*
X294873Y109442D01*
X294883Y109420D01*
X294887Y109396D01*
X294933Y109308D01*
X294974Y109218D01*
X294990Y109200D01*
X295002Y109179D01*
X295073Y109110D01*
X295141Y109037D01*
X295162Y109026D01*
X295180Y109009D01*
X295270Y108967D01*
X295357Y108920D01*
X295381Y108916D01*
X295403Y108906D01*
X295502Y108895D01*
X295600Y108878D01*
X295624Y108881D01*
X295647Y108879D01*
X295744Y108900D01*
X295843Y108915D01*
X295864Y108926D01*
X295888Y108931D01*
X295973Y108982D01*
X296062Y109027D01*
X296078Y109045D01*
X296099Y109057D01*
X296164Y109133D01*
X296233Y109204D01*
X296243Y109226D01*
X296259Y109244D01*
X296296Y109336D01*
X296339Y109426D01*
X296342Y109450D01*
X296351Y109472D01*
X296369Y109639D01*
X296369Y109688D01*
X297560Y110879D01*
X312244Y110879D01*
X313435Y109688D01*
X313435Y102362D01*
X313438Y102342D01*
X313436Y102323D01*
X313458Y102221D01*
X313474Y102119D01*
X313484Y102102D01*
X313488Y102082D01*
X313541Y101993D01*
X313590Y101902D01*
X313604Y101888D01*
X313614Y101871D01*
X313693Y101804D01*
X313768Y101732D01*
X313786Y101724D01*
X313801Y101711D01*
X313897Y101672D01*
X313991Y101629D01*
X314011Y101627D01*
X314029Y101619D01*
X314196Y101601D01*
X318382Y101601D01*
X318472Y101615D01*
X318563Y101623D01*
X318593Y101635D01*
X318625Y101640D01*
X318706Y101683D01*
X318789Y101719D01*
X318822Y101745D01*
X318842Y101756D01*
X318864Y101779D01*
X318920Y101824D01*
X320475Y103379D01*
X324685Y103379D01*
X327661Y100403D01*
X327661Y96193D01*
X324685Y93217D01*
X320475Y93217D01*
X318920Y94772D01*
X318847Y94825D01*
X318777Y94885D01*
X318747Y94897D01*
X318721Y94916D01*
X318634Y94943D01*
X318549Y94977D01*
X318508Y94981D01*
X318486Y94988D01*
X318453Y94987D01*
X318382Y94995D01*
X314196Y94995D01*
X314176Y94992D01*
X314157Y94994D01*
X314055Y94972D01*
X313953Y94956D01*
X313936Y94946D01*
X313916Y94942D01*
X313827Y94889D01*
X313736Y94840D01*
X313722Y94826D01*
X313705Y94816D01*
X313638Y94737D01*
X313566Y94662D01*
X313558Y94644D01*
X313545Y94629D01*
X313506Y94533D01*
X313463Y94439D01*
X313461Y94419D01*
X313453Y94401D01*
X313435Y94234D01*
X313435Y93004D01*
X312244Y91813D01*
X297560Y91813D01*
X296369Y93004D01*
X296369Y93053D01*
X296365Y93077D01*
X296368Y93101D01*
X296346Y93198D01*
X296330Y93296D01*
X296318Y93317D01*
X296313Y93341D01*
X296261Y93426D01*
X296214Y93513D01*
X296197Y93530D01*
X296184Y93550D01*
X296108Y93614D01*
X296036Y93683D01*
X296014Y93693D01*
X295996Y93708D01*
X295903Y93744D01*
X295813Y93786D01*
X295789Y93789D01*
X295767Y93798D01*
X295667Y93802D01*
X295569Y93813D01*
X295545Y93808D01*
X295521Y93809D01*
X295426Y93782D01*
X295328Y93761D01*
X295307Y93749D01*
X295284Y93742D01*
X295203Y93686D01*
X295117Y93635D01*
X295101Y93617D01*
X295082Y93603D01*
X295022Y93524D01*
X294957Y93448D01*
X294948Y93426D01*
X294934Y93406D01*
X294873Y93250D01*
X294770Y92865D01*
X294435Y92286D01*
X293962Y91813D01*
X293383Y91478D01*
X292736Y91305D01*
X287425Y91305D01*
G37*
%LPD*%
%LPC*%
G36*
X368323Y508223D02*
X368323Y508223D01*
X368323Y531741D01*
X389634Y531741D01*
X390281Y531568D01*
X390860Y531233D01*
X391333Y530760D01*
X391668Y530181D01*
X391841Y529534D01*
X391841Y508223D01*
X368323Y508223D01*
G37*
%LPD*%
%LPC*%
G36*
X341759Y508223D02*
X341759Y508223D01*
X341759Y529534D01*
X341932Y530181D01*
X342267Y530760D01*
X342740Y531233D01*
X343319Y531568D01*
X343966Y531741D01*
X365277Y531741D01*
X365277Y508223D01*
X341759Y508223D01*
G37*
%LPD*%
%LPC*%
G36*
X343966Y481659D02*
X343966Y481659D01*
X343319Y481832D01*
X342740Y482167D01*
X342267Y482640D01*
X341932Y483219D01*
X341759Y483866D01*
X341759Y505177D01*
X365277Y505177D01*
X365277Y481659D01*
X343966Y481659D01*
G37*
%LPD*%
%LPC*%
G36*
X368323Y481659D02*
X368323Y481659D01*
X368323Y505177D01*
X391841Y505177D01*
X391841Y483866D01*
X391668Y483219D01*
X391333Y482640D01*
X390860Y482167D01*
X390281Y481832D01*
X389634Y481659D01*
X368323Y481659D01*
G37*
%LPD*%
%LPC*%
G36*
X473390Y39477D02*
X473390Y39477D01*
X469335Y41157D01*
X466232Y44260D01*
X464552Y48315D01*
X464552Y52705D01*
X466232Y56760D01*
X469335Y59863D01*
X473390Y61543D01*
X477780Y61543D01*
X481835Y59863D01*
X484938Y56760D01*
X486618Y52705D01*
X486618Y48315D01*
X484938Y44260D01*
X481835Y41157D01*
X477780Y39477D01*
X473390Y39477D01*
G37*
%LPD*%
%LPC*%
G36*
X473390Y99667D02*
X473390Y99667D01*
X469335Y101347D01*
X466232Y104450D01*
X464552Y108505D01*
X464552Y112895D01*
X466232Y116950D01*
X469335Y120053D01*
X473390Y121733D01*
X477780Y121733D01*
X481835Y120053D01*
X484938Y116950D01*
X486618Y112895D01*
X486618Y108505D01*
X484938Y104450D01*
X481835Y101347D01*
X477780Y99667D01*
X473390Y99667D01*
G37*
%LPD*%
%LPC*%
G36*
X441348Y217507D02*
X441348Y217507D01*
X440157Y218698D01*
X440157Y232382D01*
X441348Y233573D01*
X449032Y233573D01*
X450223Y232382D01*
X450223Y218698D01*
X449032Y217507D01*
X441348Y217507D01*
G37*
%LPD*%
%LPC*%
G36*
X415948Y273507D02*
X415948Y273507D01*
X414757Y274698D01*
X414757Y288382D01*
X415948Y289573D01*
X423632Y289573D01*
X424823Y288382D01*
X424823Y274698D01*
X423632Y273507D01*
X415948Y273507D01*
G37*
%LPD*%
%LPC*%
G36*
X454048Y273507D02*
X454048Y273507D01*
X452857Y274698D01*
X452857Y288382D01*
X454048Y289573D01*
X461732Y289573D01*
X462923Y288382D01*
X462923Y274698D01*
X461732Y273507D01*
X454048Y273507D01*
G37*
%LPD*%
%LPC*%
G36*
X428648Y273507D02*
X428648Y273507D01*
X427457Y274698D01*
X427457Y288382D01*
X428648Y289573D01*
X436332Y289573D01*
X437523Y288382D01*
X437523Y274698D01*
X436332Y273507D01*
X428648Y273507D01*
G37*
%LPD*%
%LPC*%
G36*
X441348Y273507D02*
X441348Y273507D01*
X440157Y274698D01*
X440157Y288382D01*
X441348Y289573D01*
X449032Y289573D01*
X450223Y288382D01*
X450223Y274698D01*
X449032Y273507D01*
X441348Y273507D01*
G37*
%LPD*%
%LPC*%
G36*
X454048Y217507D02*
X454048Y217507D01*
X452857Y218698D01*
X452857Y232382D01*
X454048Y233573D01*
X461732Y233573D01*
X462923Y232382D01*
X462923Y218698D01*
X461732Y217507D01*
X454048Y217507D01*
G37*
%LPD*%
%LPC*%
G36*
X331442Y213314D02*
X331442Y213314D01*
X330251Y214505D01*
X330251Y228189D01*
X331442Y229380D01*
X338626Y229380D01*
X339817Y228189D01*
X339817Y214505D01*
X338626Y213314D01*
X331442Y213314D01*
G37*
%LPD*%
%LPC*%
G36*
X348393Y699333D02*
X348393Y699333D01*
X348393Y709366D01*
X355204Y709366D01*
X355851Y709193D01*
X356430Y708858D01*
X356903Y708385D01*
X357238Y707806D01*
X357411Y707159D01*
X357411Y699333D01*
X348393Y699333D01*
G37*
%LPD*%
%LPC*%
G36*
X348393Y686254D02*
X348393Y686254D01*
X348393Y696287D01*
X357411Y696287D01*
X357411Y688461D01*
X357238Y687814D01*
X356903Y687235D01*
X356430Y686762D01*
X355851Y686427D01*
X355204Y686254D01*
X348393Y686254D01*
G37*
%LPD*%
%LPC*%
G36*
X336329Y699333D02*
X336329Y699333D01*
X336329Y707159D01*
X336502Y707806D01*
X336837Y708385D01*
X337310Y708858D01*
X337889Y709193D01*
X338536Y709366D01*
X345347Y709366D01*
X345347Y699333D01*
X336329Y699333D01*
G37*
%LPD*%
%LPC*%
G36*
X338536Y686254D02*
X338536Y686254D01*
X337889Y686427D01*
X337310Y686762D01*
X336837Y687235D01*
X336502Y687814D01*
X336329Y688461D01*
X336329Y696287D01*
X345347Y696287D01*
X345347Y686254D01*
X338536Y686254D01*
G37*
%LPD*%
%LPC*%
G36*
X317819Y18929D02*
X317819Y18929D01*
X317819Y30420D01*
X319020Y30181D01*
X320392Y29613D01*
X321627Y28787D01*
X322677Y27737D01*
X323503Y26502D01*
X324071Y25130D01*
X324361Y23673D01*
X324361Y18929D01*
X317819Y18929D01*
G37*
%LPD*%
%LPC*%
G36*
X395639Y18929D02*
X395639Y18929D01*
X395639Y23673D01*
X395929Y25130D01*
X396497Y26502D01*
X397323Y27737D01*
X398373Y28787D01*
X399608Y29613D01*
X400980Y30181D01*
X402181Y30420D01*
X402181Y18929D01*
X395639Y18929D01*
G37*
%LPD*%
%LPC*%
G36*
X416657Y135913D02*
X416657Y135913D01*
X416657Y143431D01*
X422968Y143431D01*
X423615Y143258D01*
X424194Y142923D01*
X424667Y142450D01*
X425002Y141871D01*
X425175Y141224D01*
X425175Y135913D01*
X416657Y135913D01*
G37*
%LPD*%
%LPC*%
G36*
X405093Y135913D02*
X405093Y135913D01*
X405093Y141224D01*
X405266Y141871D01*
X405601Y142450D01*
X406074Y142923D01*
X406653Y143258D01*
X407300Y143431D01*
X413611Y143431D01*
X413611Y135913D01*
X405093Y135913D01*
G37*
%LPD*%
%LPC*%
G36*
X223733Y464139D02*
X223733Y464139D01*
X223733Y471657D01*
X232251Y471657D01*
X232251Y466346D01*
X232078Y465699D01*
X231743Y465120D01*
X231270Y464647D01*
X230691Y464312D01*
X230044Y464139D01*
X223733Y464139D01*
G37*
%LPD*%
%LPC*%
G36*
X306479Y137293D02*
X306479Y137293D01*
X306479Y143604D01*
X306652Y144251D01*
X306987Y144830D01*
X307460Y145303D01*
X308039Y145638D01*
X308686Y145811D01*
X313997Y145811D01*
X313997Y137293D01*
X306479Y137293D01*
G37*
%LPD*%
%LPC*%
G36*
X276861Y102869D02*
X276861Y102869D01*
X276861Y109180D01*
X277034Y109827D01*
X277369Y110406D01*
X277842Y110879D01*
X278421Y111214D01*
X279068Y111387D01*
X284379Y111387D01*
X284379Y102869D01*
X276861Y102869D01*
G37*
%LPD*%
%LPC*%
G36*
X305687Y166325D02*
X305687Y166325D01*
X305687Y172636D01*
X305860Y173283D01*
X306195Y173862D01*
X306668Y174335D01*
X307247Y174670D01*
X307894Y174843D01*
X313205Y174843D01*
X313205Y166325D01*
X305687Y166325D01*
G37*
%LPD*%
%LPC*%
G36*
X308839Y283973D02*
X308839Y283973D01*
X308839Y290284D01*
X309012Y290931D01*
X309347Y291510D01*
X309820Y291983D01*
X310399Y292318D01*
X311046Y292491D01*
X316357Y292491D01*
X316357Y283973D01*
X308839Y283973D01*
G37*
%LPD*%
%LPC*%
G36*
X258017Y216109D02*
X258017Y216109D01*
X258017Y222420D01*
X258190Y223067D01*
X258525Y223646D01*
X258998Y224119D01*
X259577Y224454D01*
X260224Y224627D01*
X265535Y224627D01*
X265535Y216109D01*
X258017Y216109D01*
G37*
%LPD*%
%LPC*%
G36*
X193549Y559053D02*
X193549Y559053D01*
X193549Y565364D01*
X193722Y566011D01*
X194057Y566590D01*
X194530Y567063D01*
X195109Y567398D01*
X195756Y567571D01*
X201067Y567571D01*
X201067Y559053D01*
X193549Y559053D01*
G37*
%LPD*%
%LPC*%
G36*
X187209Y590523D02*
X187209Y590523D01*
X187209Y596834D01*
X187382Y597481D01*
X187717Y598060D01*
X188190Y598533D01*
X188769Y598868D01*
X189416Y599041D01*
X194727Y599041D01*
X194727Y590523D01*
X187209Y590523D01*
G37*
%LPD*%
%LPC*%
G36*
X189416Y578959D02*
X189416Y578959D01*
X188769Y579132D01*
X188190Y579467D01*
X187717Y579940D01*
X187382Y580519D01*
X187209Y581166D01*
X187209Y587477D01*
X194727Y587477D01*
X194727Y578959D01*
X189416Y578959D01*
G37*
%LPD*%
%LPC*%
G36*
X308686Y125729D02*
X308686Y125729D01*
X308039Y125902D01*
X307460Y126237D01*
X306987Y126710D01*
X306652Y127289D01*
X306479Y127936D01*
X306479Y134247D01*
X313997Y134247D01*
X313997Y125729D01*
X308686Y125729D01*
G37*
%LPD*%
%LPC*%
G36*
X279068Y91305D02*
X279068Y91305D01*
X278421Y91478D01*
X277842Y91813D01*
X277369Y92286D01*
X277034Y92865D01*
X276861Y93512D01*
X276861Y99823D01*
X284379Y99823D01*
X284379Y91305D01*
X279068Y91305D01*
G37*
%LPD*%
%LPC*%
G36*
X195756Y547489D02*
X195756Y547489D01*
X195109Y547662D01*
X194530Y547997D01*
X194057Y548470D01*
X193722Y549049D01*
X193549Y549696D01*
X193549Y556007D01*
X201067Y556007D01*
X201067Y547489D01*
X195756Y547489D01*
G37*
%LPD*%
%LPC*%
G36*
X260224Y204545D02*
X260224Y204545D01*
X259577Y204718D01*
X258998Y205053D01*
X258525Y205526D01*
X258190Y206105D01*
X258017Y206752D01*
X258017Y213063D01*
X265535Y213063D01*
X265535Y204545D01*
X260224Y204545D01*
G37*
%LPD*%
%LPC*%
G36*
X307894Y154761D02*
X307894Y154761D01*
X307247Y154934D01*
X306668Y155269D01*
X306195Y155742D01*
X305860Y156321D01*
X305687Y156968D01*
X305687Y163279D01*
X313205Y163279D01*
X313205Y154761D01*
X307894Y154761D01*
G37*
%LPD*%
%LPC*%
G36*
X214376Y464139D02*
X214376Y464139D01*
X213729Y464312D01*
X213150Y464647D01*
X212677Y465120D01*
X212342Y465699D01*
X212169Y466346D01*
X212169Y471657D01*
X220687Y471657D01*
X220687Y464139D01*
X214376Y464139D01*
G37*
%LPD*%
%LPC*%
G36*
X311046Y272409D02*
X311046Y272409D01*
X310399Y272582D01*
X309820Y272917D01*
X309347Y273390D01*
X309012Y273969D01*
X308839Y274616D01*
X308839Y280927D01*
X316357Y280927D01*
X316357Y272409D01*
X311046Y272409D01*
G37*
%LPD*%
%LPC*%
G36*
X269023Y581523D02*
X269023Y581523D01*
X269023Y587541D01*
X275334Y587541D01*
X275981Y587368D01*
X276560Y587033D01*
X277033Y586560D01*
X277368Y585981D01*
X277541Y585334D01*
X277541Y581523D01*
X269023Y581523D01*
G37*
%LPD*%
%LPC*%
G36*
X454023Y581523D02*
X454023Y581523D01*
X454023Y587541D01*
X460334Y587541D01*
X460981Y587368D01*
X461560Y587033D01*
X462033Y586560D01*
X462368Y585981D01*
X462541Y585334D01*
X462541Y581523D01*
X454023Y581523D01*
G37*
%LPD*%
%LPC*%
G36*
X257459Y581523D02*
X257459Y581523D01*
X257459Y585334D01*
X257632Y585981D01*
X257967Y586560D01*
X258440Y587033D01*
X259019Y587368D01*
X259666Y587541D01*
X265977Y587541D01*
X265977Y581523D01*
X257459Y581523D01*
G37*
%LPD*%
%LPC*%
G36*
X442459Y581523D02*
X442459Y581523D01*
X442459Y585334D01*
X442632Y585981D01*
X442967Y586560D01*
X443440Y587033D01*
X444019Y587368D01*
X444666Y587541D01*
X450977Y587541D01*
X450977Y581523D01*
X442459Y581523D01*
G37*
%LPD*%
%LPC*%
G36*
X295459Y399023D02*
X295459Y399023D01*
X295459Y405334D01*
X295632Y405981D01*
X295967Y406560D01*
X296440Y407033D01*
X297019Y407368D01*
X297666Y407541D01*
X301477Y407541D01*
X301477Y399023D01*
X295459Y399023D01*
G37*
%LPD*%
%LPC*%
G36*
X297666Y387459D02*
X297666Y387459D01*
X297019Y387632D01*
X296440Y387967D01*
X295967Y388440D01*
X295632Y389019D01*
X295459Y389666D01*
X295459Y395977D01*
X301477Y395977D01*
X301477Y387459D01*
X297666Y387459D01*
G37*
%LPD*%
%LPC*%
G36*
X370489Y227039D02*
X370489Y227039D01*
X370489Y234081D01*
X372324Y234081D01*
X372971Y233908D01*
X373550Y233573D01*
X374023Y233100D01*
X374358Y232521D01*
X374531Y231874D01*
X374531Y227039D01*
X370489Y227039D01*
G37*
%LPD*%
%LPC*%
G36*
X370489Y216999D02*
X370489Y216999D01*
X370489Y224041D01*
X374531Y224041D01*
X374531Y219206D01*
X374358Y218559D01*
X374023Y217980D01*
X373550Y217507D01*
X372971Y217172D01*
X372324Y216999D01*
X370489Y216999D01*
G37*
%LPD*%
%LPC*%
G36*
X363449Y227039D02*
X363449Y227039D01*
X363449Y231874D01*
X363622Y232521D01*
X363957Y233100D01*
X364430Y233573D01*
X365009Y233908D01*
X365656Y234081D01*
X367491Y234081D01*
X367491Y227039D01*
X363449Y227039D01*
G37*
%LPD*%
%LPC*%
G36*
X365656Y216999D02*
X365656Y216999D01*
X365009Y217172D01*
X364430Y217507D01*
X363957Y217980D01*
X363622Y218559D01*
X363449Y219206D01*
X363449Y224041D01*
X367491Y224041D01*
X367491Y216999D01*
X365656Y216999D01*
G37*
%LPD*%
%LPC*%
G36*
X620879Y351769D02*
X620879Y351769D01*
X620879Y356561D01*
X622464Y356561D01*
X623111Y356388D01*
X623690Y356053D01*
X624163Y355580D01*
X624498Y355001D01*
X624671Y354354D01*
X624671Y351769D01*
X620879Y351769D01*
G37*
%LPD*%
%LPC*%
G36*
X104719Y351769D02*
X104719Y351769D01*
X104719Y356561D01*
X106304Y356561D01*
X106951Y356388D01*
X107530Y356053D01*
X108003Y355580D01*
X108338Y355001D01*
X108511Y354354D01*
X108511Y351769D01*
X104719Y351769D01*
G37*
%LPD*%
%LPC*%
G36*
X62719Y351769D02*
X62719Y351769D01*
X62719Y356561D01*
X64304Y356561D01*
X64951Y356388D01*
X65530Y356053D01*
X66003Y355580D01*
X66338Y355001D01*
X66511Y354354D01*
X66511Y351769D01*
X62719Y351769D01*
G37*
%LPD*%
%LPC*%
G36*
X662879Y351769D02*
X662879Y351769D01*
X662879Y356561D01*
X664464Y356561D01*
X665111Y356388D01*
X665690Y356053D01*
X666163Y355580D01*
X666498Y355001D01*
X666671Y354354D01*
X666671Y351769D01*
X662879Y351769D01*
G37*
%LPD*%
%LPC*%
G36*
X98429Y351769D02*
X98429Y351769D01*
X98429Y354354D01*
X98602Y355001D01*
X98937Y355580D01*
X99410Y356053D01*
X99989Y356388D01*
X100636Y356561D01*
X102221Y356561D01*
X102221Y351769D01*
X98429Y351769D01*
G37*
%LPD*%
%LPC*%
G36*
X656589Y351769D02*
X656589Y351769D01*
X656589Y354354D01*
X656762Y355001D01*
X657097Y355580D01*
X657570Y356053D01*
X658149Y356388D01*
X658796Y356561D01*
X660381Y356561D01*
X660381Y351769D01*
X656589Y351769D01*
G37*
%LPD*%
%LPC*%
G36*
X614589Y351769D02*
X614589Y351769D01*
X614589Y354354D01*
X614762Y355001D01*
X615097Y355580D01*
X615570Y356053D01*
X616149Y356388D01*
X616796Y356561D01*
X618381Y356561D01*
X618381Y351769D01*
X614589Y351769D01*
G37*
%LPD*%
%LPC*%
G36*
X56429Y351769D02*
X56429Y351769D01*
X56429Y354354D01*
X56602Y355001D01*
X56937Y355580D01*
X57410Y356053D01*
X57989Y356388D01*
X58636Y356561D01*
X60221Y356561D01*
X60221Y351769D01*
X56429Y351769D01*
G37*
%LPD*%
%LPC*%
G36*
X62719Y344479D02*
X62719Y344479D01*
X62719Y349271D01*
X66511Y349271D01*
X66511Y346686D01*
X66338Y346039D01*
X66003Y345460D01*
X65530Y344987D01*
X64951Y344652D01*
X64304Y344479D01*
X62719Y344479D01*
G37*
%LPD*%
%LPC*%
G36*
X620879Y344479D02*
X620879Y344479D01*
X620879Y349271D01*
X624671Y349271D01*
X624671Y346686D01*
X624498Y346039D01*
X624163Y345460D01*
X623690Y344987D01*
X623111Y344652D01*
X622464Y344479D01*
X620879Y344479D01*
G37*
%LPD*%
%LPC*%
G36*
X104719Y344479D02*
X104719Y344479D01*
X104719Y349271D01*
X108511Y349271D01*
X108511Y346686D01*
X108338Y346039D01*
X108003Y345460D01*
X107530Y344987D01*
X106951Y344652D01*
X106304Y344479D01*
X104719Y344479D01*
G37*
%LPD*%
%LPC*%
G36*
X662879Y344479D02*
X662879Y344479D01*
X662879Y349271D01*
X666671Y349271D01*
X666671Y346686D01*
X666498Y346039D01*
X666163Y345460D01*
X665690Y344987D01*
X665111Y344652D01*
X664464Y344479D01*
X662879Y344479D01*
G37*
%LPD*%
%LPC*%
G36*
X100636Y344479D02*
X100636Y344479D01*
X99989Y344652D01*
X99410Y344987D01*
X98937Y345460D01*
X98602Y346039D01*
X98429Y346686D01*
X98429Y349271D01*
X102221Y349271D01*
X102221Y344479D01*
X100636Y344479D01*
G37*
%LPD*%
%LPC*%
G36*
X58636Y344479D02*
X58636Y344479D01*
X57989Y344652D01*
X57410Y344987D01*
X56937Y345460D01*
X56602Y346039D01*
X56429Y346686D01*
X56429Y349271D01*
X60221Y349271D01*
X60221Y344479D01*
X58636Y344479D01*
G37*
%LPD*%
%LPC*%
G36*
X616796Y344479D02*
X616796Y344479D01*
X616149Y344652D01*
X615570Y344987D01*
X615097Y345460D01*
X614762Y346039D01*
X614589Y346686D01*
X614589Y349271D01*
X618381Y349271D01*
X618381Y344479D01*
X616796Y344479D01*
G37*
%LPD*%
%LPC*%
G36*
X658796Y344479D02*
X658796Y344479D01*
X658149Y344652D01*
X657570Y344987D01*
X657097Y345460D01*
X656762Y346039D01*
X656589Y346686D01*
X656589Y349271D01*
X660381Y349271D01*
X660381Y344479D01*
X658796Y344479D01*
G37*
%LPD*%
%LPC*%
G36*
X346869Y697809D02*
X346869Y697809D01*
X346869Y697811D01*
X346871Y697811D01*
X346871Y697809D01*
X346869Y697809D01*
G37*
%LPD*%
%LPC*%
G36*
X366799Y506699D02*
X366799Y506699D01*
X366799Y506701D01*
X366801Y506701D01*
X366801Y506699D01*
X366799Y506699D01*
G37*
%LPD*%
D10*
X0Y360000D02*
X108Y368835D01*
X434Y377664D01*
X975Y386483D01*
X1733Y395286D01*
X2707Y404068D01*
X3896Y412823D01*
X5300Y421546D01*
X6917Y430233D01*
X8747Y438876D01*
X10789Y447473D01*
X13041Y456017D01*
X15501Y464502D01*
X18170Y472925D01*
X21044Y481280D01*
X24123Y489562D01*
X27403Y497766D01*
X30884Y505887D01*
X34564Y513920D01*
X38439Y521860D01*
X42508Y529703D01*
X46769Y537443D01*
X51218Y545077D01*
X55853Y552599D01*
X60671Y560005D01*
X65669Y567291D01*
X70845Y574452D01*
X76195Y581483D01*
X81716Y588382D01*
X87405Y595142D01*
X93258Y601761D01*
X99271Y608235D01*
X105442Y614558D01*
X111765Y620729D01*
X118239Y626742D01*
X124858Y632595D01*
X131618Y638284D01*
X138517Y643805D01*
X145548Y649155D01*
X152709Y654331D01*
X159995Y659329D01*
X167401Y664147D01*
X174923Y668782D01*
X182557Y673231D01*
X190297Y677492D01*
X198140Y681561D01*
X206080Y685436D01*
X214113Y689116D01*
X222234Y692597D01*
X230438Y695877D01*
X238720Y698956D01*
X247075Y701830D01*
X255498Y704499D01*
X263983Y706959D01*
X272527Y709211D01*
X281124Y711253D01*
X289767Y713083D01*
X298454Y714700D01*
X307177Y716104D01*
X315932Y717293D01*
X324714Y718267D01*
X333517Y719025D01*
X342336Y719566D01*
X351165Y719892D01*
X360000Y720000D01*
X368835Y719892D01*
X377664Y719566D01*
X386483Y719025D01*
X395286Y718267D01*
X404068Y717293D01*
X412823Y716104D01*
X421546Y714700D01*
X430233Y713083D01*
X438876Y711253D01*
X447473Y709211D01*
X456017Y706959D01*
X464502Y704499D01*
X472925Y701830D01*
X481280Y698956D01*
X489562Y695877D01*
X497766Y692597D01*
X505887Y689116D01*
X513920Y685436D01*
X521860Y681561D01*
X529703Y677492D01*
X537443Y673231D01*
X545077Y668782D01*
X552599Y664147D01*
X560005Y659329D01*
X567291Y654331D01*
X574452Y649155D01*
X581483Y643805D01*
X588382Y638284D01*
X595142Y632595D01*
X601761Y626742D01*
X608235Y620729D01*
X614558Y614558D01*
X620729Y608235D01*
X626742Y601761D01*
X632595Y595142D01*
X638284Y588382D01*
X643805Y581483D01*
X649155Y574452D01*
X654331Y567291D01*
X659329Y560005D01*
X664147Y552599D01*
X668782Y545077D01*
X673231Y537443D01*
X677492Y529703D01*
X681561Y521860D01*
X685436Y513920D01*
X689116Y505887D01*
X692597Y497766D01*
X695877Y489562D01*
X698956Y481280D01*
X701830Y472925D01*
X704499Y464502D01*
X706959Y456017D01*
X709211Y447473D01*
X711253Y438876D01*
X713083Y430233D01*
X714700Y421546D01*
X716104Y412823D01*
X717293Y404068D01*
X718267Y395286D01*
X719025Y386483D01*
X719566Y377664D01*
X719892Y368835D01*
X720000Y360000D01*
X719892Y351165D01*
X719566Y342336D01*
X719025Y333517D01*
X718267Y324714D01*
X717293Y315932D01*
X716104Y307177D01*
X714700Y298454D01*
X713083Y289767D01*
X711253Y281124D01*
X709211Y272527D01*
X706959Y263983D01*
X704499Y255498D01*
X701830Y247075D01*
X698956Y238720D01*
X695877Y230438D01*
X692597Y222234D01*
X689116Y214113D01*
X685436Y206080D01*
X681561Y198140D01*
X677492Y190297D01*
X673231Y182557D01*
X668782Y174923D01*
X664147Y167401D01*
X659329Y159995D01*
X654331Y152709D01*
X649155Y145548D01*
X643805Y138517D01*
X638284Y131618D01*
X632595Y124858D01*
X626742Y118239D01*
X620729Y111765D01*
X614558Y105442D01*
X608235Y99271D01*
X601761Y93258D01*
X595142Y87405D01*
X588382Y81716D01*
X581483Y76195D01*
X574452Y70845D01*
X567291Y65669D01*
X560005Y60671D01*
X552599Y55853D01*
X545077Y51218D01*
X537443Y46769D01*
X529703Y42508D01*
X521860Y38439D01*
X513920Y34564D01*
X505887Y30884D01*
X497766Y27403D01*
X489562Y24123D01*
X481280Y21044D01*
X472925Y18170D01*
X464502Y15501D01*
X456017Y13041D01*
X447473Y10789D01*
X438876Y8747D01*
X430233Y6917D01*
X421546Y5300D01*
X412823Y3896D01*
X404068Y2707D01*
X395286Y1733D01*
X386483Y975D01*
X377664Y434D01*
X368835Y108D01*
X360000Y0D01*
X351165Y108D01*
X342336Y434D01*
X333517Y975D01*
X324714Y1733D01*
X315932Y2707D01*
X307177Y3896D01*
X298454Y5300D01*
X289767Y6917D01*
X281124Y8747D01*
X272527Y10789D01*
X263983Y13041D01*
X255498Y15501D01*
X247075Y18170D01*
X238720Y21044D01*
X230438Y24123D01*
X222234Y27403D01*
X214113Y30884D01*
X206080Y34564D01*
X198140Y38439D01*
X190297Y42508D01*
X182557Y46769D01*
X174923Y51218D01*
X167401Y55853D01*
X159995Y60671D01*
X152709Y65669D01*
X145548Y70845D01*
X138517Y76195D01*
X131618Y81716D01*
X124858Y87405D01*
X118239Y93258D01*
X111765Y99271D01*
X105442Y105442D01*
X99271Y111765D01*
X93258Y118239D01*
X87405Y124858D01*
X81716Y131618D01*
X76195Y138517D01*
X70845Y145548D01*
X65669Y152709D01*
X60671Y159995D01*
X55853Y167401D01*
X51218Y174923D01*
X46769Y182557D01*
X42508Y190297D01*
X38439Y198140D01*
X34564Y206080D01*
X30884Y214113D01*
X27403Y222234D01*
X24123Y230438D01*
X21044Y238720D01*
X18170Y247075D01*
X15501Y255498D01*
X13041Y263983D01*
X10789Y272527D01*
X8747Y281124D01*
X6917Y289767D01*
X5300Y298454D01*
X3896Y307177D01*
X2707Y315932D01*
X1733Y324714D01*
X975Y333517D01*
X434Y342336D01*
X108Y351165D01*
X0Y360000D01*
X460000Y360000D02*
X460015Y361227D01*
X460060Y362453D01*
X460135Y363678D01*
X460241Y364901D01*
X460376Y366121D01*
X460541Y367337D01*
X460736Y368548D01*
X460961Y369755D01*
X461215Y370955D01*
X461498Y372149D01*
X461811Y373336D01*
X462153Y374514D01*
X462524Y375684D01*
X462923Y376844D01*
X463350Y377995D01*
X463806Y379134D01*
X464290Y380262D01*
X464801Y381378D01*
X465339Y382481D01*
X465904Y383570D01*
X466496Y384645D01*
X467114Y385705D01*
X467757Y386750D01*
X468427Y387779D01*
X469121Y388790D01*
X469840Y389785D01*
X470583Y390762D01*
X471349Y391720D01*
X472140Y392659D01*
X472952Y393578D01*
X473788Y394477D01*
X474645Y395355D01*
X475523Y396212D01*
X476422Y397048D01*
X477341Y397860D01*
X478280Y398651D01*
X479238Y399417D01*
X480215Y400160D01*
X481210Y400879D01*
X482221Y401573D01*
X483250Y402243D01*
X484295Y402886D01*
X485355Y403504D01*
X486430Y404096D01*
X487519Y404661D01*
X488622Y405199D01*
X489738Y405710D01*
X490866Y406194D01*
X492005Y406650D01*
X493156Y407077D01*
X494316Y407476D01*
X495486Y407847D01*
X496664Y408189D01*
X497851Y408502D01*
X499045Y408785D01*
X500245Y409039D01*
X501452Y409264D01*
X502663Y409459D01*
X503879Y409624D01*
X505099Y409759D01*
X506322Y409865D01*
X507547Y409940D01*
X508773Y409985D01*
X510000Y410000D01*
X511227Y409985D01*
X512453Y409940D01*
X513678Y409865D01*
X514901Y409759D01*
X516121Y409624D01*
X517337Y409459D01*
X518548Y409264D01*
X519755Y409039D01*
X520955Y408785D01*
X522149Y408502D01*
X523336Y408189D01*
X524514Y407847D01*
X525684Y407476D01*
X526844Y407077D01*
X527995Y406650D01*
X529134Y406194D01*
X530262Y405710D01*
X531378Y405199D01*
X532481Y404661D01*
X533570Y404096D01*
X534645Y403504D01*
X535705Y402886D01*
X536750Y402243D01*
X537779Y401573D01*
X538790Y400879D01*
X539785Y400160D01*
X540762Y399417D01*
X541720Y398651D01*
X542659Y397860D01*
X543578Y397048D01*
X544477Y396212D01*
X545355Y395355D01*
X546212Y394477D01*
X547048Y393578D01*
X547860Y392659D01*
X548651Y391720D01*
X549417Y390762D01*
X550160Y389785D01*
X550879Y388790D01*
X551573Y387779D01*
X552243Y386750D01*
X552886Y385705D01*
X553504Y384645D01*
X554096Y383570D01*
X554661Y382481D01*
X555199Y381378D01*
X555710Y380262D01*
X556194Y379134D01*
X556650Y377995D01*
X557077Y376844D01*
X557476Y375684D01*
X557847Y374514D01*
X558189Y373336D01*
X558502Y372149D01*
X558785Y370955D01*
X559039Y369755D01*
X559264Y368548D01*
X559459Y367337D01*
X559624Y366121D01*
X559759Y364901D01*
X559865Y363678D01*
X559940Y362453D01*
X559985Y361227D01*
X560000Y360000D01*
X559985Y358773D01*
X559940Y357547D01*
X559865Y356322D01*
X559759Y355099D01*
X559624Y353879D01*
X559459Y352663D01*
X559264Y351452D01*
X559039Y350245D01*
X558785Y349045D01*
X558502Y347851D01*
X558189Y346664D01*
X557847Y345486D01*
X557476Y344316D01*
X557077Y343156D01*
X556650Y342005D01*
X556194Y340866D01*
X555710Y339738D01*
X555199Y338622D01*
X554661Y337519D01*
X554096Y336430D01*
X553504Y335355D01*
X552886Y334295D01*
X552243Y333250D01*
X551573Y332221D01*
X550879Y331210D01*
X550160Y330215D01*
X549417Y329238D01*
X548651Y328280D01*
X547860Y327341D01*
X547048Y326422D01*
X546212Y325523D01*
X545355Y324645D01*
X544477Y323788D01*
X543578Y322952D01*
X542659Y322140D01*
X541720Y321349D01*
X540762Y320583D01*
X539785Y319840D01*
X538790Y319121D01*
X537779Y318427D01*
X536750Y317757D01*
X535705Y317114D01*
X534645Y316496D01*
X533570Y315904D01*
X532481Y315339D01*
X531378Y314801D01*
X530262Y314290D01*
X529134Y313806D01*
X527995Y313350D01*
X526844Y312923D01*
X525684Y312524D01*
X524514Y312153D01*
X523336Y311811D01*
X522149Y311498D01*
X520955Y311215D01*
X519755Y310961D01*
X518548Y310736D01*
X517337Y310541D01*
X516121Y310376D01*
X514901Y310241D01*
X513678Y310135D01*
X512453Y310060D01*
X511227Y310015D01*
X510000Y310000D01*
X508773Y310015D01*
X507547Y310060D01*
X506322Y310135D01*
X505099Y310241D01*
X503879Y310376D01*
X502663Y310541D01*
X501452Y310736D01*
X500245Y310961D01*
X499045Y311215D01*
X497851Y311498D01*
X496664Y311811D01*
X495486Y312153D01*
X494316Y312524D01*
X493156Y312923D01*
X492005Y313350D01*
X490866Y313806D01*
X489738Y314290D01*
X488622Y314801D01*
X487519Y315339D01*
X486430Y315904D01*
X485355Y316496D01*
X484295Y317114D01*
X483250Y317757D01*
X482221Y318427D01*
X481210Y319121D01*
X480215Y319840D01*
X479238Y320583D01*
X478280Y321349D01*
X477341Y322140D01*
X476422Y322952D01*
X475523Y323788D01*
X474645Y324645D01*
X473788Y325523D01*
X472952Y326422D01*
X472140Y327341D01*
X471349Y328280D01*
X470583Y329238D01*
X469840Y330215D01*
X469121Y331210D01*
X468427Y332221D01*
X467757Y333250D01*
X467114Y334295D01*
X466496Y335355D01*
X465904Y336430D01*
X465339Y337519D01*
X464801Y338622D01*
X464290Y339738D01*
X463806Y340866D01*
X463350Y342005D01*
X462923Y343156D01*
X462524Y344316D01*
X462153Y345486D01*
X461811Y346664D01*
X461498Y347851D01*
X461215Y349045D01*
X460961Y350245D01*
X460736Y351452D01*
X460541Y352663D01*
X460376Y353879D01*
X460241Y355099D01*
X460135Y356322D01*
X460060Y357547D01*
X460015Y358773D01*
X460000Y360000D01*
X160000Y360000D02*
X160015Y361227D01*
X160060Y362453D01*
X160135Y363678D01*
X160241Y364901D01*
X160376Y366121D01*
X160541Y367337D01*
X160736Y368548D01*
X160961Y369755D01*
X161215Y370955D01*
X161498Y372149D01*
X161811Y373336D01*
X162153Y374514D01*
X162524Y375684D01*
X162923Y376844D01*
X163350Y377995D01*
X163806Y379134D01*
X164290Y380262D01*
X164801Y381378D01*
X165339Y382481D01*
X165904Y383570D01*
X166496Y384645D01*
X167114Y385705D01*
X167757Y386750D01*
X168427Y387779D01*
X169121Y388790D01*
X169840Y389785D01*
X170583Y390762D01*
X171349Y391720D01*
X172140Y392659D01*
X172952Y393578D01*
X173788Y394477D01*
X174645Y395355D01*
X175523Y396212D01*
X176422Y397048D01*
X177341Y397860D01*
X178280Y398651D01*
X179238Y399417D01*
X180215Y400160D01*
X181210Y400879D01*
X182221Y401573D01*
X183250Y402243D01*
X184295Y402886D01*
X185355Y403504D01*
X186430Y404096D01*
X187519Y404661D01*
X188622Y405199D01*
X189738Y405710D01*
X190866Y406194D01*
X192005Y406650D01*
X193156Y407077D01*
X194316Y407476D01*
X195486Y407847D01*
X196664Y408189D01*
X197851Y408502D01*
X199045Y408785D01*
X200245Y409039D01*
X201452Y409264D01*
X202663Y409459D01*
X203879Y409624D01*
X205099Y409759D01*
X206322Y409865D01*
X207547Y409940D01*
X208773Y409985D01*
X210000Y410000D01*
X211227Y409985D01*
X212453Y409940D01*
X213678Y409865D01*
X214901Y409759D01*
X216121Y409624D01*
X217337Y409459D01*
X218548Y409264D01*
X219755Y409039D01*
X220955Y408785D01*
X222149Y408502D01*
X223336Y408189D01*
X224514Y407847D01*
X225684Y407476D01*
X226844Y407077D01*
X227995Y406650D01*
X229134Y406194D01*
X230262Y405710D01*
X231378Y405199D01*
X232481Y404661D01*
X233570Y404096D01*
X234645Y403504D01*
X235705Y402886D01*
X236750Y402243D01*
X237779Y401573D01*
X238790Y400879D01*
X239785Y400160D01*
X240762Y399417D01*
X241720Y398651D01*
X242659Y397860D01*
X243578Y397048D01*
X244477Y396212D01*
X245355Y395355D01*
X246212Y394477D01*
X247048Y393578D01*
X247860Y392659D01*
X248651Y391720D01*
X249417Y390762D01*
X250160Y389785D01*
X250879Y388790D01*
X251573Y387779D01*
X252243Y386750D01*
X252886Y385705D01*
X253504Y384645D01*
X254096Y383570D01*
X254661Y382481D01*
X255199Y381378D01*
X255710Y380262D01*
X256194Y379134D01*
X256650Y377995D01*
X257077Y376844D01*
X257476Y375684D01*
X257847Y374514D01*
X258189Y373336D01*
X258502Y372149D01*
X258785Y370955D01*
X259039Y369755D01*
X259264Y368548D01*
X259459Y367337D01*
X259624Y366121D01*
X259759Y364901D01*
X259865Y363678D01*
X259940Y362453D01*
X259985Y361227D01*
X260000Y360000D01*
X259985Y358773D01*
X259940Y357547D01*
X259865Y356322D01*
X259759Y355099D01*
X259624Y353879D01*
X259459Y352663D01*
X259264Y351452D01*
X259039Y350245D01*
X258785Y349045D01*
X258502Y347851D01*
X258189Y346664D01*
X257847Y345486D01*
X257476Y344316D01*
X257077Y343156D01*
X256650Y342005D01*
X256194Y340866D01*
X255710Y339738D01*
X255199Y338622D01*
X254661Y337519D01*
X254096Y336430D01*
X253504Y335355D01*
X252886Y334295D01*
X252243Y333250D01*
X251573Y332221D01*
X250879Y331210D01*
X250160Y330215D01*
X249417Y329238D01*
X248651Y328280D01*
X247860Y327341D01*
X247048Y326422D01*
X246212Y325523D01*
X245355Y324645D01*
X244477Y323788D01*
X243578Y322952D01*
X242659Y322140D01*
X241720Y321349D01*
X240762Y320583D01*
X239785Y319840D01*
X238790Y319121D01*
X237779Y318427D01*
X236750Y317757D01*
X235705Y317114D01*
X234645Y316496D01*
X233570Y315904D01*
X232481Y315339D01*
X231378Y314801D01*
X230262Y314290D01*
X229134Y313806D01*
X227995Y313350D01*
X226844Y312923D01*
X225684Y312524D01*
X224514Y312153D01*
X223336Y311811D01*
X222149Y311498D01*
X220955Y311215D01*
X219755Y310961D01*
X218548Y310736D01*
X217337Y310541D01*
X216121Y310376D01*
X214901Y310241D01*
X213678Y310135D01*
X212453Y310060D01*
X211227Y310015D01*
X210000Y310000D01*
X208773Y310015D01*
X207547Y310060D01*
X206322Y310135D01*
X205099Y310241D01*
X203879Y310376D01*
X202663Y310541D01*
X201452Y310736D01*
X200245Y310961D01*
X199045Y311215D01*
X197851Y311498D01*
X196664Y311811D01*
X195486Y312153D01*
X194316Y312524D01*
X193156Y312923D01*
X192005Y313350D01*
X190866Y313806D01*
X189738Y314290D01*
X188622Y314801D01*
X187519Y315339D01*
X186430Y315904D01*
X185355Y316496D01*
X184295Y317114D01*
X183250Y317757D01*
X182221Y318427D01*
X181210Y319121D01*
X180215Y319840D01*
X179238Y320583D01*
X178280Y321349D01*
X177341Y322140D01*
X176422Y322952D01*
X175523Y323788D01*
X174645Y324645D01*
X173788Y325523D01*
X172952Y326422D01*
X172140Y327341D01*
X171349Y328280D01*
X170583Y329238D01*
X169840Y330215D01*
X169121Y331210D01*
X168427Y332221D01*
X167757Y333250D01*
X167114Y334295D01*
X166496Y335355D01*
X165904Y336430D01*
X165339Y337519D01*
X164801Y338622D01*
X164290Y339738D01*
X163806Y340866D01*
X163350Y342005D01*
X162923Y343156D01*
X162524Y344316D01*
X162153Y345486D01*
X161811Y346664D01*
X161498Y347851D01*
X161215Y349045D01*
X160961Y350245D01*
X160736Y351452D01*
X160541Y352663D01*
X160376Y353879D01*
X160241Y355099D01*
X160135Y356322D01*
X160060Y357547D01*
X160015Y358773D01*
X160000Y360000D01*
D11*
X375310Y697810D03*
X346870Y697810D03*
D12*
X417520Y685520D03*
X436520Y685520D03*
X333728Y164802D03*
X314728Y164802D03*
X286058Y214586D03*
X267058Y214586D03*
D13*
X271206Y315248D03*
X271206Y296248D03*
D14*
X352500Y64750D03*
X362500Y64750D03*
X347500Y64750D03*
X342500Y64750D03*
X337500Y64750D03*
X334500Y64750D03*
X329500Y64750D03*
X326500Y64750D03*
X357500Y64750D03*
X367500Y64750D03*
X372500Y64750D03*
X377500Y64750D03*
X382500Y64750D03*
X385500Y64750D03*
X390500Y64750D03*
X393500Y64750D03*
D15*
X395000Y-8000D02*
X325000Y-8000D01*
D16*
X316820Y12930D02*
X316820Y22930D01*
X403180Y22930D02*
X403180Y12930D01*
D17*
X316820Y54340D02*
X316820Y65340D01*
X403180Y65340D02*
X403180Y54340D01*
D12*
X203150Y523640D03*
X222150Y523640D03*
D18*
X368990Y225540D03*
X381690Y225540D03*
X394390Y225540D03*
X407090Y225540D03*
X419790Y225540D03*
X432490Y225540D03*
X445190Y225540D03*
X457890Y225540D03*
X457890Y281540D03*
X445190Y281540D03*
X432490Y281540D03*
X419790Y281540D03*
X407090Y281540D03*
X394390Y281540D03*
X381690Y281540D03*
X368990Y281540D03*
D13*
X222210Y492180D03*
X222210Y473180D03*
D12*
X285902Y101346D03*
X304902Y101346D03*
D13*
X415134Y134390D03*
X415134Y115390D03*
D19*
X499580Y56660D02*
X499580Y44660D01*
X451610Y64330D02*
X451610Y76330D01*
X499610Y115270D02*
X499610Y127270D01*
D20*
X475585Y50510D03*
X475585Y110700D03*
D13*
X534200Y121730D03*
X534200Y102730D03*
D12*
X334520Y135770D03*
X315520Y135770D03*
D21*
X267500Y541900D03*
X267500Y529200D03*
X267500Y516500D03*
X267500Y503800D03*
X267500Y491100D03*
X267500Y478400D03*
X267500Y465700D03*
X267500Y453000D03*
D22*
X417300Y397500D03*
D21*
X452500Y414900D03*
X452500Y427600D03*
X452500Y440300D03*
X452500Y453000D03*
X452500Y465700D03*
X452500Y478400D03*
X452500Y491100D03*
D22*
X328400Y397500D03*
D21*
X267500Y440300D03*
X267500Y427600D03*
X267500Y414900D03*
D22*
X303000Y397500D03*
X315700Y397500D03*
D21*
X267500Y554600D03*
X267500Y567300D03*
X267500Y580000D03*
D22*
X341100Y397500D03*
X353800Y397500D03*
X366500Y397500D03*
X404600Y397500D03*
X391900Y397500D03*
X379200Y397500D03*
D21*
X452500Y503800D03*
X452500Y516500D03*
X452500Y529200D03*
X452500Y541900D03*
X452500Y554600D03*
X452500Y567300D03*
X452500Y580000D03*
D23*
X366800Y506700D03*
D24*
X393590Y325060D03*
X411990Y318560D03*
X411990Y312060D03*
X411990Y325060D03*
X393590Y318560D03*
X393590Y312060D03*
D13*
X361360Y308890D03*
X361360Y327890D03*
D12*
X408204Y352230D03*
X427204Y352230D03*
X336880Y282450D03*
X317880Y282450D03*
X215250Y589000D03*
X196250Y589000D03*
X221590Y557530D03*
X202590Y557530D03*
D25*
X316034Y195345D03*
X325534Y195345D03*
X335034Y195345D03*
X335034Y221347D03*
X316034Y221347D03*
D26*
X61470Y379520D03*
X103470Y379520D03*
X103470Y350520D03*
X61470Y350520D03*
X619630Y379520D03*
X661630Y379520D03*
X661630Y350520D03*
X619630Y350520D03*
D12*
X519340Y442332D03*
X538340Y442332D03*
D27*
X390000Y169500D03*
X390000Y160000D03*
X390000Y150500D03*
X367000Y169500D03*
X367000Y160000D03*
X367000Y150500D03*
D28*
X336428Y64750D02*
X334500Y64750D01*
X336428Y64750D02*
X337500Y64750D01*
X382500Y64750D02*
X385500Y64750D01*
X383540Y62790D01*
X383540Y46228D01*
D29*
X377190Y39878D01*
D28*
X336428Y47112D02*
X336428Y64750D01*
D29*
X336428Y47112D02*
X343662Y39878D01*
X377190Y39878D01*
D28*
X337500Y64750D02*
X336298Y65952D01*
D29*
X336298Y133992D02*
X334520Y135770D01*
X336298Y133992D02*
X336298Y65952D01*
X334520Y135770D02*
X334520Y164010D01*
X333728Y164802D01*
X334998Y181102D02*
X334998Y195309D01*
X334744Y181102D02*
X334744Y172748D01*
X334744Y165818D02*
X333728Y164802D01*
X334998Y195309D02*
X335034Y195345D01*
X316034Y195345D02*
X316034Y183838D01*
X334744Y181102D02*
X334998Y181102D01*
X318770Y181102D02*
X316034Y183838D01*
D28*
X384302Y66552D02*
X382500Y64750D01*
D29*
X384302Y66552D02*
X384302Y87528D01*
X493776Y230378D02*
X493776Y243586D01*
D30*
X493776Y243586D03*
D29*
X393802Y97028D02*
X384302Y87528D01*
X393802Y97028D02*
X431292Y97028D01*
X455676Y121412D01*
X326390Y181102D02*
X318770Y181102D01*
X334744Y172748D02*
X334744Y165818D01*
X334744Y172748D02*
X326390Y181102D01*
X410868Y159408D02*
X415290Y163830D01*
D30*
X415290Y163830D03*
D29*
X410868Y159408D02*
X390592Y159408D01*
X390000Y160000D01*
D30*
X455248Y171096D03*
D29*
X455248Y191850D02*
X493776Y230378D01*
X455248Y191850D02*
X455248Y171096D01*
X455248Y121840D02*
X455676Y121412D01*
X455248Y121840D02*
X455248Y171096D01*
X327914Y83566D02*
X327914Y68958D01*
X328024Y69068D01*
X328024Y66274D01*
D28*
X326500Y64750D01*
X391922Y66328D02*
X393500Y64750D01*
D29*
X391922Y66328D02*
X391922Y78994D01*
D28*
X329500Y64750D02*
X329246Y64496D01*
X326754Y64496D01*
X326500Y64750D01*
X329438Y64812D02*
X329500Y64750D01*
X329438Y82042D02*
X327914Y83566D01*
X329438Y82042D02*
X329438Y64812D01*
X390500Y64750D02*
X393500Y64750D01*
X303000Y380978D02*
X303000Y397500D01*
D31*
X303000Y380978D03*
X306578Y580644D03*
X343662Y578866D03*
X372872Y577850D03*
X410718Y583184D03*
X295910Y551688D03*
X315468Y551688D03*
X337820Y551180D03*
X360680Y551180D03*
X294894Y529082D03*
X314198Y528320D03*
X295148Y504190D03*
X314198Y504444D03*
X295402Y481330D03*
X316484Y479806D03*
X321310Y460248D03*
X340360Y459740D03*
X334772Y441706D03*
X300576Y429006D03*
X387604Y468884D03*
X387858Y440944D03*
X412750Y450342D03*
X405384Y468376D03*
X411988Y487934D03*
D28*
X387600Y685520D02*
X375310Y697810D01*
X387600Y685520D02*
X417520Y685520D01*
D29*
X316034Y221347D02*
X309273Y214586D01*
X286058Y214586D01*
X286058Y198174D01*
D30*
X237998Y170180D03*
D29*
X258064Y170180D02*
X286058Y198174D01*
X258064Y170180D02*
X237998Y170180D01*
X272796Y294658D02*
X271206Y296248D01*
X286058Y237436D02*
X286058Y214586D01*
X272796Y250698D02*
X272796Y294658D01*
X272796Y250698D02*
X286058Y237436D01*
X336880Y257632D02*
X336880Y282450D01*
X316484Y221797D02*
X316034Y221347D01*
X336626Y257378D02*
X336880Y257632D01*
X336626Y257378D02*
X316484Y237236D01*
X316484Y221797D01*
X337134Y282196D02*
X368334Y282196D01*
X337134Y282196D02*
X336880Y282450D01*
X368334Y282196D02*
X368990Y281540D01*
X336626Y257378D02*
X336626Y243002D01*
X351536Y228092D01*
X351536Y216408D01*
X366268Y201676D01*
X398780Y201676D01*
X406908Y209804D01*
X406908Y225358D02*
X407090Y225540D01*
X406908Y225358D02*
X406908Y209804D01*
D30*
X398780Y201676D03*
X510878Y164000D03*
D29*
X521462Y153416D01*
X521462Y134468D02*
X534200Y121730D01*
X521462Y134468D02*
X521462Y153416D01*
X538340Y442332D02*
X540630Y442332D01*
X568960Y470662D01*
X570484Y470662D01*
X570738Y470408D01*
D30*
X570738Y470408D03*
D29*
X220828Y583422D02*
X215250Y589000D01*
X220828Y583422D02*
X220828Y558292D01*
X221590Y557530D01*
X221590Y546202D01*
X212598Y537210D02*
X209296Y537210D01*
X203150Y531064D01*
X203150Y523640D01*
X212598Y537210D02*
X221590Y546202D01*
X267420Y567220D02*
X267500Y567300D01*
X267420Y567220D02*
X247692Y567220D01*
X238764Y558292D01*
X222352Y558292D02*
X221590Y557530D01*
X222352Y558292D02*
X238764Y558292D01*
X203150Y523640D02*
X201480Y521970D01*
X178054Y521970D02*
X177800Y522224D01*
D30*
X177800Y522224D03*
D29*
X178054Y521970D02*
X201480Y521970D01*
D30*
X296418Y312420D03*
D29*
X296418Y312166D01*
X280500Y296248D01*
X271206Y296248D01*
D28*
X271206Y315248D02*
X316230Y360272D01*
X320000Y360272D01*
X316230Y360272D02*
X316190Y360272D01*
X320000Y360272D02*
X336196Y360272D01*
X336296Y360172D01*
X336550Y360172D01*
D31*
X336550Y360172D03*
D28*
X316190Y360272D02*
X316190Y397010D01*
X315700Y397500D01*
X419790Y187352D02*
X401938Y169500D01*
X390000Y169500D01*
X419790Y187352D02*
X419790Y225540D01*
X432490Y225540D02*
X432490Y182698D01*
X432562Y182626D01*
X390658Y151158D02*
X390000Y150500D01*
X390658Y151158D02*
X419306Y151158D01*
X432490Y164342D02*
X432490Y225540D01*
X432490Y164342D02*
X419306Y151158D01*
X394390Y225540D02*
X394390Y234370D01*
X418338Y258318D02*
X473710Y258318D01*
X482600Y267208D01*
X452126Y383203D02*
X488188Y419265D01*
X452126Y383203D02*
X452126Y316986D01*
X482600Y286512D01*
X488188Y419265D02*
X488188Y516636D01*
X462924Y541900D01*
X452500Y541900D01*
X418338Y258318D02*
X394390Y234370D01*
X482600Y267208D02*
X482600Y286512D01*
X381690Y236148D02*
X381690Y225540D01*
X466598Y265430D02*
X472440Y271272D01*
X472440Y286004D01*
X444500Y313944D01*
X434340Y380492D02*
X434340Y521462D01*
X442078Y529200D02*
X452500Y529200D01*
X399034Y253492D02*
X381690Y236148D01*
X399034Y253492D02*
X403098Y253492D01*
X415036Y265430D01*
X466598Y265430D01*
X444500Y313944D02*
X444500Y370332D01*
X434340Y380492D01*
X434340Y521462D02*
X442078Y529200D01*
X619630Y379520D02*
X661630Y379520D01*
X453596Y415996D02*
X452500Y414900D01*
X453596Y415996D02*
X465432Y415996D01*
X473202Y423766D02*
X473202Y424180D01*
X473202Y423766D02*
X465432Y415996D01*
D31*
X473202Y424180D03*
X501142Y439928D03*
D28*
X516936Y439928D01*
X519340Y442332D01*
X519176Y442168D01*
X519176Y431800D01*
X534416Y416560D01*
X597618Y379520D02*
X619630Y379520D01*
X560578Y416560D02*
X534416Y416560D01*
X560578Y416560D02*
X597618Y379520D01*
D31*
X384302Y309118D03*
D28*
X393484Y312166D02*
X393590Y312060D01*
X393484Y312166D02*
X387350Y312166D01*
X384302Y309118D01*
X437510Y684530D02*
X436520Y685520D01*
X437510Y684530D02*
X477266Y684530D01*
X495554Y666242D01*
X462144Y567300D02*
X452500Y567300D01*
X495554Y600710D02*
X495554Y666242D01*
X495554Y600710D02*
X462144Y567300D01*
X398466Y325060D02*
X393590Y325060D01*
X398466Y325060D02*
X398847Y325441D01*
X394390Y291266D02*
X394390Y281540D01*
X402082Y322206D02*
X398847Y325441D01*
X402082Y298958D02*
X394390Y291266D01*
X402082Y298958D02*
X402082Y322206D01*
X408204Y334798D02*
X408204Y352230D01*
X408204Y334798D02*
X398847Y325441D01*
X407090Y291920D02*
X407090Y281540D01*
X411990Y296820D02*
X411990Y312060D01*
X411990Y296820D02*
X407090Y291920D01*
X371104Y308890D02*
X361360Y308890D01*
X388088Y270108D02*
X394009Y264187D01*
X388088Y291906D02*
X371104Y308890D01*
X388088Y291906D02*
X388088Y270108D01*
X394009Y264187D02*
X400585Y264187D01*
X407090Y270692D01*
X407090Y281540D01*
D30*
X585724Y550672D03*
D28*
X577088Y559308D01*
X492506Y559308D01*
X492506Y559054D01*
D30*
X492506Y559054D03*
D28*
X347302Y64948D02*
X347500Y64750D01*
X347302Y64948D02*
X347302Y87884D01*
X346964Y87884D01*
D31*
X346964Y87884D03*
X322580Y98298D03*
D28*
X307950Y98298D01*
X304902Y101346D01*
X377444Y64806D02*
X377500Y64750D01*
X377444Y64806D02*
X377444Y91948D01*
X400886Y115390D01*
X415134Y115390D01*
X451610Y70330D02*
X475714Y70330D01*
X499610Y94226D02*
X499610Y121270D01*
X499610Y94226D02*
X475714Y70330D01*
X499610Y94226D02*
X508114Y102730D01*
X534200Y102730D01*
X103470Y379520D02*
X61470Y379520D01*
X256658Y554600D02*
X267500Y554600D01*
X225698Y523640D02*
X222150Y523640D01*
X225698Y523640D02*
X256658Y554600D01*
X222210Y523580D02*
X222150Y523640D01*
X222210Y523580D02*
X222210Y492180D01*
X214590Y492180D01*
X103470Y381060D01*
X103470Y379520D01*
X414468Y325060D02*
X417576Y328168D01*
X414468Y325060D02*
X411990Y325060D01*
X417576Y328168D02*
X417576Y334264D01*
D31*
X417576Y334264D03*
X241046Y486156D03*
D28*
X236728Y490474D01*
X223916Y490474D01*
X222210Y492180D01*
X393380Y318770D02*
X393590Y318560D01*
X393380Y318770D02*
X387096Y318770D01*
X377976Y327890D01*
X361360Y327890D01*
X411990Y318560D02*
X412224Y318794D01*
X427204Y325096D02*
X427204Y352230D01*
X420668Y318560D02*
X411990Y318560D01*
X420668Y318560D02*
X427204Y325096D01*
D30*
X493268Y583184D03*
D28*
X464684Y554600D01*
X452500Y554600D01*
X452500Y491100D02*
X453126Y490474D01*
D31*
X475488Y490728D03*
D28*
X452872Y490728D02*
X452500Y491100D01*
X452872Y490728D02*
X475488Y490728D01*
X357500Y64750D02*
X357500Y55758D01*
X359918Y53340D01*
X364280Y53340D01*
X367302Y56362D01*
X367302Y64552D01*
X367500Y64750D01*
X367500Y129324D01*
X355092Y141732D02*
X355092Y166370D01*
X358222Y169500D01*
X367000Y169500D01*
X355092Y141732D02*
X367500Y129324D01*
X362500Y77936D02*
X362500Y64750D01*
X362500Y77936D02*
X359664Y80772D01*
X357124Y80772D01*
X355092Y80772D01*
X352698Y78378D02*
X352698Y64948D01*
X352500Y64750D01*
X352698Y78378D02*
X355092Y80772D01*
X357124Y80772D02*
X357124Y115824D01*
D31*
X357124Y115824D03*
X374904Y133096D03*
D28*
X374904Y133706D01*
X367000Y141610D01*
X367000Y150500D01*
M02*
