G04 EAGLE Gerber RS-274X export*
G75*
%MOMM*%
%FSLAX34Y34*%
%LPD*%
%INSilk bottom*%
%IPPOS*%
%AMOC8*
5,1,8,0,0,1.08239X$1,22.5*%
G01*
%ADD10C,0.152400*%
%ADD11C,0.101600*%
%ADD12C,0.250000*%
%ADD13R,0.200000X0.200000*%


D10*
X0Y360000D02*
X108Y368835D01*
X434Y377664D01*
X975Y386483D01*
X1733Y395286D01*
X2707Y404068D01*
X3896Y412823D01*
X5300Y421546D01*
X6917Y430233D01*
X8747Y438876D01*
X10789Y447473D01*
X13041Y456017D01*
X15501Y464502D01*
X18170Y472925D01*
X21044Y481280D01*
X24123Y489562D01*
X27403Y497766D01*
X30884Y505887D01*
X34564Y513920D01*
X38439Y521860D01*
X42508Y529703D01*
X46769Y537443D01*
X51218Y545077D01*
X55853Y552599D01*
X60671Y560005D01*
X65669Y567291D01*
X70845Y574452D01*
X76195Y581483D01*
X81716Y588382D01*
X87405Y595142D01*
X93258Y601761D01*
X99271Y608235D01*
X105442Y614558D01*
X111765Y620729D01*
X118239Y626742D01*
X124858Y632595D01*
X131618Y638284D01*
X138517Y643805D01*
X145548Y649155D01*
X152709Y654331D01*
X159995Y659329D01*
X167401Y664147D01*
X174923Y668782D01*
X182557Y673231D01*
X190297Y677492D01*
X198140Y681561D01*
X206080Y685436D01*
X214113Y689116D01*
X222234Y692597D01*
X230438Y695877D01*
X238720Y698956D01*
X247075Y701830D01*
X255498Y704499D01*
X263983Y706959D01*
X272527Y709211D01*
X281124Y711253D01*
X289767Y713083D01*
X298454Y714700D01*
X307177Y716104D01*
X315932Y717293D01*
X324714Y718267D01*
X333517Y719025D01*
X342336Y719566D01*
X351165Y719892D01*
X360000Y720000D01*
X368835Y719892D01*
X377664Y719566D01*
X386483Y719025D01*
X395286Y718267D01*
X404068Y717293D01*
X412823Y716104D01*
X421546Y714700D01*
X430233Y713083D01*
X438876Y711253D01*
X447473Y709211D01*
X456017Y706959D01*
X464502Y704499D01*
X472925Y701830D01*
X481280Y698956D01*
X489562Y695877D01*
X497766Y692597D01*
X505887Y689116D01*
X513920Y685436D01*
X521860Y681561D01*
X529703Y677492D01*
X537443Y673231D01*
X545077Y668782D01*
X552599Y664147D01*
X560005Y659329D01*
X567291Y654331D01*
X574452Y649155D01*
X581483Y643805D01*
X588382Y638284D01*
X595142Y632595D01*
X601761Y626742D01*
X608235Y620729D01*
X614558Y614558D01*
X620729Y608235D01*
X626742Y601761D01*
X632595Y595142D01*
X638284Y588382D01*
X643805Y581483D01*
X649155Y574452D01*
X654331Y567291D01*
X659329Y560005D01*
X664147Y552599D01*
X668782Y545077D01*
X673231Y537443D01*
X677492Y529703D01*
X681561Y521860D01*
X685436Y513920D01*
X689116Y505887D01*
X692597Y497766D01*
X695877Y489562D01*
X698956Y481280D01*
X701830Y472925D01*
X704499Y464502D01*
X706959Y456017D01*
X709211Y447473D01*
X711253Y438876D01*
X713083Y430233D01*
X714700Y421546D01*
X716104Y412823D01*
X717293Y404068D01*
X718267Y395286D01*
X719025Y386483D01*
X719566Y377664D01*
X719892Y368835D01*
X720000Y360000D01*
X719892Y351165D01*
X719566Y342336D01*
X719025Y333517D01*
X718267Y324714D01*
X717293Y315932D01*
X716104Y307177D01*
X714700Y298454D01*
X713083Y289767D01*
X711253Y281124D01*
X709211Y272527D01*
X706959Y263983D01*
X704499Y255498D01*
X701830Y247075D01*
X698956Y238720D01*
X695877Y230438D01*
X692597Y222234D01*
X689116Y214113D01*
X685436Y206080D01*
X681561Y198140D01*
X677492Y190297D01*
X673231Y182557D01*
X668782Y174923D01*
X664147Y167401D01*
X659329Y159995D01*
X654331Y152709D01*
X649155Y145548D01*
X643805Y138517D01*
X638284Y131618D01*
X632595Y124858D01*
X626742Y118239D01*
X620729Y111765D01*
X614558Y105442D01*
X608235Y99271D01*
X601761Y93258D01*
X595142Y87405D01*
X588382Y81716D01*
X581483Y76195D01*
X574452Y70845D01*
X567291Y65669D01*
X560005Y60671D01*
X552599Y55853D01*
X545077Y51218D01*
X537443Y46769D01*
X529703Y42508D01*
X521860Y38439D01*
X513920Y34564D01*
X505887Y30884D01*
X497766Y27403D01*
X489562Y24123D01*
X481280Y21044D01*
X472925Y18170D01*
X464502Y15501D01*
X456017Y13041D01*
X447473Y10789D01*
X438876Y8747D01*
X430233Y6917D01*
X421546Y5300D01*
X412823Y3896D01*
X404068Y2707D01*
X395286Y1733D01*
X386483Y975D01*
X377664Y434D01*
X368835Y108D01*
X360000Y0D01*
X351165Y108D01*
X342336Y434D01*
X333517Y975D01*
X324714Y1733D01*
X315932Y2707D01*
X307177Y3896D01*
X298454Y5300D01*
X289767Y6917D01*
X281124Y8747D01*
X272527Y10789D01*
X263983Y13041D01*
X255498Y15501D01*
X247075Y18170D01*
X238720Y21044D01*
X230438Y24123D01*
X222234Y27403D01*
X214113Y30884D01*
X206080Y34564D01*
X198140Y38439D01*
X190297Y42508D01*
X182557Y46769D01*
X174923Y51218D01*
X167401Y55853D01*
X159995Y60671D01*
X152709Y65669D01*
X145548Y70845D01*
X138517Y76195D01*
X131618Y81716D01*
X124858Y87405D01*
X118239Y93258D01*
X111765Y99271D01*
X105442Y105442D01*
X99271Y111765D01*
X93258Y118239D01*
X87405Y124858D01*
X81716Y131618D01*
X76195Y138517D01*
X70845Y145548D01*
X65669Y152709D01*
X60671Y159995D01*
X55853Y167401D01*
X51218Y174923D01*
X46769Y182557D01*
X42508Y190297D01*
X38439Y198140D01*
X34564Y206080D01*
X30884Y214113D01*
X27403Y222234D01*
X24123Y230438D01*
X21044Y238720D01*
X18170Y247075D01*
X15501Y255498D01*
X13041Y263983D01*
X10789Y272527D01*
X8747Y281124D01*
X6917Y289767D01*
X5300Y298454D01*
X3896Y307177D01*
X2707Y315932D01*
X1733Y324714D01*
X975Y333517D01*
X434Y342336D01*
X108Y351165D01*
X0Y360000D01*
X460000Y360000D02*
X460015Y361227D01*
X460060Y362453D01*
X460135Y363678D01*
X460241Y364901D01*
X460376Y366121D01*
X460541Y367337D01*
X460736Y368548D01*
X460961Y369755D01*
X461215Y370955D01*
X461498Y372149D01*
X461811Y373336D01*
X462153Y374514D01*
X462524Y375684D01*
X462923Y376844D01*
X463350Y377995D01*
X463806Y379134D01*
X464290Y380262D01*
X464801Y381378D01*
X465339Y382481D01*
X465904Y383570D01*
X466496Y384645D01*
X467114Y385705D01*
X467757Y386750D01*
X468427Y387779D01*
X469121Y388790D01*
X469840Y389785D01*
X470583Y390762D01*
X471349Y391720D01*
X472140Y392659D01*
X472952Y393578D01*
X473788Y394477D01*
X474645Y395355D01*
X475523Y396212D01*
X476422Y397048D01*
X477341Y397860D01*
X478280Y398651D01*
X479238Y399417D01*
X480215Y400160D01*
X481210Y400879D01*
X482221Y401573D01*
X483250Y402243D01*
X484295Y402886D01*
X485355Y403504D01*
X486430Y404096D01*
X487519Y404661D01*
X488622Y405199D01*
X489738Y405710D01*
X490866Y406194D01*
X492005Y406650D01*
X493156Y407077D01*
X494316Y407476D01*
X495486Y407847D01*
X496664Y408189D01*
X497851Y408502D01*
X499045Y408785D01*
X500245Y409039D01*
X501452Y409264D01*
X502663Y409459D01*
X503879Y409624D01*
X505099Y409759D01*
X506322Y409865D01*
X507547Y409940D01*
X508773Y409985D01*
X510000Y410000D01*
X511227Y409985D01*
X512453Y409940D01*
X513678Y409865D01*
X514901Y409759D01*
X516121Y409624D01*
X517337Y409459D01*
X518548Y409264D01*
X519755Y409039D01*
X520955Y408785D01*
X522149Y408502D01*
X523336Y408189D01*
X524514Y407847D01*
X525684Y407476D01*
X526844Y407077D01*
X527995Y406650D01*
X529134Y406194D01*
X530262Y405710D01*
X531378Y405199D01*
X532481Y404661D01*
X533570Y404096D01*
X534645Y403504D01*
X535705Y402886D01*
X536750Y402243D01*
X537779Y401573D01*
X538790Y400879D01*
X539785Y400160D01*
X540762Y399417D01*
X541720Y398651D01*
X542659Y397860D01*
X543578Y397048D01*
X544477Y396212D01*
X545355Y395355D01*
X546212Y394477D01*
X547048Y393578D01*
X547860Y392659D01*
X548651Y391720D01*
X549417Y390762D01*
X550160Y389785D01*
X550879Y388790D01*
X551573Y387779D01*
X552243Y386750D01*
X552886Y385705D01*
X553504Y384645D01*
X554096Y383570D01*
X554661Y382481D01*
X555199Y381378D01*
X555710Y380262D01*
X556194Y379134D01*
X556650Y377995D01*
X557077Y376844D01*
X557476Y375684D01*
X557847Y374514D01*
X558189Y373336D01*
X558502Y372149D01*
X558785Y370955D01*
X559039Y369755D01*
X559264Y368548D01*
X559459Y367337D01*
X559624Y366121D01*
X559759Y364901D01*
X559865Y363678D01*
X559940Y362453D01*
X559985Y361227D01*
X560000Y360000D01*
X559985Y358773D01*
X559940Y357547D01*
X559865Y356322D01*
X559759Y355099D01*
X559624Y353879D01*
X559459Y352663D01*
X559264Y351452D01*
X559039Y350245D01*
X558785Y349045D01*
X558502Y347851D01*
X558189Y346664D01*
X557847Y345486D01*
X557476Y344316D01*
X557077Y343156D01*
X556650Y342005D01*
X556194Y340866D01*
X555710Y339738D01*
X555199Y338622D01*
X554661Y337519D01*
X554096Y336430D01*
X553504Y335355D01*
X552886Y334295D01*
X552243Y333250D01*
X551573Y332221D01*
X550879Y331210D01*
X550160Y330215D01*
X549417Y329238D01*
X548651Y328280D01*
X547860Y327341D01*
X547048Y326422D01*
X546212Y325523D01*
X545355Y324645D01*
X544477Y323788D01*
X543578Y322952D01*
X542659Y322140D01*
X541720Y321349D01*
X540762Y320583D01*
X539785Y319840D01*
X538790Y319121D01*
X537779Y318427D01*
X536750Y317757D01*
X535705Y317114D01*
X534645Y316496D01*
X533570Y315904D01*
X532481Y315339D01*
X531378Y314801D01*
X530262Y314290D01*
X529134Y313806D01*
X527995Y313350D01*
X526844Y312923D01*
X525684Y312524D01*
X524514Y312153D01*
X523336Y311811D01*
X522149Y311498D01*
X520955Y311215D01*
X519755Y310961D01*
X518548Y310736D01*
X517337Y310541D01*
X516121Y310376D01*
X514901Y310241D01*
X513678Y310135D01*
X512453Y310060D01*
X511227Y310015D01*
X510000Y310000D01*
X508773Y310015D01*
X507547Y310060D01*
X506322Y310135D01*
X505099Y310241D01*
X503879Y310376D01*
X502663Y310541D01*
X501452Y310736D01*
X500245Y310961D01*
X499045Y311215D01*
X497851Y311498D01*
X496664Y311811D01*
X495486Y312153D01*
X494316Y312524D01*
X493156Y312923D01*
X492005Y313350D01*
X490866Y313806D01*
X489738Y314290D01*
X488622Y314801D01*
X487519Y315339D01*
X486430Y315904D01*
X485355Y316496D01*
X484295Y317114D01*
X483250Y317757D01*
X482221Y318427D01*
X481210Y319121D01*
X480215Y319840D01*
X479238Y320583D01*
X478280Y321349D01*
X477341Y322140D01*
X476422Y322952D01*
X475523Y323788D01*
X474645Y324645D01*
X473788Y325523D01*
X472952Y326422D01*
X472140Y327341D01*
X471349Y328280D01*
X470583Y329238D01*
X469840Y330215D01*
X469121Y331210D01*
X468427Y332221D01*
X467757Y333250D01*
X467114Y334295D01*
X466496Y335355D01*
X465904Y336430D01*
X465339Y337519D01*
X464801Y338622D01*
X464290Y339738D01*
X463806Y340866D01*
X463350Y342005D01*
X462923Y343156D01*
X462524Y344316D01*
X462153Y345486D01*
X461811Y346664D01*
X461498Y347851D01*
X461215Y349045D01*
X460961Y350245D01*
X460736Y351452D01*
X460541Y352663D01*
X460376Y353879D01*
X460241Y355099D01*
X460135Y356322D01*
X460060Y357547D01*
X460015Y358773D01*
X460000Y360000D01*
X160000Y360000D02*
X160015Y361227D01*
X160060Y362453D01*
X160135Y363678D01*
X160241Y364901D01*
X160376Y366121D01*
X160541Y367337D01*
X160736Y368548D01*
X160961Y369755D01*
X161215Y370955D01*
X161498Y372149D01*
X161811Y373336D01*
X162153Y374514D01*
X162524Y375684D01*
X162923Y376844D01*
X163350Y377995D01*
X163806Y379134D01*
X164290Y380262D01*
X164801Y381378D01*
X165339Y382481D01*
X165904Y383570D01*
X166496Y384645D01*
X167114Y385705D01*
X167757Y386750D01*
X168427Y387779D01*
X169121Y388790D01*
X169840Y389785D01*
X170583Y390762D01*
X171349Y391720D01*
X172140Y392659D01*
X172952Y393578D01*
X173788Y394477D01*
X174645Y395355D01*
X175523Y396212D01*
X176422Y397048D01*
X177341Y397860D01*
X178280Y398651D01*
X179238Y399417D01*
X180215Y400160D01*
X181210Y400879D01*
X182221Y401573D01*
X183250Y402243D01*
X184295Y402886D01*
X185355Y403504D01*
X186430Y404096D01*
X187519Y404661D01*
X188622Y405199D01*
X189738Y405710D01*
X190866Y406194D01*
X192005Y406650D01*
X193156Y407077D01*
X194316Y407476D01*
X195486Y407847D01*
X196664Y408189D01*
X197851Y408502D01*
X199045Y408785D01*
X200245Y409039D01*
X201452Y409264D01*
X202663Y409459D01*
X203879Y409624D01*
X205099Y409759D01*
X206322Y409865D01*
X207547Y409940D01*
X208773Y409985D01*
X210000Y410000D01*
X211227Y409985D01*
X212453Y409940D01*
X213678Y409865D01*
X214901Y409759D01*
X216121Y409624D01*
X217337Y409459D01*
X218548Y409264D01*
X219755Y409039D01*
X220955Y408785D01*
X222149Y408502D01*
X223336Y408189D01*
X224514Y407847D01*
X225684Y407476D01*
X226844Y407077D01*
X227995Y406650D01*
X229134Y406194D01*
X230262Y405710D01*
X231378Y405199D01*
X232481Y404661D01*
X233570Y404096D01*
X234645Y403504D01*
X235705Y402886D01*
X236750Y402243D01*
X237779Y401573D01*
X238790Y400879D01*
X239785Y400160D01*
X240762Y399417D01*
X241720Y398651D01*
X242659Y397860D01*
X243578Y397048D01*
X244477Y396212D01*
X245355Y395355D01*
X246212Y394477D01*
X247048Y393578D01*
X247860Y392659D01*
X248651Y391720D01*
X249417Y390762D01*
X250160Y389785D01*
X250879Y388790D01*
X251573Y387779D01*
X252243Y386750D01*
X252886Y385705D01*
X253504Y384645D01*
X254096Y383570D01*
X254661Y382481D01*
X255199Y381378D01*
X255710Y380262D01*
X256194Y379134D01*
X256650Y377995D01*
X257077Y376844D01*
X257476Y375684D01*
X257847Y374514D01*
X258189Y373336D01*
X258502Y372149D01*
X258785Y370955D01*
X259039Y369755D01*
X259264Y368548D01*
X259459Y367337D01*
X259624Y366121D01*
X259759Y364901D01*
X259865Y363678D01*
X259940Y362453D01*
X259985Y361227D01*
X260000Y360000D01*
X259985Y358773D01*
X259940Y357547D01*
X259865Y356322D01*
X259759Y355099D01*
X259624Y353879D01*
X259459Y352663D01*
X259264Y351452D01*
X259039Y350245D01*
X258785Y349045D01*
X258502Y347851D01*
X258189Y346664D01*
X257847Y345486D01*
X257476Y344316D01*
X257077Y343156D01*
X256650Y342005D01*
X256194Y340866D01*
X255710Y339738D01*
X255199Y338622D01*
X254661Y337519D01*
X254096Y336430D01*
X253504Y335355D01*
X252886Y334295D01*
X252243Y333250D01*
X251573Y332221D01*
X250879Y331210D01*
X250160Y330215D01*
X249417Y329238D01*
X248651Y328280D01*
X247860Y327341D01*
X247048Y326422D01*
X246212Y325523D01*
X245355Y324645D01*
X244477Y323788D01*
X243578Y322952D01*
X242659Y322140D01*
X241720Y321349D01*
X240762Y320583D01*
X239785Y319840D01*
X238790Y319121D01*
X237779Y318427D01*
X236750Y317757D01*
X235705Y317114D01*
X234645Y316496D01*
X233570Y315904D01*
X232481Y315339D01*
X231378Y314801D01*
X230262Y314290D01*
X229134Y313806D01*
X227995Y313350D01*
X226844Y312923D01*
X225684Y312524D01*
X224514Y312153D01*
X223336Y311811D01*
X222149Y311498D01*
X220955Y311215D01*
X219755Y310961D01*
X218548Y310736D01*
X217337Y310541D01*
X216121Y310376D01*
X214901Y310241D01*
X213678Y310135D01*
X212453Y310060D01*
X211227Y310015D01*
X210000Y310000D01*
X208773Y310015D01*
X207547Y310060D01*
X206322Y310135D01*
X205099Y310241D01*
X203879Y310376D01*
X202663Y310541D01*
X201452Y310736D01*
X200245Y310961D01*
X199045Y311215D01*
X197851Y311498D01*
X196664Y311811D01*
X195486Y312153D01*
X194316Y312524D01*
X193156Y312923D01*
X192005Y313350D01*
X190866Y313806D01*
X189738Y314290D01*
X188622Y314801D01*
X187519Y315339D01*
X186430Y315904D01*
X185355Y316496D01*
X184295Y317114D01*
X183250Y317757D01*
X182221Y318427D01*
X181210Y319121D01*
X180215Y319840D01*
X179238Y320583D01*
X178280Y321349D01*
X177341Y322140D01*
X176422Y322952D01*
X175523Y323788D01*
X174645Y324645D01*
X173788Y325523D01*
X172952Y326422D01*
X172140Y327341D01*
X171349Y328280D01*
X170583Y329238D01*
X169840Y330215D01*
X169121Y331210D01*
X168427Y332221D01*
X167757Y333250D01*
X167114Y334295D01*
X166496Y335355D01*
X165904Y336430D01*
X165339Y337519D01*
X164801Y338622D01*
X164290Y339738D01*
X163806Y340866D01*
X163350Y342005D01*
X162923Y343156D01*
X162524Y344316D01*
X162153Y345486D01*
X161811Y346664D01*
X161498Y347851D01*
X161215Y349045D01*
X160961Y350245D01*
X160736Y351452D01*
X160541Y352663D01*
X160376Y353879D01*
X160241Y355099D01*
X160135Y356322D01*
X160060Y357547D01*
X160015Y358773D01*
X160000Y360000D01*
X550630Y511270D02*
X550632Y511411D01*
X550638Y511552D01*
X550648Y511692D01*
X550662Y511832D01*
X550680Y511972D01*
X550701Y512111D01*
X550727Y512250D01*
X550756Y512388D01*
X550790Y512524D01*
X550827Y512660D01*
X550868Y512795D01*
X550913Y512929D01*
X550962Y513061D01*
X551014Y513192D01*
X551070Y513321D01*
X551130Y513448D01*
X551193Y513574D01*
X551259Y513698D01*
X551330Y513821D01*
X551403Y513941D01*
X551480Y514059D01*
X551560Y514175D01*
X551644Y514288D01*
X551730Y514399D01*
X551820Y514508D01*
X551913Y514614D01*
X552008Y514717D01*
X552107Y514818D01*
X552208Y514916D01*
X552312Y515011D01*
X552419Y515103D01*
X552528Y515192D01*
X552640Y515277D01*
X552754Y515360D01*
X552870Y515440D01*
X552989Y515516D01*
X553110Y515588D01*
X553232Y515658D01*
X553357Y515723D01*
X553483Y515786D01*
X553611Y515844D01*
X553741Y515899D01*
X553872Y515951D01*
X554005Y515998D01*
X554139Y516042D01*
X554274Y516083D01*
X554410Y516119D01*
X554547Y516151D01*
X554685Y516180D01*
X554823Y516205D01*
X554963Y516225D01*
X555103Y516242D01*
X555243Y516255D01*
X555384Y516264D01*
X555524Y516269D01*
X555665Y516270D01*
X555806Y516267D01*
X555947Y516260D01*
X556087Y516249D01*
X556227Y516234D01*
X556367Y516215D01*
X556506Y516193D01*
X556644Y516166D01*
X556782Y516136D01*
X556918Y516101D01*
X557054Y516063D01*
X557188Y516021D01*
X557322Y515975D01*
X557454Y515926D01*
X557584Y515872D01*
X557713Y515815D01*
X557840Y515755D01*
X557966Y515691D01*
X558089Y515623D01*
X558211Y515552D01*
X558331Y515478D01*
X558448Y515400D01*
X558563Y515319D01*
X558676Y515235D01*
X558787Y515148D01*
X558895Y515057D01*
X559000Y514964D01*
X559103Y514867D01*
X559203Y514768D01*
X559300Y514666D01*
X559394Y514561D01*
X559485Y514454D01*
X559573Y514344D01*
X559658Y514232D01*
X559740Y514117D01*
X559819Y514000D01*
X559894Y513881D01*
X559966Y513760D01*
X560034Y513637D01*
X560099Y513512D01*
X560161Y513385D01*
X560218Y513256D01*
X560273Y513126D01*
X560323Y512995D01*
X560370Y512862D01*
X560413Y512728D01*
X560452Y512592D01*
X560487Y512456D01*
X560519Y512319D01*
X560546Y512181D01*
X560570Y512042D01*
X560590Y511902D01*
X560606Y511762D01*
X560618Y511622D01*
X560626Y511481D01*
X560630Y511340D01*
X560630Y511200D01*
X560626Y511059D01*
X560618Y510918D01*
X560606Y510778D01*
X560590Y510638D01*
X560570Y510498D01*
X560546Y510359D01*
X560519Y510221D01*
X560487Y510084D01*
X560452Y509948D01*
X560413Y509812D01*
X560370Y509678D01*
X560323Y509545D01*
X560273Y509414D01*
X560218Y509284D01*
X560161Y509155D01*
X560099Y509028D01*
X560034Y508903D01*
X559966Y508780D01*
X559894Y508659D01*
X559819Y508540D01*
X559740Y508423D01*
X559658Y508308D01*
X559573Y508196D01*
X559485Y508086D01*
X559394Y507979D01*
X559300Y507874D01*
X559203Y507772D01*
X559103Y507673D01*
X559000Y507576D01*
X558895Y507483D01*
X558787Y507392D01*
X558676Y507305D01*
X558563Y507221D01*
X558448Y507140D01*
X558331Y507062D01*
X558211Y506988D01*
X558089Y506917D01*
X557966Y506849D01*
X557840Y506785D01*
X557713Y506725D01*
X557584Y506668D01*
X557454Y506614D01*
X557322Y506565D01*
X557188Y506519D01*
X557054Y506477D01*
X556918Y506439D01*
X556782Y506404D01*
X556644Y506374D01*
X556506Y506347D01*
X556367Y506325D01*
X556227Y506306D01*
X556087Y506291D01*
X555947Y506280D01*
X555806Y506273D01*
X555665Y506270D01*
X555524Y506271D01*
X555384Y506276D01*
X555243Y506285D01*
X555103Y506298D01*
X554963Y506315D01*
X554823Y506335D01*
X554685Y506360D01*
X554547Y506389D01*
X554410Y506421D01*
X554274Y506457D01*
X554139Y506498D01*
X554005Y506542D01*
X553872Y506589D01*
X553741Y506641D01*
X553611Y506696D01*
X553483Y506754D01*
X553357Y506817D01*
X553232Y506882D01*
X553110Y506952D01*
X552989Y507024D01*
X552870Y507100D01*
X552754Y507180D01*
X552640Y507263D01*
X552528Y507348D01*
X552419Y507437D01*
X552312Y507529D01*
X552208Y507624D01*
X552107Y507722D01*
X552008Y507823D01*
X551913Y507926D01*
X551820Y508032D01*
X551730Y508141D01*
X551644Y508252D01*
X551560Y508365D01*
X551480Y508481D01*
X551403Y508599D01*
X551330Y508719D01*
X551259Y508842D01*
X551193Y508966D01*
X551130Y509092D01*
X551070Y509219D01*
X551014Y509348D01*
X550962Y509479D01*
X550913Y509611D01*
X550868Y509745D01*
X550827Y509880D01*
X550790Y510016D01*
X550756Y510152D01*
X550727Y510290D01*
X550701Y510429D01*
X550680Y510568D01*
X550662Y510708D01*
X550648Y510848D01*
X550638Y510988D01*
X550632Y511129D01*
X550630Y511270D01*
D11*
X420122Y381298D02*
X408438Y385193D01*
X420122Y389087D01*
X414929Y393927D02*
X414929Y397173D01*
X414930Y397173D02*
X414928Y397286D01*
X414922Y397399D01*
X414912Y397512D01*
X414898Y397625D01*
X414881Y397737D01*
X414859Y397848D01*
X414834Y397958D01*
X414804Y398068D01*
X414771Y398176D01*
X414734Y398283D01*
X414694Y398389D01*
X414649Y398493D01*
X414601Y398596D01*
X414550Y398697D01*
X414495Y398796D01*
X414437Y398893D01*
X414375Y398988D01*
X414310Y399081D01*
X414242Y399171D01*
X414171Y399259D01*
X414096Y399345D01*
X414019Y399428D01*
X413939Y399508D01*
X413856Y399585D01*
X413770Y399660D01*
X413682Y399731D01*
X413592Y399799D01*
X413499Y399864D01*
X413404Y399926D01*
X413307Y399984D01*
X413208Y400039D01*
X413107Y400090D01*
X413004Y400138D01*
X412900Y400183D01*
X412794Y400223D01*
X412687Y400260D01*
X412579Y400293D01*
X412469Y400323D01*
X412359Y400348D01*
X412248Y400370D01*
X412136Y400387D01*
X412023Y400401D01*
X411910Y400411D01*
X411797Y400417D01*
X411684Y400419D01*
X411571Y400417D01*
X411458Y400411D01*
X411345Y400401D01*
X411232Y400387D01*
X411120Y400370D01*
X411009Y400348D01*
X410899Y400323D01*
X410789Y400293D01*
X410681Y400260D01*
X410574Y400223D01*
X410468Y400183D01*
X410364Y400138D01*
X410261Y400090D01*
X410160Y400039D01*
X410061Y399984D01*
X409964Y399926D01*
X409869Y399864D01*
X409776Y399799D01*
X409686Y399731D01*
X409598Y399660D01*
X409512Y399585D01*
X409429Y399508D01*
X409349Y399428D01*
X409272Y399345D01*
X409197Y399259D01*
X409126Y399171D01*
X409058Y399081D01*
X408993Y398988D01*
X408931Y398893D01*
X408873Y398796D01*
X408818Y398697D01*
X408767Y398596D01*
X408719Y398493D01*
X408674Y398389D01*
X408634Y398283D01*
X408597Y398176D01*
X408564Y398068D01*
X408534Y397958D01*
X408509Y397848D01*
X408487Y397737D01*
X408470Y397625D01*
X408456Y397512D01*
X408446Y397399D01*
X408440Y397286D01*
X408438Y397173D01*
X408438Y393927D01*
X420122Y393927D01*
X420122Y397173D01*
X420120Y397274D01*
X420114Y397374D01*
X420104Y397474D01*
X420091Y397574D01*
X420073Y397673D01*
X420052Y397772D01*
X420027Y397869D01*
X419998Y397966D01*
X419965Y398061D01*
X419929Y398155D01*
X419889Y398247D01*
X419846Y398338D01*
X419799Y398427D01*
X419749Y398514D01*
X419695Y398600D01*
X419638Y398683D01*
X419578Y398763D01*
X419515Y398842D01*
X419448Y398918D01*
X419379Y398991D01*
X419307Y399061D01*
X419233Y399129D01*
X419156Y399194D01*
X419076Y399255D01*
X418994Y399314D01*
X418910Y399369D01*
X418824Y399421D01*
X418736Y399470D01*
X418646Y399515D01*
X418554Y399557D01*
X418461Y399595D01*
X418366Y399629D01*
X418271Y399660D01*
X418174Y399687D01*
X418076Y399710D01*
X417977Y399730D01*
X417877Y399745D01*
X417777Y399757D01*
X417677Y399765D01*
X417576Y399769D01*
X417476Y399769D01*
X417375Y399765D01*
X417275Y399757D01*
X417175Y399745D01*
X417075Y399730D01*
X416976Y399710D01*
X416878Y399687D01*
X416781Y399660D01*
X416686Y399629D01*
X416591Y399595D01*
X416498Y399557D01*
X416406Y399515D01*
X416316Y399470D01*
X416228Y399421D01*
X416142Y399369D01*
X416058Y399314D01*
X415976Y399255D01*
X415896Y399194D01*
X415819Y399129D01*
X415745Y399061D01*
X415673Y398991D01*
X415604Y398918D01*
X415537Y398842D01*
X415474Y398763D01*
X415414Y398683D01*
X415357Y398600D01*
X415303Y398514D01*
X415253Y398427D01*
X415206Y398338D01*
X415163Y398247D01*
X415123Y398155D01*
X415087Y398061D01*
X415054Y397966D01*
X415025Y397869D01*
X415000Y397772D01*
X414979Y397673D01*
X414961Y397574D01*
X414948Y397474D01*
X414938Y397374D01*
X414932Y397274D01*
X414930Y397173D01*
X411684Y405188D02*
X420122Y405188D01*
X411684Y405188D02*
X411571Y405190D01*
X411458Y405196D01*
X411345Y405206D01*
X411232Y405220D01*
X411120Y405237D01*
X411009Y405259D01*
X410899Y405284D01*
X410789Y405314D01*
X410681Y405347D01*
X410574Y405384D01*
X410468Y405424D01*
X410364Y405469D01*
X410261Y405517D01*
X410160Y405568D01*
X410061Y405623D01*
X409964Y405681D01*
X409869Y405743D01*
X409776Y405808D01*
X409686Y405876D01*
X409598Y405947D01*
X409512Y406022D01*
X409429Y406099D01*
X409349Y406179D01*
X409272Y406262D01*
X409197Y406348D01*
X409126Y406436D01*
X409058Y406526D01*
X408993Y406619D01*
X408931Y406714D01*
X408873Y406811D01*
X408818Y406910D01*
X408767Y407011D01*
X408719Y407114D01*
X408674Y407218D01*
X408634Y407324D01*
X408597Y407431D01*
X408564Y407539D01*
X408534Y407649D01*
X408509Y407759D01*
X408487Y407870D01*
X408470Y407982D01*
X408456Y408095D01*
X408446Y408208D01*
X408440Y408321D01*
X408438Y408434D01*
X408440Y408547D01*
X408446Y408660D01*
X408456Y408773D01*
X408470Y408886D01*
X408487Y408998D01*
X408509Y409109D01*
X408534Y409219D01*
X408564Y409329D01*
X408597Y409437D01*
X408634Y409544D01*
X408674Y409650D01*
X408719Y409754D01*
X408767Y409857D01*
X408818Y409958D01*
X408873Y410057D01*
X408931Y410154D01*
X408993Y410249D01*
X409058Y410342D01*
X409126Y410432D01*
X409197Y410520D01*
X409272Y410606D01*
X409349Y410689D01*
X409429Y410769D01*
X409512Y410846D01*
X409598Y410921D01*
X409686Y410992D01*
X409776Y411060D01*
X409869Y411125D01*
X409964Y411187D01*
X410061Y411245D01*
X410160Y411300D01*
X410261Y411351D01*
X410364Y411399D01*
X410468Y411444D01*
X410574Y411484D01*
X410681Y411521D01*
X410789Y411554D01*
X410899Y411584D01*
X411009Y411609D01*
X411120Y411631D01*
X411232Y411648D01*
X411345Y411662D01*
X411458Y411672D01*
X411571Y411678D01*
X411684Y411680D01*
X411684Y411679D02*
X420122Y411679D01*
X411034Y423109D02*
X410935Y423107D01*
X410835Y423101D01*
X410736Y423092D01*
X410638Y423079D01*
X410540Y423062D01*
X410442Y423041D01*
X410346Y423016D01*
X410251Y422988D01*
X410157Y422956D01*
X410064Y422921D01*
X409972Y422882D01*
X409882Y422839D01*
X409794Y422794D01*
X409707Y422744D01*
X409623Y422692D01*
X409540Y422636D01*
X409460Y422578D01*
X409382Y422516D01*
X409307Y422451D01*
X409234Y422383D01*
X409164Y422313D01*
X409096Y422240D01*
X409031Y422165D01*
X408969Y422087D01*
X408911Y422007D01*
X408855Y421924D01*
X408803Y421840D01*
X408753Y421753D01*
X408708Y421665D01*
X408665Y421575D01*
X408626Y421483D01*
X408591Y421390D01*
X408559Y421296D01*
X408531Y421201D01*
X408506Y421105D01*
X408485Y421007D01*
X408468Y420909D01*
X408455Y420811D01*
X408446Y420712D01*
X408440Y420612D01*
X408438Y420513D01*
X408440Y420369D01*
X408446Y420224D01*
X408455Y420080D01*
X408468Y419937D01*
X408485Y419793D01*
X408506Y419650D01*
X408531Y419508D01*
X408559Y419367D01*
X408591Y419226D01*
X408627Y419086D01*
X408666Y418947D01*
X408709Y418809D01*
X408756Y418673D01*
X408806Y418537D01*
X408860Y418403D01*
X408917Y418271D01*
X408978Y418140D01*
X409042Y418011D01*
X409110Y417883D01*
X409180Y417757D01*
X409255Y417633D01*
X409332Y417512D01*
X409413Y417392D01*
X409496Y417274D01*
X409583Y417159D01*
X409673Y417046D01*
X409766Y416935D01*
X409861Y416827D01*
X409960Y416721D01*
X410061Y416618D01*
X417526Y416943D02*
X417625Y416945D01*
X417725Y416951D01*
X417824Y416960D01*
X417922Y416973D01*
X418020Y416990D01*
X418118Y417011D01*
X418214Y417036D01*
X418309Y417064D01*
X418403Y417096D01*
X418496Y417131D01*
X418588Y417170D01*
X418678Y417213D01*
X418766Y417258D01*
X418853Y417308D01*
X418937Y417360D01*
X419020Y417416D01*
X419100Y417474D01*
X419178Y417536D01*
X419253Y417601D01*
X419326Y417669D01*
X419396Y417739D01*
X419464Y417812D01*
X419529Y417887D01*
X419591Y417965D01*
X419649Y418045D01*
X419705Y418128D01*
X419757Y418212D01*
X419807Y418299D01*
X419852Y418387D01*
X419895Y418477D01*
X419934Y418569D01*
X419969Y418662D01*
X420001Y418756D01*
X420029Y418851D01*
X420054Y418948D01*
X420075Y419045D01*
X420092Y419143D01*
X420105Y419241D01*
X420114Y419340D01*
X420120Y419440D01*
X420122Y419539D01*
X420120Y419675D01*
X420114Y419811D01*
X420105Y419947D01*
X420092Y420083D01*
X420074Y420218D01*
X420054Y420352D01*
X420029Y420486D01*
X420001Y420620D01*
X419968Y420752D01*
X419933Y420883D01*
X419893Y421014D01*
X419850Y421143D01*
X419804Y421271D01*
X419753Y421397D01*
X419700Y421523D01*
X419642Y421646D01*
X419582Y421768D01*
X419518Y421888D01*
X419450Y422007D01*
X419380Y422123D01*
X419306Y422237D01*
X419229Y422350D01*
X419148Y422460D01*
X415254Y418241D02*
X415307Y418155D01*
X415364Y418071D01*
X415423Y417989D01*
X415486Y417909D01*
X415552Y417832D01*
X415620Y417757D01*
X415692Y417685D01*
X415766Y417616D01*
X415843Y417550D01*
X415922Y417487D01*
X416004Y417427D01*
X416088Y417370D01*
X416174Y417316D01*
X416262Y417266D01*
X416352Y417219D01*
X416443Y417175D01*
X416537Y417136D01*
X416631Y417099D01*
X416727Y417067D01*
X416825Y417038D01*
X416923Y417013D01*
X417022Y416992D01*
X417122Y416974D01*
X417222Y416961D01*
X417323Y416951D01*
X417425Y416945D01*
X417526Y416943D01*
X413306Y421811D02*
X413253Y421897D01*
X413196Y421981D01*
X413137Y422063D01*
X413074Y422143D01*
X413008Y422220D01*
X412940Y422295D01*
X412868Y422367D01*
X412794Y422436D01*
X412717Y422502D01*
X412638Y422565D01*
X412556Y422625D01*
X412472Y422682D01*
X412386Y422736D01*
X412298Y422786D01*
X412208Y422833D01*
X412117Y422877D01*
X412023Y422916D01*
X411929Y422953D01*
X411833Y422985D01*
X411735Y423014D01*
X411637Y423039D01*
X411538Y423060D01*
X411438Y423078D01*
X411338Y423091D01*
X411237Y423101D01*
X411135Y423107D01*
X411034Y423109D01*
X413306Y421811D02*
X415254Y418241D01*
X367192Y383068D02*
X355508Y383068D01*
X355508Y388261D01*
X355508Y392974D02*
X355508Y398167D01*
X355508Y392974D02*
X367192Y392974D01*
X367192Y398167D01*
X361999Y396869D02*
X361999Y392974D01*
X367192Y402857D02*
X355508Y402857D01*
X367192Y402857D02*
X367192Y406103D01*
X367190Y406216D01*
X367184Y406329D01*
X367174Y406442D01*
X367160Y406555D01*
X367143Y406667D01*
X367121Y406778D01*
X367096Y406888D01*
X367066Y406998D01*
X367033Y407106D01*
X366996Y407213D01*
X366956Y407319D01*
X366911Y407423D01*
X366863Y407526D01*
X366812Y407627D01*
X366757Y407726D01*
X366699Y407823D01*
X366637Y407918D01*
X366572Y408011D01*
X366504Y408101D01*
X366433Y408189D01*
X366358Y408275D01*
X366281Y408358D01*
X366201Y408438D01*
X366118Y408515D01*
X366032Y408590D01*
X365944Y408661D01*
X365854Y408729D01*
X365761Y408794D01*
X365666Y408856D01*
X365569Y408914D01*
X365470Y408969D01*
X365369Y409020D01*
X365266Y409068D01*
X365162Y409113D01*
X365056Y409153D01*
X364949Y409190D01*
X364841Y409223D01*
X364731Y409253D01*
X364621Y409278D01*
X364510Y409300D01*
X364398Y409317D01*
X364285Y409331D01*
X364172Y409341D01*
X364059Y409347D01*
X363946Y409349D01*
X358754Y409349D01*
X358641Y409347D01*
X358528Y409341D01*
X358415Y409331D01*
X358302Y409317D01*
X358190Y409300D01*
X358079Y409278D01*
X357969Y409253D01*
X357859Y409223D01*
X357751Y409190D01*
X357644Y409153D01*
X357538Y409113D01*
X357434Y409068D01*
X357331Y409020D01*
X357230Y408969D01*
X357131Y408914D01*
X357034Y408856D01*
X356939Y408794D01*
X356846Y408729D01*
X356756Y408661D01*
X356668Y408590D01*
X356582Y408515D01*
X356499Y408438D01*
X356419Y408358D01*
X356342Y408275D01*
X356267Y408189D01*
X356196Y408101D01*
X356128Y408011D01*
X356063Y407918D01*
X356001Y407823D01*
X355943Y407726D01*
X355888Y407627D01*
X355837Y407526D01*
X355789Y407423D01*
X355744Y407319D01*
X355704Y407213D01*
X355667Y407106D01*
X355634Y406998D01*
X355604Y406888D01*
X355579Y406778D01*
X355557Y406667D01*
X355540Y406555D01*
X355526Y406442D01*
X355516Y406329D01*
X355510Y406216D01*
X355508Y406103D01*
X355508Y402857D01*
X354210Y414175D02*
X354210Y419367D01*
X355508Y426376D02*
X355508Y428972D01*
X355508Y426376D02*
X355510Y426277D01*
X355516Y426177D01*
X355525Y426078D01*
X355538Y425980D01*
X355555Y425882D01*
X355576Y425784D01*
X355601Y425688D01*
X355629Y425593D01*
X355661Y425499D01*
X355696Y425406D01*
X355735Y425314D01*
X355778Y425224D01*
X355823Y425136D01*
X355873Y425049D01*
X355925Y424965D01*
X355981Y424882D01*
X356039Y424802D01*
X356101Y424724D01*
X356166Y424649D01*
X356234Y424576D01*
X356304Y424506D01*
X356377Y424438D01*
X356452Y424373D01*
X356530Y424311D01*
X356610Y424253D01*
X356693Y424197D01*
X356777Y424145D01*
X356864Y424095D01*
X356952Y424050D01*
X357042Y424007D01*
X357134Y423968D01*
X357227Y423933D01*
X357321Y423901D01*
X357416Y423873D01*
X357512Y423848D01*
X357610Y423827D01*
X357708Y423810D01*
X357806Y423797D01*
X357905Y423788D01*
X358005Y423782D01*
X358104Y423780D01*
X358104Y423779D02*
X364596Y423779D01*
X364596Y423780D02*
X364695Y423782D01*
X364795Y423788D01*
X364894Y423797D01*
X364992Y423810D01*
X365090Y423827D01*
X365188Y423848D01*
X365284Y423873D01*
X365379Y423901D01*
X365473Y423933D01*
X365566Y423968D01*
X365658Y424007D01*
X365748Y424050D01*
X365836Y424095D01*
X365923Y424145D01*
X366007Y424197D01*
X366090Y424253D01*
X366170Y424311D01*
X366248Y424373D01*
X366323Y424438D01*
X366396Y424506D01*
X366466Y424576D01*
X366534Y424649D01*
X366599Y424724D01*
X366661Y424802D01*
X366719Y424882D01*
X366775Y424965D01*
X366827Y425049D01*
X366877Y425136D01*
X366922Y425224D01*
X366965Y425314D01*
X367004Y425406D01*
X367039Y425498D01*
X367071Y425593D01*
X367099Y425688D01*
X367124Y425784D01*
X367145Y425882D01*
X367162Y425980D01*
X367175Y426078D01*
X367184Y426177D01*
X367190Y426277D01*
X367192Y426376D01*
X367192Y428972D01*
X367192Y433718D02*
X355508Y433718D01*
X361999Y433718D02*
X361999Y440209D01*
X367192Y440209D02*
X355508Y440209D01*
X355508Y444880D02*
X367192Y448775D01*
X355508Y452670D01*
X358429Y451696D02*
X358429Y445854D01*
X355508Y457414D02*
X367192Y457414D01*
X367192Y460660D01*
X367190Y460773D01*
X367184Y460886D01*
X367174Y460999D01*
X367160Y461112D01*
X367143Y461224D01*
X367121Y461335D01*
X367096Y461445D01*
X367066Y461555D01*
X367033Y461663D01*
X366996Y461770D01*
X366956Y461876D01*
X366911Y461980D01*
X366863Y462083D01*
X366812Y462184D01*
X366757Y462283D01*
X366699Y462380D01*
X366637Y462475D01*
X366572Y462568D01*
X366504Y462658D01*
X366433Y462746D01*
X366358Y462832D01*
X366281Y462915D01*
X366201Y462995D01*
X366118Y463072D01*
X366032Y463147D01*
X365944Y463218D01*
X365854Y463286D01*
X365761Y463351D01*
X365666Y463413D01*
X365569Y463471D01*
X365470Y463526D01*
X365369Y463577D01*
X365266Y463625D01*
X365162Y463670D01*
X365056Y463710D01*
X364949Y463747D01*
X364841Y463780D01*
X364731Y463810D01*
X364621Y463835D01*
X364510Y463857D01*
X364398Y463874D01*
X364285Y463888D01*
X364172Y463898D01*
X364059Y463904D01*
X363946Y463906D01*
X363833Y463904D01*
X363720Y463898D01*
X363607Y463888D01*
X363494Y463874D01*
X363382Y463857D01*
X363271Y463835D01*
X363161Y463810D01*
X363051Y463780D01*
X362943Y463747D01*
X362836Y463710D01*
X362730Y463670D01*
X362626Y463625D01*
X362523Y463577D01*
X362422Y463526D01*
X362323Y463471D01*
X362226Y463413D01*
X362131Y463351D01*
X362038Y463286D01*
X361948Y463218D01*
X361860Y463147D01*
X361774Y463072D01*
X361691Y462995D01*
X361611Y462915D01*
X361534Y462832D01*
X361459Y462746D01*
X361388Y462658D01*
X361320Y462568D01*
X361255Y462475D01*
X361193Y462380D01*
X361135Y462283D01*
X361080Y462184D01*
X361029Y462083D01*
X360981Y461980D01*
X360936Y461876D01*
X360896Y461770D01*
X360859Y461663D01*
X360826Y461555D01*
X360796Y461445D01*
X360771Y461335D01*
X360749Y461224D01*
X360732Y461112D01*
X360718Y460999D01*
X360708Y460886D01*
X360702Y460773D01*
X360700Y460660D01*
X360701Y460660D02*
X360701Y457414D01*
X360701Y461309D02*
X355508Y463905D01*
X361999Y473695D02*
X361999Y475642D01*
X355508Y475642D01*
X355508Y471748D01*
X355510Y471649D01*
X355516Y471549D01*
X355525Y471450D01*
X355538Y471352D01*
X355555Y471254D01*
X355576Y471156D01*
X355601Y471060D01*
X355629Y470965D01*
X355661Y470871D01*
X355696Y470778D01*
X355735Y470686D01*
X355778Y470596D01*
X355823Y470508D01*
X355873Y470421D01*
X355925Y470337D01*
X355981Y470254D01*
X356039Y470174D01*
X356101Y470096D01*
X356166Y470021D01*
X356234Y469948D01*
X356304Y469878D01*
X356377Y469810D01*
X356452Y469745D01*
X356530Y469683D01*
X356610Y469625D01*
X356693Y469569D01*
X356777Y469517D01*
X356864Y469467D01*
X356952Y469422D01*
X357042Y469379D01*
X357134Y469340D01*
X357227Y469305D01*
X357321Y469273D01*
X357416Y469245D01*
X357512Y469220D01*
X357610Y469199D01*
X357708Y469182D01*
X357806Y469169D01*
X357905Y469160D01*
X358005Y469154D01*
X358104Y469152D01*
X358104Y469151D02*
X364596Y469151D01*
X364596Y469152D02*
X364695Y469154D01*
X364795Y469160D01*
X364894Y469169D01*
X364992Y469182D01*
X365090Y469199D01*
X365188Y469220D01*
X365284Y469245D01*
X365379Y469273D01*
X365473Y469305D01*
X365566Y469340D01*
X365658Y469379D01*
X365748Y469422D01*
X365836Y469467D01*
X365923Y469517D01*
X366007Y469569D01*
X366090Y469625D01*
X366170Y469683D01*
X366248Y469745D01*
X366323Y469810D01*
X366396Y469878D01*
X366466Y469948D01*
X366534Y470021D01*
X366599Y470096D01*
X366661Y470174D01*
X366719Y470254D01*
X366775Y470337D01*
X366827Y470421D01*
X366877Y470508D01*
X366922Y470596D01*
X366965Y470686D01*
X367004Y470778D01*
X367039Y470870D01*
X367071Y470965D01*
X367099Y471060D01*
X367124Y471156D01*
X367145Y471254D01*
X367162Y471352D01*
X367175Y471450D01*
X367184Y471549D01*
X367190Y471649D01*
X367192Y471748D01*
X367192Y475642D01*
X367192Y481922D02*
X355508Y481922D01*
X355508Y480624D02*
X355508Y483220D01*
X367192Y483220D02*
X367192Y480624D01*
X367192Y488201D02*
X355508Y488201D01*
X355508Y494692D02*
X367192Y488201D01*
X367192Y494692D02*
X355508Y494692D01*
X361999Y504937D02*
X361999Y506884D01*
X355508Y506884D01*
X355508Y502990D01*
X355510Y502891D01*
X355516Y502791D01*
X355525Y502692D01*
X355538Y502594D01*
X355555Y502496D01*
X355576Y502398D01*
X355601Y502302D01*
X355629Y502207D01*
X355661Y502113D01*
X355696Y502020D01*
X355735Y501928D01*
X355778Y501838D01*
X355823Y501750D01*
X355873Y501663D01*
X355925Y501579D01*
X355981Y501496D01*
X356039Y501416D01*
X356101Y501338D01*
X356166Y501263D01*
X356234Y501190D01*
X356304Y501120D01*
X356377Y501052D01*
X356452Y500987D01*
X356530Y500925D01*
X356610Y500867D01*
X356693Y500811D01*
X356777Y500759D01*
X356864Y500709D01*
X356952Y500664D01*
X357042Y500621D01*
X357134Y500582D01*
X357227Y500547D01*
X357321Y500515D01*
X357416Y500487D01*
X357512Y500462D01*
X357610Y500441D01*
X357708Y500424D01*
X357806Y500411D01*
X357905Y500402D01*
X358005Y500396D01*
X358104Y500394D01*
X358104Y500393D02*
X364596Y500393D01*
X364596Y500394D02*
X364695Y500396D01*
X364795Y500402D01*
X364894Y500411D01*
X364992Y500424D01*
X365090Y500441D01*
X365188Y500462D01*
X365284Y500487D01*
X365379Y500515D01*
X365473Y500547D01*
X365566Y500582D01*
X365658Y500621D01*
X365748Y500664D01*
X365836Y500709D01*
X365923Y500759D01*
X366007Y500811D01*
X366090Y500867D01*
X366170Y500925D01*
X366248Y500987D01*
X366323Y501052D01*
X366396Y501120D01*
X366466Y501190D01*
X366534Y501263D01*
X366599Y501338D01*
X366661Y501416D01*
X366719Y501496D01*
X366775Y501579D01*
X366827Y501663D01*
X366877Y501750D01*
X366922Y501838D01*
X366965Y501928D01*
X367004Y502020D01*
X367039Y502112D01*
X367071Y502207D01*
X367099Y502302D01*
X367124Y502398D01*
X367145Y502496D01*
X367162Y502594D01*
X367175Y502692D01*
X367184Y502791D01*
X367190Y502891D01*
X367192Y502990D01*
X367192Y506884D01*
X310799Y388359D02*
X310799Y386412D01*
X310799Y388359D02*
X304308Y388359D01*
X304308Y384464D01*
X304310Y384365D01*
X304316Y384265D01*
X304325Y384166D01*
X304338Y384068D01*
X304355Y383970D01*
X304376Y383872D01*
X304401Y383776D01*
X304429Y383681D01*
X304461Y383587D01*
X304496Y383494D01*
X304535Y383402D01*
X304578Y383312D01*
X304623Y383224D01*
X304673Y383137D01*
X304725Y383053D01*
X304781Y382970D01*
X304839Y382890D01*
X304901Y382812D01*
X304966Y382737D01*
X305034Y382664D01*
X305104Y382594D01*
X305177Y382526D01*
X305252Y382461D01*
X305330Y382399D01*
X305410Y382341D01*
X305493Y382285D01*
X305577Y382233D01*
X305664Y382183D01*
X305752Y382138D01*
X305842Y382095D01*
X305934Y382056D01*
X306027Y382021D01*
X306121Y381989D01*
X306216Y381961D01*
X306312Y381936D01*
X306410Y381915D01*
X306508Y381898D01*
X306606Y381885D01*
X306705Y381876D01*
X306805Y381870D01*
X306904Y381868D01*
X313396Y381868D01*
X313495Y381870D01*
X313595Y381876D01*
X313694Y381885D01*
X313792Y381898D01*
X313890Y381915D01*
X313988Y381936D01*
X314084Y381961D01*
X314179Y381989D01*
X314273Y382021D01*
X314366Y382056D01*
X314458Y382095D01*
X314548Y382138D01*
X314636Y382183D01*
X314723Y382233D01*
X314807Y382285D01*
X314890Y382341D01*
X314970Y382399D01*
X315048Y382461D01*
X315123Y382526D01*
X315196Y382594D01*
X315266Y382664D01*
X315334Y382737D01*
X315399Y382812D01*
X315461Y382890D01*
X315519Y382970D01*
X315575Y383053D01*
X315627Y383137D01*
X315677Y383224D01*
X315722Y383312D01*
X315765Y383402D01*
X315804Y383494D01*
X315839Y383586D01*
X315871Y383681D01*
X315899Y383776D01*
X315924Y383872D01*
X315945Y383970D01*
X315962Y384068D01*
X315975Y384166D01*
X315984Y384265D01*
X315990Y384365D01*
X315992Y384464D01*
X315992Y388359D01*
X315992Y394060D02*
X304308Y394060D01*
X304308Y400551D02*
X315992Y394060D01*
X315992Y400551D02*
X304308Y400551D01*
X304308Y406252D02*
X315992Y406252D01*
X315992Y409497D01*
X315990Y409610D01*
X315984Y409723D01*
X315974Y409836D01*
X315960Y409949D01*
X315943Y410061D01*
X315921Y410172D01*
X315896Y410282D01*
X315866Y410392D01*
X315833Y410500D01*
X315796Y410607D01*
X315756Y410713D01*
X315711Y410817D01*
X315663Y410920D01*
X315612Y411021D01*
X315557Y411120D01*
X315499Y411217D01*
X315437Y411312D01*
X315372Y411405D01*
X315304Y411495D01*
X315233Y411583D01*
X315158Y411669D01*
X315081Y411752D01*
X315001Y411832D01*
X314918Y411909D01*
X314832Y411984D01*
X314744Y412055D01*
X314654Y412123D01*
X314561Y412188D01*
X314466Y412250D01*
X314369Y412308D01*
X314270Y412363D01*
X314169Y412414D01*
X314066Y412462D01*
X313962Y412507D01*
X313856Y412547D01*
X313749Y412584D01*
X313641Y412617D01*
X313531Y412647D01*
X313421Y412672D01*
X313310Y412694D01*
X313198Y412711D01*
X313085Y412725D01*
X312972Y412735D01*
X312859Y412741D01*
X312746Y412743D01*
X307554Y412743D01*
X307441Y412741D01*
X307328Y412735D01*
X307215Y412725D01*
X307102Y412711D01*
X306990Y412694D01*
X306879Y412672D01*
X306769Y412647D01*
X306659Y412617D01*
X306551Y412584D01*
X306444Y412547D01*
X306338Y412507D01*
X306234Y412462D01*
X306131Y412414D01*
X306030Y412363D01*
X305931Y412308D01*
X305834Y412250D01*
X305739Y412188D01*
X305646Y412123D01*
X305556Y412055D01*
X305468Y411984D01*
X305382Y411909D01*
X305299Y411832D01*
X305219Y411752D01*
X305142Y411669D01*
X305067Y411583D01*
X304996Y411495D01*
X304928Y411405D01*
X304863Y411312D01*
X304801Y411217D01*
X304743Y411120D01*
X304688Y411021D01*
X304637Y410920D01*
X304589Y410817D01*
X304544Y410713D01*
X304504Y410607D01*
X304467Y410500D01*
X304434Y410392D01*
X304404Y410282D01*
X304379Y410172D01*
X304357Y410061D01*
X304340Y409949D01*
X304326Y409836D01*
X304316Y409723D01*
X304310Y409610D01*
X304308Y409497D01*
X304308Y406252D01*
D10*
X386350Y553556D02*
X386350Y563756D01*
X397150Y550756D02*
X404550Y550756D01*
X415350Y553556D02*
X415350Y563756D01*
X406650Y563756D01*
X395050Y563756D02*
X386350Y563756D01*
D11*
X423104Y551764D02*
X428296Y551764D01*
X428409Y551766D01*
X428522Y551772D01*
X428635Y551782D01*
X428748Y551796D01*
X428860Y551813D01*
X428971Y551835D01*
X429081Y551860D01*
X429191Y551890D01*
X429299Y551923D01*
X429406Y551960D01*
X429512Y552000D01*
X429616Y552045D01*
X429719Y552093D01*
X429820Y552144D01*
X429919Y552199D01*
X430016Y552257D01*
X430111Y552319D01*
X430204Y552384D01*
X430294Y552452D01*
X430382Y552523D01*
X430468Y552598D01*
X430551Y552675D01*
X430631Y552755D01*
X430708Y552838D01*
X430783Y552924D01*
X430854Y553012D01*
X430922Y553102D01*
X430987Y553195D01*
X431049Y553290D01*
X431107Y553387D01*
X431162Y553486D01*
X431213Y553587D01*
X431261Y553690D01*
X431306Y553794D01*
X431346Y553900D01*
X431383Y554007D01*
X431416Y554115D01*
X431446Y554225D01*
X431471Y554335D01*
X431493Y554446D01*
X431510Y554558D01*
X431524Y554671D01*
X431534Y554784D01*
X431540Y554897D01*
X431542Y555010D01*
X431540Y555123D01*
X431534Y555236D01*
X431524Y555349D01*
X431510Y555462D01*
X431493Y555574D01*
X431471Y555685D01*
X431446Y555795D01*
X431416Y555905D01*
X431383Y556013D01*
X431346Y556120D01*
X431306Y556226D01*
X431261Y556330D01*
X431213Y556433D01*
X431162Y556534D01*
X431107Y556633D01*
X431049Y556730D01*
X430987Y556825D01*
X430922Y556918D01*
X430854Y557008D01*
X430783Y557096D01*
X430708Y557182D01*
X430631Y557265D01*
X430551Y557345D01*
X430468Y557422D01*
X430382Y557497D01*
X430294Y557568D01*
X430204Y557636D01*
X430111Y557701D01*
X430016Y557763D01*
X429919Y557821D01*
X429820Y557876D01*
X429719Y557927D01*
X429616Y557975D01*
X429512Y558020D01*
X429406Y558060D01*
X429299Y558097D01*
X429191Y558130D01*
X429081Y558160D01*
X428971Y558185D01*
X428860Y558207D01*
X428748Y558224D01*
X428635Y558238D01*
X428522Y558248D01*
X428409Y558254D01*
X428296Y558256D01*
X428296Y558255D02*
X423104Y558255D01*
X423104Y558256D02*
X422991Y558254D01*
X422878Y558248D01*
X422765Y558238D01*
X422652Y558224D01*
X422540Y558207D01*
X422429Y558185D01*
X422319Y558160D01*
X422209Y558130D01*
X422101Y558097D01*
X421994Y558060D01*
X421888Y558020D01*
X421784Y557975D01*
X421681Y557927D01*
X421580Y557876D01*
X421481Y557821D01*
X421384Y557763D01*
X421289Y557701D01*
X421196Y557636D01*
X421106Y557568D01*
X421018Y557497D01*
X420932Y557422D01*
X420849Y557345D01*
X420769Y557265D01*
X420692Y557182D01*
X420617Y557096D01*
X420546Y557008D01*
X420478Y556918D01*
X420413Y556825D01*
X420351Y556730D01*
X420293Y556633D01*
X420238Y556534D01*
X420187Y556433D01*
X420139Y556330D01*
X420094Y556226D01*
X420054Y556120D01*
X420017Y556013D01*
X419984Y555905D01*
X419954Y555795D01*
X419929Y555685D01*
X419907Y555574D01*
X419890Y555462D01*
X419876Y555349D01*
X419866Y555236D01*
X419860Y555123D01*
X419858Y555010D01*
X419860Y554897D01*
X419866Y554784D01*
X419876Y554671D01*
X419890Y554558D01*
X419907Y554446D01*
X419929Y554335D01*
X419954Y554225D01*
X419984Y554115D01*
X420017Y554007D01*
X420054Y553900D01*
X420094Y553794D01*
X420139Y553690D01*
X420187Y553587D01*
X420238Y553486D01*
X420293Y553387D01*
X420351Y553290D01*
X420413Y553195D01*
X420478Y553102D01*
X420546Y553012D01*
X420617Y552924D01*
X420692Y552838D01*
X420769Y552755D01*
X420849Y552675D01*
X420932Y552598D01*
X421018Y552523D01*
X421106Y552452D01*
X421196Y552384D01*
X421289Y552319D01*
X421384Y552257D01*
X421481Y552199D01*
X421580Y552144D01*
X421681Y552093D01*
X421784Y552045D01*
X421888Y552000D01*
X421994Y551960D01*
X422101Y551923D01*
X422209Y551890D01*
X422319Y551860D01*
X422429Y551835D01*
X422540Y551813D01*
X422652Y551796D01*
X422765Y551782D01*
X422878Y551772D01*
X422991Y551766D01*
X423104Y551764D01*
X422454Y556957D02*
X419858Y559553D01*
X428621Y569399D02*
X428728Y569397D01*
X428834Y569391D01*
X428940Y569381D01*
X429046Y569368D01*
X429152Y569350D01*
X429256Y569329D01*
X429360Y569304D01*
X429463Y569275D01*
X429564Y569243D01*
X429664Y569206D01*
X429763Y569166D01*
X429861Y569123D01*
X429957Y569076D01*
X430051Y569025D01*
X430143Y568971D01*
X430233Y568914D01*
X430321Y568854D01*
X430406Y568790D01*
X430489Y568723D01*
X430570Y568653D01*
X430648Y568581D01*
X430724Y568505D01*
X430796Y568427D01*
X430866Y568346D01*
X430933Y568263D01*
X430997Y568178D01*
X431057Y568090D01*
X431114Y568000D01*
X431168Y567908D01*
X431219Y567814D01*
X431266Y567718D01*
X431309Y567620D01*
X431349Y567521D01*
X431386Y567421D01*
X431418Y567320D01*
X431447Y567217D01*
X431472Y567113D01*
X431493Y567009D01*
X431511Y566903D01*
X431524Y566797D01*
X431534Y566691D01*
X431540Y566585D01*
X431542Y566478D01*
X431540Y566357D01*
X431534Y566236D01*
X431524Y566116D01*
X431511Y565995D01*
X431493Y565876D01*
X431472Y565756D01*
X431447Y565638D01*
X431418Y565521D01*
X431385Y565404D01*
X431349Y565289D01*
X431308Y565175D01*
X431265Y565062D01*
X431217Y564950D01*
X431166Y564841D01*
X431111Y564733D01*
X431053Y564626D01*
X430992Y564522D01*
X430927Y564420D01*
X430859Y564320D01*
X430788Y564222D01*
X430714Y564126D01*
X430637Y564033D01*
X430556Y563943D01*
X430473Y563855D01*
X430387Y563770D01*
X430298Y563687D01*
X430207Y563608D01*
X430113Y563531D01*
X430017Y563458D01*
X429919Y563388D01*
X429818Y563321D01*
X429715Y563257D01*
X429610Y563197D01*
X429503Y563140D01*
X429395Y563086D01*
X429285Y563036D01*
X429173Y562990D01*
X429060Y562947D01*
X428945Y562908D01*
X426349Y568425D02*
X426426Y568504D01*
X426507Y568580D01*
X426590Y568653D01*
X426675Y568723D01*
X426763Y568790D01*
X426853Y568854D01*
X426945Y568914D01*
X427040Y568971D01*
X427136Y569025D01*
X427234Y569076D01*
X427334Y569123D01*
X427436Y569167D01*
X427539Y569207D01*
X427643Y569243D01*
X427749Y569275D01*
X427855Y569304D01*
X427963Y569329D01*
X428071Y569351D01*
X428181Y569368D01*
X428290Y569382D01*
X428400Y569391D01*
X428511Y569397D01*
X428621Y569399D01*
X426349Y568425D02*
X419858Y562908D01*
X419858Y569399D01*
D12*
X598272Y526526D03*
D13*
X605522Y531776D03*
D11*
X629121Y521268D02*
X629121Y509584D01*
X623929Y509584D01*
X619215Y509584D02*
X614023Y509584D01*
X619215Y509584D02*
X619215Y521268D01*
X614023Y521268D01*
X615321Y516075D02*
X619215Y516075D01*
X609332Y521268D02*
X609332Y509584D01*
X609332Y521268D02*
X606087Y521268D01*
X605974Y521266D01*
X605861Y521260D01*
X605748Y521250D01*
X605635Y521236D01*
X605523Y521219D01*
X605412Y521197D01*
X605302Y521172D01*
X605192Y521142D01*
X605084Y521109D01*
X604977Y521072D01*
X604871Y521032D01*
X604767Y520987D01*
X604664Y520939D01*
X604563Y520888D01*
X604464Y520833D01*
X604367Y520775D01*
X604272Y520713D01*
X604179Y520648D01*
X604089Y520580D01*
X604001Y520509D01*
X603915Y520434D01*
X603832Y520357D01*
X603752Y520277D01*
X603675Y520194D01*
X603600Y520108D01*
X603529Y520020D01*
X603461Y519930D01*
X603396Y519837D01*
X603334Y519742D01*
X603276Y519645D01*
X603221Y519546D01*
X603170Y519445D01*
X603122Y519342D01*
X603077Y519238D01*
X603037Y519132D01*
X603000Y519025D01*
X602967Y518917D01*
X602937Y518807D01*
X602912Y518697D01*
X602890Y518586D01*
X602873Y518474D01*
X602859Y518361D01*
X602849Y518248D01*
X602843Y518135D01*
X602841Y518022D01*
X602841Y512830D01*
X602843Y512717D01*
X602849Y512604D01*
X602859Y512491D01*
X602873Y512378D01*
X602890Y512266D01*
X602912Y512155D01*
X602937Y512045D01*
X602967Y511935D01*
X603000Y511827D01*
X603037Y511720D01*
X603077Y511614D01*
X603122Y511510D01*
X603170Y511407D01*
X603221Y511306D01*
X603276Y511207D01*
X603334Y511110D01*
X603396Y511015D01*
X603461Y510922D01*
X603529Y510832D01*
X603600Y510744D01*
X603675Y510658D01*
X603752Y510575D01*
X603832Y510495D01*
X603915Y510418D01*
X604001Y510343D01*
X604089Y510272D01*
X604179Y510204D01*
X604272Y510139D01*
X604367Y510077D01*
X604464Y510019D01*
X604563Y509964D01*
X604664Y509913D01*
X604767Y509865D01*
X604871Y509820D01*
X604977Y509780D01*
X605084Y509743D01*
X605192Y509710D01*
X605302Y509680D01*
X605412Y509655D01*
X605523Y509633D01*
X605635Y509616D01*
X605748Y509602D01*
X605861Y509592D01*
X605974Y509586D01*
X606087Y509584D01*
X609332Y509584D01*
X597521Y518672D02*
X594276Y521268D01*
X594276Y509584D01*
X597521Y509584D02*
X591030Y509584D01*
X626605Y472222D02*
X626605Y460538D01*
X626605Y472222D02*
X623360Y472222D01*
X623247Y472220D01*
X623134Y472214D01*
X623021Y472204D01*
X622908Y472190D01*
X622796Y472173D01*
X622685Y472151D01*
X622575Y472126D01*
X622465Y472096D01*
X622357Y472063D01*
X622250Y472026D01*
X622144Y471986D01*
X622040Y471941D01*
X621937Y471893D01*
X621836Y471842D01*
X621737Y471787D01*
X621640Y471729D01*
X621545Y471667D01*
X621452Y471602D01*
X621362Y471534D01*
X621274Y471463D01*
X621188Y471388D01*
X621105Y471311D01*
X621025Y471231D01*
X620948Y471148D01*
X620873Y471062D01*
X620802Y470974D01*
X620734Y470884D01*
X620669Y470791D01*
X620607Y470696D01*
X620549Y470599D01*
X620494Y470500D01*
X620443Y470399D01*
X620395Y470296D01*
X620350Y470192D01*
X620310Y470086D01*
X620273Y469979D01*
X620240Y469871D01*
X620210Y469761D01*
X620185Y469651D01*
X620163Y469540D01*
X620146Y469428D01*
X620132Y469315D01*
X620122Y469202D01*
X620116Y469089D01*
X620114Y468976D01*
X620116Y468863D01*
X620122Y468750D01*
X620132Y468637D01*
X620146Y468524D01*
X620163Y468412D01*
X620185Y468301D01*
X620210Y468191D01*
X620240Y468081D01*
X620273Y467973D01*
X620310Y467866D01*
X620350Y467760D01*
X620395Y467656D01*
X620443Y467553D01*
X620494Y467452D01*
X620549Y467353D01*
X620607Y467256D01*
X620669Y467161D01*
X620734Y467068D01*
X620802Y466978D01*
X620873Y466890D01*
X620948Y466804D01*
X621025Y466721D01*
X621105Y466641D01*
X621188Y466564D01*
X621274Y466489D01*
X621362Y466418D01*
X621452Y466350D01*
X621545Y466285D01*
X621640Y466223D01*
X621737Y466165D01*
X621836Y466110D01*
X621937Y466059D01*
X622040Y466011D01*
X622144Y465966D01*
X622250Y465926D01*
X622357Y465889D01*
X622465Y465856D01*
X622575Y465826D01*
X622685Y465801D01*
X622796Y465779D01*
X622908Y465762D01*
X623021Y465748D01*
X623134Y465738D01*
X623247Y465732D01*
X623360Y465730D01*
X623360Y465731D02*
X626605Y465731D01*
X622711Y465731D02*
X620114Y460538D01*
X612653Y465731D02*
X608758Y465731D01*
X612653Y465731D02*
X612752Y465733D01*
X612852Y465739D01*
X612951Y465748D01*
X613049Y465761D01*
X613147Y465778D01*
X613245Y465799D01*
X613341Y465824D01*
X613436Y465852D01*
X613530Y465884D01*
X613623Y465919D01*
X613715Y465958D01*
X613805Y466001D01*
X613893Y466046D01*
X613980Y466096D01*
X614064Y466148D01*
X614147Y466204D01*
X614227Y466262D01*
X614305Y466324D01*
X614380Y466389D01*
X614453Y466457D01*
X614523Y466527D01*
X614591Y466600D01*
X614656Y466675D01*
X614718Y466753D01*
X614776Y466833D01*
X614832Y466916D01*
X614884Y467000D01*
X614934Y467087D01*
X614979Y467175D01*
X615022Y467265D01*
X615061Y467357D01*
X615096Y467450D01*
X615128Y467544D01*
X615156Y467639D01*
X615181Y467735D01*
X615202Y467833D01*
X615219Y467931D01*
X615232Y468029D01*
X615241Y468128D01*
X615247Y468228D01*
X615249Y468327D01*
X615249Y468976D01*
X615250Y468976D02*
X615248Y469089D01*
X615242Y469202D01*
X615232Y469315D01*
X615218Y469428D01*
X615201Y469540D01*
X615179Y469651D01*
X615154Y469761D01*
X615124Y469871D01*
X615091Y469979D01*
X615054Y470086D01*
X615014Y470192D01*
X614969Y470296D01*
X614921Y470399D01*
X614870Y470500D01*
X614815Y470599D01*
X614757Y470696D01*
X614695Y470791D01*
X614630Y470884D01*
X614562Y470974D01*
X614491Y471062D01*
X614416Y471148D01*
X614339Y471231D01*
X614259Y471311D01*
X614176Y471388D01*
X614090Y471463D01*
X614002Y471534D01*
X613912Y471602D01*
X613819Y471667D01*
X613724Y471729D01*
X613627Y471787D01*
X613528Y471842D01*
X613427Y471893D01*
X613324Y471941D01*
X613220Y471986D01*
X613114Y472026D01*
X613007Y472063D01*
X612899Y472096D01*
X612789Y472126D01*
X612679Y472151D01*
X612568Y472173D01*
X612456Y472190D01*
X612343Y472204D01*
X612230Y472214D01*
X612117Y472220D01*
X612004Y472222D01*
X611891Y472220D01*
X611778Y472214D01*
X611665Y472204D01*
X611552Y472190D01*
X611440Y472173D01*
X611329Y472151D01*
X611219Y472126D01*
X611109Y472096D01*
X611001Y472063D01*
X610894Y472026D01*
X610788Y471986D01*
X610684Y471941D01*
X610581Y471893D01*
X610480Y471842D01*
X610381Y471787D01*
X610284Y471729D01*
X610189Y471667D01*
X610096Y471602D01*
X610006Y471534D01*
X609918Y471463D01*
X609832Y471388D01*
X609749Y471311D01*
X609669Y471231D01*
X609592Y471148D01*
X609517Y471062D01*
X609446Y470974D01*
X609378Y470884D01*
X609313Y470791D01*
X609251Y470696D01*
X609193Y470599D01*
X609138Y470500D01*
X609087Y470399D01*
X609039Y470296D01*
X608994Y470192D01*
X608954Y470086D01*
X608917Y469979D01*
X608884Y469871D01*
X608854Y469761D01*
X608829Y469651D01*
X608807Y469540D01*
X608790Y469428D01*
X608776Y469315D01*
X608766Y469202D01*
X608760Y469089D01*
X608758Y468976D01*
X608758Y465731D01*
X608760Y465588D01*
X608766Y465445D01*
X608776Y465302D01*
X608790Y465160D01*
X608807Y465018D01*
X608829Y464876D01*
X608854Y464735D01*
X608884Y464595D01*
X608917Y464456D01*
X608954Y464318D01*
X608995Y464181D01*
X609039Y464045D01*
X609088Y463910D01*
X609140Y463777D01*
X609195Y463645D01*
X609255Y463515D01*
X609318Y463386D01*
X609384Y463259D01*
X609454Y463135D01*
X609527Y463012D01*
X609604Y462891D01*
X609684Y462772D01*
X609767Y462656D01*
X609853Y462541D01*
X609942Y462430D01*
X610035Y462320D01*
X610130Y462214D01*
X610229Y462110D01*
X610330Y462009D01*
X610434Y461910D01*
X610540Y461815D01*
X610650Y461722D01*
X610761Y461633D01*
X610876Y461547D01*
X610992Y461464D01*
X611111Y461384D01*
X611232Y461307D01*
X611355Y461234D01*
X611479Y461164D01*
X611606Y461098D01*
X611735Y461035D01*
X611865Y460975D01*
X611997Y460920D01*
X612130Y460868D01*
X612265Y460819D01*
X612401Y460775D01*
X612538Y460734D01*
X612676Y460697D01*
X612815Y460664D01*
X612955Y460634D01*
X613096Y460609D01*
X613238Y460587D01*
X613380Y460570D01*
X613522Y460556D01*
X613665Y460546D01*
X613808Y460540D01*
X613951Y460538D01*
D12*
X157920Y571300D03*
D13*
X150670Y566050D03*
D11*
X165162Y576558D02*
X165162Y588242D01*
X165162Y576558D02*
X159969Y576558D01*
X155256Y576558D02*
X150063Y576558D01*
X155256Y576558D02*
X155256Y588242D01*
X150063Y588242D01*
X151361Y583049D02*
X155256Y583049D01*
X145373Y588242D02*
X145373Y576558D01*
X145373Y588242D02*
X142127Y588242D01*
X142014Y588240D01*
X141901Y588234D01*
X141788Y588224D01*
X141675Y588210D01*
X141563Y588193D01*
X141452Y588171D01*
X141342Y588146D01*
X141232Y588116D01*
X141124Y588083D01*
X141017Y588046D01*
X140911Y588006D01*
X140807Y587961D01*
X140704Y587913D01*
X140603Y587862D01*
X140504Y587807D01*
X140407Y587749D01*
X140312Y587687D01*
X140219Y587622D01*
X140129Y587554D01*
X140041Y587483D01*
X139955Y587408D01*
X139872Y587331D01*
X139792Y587251D01*
X139715Y587168D01*
X139640Y587082D01*
X139569Y586994D01*
X139501Y586904D01*
X139436Y586811D01*
X139374Y586716D01*
X139316Y586619D01*
X139261Y586520D01*
X139210Y586419D01*
X139162Y586316D01*
X139117Y586212D01*
X139077Y586106D01*
X139040Y585999D01*
X139007Y585891D01*
X138977Y585781D01*
X138952Y585671D01*
X138930Y585560D01*
X138913Y585448D01*
X138899Y585335D01*
X138889Y585222D01*
X138883Y585109D01*
X138881Y584996D01*
X138882Y584996D02*
X138882Y579804D01*
X138881Y579804D02*
X138883Y579691D01*
X138889Y579578D01*
X138899Y579465D01*
X138913Y579352D01*
X138930Y579240D01*
X138952Y579129D01*
X138977Y579019D01*
X139007Y578909D01*
X139040Y578801D01*
X139077Y578694D01*
X139117Y578588D01*
X139162Y578484D01*
X139210Y578381D01*
X139261Y578280D01*
X139316Y578181D01*
X139374Y578084D01*
X139436Y577989D01*
X139501Y577896D01*
X139569Y577806D01*
X139640Y577718D01*
X139715Y577632D01*
X139792Y577549D01*
X139872Y577469D01*
X139955Y577392D01*
X140041Y577317D01*
X140129Y577246D01*
X140219Y577178D01*
X140312Y577113D01*
X140407Y577051D01*
X140504Y576993D01*
X140603Y576938D01*
X140704Y576887D01*
X140807Y576839D01*
X140911Y576794D01*
X141017Y576754D01*
X141124Y576717D01*
X141232Y576684D01*
X141342Y576654D01*
X141452Y576629D01*
X141563Y576607D01*
X141675Y576590D01*
X141788Y576576D01*
X141901Y576566D01*
X142014Y576560D01*
X142127Y576558D01*
X145373Y576558D01*
X129992Y588242D02*
X129885Y588240D01*
X129779Y588234D01*
X129673Y588224D01*
X129567Y588211D01*
X129461Y588193D01*
X129357Y588172D01*
X129253Y588147D01*
X129150Y588118D01*
X129049Y588086D01*
X128949Y588049D01*
X128850Y588009D01*
X128752Y587966D01*
X128656Y587919D01*
X128562Y587868D01*
X128470Y587814D01*
X128380Y587757D01*
X128292Y587697D01*
X128207Y587633D01*
X128124Y587566D01*
X128043Y587496D01*
X127965Y587424D01*
X127889Y587348D01*
X127817Y587270D01*
X127747Y587189D01*
X127680Y587106D01*
X127616Y587021D01*
X127556Y586933D01*
X127499Y586843D01*
X127445Y586751D01*
X127394Y586657D01*
X127347Y586561D01*
X127304Y586463D01*
X127264Y586364D01*
X127227Y586264D01*
X127195Y586163D01*
X127166Y586060D01*
X127141Y585956D01*
X127120Y585852D01*
X127102Y585746D01*
X127089Y585640D01*
X127079Y585534D01*
X127073Y585428D01*
X127071Y585321D01*
X129992Y588242D02*
X130113Y588240D01*
X130234Y588234D01*
X130354Y588224D01*
X130475Y588211D01*
X130594Y588193D01*
X130714Y588172D01*
X130832Y588147D01*
X130949Y588118D01*
X131066Y588085D01*
X131181Y588049D01*
X131295Y588008D01*
X131408Y587965D01*
X131520Y587917D01*
X131629Y587866D01*
X131737Y587811D01*
X131844Y587753D01*
X131948Y587692D01*
X132050Y587627D01*
X132150Y587559D01*
X132248Y587488D01*
X132344Y587414D01*
X132437Y587337D01*
X132527Y587256D01*
X132615Y587173D01*
X132700Y587087D01*
X132783Y586998D01*
X132862Y586907D01*
X132939Y586813D01*
X133012Y586717D01*
X133082Y586619D01*
X133149Y586518D01*
X133213Y586415D01*
X133274Y586310D01*
X133331Y586203D01*
X133384Y586095D01*
X133434Y585985D01*
X133480Y585873D01*
X133523Y585760D01*
X133562Y585645D01*
X128045Y583049D02*
X127966Y583127D01*
X127890Y583207D01*
X127817Y583290D01*
X127747Y583376D01*
X127680Y583463D01*
X127616Y583554D01*
X127556Y583646D01*
X127498Y583740D01*
X127444Y583837D01*
X127394Y583935D01*
X127347Y584035D01*
X127303Y584136D01*
X127263Y584239D01*
X127227Y584344D01*
X127195Y584449D01*
X127166Y584556D01*
X127141Y584663D01*
X127119Y584772D01*
X127102Y584881D01*
X127088Y584990D01*
X127079Y585100D01*
X127073Y585211D01*
X127071Y585321D01*
X128044Y583049D02*
X133562Y576558D01*
X127071Y576558D01*
X148518Y547338D02*
X148518Y535654D01*
X148518Y547338D02*
X145272Y547338D01*
X145159Y547336D01*
X145046Y547330D01*
X144933Y547320D01*
X144820Y547306D01*
X144708Y547289D01*
X144597Y547267D01*
X144487Y547242D01*
X144377Y547212D01*
X144269Y547179D01*
X144162Y547142D01*
X144056Y547102D01*
X143952Y547057D01*
X143849Y547009D01*
X143748Y546958D01*
X143649Y546903D01*
X143552Y546845D01*
X143457Y546783D01*
X143364Y546718D01*
X143274Y546650D01*
X143186Y546579D01*
X143100Y546504D01*
X143017Y546427D01*
X142937Y546347D01*
X142860Y546264D01*
X142785Y546178D01*
X142714Y546090D01*
X142646Y546000D01*
X142581Y545907D01*
X142519Y545812D01*
X142461Y545715D01*
X142406Y545616D01*
X142355Y545515D01*
X142307Y545412D01*
X142262Y545308D01*
X142222Y545202D01*
X142185Y545095D01*
X142152Y544987D01*
X142122Y544877D01*
X142097Y544767D01*
X142075Y544656D01*
X142058Y544544D01*
X142044Y544431D01*
X142034Y544318D01*
X142028Y544205D01*
X142026Y544092D01*
X142028Y543979D01*
X142034Y543866D01*
X142044Y543753D01*
X142058Y543640D01*
X142075Y543528D01*
X142097Y543417D01*
X142122Y543307D01*
X142152Y543197D01*
X142185Y543089D01*
X142222Y542982D01*
X142262Y542876D01*
X142307Y542772D01*
X142355Y542669D01*
X142406Y542568D01*
X142461Y542469D01*
X142519Y542372D01*
X142581Y542277D01*
X142646Y542184D01*
X142714Y542094D01*
X142785Y542006D01*
X142860Y541920D01*
X142937Y541837D01*
X143017Y541757D01*
X143100Y541680D01*
X143186Y541605D01*
X143274Y541534D01*
X143364Y541466D01*
X143457Y541401D01*
X143552Y541339D01*
X143649Y541281D01*
X143748Y541226D01*
X143849Y541175D01*
X143952Y541127D01*
X144056Y541082D01*
X144162Y541042D01*
X144269Y541005D01*
X144377Y540972D01*
X144487Y540942D01*
X144597Y540917D01*
X144708Y540895D01*
X144820Y540878D01*
X144933Y540864D01*
X145046Y540854D01*
X145159Y540848D01*
X145272Y540846D01*
X145272Y540847D02*
X148518Y540847D01*
X144623Y540847D02*
X142027Y535654D01*
X137162Y544742D02*
X133916Y547338D01*
X133916Y535654D01*
X130671Y535654D02*
X137162Y535654D01*
X125732Y541496D02*
X125729Y541726D01*
X125721Y541956D01*
X125707Y542185D01*
X125688Y542414D01*
X125663Y542643D01*
X125633Y542871D01*
X125598Y543098D01*
X125557Y543324D01*
X125511Y543549D01*
X125459Y543773D01*
X125402Y543996D01*
X125340Y544217D01*
X125272Y544437D01*
X125199Y544655D01*
X125121Y544871D01*
X125038Y545085D01*
X124950Y545298D01*
X124857Y545508D01*
X124758Y545715D01*
X124725Y545805D01*
X124689Y545894D01*
X124649Y545982D01*
X124605Y546067D01*
X124558Y546151D01*
X124508Y546233D01*
X124454Y546313D01*
X124398Y546390D01*
X124338Y546466D01*
X124275Y546539D01*
X124210Y546609D01*
X124141Y546677D01*
X124070Y546741D01*
X123997Y546803D01*
X123921Y546862D01*
X123843Y546918D01*
X123762Y546971D01*
X123680Y547020D01*
X123596Y547066D01*
X123509Y547109D01*
X123422Y547148D01*
X123332Y547184D01*
X123242Y547216D01*
X123150Y547244D01*
X123057Y547269D01*
X122963Y547290D01*
X122869Y547307D01*
X122774Y547321D01*
X122678Y547330D01*
X122582Y547336D01*
X122486Y547338D01*
X122390Y547336D01*
X122294Y547330D01*
X122198Y547321D01*
X122103Y547307D01*
X122009Y547290D01*
X121915Y547269D01*
X121822Y547244D01*
X121730Y547216D01*
X121640Y547184D01*
X121550Y547148D01*
X121463Y547109D01*
X121376Y547066D01*
X121292Y547020D01*
X121210Y546971D01*
X121129Y546918D01*
X121051Y546862D01*
X120975Y546803D01*
X120902Y546741D01*
X120831Y546677D01*
X120762Y546609D01*
X120697Y546539D01*
X120634Y546466D01*
X120574Y546391D01*
X120518Y546313D01*
X120464Y546233D01*
X120414Y546151D01*
X120367Y546067D01*
X120324Y545982D01*
X120283Y545894D01*
X120247Y545805D01*
X120214Y545715D01*
X120215Y545715D02*
X120116Y545507D01*
X120023Y545297D01*
X119935Y545085D01*
X119852Y544871D01*
X119774Y544654D01*
X119701Y544436D01*
X119633Y544217D01*
X119571Y543995D01*
X119514Y543773D01*
X119462Y543549D01*
X119416Y543324D01*
X119375Y543098D01*
X119340Y542870D01*
X119310Y542643D01*
X119285Y542414D01*
X119266Y542185D01*
X119252Y541956D01*
X119244Y541726D01*
X119241Y541496D01*
X125732Y541496D02*
X125729Y541266D01*
X125721Y541036D01*
X125707Y540807D01*
X125688Y540578D01*
X125663Y540349D01*
X125633Y540121D01*
X125598Y539894D01*
X125557Y539668D01*
X125511Y539443D01*
X125459Y539219D01*
X125402Y538996D01*
X125340Y538775D01*
X125272Y538555D01*
X125199Y538337D01*
X125121Y538121D01*
X125038Y537907D01*
X124950Y537695D01*
X124857Y537484D01*
X124758Y537277D01*
X124725Y537187D01*
X124689Y537098D01*
X124648Y537010D01*
X124605Y536925D01*
X124558Y536841D01*
X124508Y536759D01*
X124454Y536679D01*
X124398Y536602D01*
X124338Y536526D01*
X124275Y536453D01*
X124210Y536383D01*
X124141Y536315D01*
X124070Y536251D01*
X123997Y536189D01*
X123921Y536130D01*
X123843Y536074D01*
X123762Y536021D01*
X123680Y535972D01*
X123596Y535926D01*
X123509Y535883D01*
X123422Y535844D01*
X123332Y535808D01*
X123242Y535776D01*
X123150Y535748D01*
X123057Y535723D01*
X122963Y535702D01*
X122869Y535685D01*
X122774Y535671D01*
X122678Y535662D01*
X122582Y535656D01*
X122486Y535654D01*
X120214Y537277D02*
X120115Y537484D01*
X120022Y537695D01*
X119934Y537907D01*
X119851Y538121D01*
X119773Y538337D01*
X119700Y538555D01*
X119632Y538775D01*
X119570Y538996D01*
X119513Y539219D01*
X119461Y539443D01*
X119415Y539668D01*
X119374Y539894D01*
X119339Y540121D01*
X119309Y540349D01*
X119284Y540578D01*
X119265Y540807D01*
X119251Y541036D01*
X119243Y541266D01*
X119240Y541496D01*
X120214Y537277D02*
X120247Y537187D01*
X120283Y537098D01*
X120324Y537010D01*
X120367Y536925D01*
X120414Y536841D01*
X120464Y536759D01*
X120518Y536679D01*
X120574Y536601D01*
X120634Y536526D01*
X120697Y536453D01*
X120762Y536383D01*
X120831Y536315D01*
X120902Y536251D01*
X120975Y536189D01*
X121051Y536130D01*
X121129Y536074D01*
X121210Y536021D01*
X121292Y535972D01*
X121376Y535926D01*
X121463Y535883D01*
X121550Y535844D01*
X121640Y535808D01*
X121730Y535776D01*
X121822Y535748D01*
X121915Y535723D01*
X122009Y535702D01*
X122103Y535685D01*
X122198Y535671D01*
X122294Y535662D01*
X122390Y535656D01*
X122486Y535654D01*
X125083Y538250D02*
X119890Y544742D01*
D12*
X144102Y207225D03*
D13*
X151352Y212475D03*
D11*
X166061Y228383D02*
X166061Y240067D01*
X166061Y228383D02*
X160869Y228383D01*
X156155Y228383D02*
X150963Y228383D01*
X156155Y228383D02*
X156155Y240067D01*
X150963Y240067D01*
X152261Y234874D02*
X156155Y234874D01*
X146272Y240067D02*
X146272Y228383D01*
X146272Y240067D02*
X143027Y240067D01*
X142914Y240065D01*
X142801Y240059D01*
X142688Y240049D01*
X142575Y240035D01*
X142463Y240018D01*
X142352Y239996D01*
X142242Y239971D01*
X142132Y239941D01*
X142024Y239908D01*
X141917Y239871D01*
X141811Y239831D01*
X141707Y239786D01*
X141604Y239738D01*
X141503Y239687D01*
X141404Y239632D01*
X141307Y239574D01*
X141212Y239512D01*
X141119Y239447D01*
X141029Y239379D01*
X140941Y239308D01*
X140855Y239233D01*
X140772Y239156D01*
X140692Y239076D01*
X140615Y238993D01*
X140540Y238907D01*
X140469Y238819D01*
X140401Y238729D01*
X140336Y238636D01*
X140274Y238541D01*
X140216Y238444D01*
X140161Y238345D01*
X140110Y238244D01*
X140062Y238141D01*
X140017Y238037D01*
X139977Y237931D01*
X139940Y237824D01*
X139907Y237716D01*
X139877Y237606D01*
X139852Y237496D01*
X139830Y237385D01*
X139813Y237273D01*
X139799Y237160D01*
X139789Y237047D01*
X139783Y236934D01*
X139781Y236821D01*
X139781Y231629D01*
X139783Y231516D01*
X139789Y231403D01*
X139799Y231290D01*
X139813Y231177D01*
X139830Y231065D01*
X139852Y230954D01*
X139877Y230844D01*
X139907Y230734D01*
X139940Y230626D01*
X139977Y230519D01*
X140017Y230413D01*
X140062Y230309D01*
X140110Y230206D01*
X140161Y230105D01*
X140216Y230006D01*
X140274Y229909D01*
X140336Y229814D01*
X140401Y229721D01*
X140469Y229631D01*
X140540Y229543D01*
X140615Y229457D01*
X140692Y229374D01*
X140772Y229294D01*
X140855Y229217D01*
X140941Y229142D01*
X141029Y229071D01*
X141119Y229003D01*
X141212Y228938D01*
X141307Y228876D01*
X141404Y228818D01*
X141503Y228763D01*
X141604Y228712D01*
X141707Y228664D01*
X141811Y228619D01*
X141917Y228579D01*
X142024Y228542D01*
X142132Y228509D01*
X142242Y228479D01*
X142352Y228454D01*
X142463Y228432D01*
X142575Y228415D01*
X142688Y228401D01*
X142801Y228391D01*
X142914Y228385D01*
X143027Y228383D01*
X146272Y228383D01*
X134461Y228383D02*
X131216Y228383D01*
X131103Y228385D01*
X130990Y228391D01*
X130877Y228401D01*
X130764Y228415D01*
X130652Y228432D01*
X130541Y228454D01*
X130431Y228479D01*
X130321Y228509D01*
X130213Y228542D01*
X130106Y228579D01*
X130000Y228619D01*
X129896Y228664D01*
X129793Y228712D01*
X129692Y228763D01*
X129593Y228818D01*
X129496Y228876D01*
X129401Y228938D01*
X129308Y229003D01*
X129218Y229071D01*
X129130Y229142D01*
X129044Y229217D01*
X128961Y229294D01*
X128881Y229374D01*
X128804Y229457D01*
X128729Y229543D01*
X128658Y229631D01*
X128590Y229721D01*
X128525Y229814D01*
X128463Y229909D01*
X128405Y230006D01*
X128350Y230105D01*
X128299Y230206D01*
X128251Y230309D01*
X128206Y230413D01*
X128166Y230519D01*
X128129Y230626D01*
X128096Y230734D01*
X128066Y230844D01*
X128041Y230954D01*
X128019Y231065D01*
X128002Y231177D01*
X127988Y231290D01*
X127978Y231403D01*
X127972Y231516D01*
X127970Y231629D01*
X127972Y231742D01*
X127978Y231855D01*
X127988Y231968D01*
X128002Y232081D01*
X128019Y232193D01*
X128041Y232304D01*
X128066Y232414D01*
X128096Y232524D01*
X128129Y232632D01*
X128166Y232739D01*
X128206Y232845D01*
X128251Y232949D01*
X128299Y233052D01*
X128350Y233153D01*
X128405Y233252D01*
X128463Y233349D01*
X128525Y233444D01*
X128590Y233537D01*
X128658Y233627D01*
X128729Y233715D01*
X128804Y233801D01*
X128881Y233884D01*
X128961Y233964D01*
X129044Y234041D01*
X129130Y234116D01*
X129218Y234187D01*
X129308Y234255D01*
X129401Y234320D01*
X129496Y234382D01*
X129593Y234440D01*
X129692Y234495D01*
X129793Y234546D01*
X129896Y234594D01*
X130000Y234639D01*
X130106Y234679D01*
X130213Y234716D01*
X130321Y234749D01*
X130431Y234779D01*
X130541Y234804D01*
X130652Y234826D01*
X130764Y234843D01*
X130877Y234857D01*
X130990Y234867D01*
X131103Y234873D01*
X131216Y234875D01*
X130566Y240067D02*
X134461Y240067D01*
X130566Y240067D02*
X130465Y240065D01*
X130365Y240059D01*
X130265Y240049D01*
X130165Y240036D01*
X130066Y240018D01*
X129967Y239997D01*
X129870Y239972D01*
X129773Y239943D01*
X129678Y239910D01*
X129584Y239874D01*
X129492Y239834D01*
X129401Y239791D01*
X129312Y239744D01*
X129225Y239694D01*
X129139Y239640D01*
X129056Y239583D01*
X128976Y239523D01*
X128897Y239460D01*
X128821Y239393D01*
X128748Y239324D01*
X128678Y239252D01*
X128610Y239178D01*
X128545Y239101D01*
X128484Y239021D01*
X128425Y238939D01*
X128370Y238855D01*
X128318Y238769D01*
X128269Y238681D01*
X128224Y238591D01*
X128182Y238499D01*
X128144Y238406D01*
X128110Y238311D01*
X128079Y238216D01*
X128052Y238119D01*
X128029Y238021D01*
X128009Y237922D01*
X127994Y237822D01*
X127982Y237722D01*
X127974Y237622D01*
X127970Y237521D01*
X127970Y237421D01*
X127974Y237320D01*
X127982Y237220D01*
X127994Y237120D01*
X128009Y237020D01*
X128029Y236921D01*
X128052Y236823D01*
X128079Y236726D01*
X128110Y236631D01*
X128144Y236536D01*
X128182Y236443D01*
X128224Y236351D01*
X128269Y236261D01*
X128318Y236173D01*
X128370Y236087D01*
X128425Y236003D01*
X128484Y235921D01*
X128545Y235841D01*
X128610Y235764D01*
X128678Y235690D01*
X128748Y235618D01*
X128821Y235549D01*
X128897Y235482D01*
X128976Y235419D01*
X129056Y235359D01*
X129139Y235302D01*
X129225Y235248D01*
X129312Y235198D01*
X129401Y235151D01*
X129492Y235108D01*
X129584Y235068D01*
X129678Y235032D01*
X129773Y234999D01*
X129870Y234970D01*
X129967Y234945D01*
X130066Y234924D01*
X130165Y234906D01*
X130265Y234893D01*
X130365Y234883D01*
X130465Y234877D01*
X130566Y234875D01*
X130566Y234874D02*
X133163Y234874D01*
X175782Y196022D02*
X175782Y184338D01*
X175782Y196022D02*
X172536Y196022D01*
X172423Y196020D01*
X172310Y196014D01*
X172197Y196004D01*
X172084Y195990D01*
X171972Y195973D01*
X171861Y195951D01*
X171751Y195926D01*
X171641Y195896D01*
X171533Y195863D01*
X171426Y195826D01*
X171320Y195786D01*
X171216Y195741D01*
X171113Y195693D01*
X171012Y195642D01*
X170913Y195587D01*
X170816Y195529D01*
X170721Y195467D01*
X170628Y195402D01*
X170538Y195334D01*
X170450Y195263D01*
X170364Y195188D01*
X170281Y195111D01*
X170201Y195031D01*
X170124Y194948D01*
X170049Y194862D01*
X169978Y194774D01*
X169910Y194684D01*
X169845Y194591D01*
X169783Y194496D01*
X169725Y194399D01*
X169670Y194300D01*
X169619Y194199D01*
X169571Y194096D01*
X169526Y193992D01*
X169486Y193886D01*
X169449Y193779D01*
X169416Y193671D01*
X169386Y193561D01*
X169361Y193451D01*
X169339Y193340D01*
X169322Y193228D01*
X169308Y193115D01*
X169298Y193002D01*
X169292Y192889D01*
X169290Y192776D01*
X169292Y192663D01*
X169298Y192550D01*
X169308Y192437D01*
X169322Y192324D01*
X169339Y192212D01*
X169361Y192101D01*
X169386Y191991D01*
X169416Y191881D01*
X169449Y191773D01*
X169486Y191666D01*
X169526Y191560D01*
X169571Y191456D01*
X169619Y191353D01*
X169670Y191252D01*
X169725Y191153D01*
X169783Y191056D01*
X169845Y190961D01*
X169910Y190868D01*
X169978Y190778D01*
X170049Y190690D01*
X170124Y190604D01*
X170201Y190521D01*
X170281Y190441D01*
X170364Y190364D01*
X170450Y190289D01*
X170538Y190218D01*
X170628Y190150D01*
X170721Y190085D01*
X170816Y190023D01*
X170913Y189965D01*
X171012Y189910D01*
X171113Y189859D01*
X171216Y189811D01*
X171320Y189766D01*
X171426Y189726D01*
X171533Y189689D01*
X171641Y189656D01*
X171751Y189626D01*
X171861Y189601D01*
X171972Y189579D01*
X172084Y189562D01*
X172197Y189548D01*
X172310Y189538D01*
X172423Y189532D01*
X172536Y189530D01*
X172536Y189531D02*
X175782Y189531D01*
X171887Y189531D02*
X169291Y184338D01*
X164426Y193426D02*
X161180Y196022D01*
X161180Y184338D01*
X157935Y184338D02*
X164426Y184338D01*
X152996Y193426D02*
X149750Y196022D01*
X149750Y184338D01*
X146505Y184338D02*
X152996Y184338D01*
D12*
X583280Y217725D03*
D13*
X576030Y212475D03*
D11*
X590522Y222983D02*
X590522Y234667D01*
X590522Y222983D02*
X585329Y222983D01*
X580616Y222983D02*
X575423Y222983D01*
X580616Y222983D02*
X580616Y234667D01*
X575423Y234667D01*
X576721Y229474D02*
X580616Y229474D01*
X570733Y234667D02*
X570733Y222983D01*
X570733Y234667D02*
X567487Y234667D01*
X567374Y234665D01*
X567261Y234659D01*
X567148Y234649D01*
X567035Y234635D01*
X566923Y234618D01*
X566812Y234596D01*
X566702Y234571D01*
X566592Y234541D01*
X566484Y234508D01*
X566377Y234471D01*
X566271Y234431D01*
X566167Y234386D01*
X566064Y234338D01*
X565963Y234287D01*
X565864Y234232D01*
X565767Y234174D01*
X565672Y234112D01*
X565579Y234047D01*
X565489Y233979D01*
X565401Y233908D01*
X565315Y233833D01*
X565232Y233756D01*
X565152Y233676D01*
X565075Y233593D01*
X565000Y233507D01*
X564929Y233419D01*
X564861Y233329D01*
X564796Y233236D01*
X564734Y233141D01*
X564676Y233044D01*
X564621Y232945D01*
X564570Y232844D01*
X564522Y232741D01*
X564477Y232637D01*
X564437Y232531D01*
X564400Y232424D01*
X564367Y232316D01*
X564337Y232206D01*
X564312Y232096D01*
X564290Y231985D01*
X564273Y231873D01*
X564259Y231760D01*
X564249Y231647D01*
X564243Y231534D01*
X564241Y231421D01*
X564242Y231421D02*
X564242Y226229D01*
X564241Y226229D02*
X564243Y226116D01*
X564249Y226003D01*
X564259Y225890D01*
X564273Y225777D01*
X564290Y225665D01*
X564312Y225554D01*
X564337Y225444D01*
X564367Y225334D01*
X564400Y225226D01*
X564437Y225119D01*
X564477Y225013D01*
X564522Y224909D01*
X564570Y224806D01*
X564621Y224705D01*
X564676Y224606D01*
X564734Y224509D01*
X564796Y224414D01*
X564861Y224321D01*
X564929Y224231D01*
X565000Y224143D01*
X565075Y224057D01*
X565152Y223974D01*
X565232Y223894D01*
X565315Y223817D01*
X565401Y223742D01*
X565489Y223671D01*
X565579Y223603D01*
X565672Y223538D01*
X565767Y223476D01*
X565864Y223418D01*
X565963Y223363D01*
X566064Y223312D01*
X566167Y223264D01*
X566271Y223219D01*
X566377Y223179D01*
X566484Y223142D01*
X566592Y223109D01*
X566702Y223079D01*
X566812Y223054D01*
X566923Y223032D01*
X567035Y223015D01*
X567148Y223001D01*
X567261Y222991D01*
X567374Y222985D01*
X567487Y222983D01*
X570733Y222983D01*
X558922Y225579D02*
X556325Y234667D01*
X558922Y225579D02*
X552431Y225579D01*
X554378Y228176D02*
X554378Y222983D01*
X583255Y188892D02*
X583255Y177208D01*
X583255Y188892D02*
X580010Y188892D01*
X579897Y188890D01*
X579784Y188884D01*
X579671Y188874D01*
X579558Y188860D01*
X579446Y188843D01*
X579335Y188821D01*
X579225Y188796D01*
X579115Y188766D01*
X579007Y188733D01*
X578900Y188696D01*
X578794Y188656D01*
X578690Y188611D01*
X578587Y188563D01*
X578486Y188512D01*
X578387Y188457D01*
X578290Y188399D01*
X578195Y188337D01*
X578102Y188272D01*
X578012Y188204D01*
X577924Y188133D01*
X577838Y188058D01*
X577755Y187981D01*
X577675Y187901D01*
X577598Y187818D01*
X577523Y187732D01*
X577452Y187644D01*
X577384Y187554D01*
X577319Y187461D01*
X577257Y187366D01*
X577199Y187269D01*
X577144Y187170D01*
X577093Y187069D01*
X577045Y186966D01*
X577000Y186862D01*
X576960Y186756D01*
X576923Y186649D01*
X576890Y186541D01*
X576860Y186431D01*
X576835Y186321D01*
X576813Y186210D01*
X576796Y186098D01*
X576782Y185985D01*
X576772Y185872D01*
X576766Y185759D01*
X576764Y185646D01*
X576766Y185533D01*
X576772Y185420D01*
X576782Y185307D01*
X576796Y185194D01*
X576813Y185082D01*
X576835Y184971D01*
X576860Y184861D01*
X576890Y184751D01*
X576923Y184643D01*
X576960Y184536D01*
X577000Y184430D01*
X577045Y184326D01*
X577093Y184223D01*
X577144Y184122D01*
X577199Y184023D01*
X577257Y183926D01*
X577319Y183831D01*
X577384Y183738D01*
X577452Y183648D01*
X577523Y183560D01*
X577598Y183474D01*
X577675Y183391D01*
X577755Y183311D01*
X577838Y183234D01*
X577924Y183159D01*
X578012Y183088D01*
X578102Y183020D01*
X578195Y182955D01*
X578290Y182893D01*
X578387Y182835D01*
X578486Y182780D01*
X578587Y182729D01*
X578690Y182681D01*
X578794Y182636D01*
X578900Y182596D01*
X579007Y182559D01*
X579115Y182526D01*
X579225Y182496D01*
X579335Y182471D01*
X579446Y182449D01*
X579558Y182432D01*
X579671Y182418D01*
X579784Y182408D01*
X579897Y182402D01*
X580010Y182400D01*
X580010Y182401D02*
X583255Y182401D01*
X579361Y182401D02*
X576764Y177208D01*
X571899Y186296D02*
X568654Y188892D01*
X568654Y177208D01*
X571899Y177208D02*
X565408Y177208D01*
X553978Y185971D02*
X553980Y186078D01*
X553986Y186184D01*
X553996Y186290D01*
X554009Y186396D01*
X554027Y186502D01*
X554048Y186606D01*
X554073Y186710D01*
X554102Y186813D01*
X554134Y186914D01*
X554171Y187014D01*
X554211Y187113D01*
X554254Y187211D01*
X554301Y187307D01*
X554352Y187401D01*
X554406Y187493D01*
X554463Y187583D01*
X554523Y187671D01*
X554587Y187756D01*
X554654Y187839D01*
X554724Y187920D01*
X554796Y187998D01*
X554872Y188074D01*
X554950Y188146D01*
X555031Y188216D01*
X555114Y188283D01*
X555199Y188347D01*
X555287Y188407D01*
X555377Y188464D01*
X555469Y188518D01*
X555563Y188569D01*
X555659Y188616D01*
X555757Y188659D01*
X555856Y188699D01*
X555956Y188736D01*
X556057Y188768D01*
X556160Y188797D01*
X556264Y188822D01*
X556368Y188843D01*
X556474Y188861D01*
X556580Y188874D01*
X556686Y188884D01*
X556792Y188890D01*
X556899Y188892D01*
X557020Y188890D01*
X557141Y188884D01*
X557261Y188874D01*
X557382Y188861D01*
X557501Y188843D01*
X557621Y188822D01*
X557739Y188797D01*
X557856Y188768D01*
X557973Y188735D01*
X558088Y188699D01*
X558202Y188658D01*
X558315Y188615D01*
X558427Y188567D01*
X558536Y188516D01*
X558644Y188461D01*
X558751Y188403D01*
X558855Y188342D01*
X558957Y188277D01*
X559057Y188209D01*
X559155Y188138D01*
X559251Y188064D01*
X559344Y187987D01*
X559434Y187906D01*
X559522Y187823D01*
X559607Y187737D01*
X559690Y187648D01*
X559769Y187557D01*
X559846Y187463D01*
X559919Y187367D01*
X559989Y187269D01*
X560056Y187168D01*
X560120Y187065D01*
X560181Y186960D01*
X560238Y186853D01*
X560291Y186745D01*
X560341Y186635D01*
X560387Y186523D01*
X560430Y186410D01*
X560469Y186295D01*
X554952Y183699D02*
X554873Y183777D01*
X554797Y183857D01*
X554724Y183940D01*
X554654Y184026D01*
X554587Y184113D01*
X554523Y184204D01*
X554463Y184296D01*
X554405Y184390D01*
X554351Y184487D01*
X554301Y184585D01*
X554254Y184685D01*
X554210Y184786D01*
X554170Y184889D01*
X554134Y184994D01*
X554102Y185099D01*
X554073Y185206D01*
X554048Y185313D01*
X554026Y185422D01*
X554009Y185531D01*
X553995Y185640D01*
X553986Y185750D01*
X553980Y185861D01*
X553978Y185971D01*
X554952Y183699D02*
X560469Y177208D01*
X553978Y177208D01*
X435152Y510975D02*
X423468Y510975D01*
X435152Y510975D02*
X435152Y514220D01*
X435150Y514333D01*
X435144Y514446D01*
X435134Y514559D01*
X435120Y514672D01*
X435103Y514784D01*
X435081Y514895D01*
X435056Y515005D01*
X435026Y515115D01*
X434993Y515223D01*
X434956Y515330D01*
X434916Y515436D01*
X434871Y515540D01*
X434823Y515643D01*
X434772Y515744D01*
X434717Y515843D01*
X434659Y515940D01*
X434597Y516035D01*
X434532Y516128D01*
X434464Y516218D01*
X434393Y516306D01*
X434318Y516392D01*
X434241Y516475D01*
X434161Y516555D01*
X434078Y516632D01*
X433992Y516707D01*
X433904Y516778D01*
X433814Y516846D01*
X433721Y516911D01*
X433626Y516973D01*
X433529Y517031D01*
X433430Y517086D01*
X433329Y517137D01*
X433226Y517185D01*
X433122Y517230D01*
X433016Y517270D01*
X432909Y517307D01*
X432801Y517340D01*
X432691Y517370D01*
X432581Y517395D01*
X432470Y517417D01*
X432358Y517434D01*
X432245Y517448D01*
X432132Y517458D01*
X432019Y517464D01*
X431906Y517466D01*
X431793Y517464D01*
X431680Y517458D01*
X431567Y517448D01*
X431454Y517434D01*
X431342Y517417D01*
X431231Y517395D01*
X431121Y517370D01*
X431011Y517340D01*
X430903Y517307D01*
X430796Y517270D01*
X430690Y517230D01*
X430586Y517185D01*
X430483Y517137D01*
X430382Y517086D01*
X430283Y517031D01*
X430186Y516973D01*
X430091Y516911D01*
X429998Y516846D01*
X429908Y516778D01*
X429820Y516707D01*
X429734Y516632D01*
X429651Y516555D01*
X429571Y516475D01*
X429494Y516392D01*
X429419Y516306D01*
X429348Y516218D01*
X429280Y516128D01*
X429215Y516035D01*
X429153Y515940D01*
X429095Y515843D01*
X429040Y515744D01*
X428989Y515643D01*
X428941Y515540D01*
X428896Y515436D01*
X428856Y515330D01*
X428819Y515223D01*
X428786Y515115D01*
X428756Y515005D01*
X428731Y514895D01*
X428709Y514784D01*
X428692Y514672D01*
X428678Y514559D01*
X428668Y514446D01*
X428662Y514333D01*
X428660Y514220D01*
X428661Y514220D02*
X428661Y510975D01*
X428661Y514869D02*
X423468Y517466D01*
X433854Y522331D02*
X435152Y522331D01*
X435152Y528822D01*
X423468Y525576D01*
M02*
