G04 EAGLE Gerber RS-274X export*
G75*
%MOMM*%
%FSLAX34Y34*%
%LPD*%
%INBottom layer*%
%IPPOS*%
%AMOC8*
5,1,8,0,0,1.08239X$1,22.5*%
G01*
%ADD10C,0.152400*%
%ADD11C,1.683000*%
%ADD12C,1.000000*%
%ADD13C,1.100000*%
%ADD14R,1.100000X1.500000*%
%ADD15R,0.800000X0.900000*%
%ADD16R,1.500000X1.500000*%
%ADD17R,1.300000X1.500000*%
%ADD18C,1.200000*%
%ADD19C,1.800000*%
%ADD20R,1.500000X1.300000*%
%ADD21C,0.863600*%
%ADD22C,0.508000*%
%ADD23C,0.609600*%
%ADD24C,0.254000*%

G36*
X300093Y11147D02*
X300093Y11147D01*
X300148Y11148D01*
X300213Y11172D01*
X300280Y11187D01*
X300327Y11215D01*
X300378Y11235D01*
X300432Y11278D01*
X300491Y11313D01*
X300527Y11355D01*
X300569Y11390D01*
X300606Y11448D01*
X300651Y11500D01*
X300671Y11551D01*
X300701Y11598D01*
X300717Y11664D01*
X300743Y11728D01*
X300751Y11805D01*
X300759Y11837D01*
X300757Y11858D01*
X300761Y11895D01*
X300761Y74239D01*
X419239Y74239D01*
X419239Y12194D01*
X419253Y12107D01*
X419259Y12019D01*
X419273Y11986D01*
X419279Y11951D01*
X419320Y11874D01*
X419354Y11792D01*
X419377Y11765D01*
X419394Y11734D01*
X419457Y11673D01*
X419516Y11607D01*
X419546Y11589D01*
X419572Y11565D01*
X419652Y11528D01*
X419728Y11483D01*
X419763Y11476D01*
X419795Y11461D01*
X419883Y11451D01*
X419969Y11434D01*
X420015Y11437D01*
X420039Y11434D01*
X420070Y11441D01*
X420136Y11445D01*
X441307Y15303D01*
X441333Y15312D01*
X441384Y15321D01*
X476318Y25490D01*
X476343Y25502D01*
X476392Y25516D01*
X500108Y35161D01*
X500193Y35213D01*
X500281Y35260D01*
X500297Y35277D01*
X500317Y35289D01*
X500382Y35366D01*
X500450Y35438D01*
X500460Y35459D01*
X500475Y35478D01*
X500512Y35570D01*
X500554Y35661D01*
X500557Y35685D01*
X500565Y35707D01*
X500570Y35806D01*
X500581Y35905D01*
X500576Y35929D01*
X500577Y35952D01*
X500550Y36048D01*
X500529Y36146D01*
X500517Y36166D01*
X500510Y36189D01*
X500454Y36271D01*
X500403Y36357D01*
X500385Y36372D01*
X500371Y36392D01*
X500292Y36452D01*
X500216Y36517D01*
X500194Y36526D01*
X500175Y36540D01*
X500080Y36571D01*
X499988Y36609D01*
X499958Y36612D01*
X499941Y36618D01*
X499909Y36618D01*
X499821Y36627D01*
X497982Y36627D01*
X495030Y37850D01*
X492770Y40110D01*
X491547Y43062D01*
X491547Y58258D01*
X492770Y61210D01*
X495030Y63470D01*
X497982Y64693D01*
X501178Y64693D01*
X504130Y63470D01*
X505386Y62214D01*
X505402Y62202D01*
X505415Y62186D01*
X505502Y62130D01*
X505586Y62070D01*
X505605Y62064D01*
X505622Y62053D01*
X505722Y62028D01*
X505821Y61998D01*
X505841Y61998D01*
X505860Y61993D01*
X505963Y62001D01*
X506067Y62004D01*
X506086Y62011D01*
X506106Y62013D01*
X506200Y62053D01*
X506298Y62089D01*
X506314Y62101D01*
X506332Y62109D01*
X506463Y62214D01*
X532770Y88521D01*
X534928Y90679D01*
X564483Y90679D01*
X564573Y90693D01*
X564664Y90701D01*
X564693Y90713D01*
X564725Y90718D01*
X564806Y90761D01*
X564890Y90797D01*
X564922Y90823D01*
X564943Y90834D01*
X564965Y90857D01*
X565021Y90902D01*
X589310Y115191D01*
X589363Y115265D01*
X589423Y115334D01*
X589435Y115365D01*
X589454Y115391D01*
X589481Y115478D01*
X589515Y115563D01*
X589519Y115604D01*
X589526Y115626D01*
X589525Y115658D01*
X589533Y115729D01*
X589533Y202181D01*
X589530Y202201D01*
X589532Y202220D01*
X589510Y202322D01*
X589494Y202424D01*
X589484Y202441D01*
X589480Y202461D01*
X589427Y202550D01*
X589378Y202641D01*
X589364Y202655D01*
X589354Y202672D01*
X589275Y202739D01*
X589200Y202811D01*
X589182Y202819D01*
X589167Y202832D01*
X589071Y202871D01*
X588977Y202914D01*
X588957Y202916D01*
X588939Y202924D01*
X588772Y202942D01*
X585188Y202942D01*
X583997Y204133D01*
X583997Y220817D01*
X585188Y222008D01*
X598077Y222008D01*
X598167Y222022D01*
X598258Y222030D01*
X598287Y222042D01*
X598319Y222047D01*
X598400Y222090D01*
X598484Y222126D01*
X598516Y222152D01*
X598537Y222163D01*
X598559Y222186D01*
X598615Y222231D01*
X644174Y267790D01*
X644227Y267864D01*
X644287Y267933D01*
X644299Y267964D01*
X644318Y267990D01*
X644345Y268077D01*
X644379Y268162D01*
X644383Y268203D01*
X644390Y268225D01*
X644389Y268257D01*
X644397Y268328D01*
X644397Y535527D01*
X644383Y535617D01*
X644375Y535708D01*
X644363Y535737D01*
X644358Y535769D01*
X644315Y535850D01*
X644279Y535934D01*
X644253Y535966D01*
X644242Y535987D01*
X644219Y536009D01*
X644174Y536065D01*
X633347Y546892D01*
X633273Y546945D01*
X633204Y547005D01*
X633173Y547017D01*
X633147Y547036D01*
X633060Y547063D01*
X632975Y547097D01*
X632934Y547101D01*
X632912Y547108D01*
X632880Y547107D01*
X632809Y547115D01*
X592086Y547115D01*
X592066Y547112D01*
X592047Y547114D01*
X591945Y547092D01*
X591843Y547076D01*
X591826Y547066D01*
X591806Y547062D01*
X591717Y547009D01*
X591626Y546960D01*
X591612Y546946D01*
X591595Y546936D01*
X591528Y546857D01*
X591456Y546782D01*
X591448Y546764D01*
X591435Y546749D01*
X591396Y546653D01*
X591353Y546559D01*
X591351Y546539D01*
X591343Y546521D01*
X591325Y546354D01*
X591325Y542070D01*
X591328Y542050D01*
X591326Y542031D01*
X591348Y541929D01*
X591364Y541827D01*
X591374Y541810D01*
X591378Y541790D01*
X591431Y541701D01*
X591480Y541610D01*
X591494Y541596D01*
X591504Y541579D01*
X591583Y541512D01*
X591658Y541440D01*
X591676Y541432D01*
X591691Y541419D01*
X591787Y541380D01*
X591881Y541337D01*
X591901Y541335D01*
X591919Y541327D01*
X592086Y541309D01*
X596364Y541309D01*
X597555Y540118D01*
X597555Y523434D01*
X596364Y522243D01*
X579680Y522243D01*
X578489Y523434D01*
X578489Y540118D01*
X579680Y541309D01*
X583958Y541309D01*
X583978Y541312D01*
X583997Y541310D01*
X584099Y541332D01*
X584201Y541348D01*
X584218Y541358D01*
X584238Y541362D01*
X584327Y541415D01*
X584418Y541464D01*
X584432Y541478D01*
X584449Y541488D01*
X584516Y541567D01*
X584588Y541642D01*
X584596Y541660D01*
X584609Y541675D01*
X584648Y541771D01*
X584691Y541865D01*
X584693Y541885D01*
X584701Y541903D01*
X584719Y542070D01*
X584719Y543706D01*
X584700Y543820D01*
X584683Y543936D01*
X584681Y543942D01*
X584680Y543948D01*
X584625Y544051D01*
X584572Y544156D01*
X584567Y544160D01*
X584564Y544166D01*
X584480Y544246D01*
X584396Y544328D01*
X584390Y544332D01*
X584386Y544335D01*
X584369Y544343D01*
X584249Y544409D01*
X582127Y545288D01*
X580340Y547075D01*
X579373Y549409D01*
X579373Y551935D01*
X580340Y554269D01*
X582127Y556056D01*
X584461Y557023D01*
X586987Y557023D01*
X589321Y556056D01*
X591108Y554269D01*
X591140Y554191D01*
X591202Y554091D01*
X591262Y553991D01*
X591267Y553987D01*
X591270Y553982D01*
X591360Y553907D01*
X591449Y553831D01*
X591455Y553829D01*
X591460Y553825D01*
X591568Y553783D01*
X591677Y553739D01*
X591685Y553738D01*
X591689Y553737D01*
X591708Y553736D01*
X591844Y553721D01*
X635860Y553721D01*
X651003Y538578D01*
X651003Y265277D01*
X603286Y217560D01*
X603233Y217486D01*
X603173Y217417D01*
X603161Y217386D01*
X603142Y217360D01*
X603115Y217273D01*
X603081Y217188D01*
X603077Y217147D01*
X603070Y217125D01*
X603071Y217093D01*
X603063Y217022D01*
X603063Y204133D01*
X601872Y202942D01*
X596900Y202942D01*
X596880Y202939D01*
X596861Y202941D01*
X596759Y202919D01*
X596657Y202903D01*
X596640Y202893D01*
X596620Y202889D01*
X596531Y202836D01*
X596440Y202787D01*
X596426Y202773D01*
X596409Y202763D01*
X596342Y202684D01*
X596270Y202609D01*
X596262Y202591D01*
X596249Y202576D01*
X596210Y202480D01*
X596167Y202386D01*
X596165Y202366D01*
X596157Y202348D01*
X596139Y202181D01*
X596139Y112678D01*
X567534Y84073D01*
X537979Y84073D01*
X537889Y84059D01*
X537798Y84051D01*
X537769Y84039D01*
X537737Y84034D01*
X537656Y83991D01*
X537572Y83955D01*
X537540Y83929D01*
X537519Y83918D01*
X537497Y83895D01*
X537441Y83850D01*
X507836Y54245D01*
X507783Y54171D01*
X507723Y54102D01*
X507711Y54071D01*
X507692Y54045D01*
X507665Y53958D01*
X507631Y53873D01*
X507627Y53832D01*
X507620Y53810D01*
X507621Y53778D01*
X507613Y53707D01*
X507613Y43062D01*
X506390Y40110D01*
X505016Y38736D01*
X504961Y38659D01*
X504900Y38586D01*
X504889Y38560D01*
X504873Y38536D01*
X504845Y38446D01*
X504810Y38357D01*
X504809Y38329D01*
X504800Y38301D01*
X504803Y38206D01*
X504798Y38112D01*
X504806Y38084D01*
X504807Y38055D01*
X504839Y37966D01*
X504865Y37875D01*
X504881Y37851D01*
X504891Y37824D01*
X504950Y37750D01*
X505004Y37672D01*
X505027Y37655D01*
X505045Y37632D01*
X505125Y37581D01*
X505200Y37524D01*
X505227Y37515D01*
X505252Y37499D01*
X505344Y37476D01*
X505434Y37446D01*
X505462Y37446D01*
X505490Y37439D01*
X505585Y37447D01*
X505680Y37447D01*
X505714Y37457D01*
X505735Y37458D01*
X505766Y37471D01*
X505841Y37493D01*
X510096Y39223D01*
X510120Y39237D01*
X510167Y39256D01*
X542284Y56356D01*
X542305Y56373D01*
X542351Y56397D01*
X572538Y76708D01*
X572558Y76727D01*
X572601Y76755D01*
X600540Y100063D01*
X600558Y100084D01*
X600598Y100117D01*
X625992Y126174D01*
X626008Y126196D01*
X626044Y126232D01*
X648625Y154762D01*
X648638Y154786D01*
X648670Y154826D01*
X668198Y185527D01*
X668208Y185552D01*
X668236Y185595D01*
X684504Y218141D01*
X684512Y218167D01*
X684535Y218213D01*
X697370Y252259D01*
X697375Y252285D01*
X697394Y252333D01*
X706660Y287518D01*
X706662Y287546D01*
X706676Y287595D01*
X712275Y323546D01*
X712275Y323573D01*
X712283Y323624D01*
X714156Y359961D01*
X714153Y359988D01*
X714156Y360039D01*
X712283Y396376D01*
X712277Y396402D01*
X712275Y396454D01*
X706676Y432405D01*
X706667Y432431D01*
X706660Y432482D01*
X697394Y467667D01*
X697383Y467692D01*
X697370Y467742D01*
X684535Y501787D01*
X684521Y501811D01*
X684504Y501859D01*
X668236Y534405D01*
X668220Y534427D01*
X668198Y534473D01*
X648670Y565174D01*
X648652Y565194D01*
X648625Y565238D01*
X626044Y593768D01*
X626024Y593786D01*
X625992Y593826D01*
X600598Y619883D01*
X600576Y619900D01*
X600540Y619937D01*
X572601Y643245D01*
X572577Y643258D01*
X572538Y643292D01*
X542351Y663603D01*
X542326Y663615D01*
X542283Y663644D01*
X510167Y680744D01*
X510142Y680752D01*
X510096Y680777D01*
X476392Y694484D01*
X476366Y694490D01*
X476318Y694510D01*
X441383Y704679D01*
X441356Y704682D01*
X441307Y704697D01*
X405512Y711220D01*
X405485Y711220D01*
X405434Y711230D01*
X369158Y714038D01*
X369131Y714036D01*
X369080Y714040D01*
X332707Y713103D01*
X332680Y713098D01*
X332629Y713097D01*
X296545Y708425D01*
X296519Y708417D01*
X296468Y708411D01*
X261056Y700054D01*
X261031Y700044D01*
X260981Y700032D01*
X226616Y688078D01*
X226592Y688065D01*
X226543Y688049D01*
X193589Y672625D01*
X193567Y672609D01*
X193520Y672588D01*
X162327Y653857D01*
X162306Y653840D01*
X162262Y653813D01*
X133160Y631975D01*
X133141Y631955D01*
X133100Y631925D01*
X106398Y607209D01*
X106381Y607188D01*
X106343Y607153D01*
X82323Y579823D01*
X82309Y579800D01*
X82275Y579762D01*
X61193Y550107D01*
X61181Y550083D01*
X61151Y550041D01*
X43229Y518376D01*
X43220Y518350D01*
X43194Y518306D01*
X28624Y484966D01*
X28617Y484940D01*
X28596Y484893D01*
X17531Y450231D01*
X17527Y450204D01*
X17511Y450155D01*
X10069Y414540D01*
X10067Y414513D01*
X10056Y414463D01*
X6315Y378271D01*
X6317Y378243D01*
X6311Y378192D01*
X6311Y341808D01*
X6316Y341781D01*
X6315Y341729D01*
X10056Y305537D01*
X10064Y305511D01*
X10069Y305460D01*
X17511Y269845D01*
X17521Y269819D01*
X17531Y269769D01*
X28596Y235107D01*
X28609Y235083D01*
X28624Y235034D01*
X43194Y201694D01*
X43209Y201671D01*
X43229Y201624D01*
X61151Y169959D01*
X61168Y169938D01*
X61193Y169893D01*
X82275Y140238D01*
X82294Y140219D01*
X82323Y140177D01*
X106343Y112847D01*
X106364Y112829D01*
X106398Y112791D01*
X133100Y88075D01*
X133123Y88060D01*
X133160Y88025D01*
X162262Y66187D01*
X162286Y66174D01*
X162327Y66143D01*
X165010Y64532D01*
X166278Y63771D01*
X166278Y63770D01*
X167545Y63009D01*
X167546Y63009D01*
X168813Y62248D01*
X173884Y59203D01*
X175152Y58442D01*
X176420Y57681D01*
X176420Y57680D01*
X181491Y54636D01*
X181491Y54635D01*
X182759Y53874D01*
X184026Y53113D01*
X185294Y52352D01*
X190365Y49307D01*
X191633Y48546D01*
X191633Y48545D01*
X192901Y47784D01*
X193520Y47412D01*
X193546Y47402D01*
X193589Y47375D01*
X226543Y31951D01*
X226569Y31944D01*
X226616Y31922D01*
X260981Y19968D01*
X261008Y19963D01*
X261056Y19946D01*
X296468Y11589D01*
X296495Y11587D01*
X296545Y11575D01*
X299902Y11140D01*
X299971Y11142D01*
X300039Y11135D01*
X300093Y11147D01*
G37*
%LPC*%
G36*
X249689Y589249D02*
X249689Y589249D01*
X249249Y589689D01*
X249249Y670311D01*
X249689Y670751D01*
X470311Y670751D01*
X470751Y670311D01*
X470751Y589689D01*
X470311Y589249D01*
X249689Y589249D01*
G37*
%LPD*%
%LPC*%
G36*
X495548Y306066D02*
X495548Y306066D01*
X482082Y311645D01*
X470518Y320518D01*
X461645Y332082D01*
X456066Y345548D01*
X454164Y360000D01*
X456066Y374451D01*
X461644Y387918D01*
X470518Y399482D01*
X482082Y408355D01*
X495548Y413934D01*
X510000Y415836D01*
X524452Y413934D01*
X537918Y408355D01*
X549482Y399482D01*
X558355Y387918D01*
X563934Y374452D01*
X565836Y360000D01*
X563934Y345548D01*
X558355Y332082D01*
X549482Y320518D01*
X537918Y311645D01*
X524452Y306066D01*
X510000Y304164D01*
X495548Y306066D01*
G37*
%LPD*%
%LPC*%
G36*
X195548Y306066D02*
X195548Y306066D01*
X182082Y311645D01*
X170518Y320518D01*
X161645Y332082D01*
X156066Y345548D01*
X154164Y360000D01*
X156066Y374452D01*
X161645Y387918D01*
X170518Y399482D01*
X182082Y408355D01*
X195548Y413934D01*
X210000Y415836D01*
X224452Y413934D01*
X237918Y408355D01*
X249482Y399482D01*
X258355Y387918D01*
X263934Y374452D01*
X265836Y360000D01*
X263934Y345548D01*
X258355Y332082D01*
X249482Y320518D01*
X237918Y311645D01*
X224452Y306066D01*
X210000Y304164D01*
X195548Y306066D01*
G37*
%LPD*%
%LPC*%
G36*
X531868Y154467D02*
X531868Y154467D01*
X530677Y155658D01*
X530677Y158666D01*
X530674Y158686D01*
X530676Y158705D01*
X530654Y158807D01*
X530638Y158909D01*
X530628Y158926D01*
X530624Y158946D01*
X530571Y159035D01*
X530522Y159126D01*
X530508Y159140D01*
X530498Y159157D01*
X530419Y159224D01*
X530344Y159296D01*
X530326Y159304D01*
X530311Y159317D01*
X530215Y159356D01*
X530121Y159399D01*
X530101Y159401D01*
X530083Y159409D01*
X529916Y159427D01*
X515602Y159427D01*
X515512Y159413D01*
X515421Y159405D01*
X515391Y159393D01*
X515359Y159388D01*
X515278Y159345D01*
X515195Y159309D01*
X515162Y159283D01*
X515142Y159272D01*
X515120Y159249D01*
X515064Y159204D01*
X514475Y158616D01*
X512141Y157649D01*
X509615Y157649D01*
X507281Y158616D01*
X505494Y160403D01*
X504527Y162737D01*
X504527Y163569D01*
X504513Y163659D01*
X504505Y163750D01*
X504493Y163779D01*
X504488Y163811D01*
X504445Y163892D01*
X504409Y163976D01*
X504383Y164008D01*
X504372Y164029D01*
X504349Y164051D01*
X504304Y164107D01*
X479659Y188752D01*
X479585Y188805D01*
X479515Y188865D01*
X479485Y188877D01*
X479459Y188896D01*
X479372Y188923D01*
X479287Y188957D01*
X479246Y188961D01*
X479224Y188968D01*
X479192Y188967D01*
X479121Y188975D01*
X405014Y188975D01*
X398887Y195102D01*
X398813Y195155D01*
X398743Y195215D01*
X398713Y195227D01*
X398687Y195246D01*
X398600Y195273D01*
X398515Y195307D01*
X398474Y195311D01*
X398452Y195318D01*
X398420Y195317D01*
X398349Y195325D01*
X397517Y195325D01*
X395183Y196292D01*
X393396Y198079D01*
X392429Y200413D01*
X392429Y202939D01*
X393396Y205273D01*
X395183Y207060D01*
X397517Y208027D01*
X400043Y208027D01*
X402377Y207060D01*
X404164Y205273D01*
X405131Y202939D01*
X405131Y202107D01*
X405145Y202017D01*
X405153Y201926D01*
X405165Y201897D01*
X405170Y201865D01*
X405213Y201784D01*
X405249Y201700D01*
X405275Y201668D01*
X405286Y201647D01*
X405309Y201625D01*
X405354Y201569D01*
X408579Y198344D01*
X408653Y198291D01*
X408723Y198231D01*
X408753Y198219D01*
X408779Y198200D01*
X408866Y198173D01*
X408951Y198139D01*
X408992Y198135D01*
X409014Y198128D01*
X409046Y198129D01*
X409117Y198121D01*
X480645Y198121D01*
X480735Y198135D01*
X480826Y198143D01*
X480855Y198155D01*
X480887Y198160D01*
X480968Y198203D01*
X481052Y198239D01*
X481084Y198265D01*
X481105Y198276D01*
X481127Y198299D01*
X481183Y198344D01*
X520222Y237383D01*
X520275Y237457D01*
X520335Y237527D01*
X520347Y237557D01*
X520366Y237583D01*
X520393Y237670D01*
X520427Y237755D01*
X520431Y237796D01*
X520438Y237818D01*
X520437Y237850D01*
X520445Y237921D01*
X520445Y257926D01*
X580674Y318155D01*
X580718Y318217D01*
X580751Y318251D01*
X580757Y318263D01*
X580787Y318299D01*
X580799Y318329D01*
X580818Y318355D01*
X580845Y318442D01*
X580879Y318527D01*
X580883Y318568D01*
X580890Y318590D01*
X580889Y318622D01*
X580897Y318693D01*
X580897Y453467D01*
X580883Y453557D01*
X580875Y453648D01*
X580863Y453677D01*
X580858Y453709D01*
X580815Y453790D01*
X580779Y453874D01*
X580753Y453906D01*
X580742Y453927D01*
X580719Y453949D01*
X580674Y454005D01*
X570845Y463834D01*
X570771Y463887D01*
X570701Y463947D01*
X570671Y463959D01*
X570645Y463978D01*
X570558Y464005D01*
X570473Y464039D01*
X570432Y464043D01*
X570410Y464050D01*
X570378Y464049D01*
X570307Y464057D01*
X569475Y464057D01*
X567141Y465024D01*
X565354Y466811D01*
X564387Y469145D01*
X564387Y471671D01*
X565354Y474005D01*
X567141Y475792D01*
X569475Y476759D01*
X570307Y476759D01*
X570397Y476773D01*
X570488Y476781D01*
X570517Y476793D01*
X570549Y476798D01*
X570630Y476841D01*
X570714Y476877D01*
X570746Y476903D01*
X570767Y476914D01*
X570789Y476937D01*
X570845Y476982D01*
X583866Y490003D01*
X588305Y490003D01*
X588375Y490014D01*
X588447Y490016D01*
X588496Y490034D01*
X588547Y490042D01*
X588611Y490076D01*
X588678Y490101D01*
X588719Y490133D01*
X588765Y490158D01*
X588814Y490210D01*
X588870Y490254D01*
X588898Y490298D01*
X588934Y490336D01*
X588964Y490401D01*
X589003Y490461D01*
X589016Y490512D01*
X589038Y490559D01*
X589046Y490630D01*
X589063Y490700D01*
X589059Y490752D01*
X589065Y490803D01*
X589050Y490874D01*
X589044Y490945D01*
X589024Y490993D01*
X589013Y491044D01*
X588976Y491105D01*
X588948Y491171D01*
X588903Y491227D01*
X588886Y491255D01*
X588869Y491270D01*
X588843Y491302D01*
X564241Y515904D01*
X561339Y518806D01*
X561339Y562979D01*
X561325Y563069D01*
X561317Y563160D01*
X561305Y563189D01*
X561300Y563221D01*
X561257Y563302D01*
X561221Y563386D01*
X561195Y563418D01*
X561184Y563439D01*
X561161Y563461D01*
X561116Y563517D01*
X546619Y578014D01*
X546545Y578067D01*
X546475Y578127D01*
X546445Y578139D01*
X546419Y578158D01*
X546332Y578185D01*
X546247Y578219D01*
X546206Y578223D01*
X546184Y578230D01*
X546152Y578229D01*
X546081Y578237D01*
X536988Y578237D01*
X535797Y579428D01*
X535797Y596112D01*
X536988Y597303D01*
X549672Y597303D01*
X550863Y596112D01*
X550863Y587019D01*
X550877Y586929D01*
X550885Y586838D01*
X550897Y586809D01*
X550902Y586777D01*
X550945Y586696D01*
X550981Y586612D01*
X551007Y586580D01*
X551018Y586559D01*
X551041Y586537D01*
X551086Y586481D01*
X567583Y569984D01*
X570485Y567082D01*
X570485Y522909D01*
X570499Y522819D01*
X570507Y522728D01*
X570519Y522699D01*
X570524Y522667D01*
X570567Y522586D01*
X570603Y522502D01*
X570629Y522470D01*
X570640Y522449D01*
X570663Y522427D01*
X570708Y522371D01*
X597893Y495186D01*
X597967Y495133D01*
X598037Y495073D01*
X598067Y495061D01*
X598093Y495042D01*
X598180Y495015D01*
X598265Y494981D01*
X598306Y494977D01*
X598328Y494970D01*
X598360Y494971D01*
X598431Y494963D01*
X612442Y494963D01*
X613633Y493772D01*
X613633Y477088D01*
X612442Y475897D01*
X597758Y475897D01*
X596567Y477088D01*
X596567Y480096D01*
X596566Y480103D01*
X596566Y480106D01*
X596564Y480116D01*
X596566Y480135D01*
X596544Y480237D01*
X596528Y480339D01*
X596518Y480356D01*
X596514Y480376D01*
X596461Y480465D01*
X596412Y480556D01*
X596398Y480570D01*
X596388Y480587D01*
X596309Y480654D01*
X596234Y480726D01*
X596216Y480734D01*
X596201Y480747D01*
X596105Y480786D01*
X596011Y480829D01*
X595991Y480831D01*
X595973Y480839D01*
X595806Y480857D01*
X587969Y480857D01*
X587879Y480843D01*
X587788Y480835D01*
X587759Y480823D01*
X587727Y480818D01*
X587646Y480775D01*
X587562Y480739D01*
X587530Y480713D01*
X587509Y480702D01*
X587487Y480679D01*
X587431Y480634D01*
X577743Y470946D01*
X577731Y470930D01*
X577716Y470918D01*
X577660Y470830D01*
X577600Y470747D01*
X577594Y470728D01*
X577583Y470711D01*
X577558Y470610D01*
X577527Y470511D01*
X577528Y470492D01*
X577523Y470472D01*
X577531Y470369D01*
X577534Y470266D01*
X577540Y470247D01*
X577542Y470227D01*
X577582Y470132D01*
X577618Y470035D01*
X577631Y470019D01*
X577638Y470001D01*
X577743Y469870D01*
X590043Y457570D01*
X590043Y314590D01*
X529814Y254361D01*
X529761Y254287D01*
X529701Y254217D01*
X529689Y254187D01*
X529670Y254161D01*
X529643Y254074D01*
X529609Y253989D01*
X529605Y253948D01*
X529598Y253926D01*
X529599Y253894D01*
X529591Y253823D01*
X529591Y233818D01*
X526689Y230916D01*
X489097Y193324D01*
X489086Y193308D01*
X489070Y193296D01*
X489014Y193208D01*
X488954Y193125D01*
X488948Y193106D01*
X488937Y193089D01*
X488912Y192988D01*
X488881Y192889D01*
X488882Y192870D01*
X488877Y192850D01*
X488885Y192747D01*
X488888Y192644D01*
X488894Y192625D01*
X488896Y192605D01*
X488936Y192510D01*
X488972Y192413D01*
X488985Y192397D01*
X488992Y192379D01*
X489097Y192248D01*
X510771Y170574D01*
X510845Y170521D01*
X510915Y170461D01*
X510945Y170449D01*
X510971Y170430D01*
X511058Y170403D01*
X511143Y170369D01*
X511184Y170365D01*
X511206Y170358D01*
X511238Y170359D01*
X511309Y170351D01*
X512141Y170351D01*
X514475Y169384D01*
X515064Y168796D01*
X515138Y168742D01*
X515207Y168683D01*
X515237Y168671D01*
X515263Y168652D01*
X515350Y168625D01*
X515435Y168591D01*
X515476Y168587D01*
X515498Y168580D01*
X515531Y168581D01*
X515602Y168573D01*
X529916Y168573D01*
X529936Y168576D01*
X529955Y168574D01*
X530057Y168596D01*
X530159Y168612D01*
X530176Y168622D01*
X530196Y168626D01*
X530285Y168679D01*
X530376Y168728D01*
X530390Y168742D01*
X530407Y168752D01*
X530474Y168831D01*
X530546Y168906D01*
X530554Y168924D01*
X530567Y168939D01*
X530606Y169035D01*
X530649Y169129D01*
X530651Y169149D01*
X530659Y169167D01*
X530677Y169334D01*
X530677Y172342D01*
X531868Y173533D01*
X546552Y173533D01*
X547743Y172342D01*
X547743Y155658D01*
X546552Y154467D01*
X531868Y154467D01*
G37*
%LPD*%
%LPC*%
G36*
X125510Y202942D02*
X125510Y202942D01*
X124319Y204133D01*
X124319Y220817D01*
X125510Y222008D01*
X129032Y222008D01*
X129052Y222011D01*
X129071Y222009D01*
X129173Y222031D01*
X129275Y222047D01*
X129292Y222057D01*
X129312Y222061D01*
X129401Y222114D01*
X129492Y222163D01*
X129506Y222177D01*
X129523Y222187D01*
X129590Y222266D01*
X129662Y222341D01*
X129670Y222359D01*
X129683Y222374D01*
X129722Y222470D01*
X129765Y222564D01*
X129767Y222584D01*
X129775Y222602D01*
X129793Y222769D01*
X129793Y462375D01*
X129779Y462465D01*
X129771Y462556D01*
X129759Y462585D01*
X129754Y462617D01*
X129711Y462698D01*
X129675Y462782D01*
X129649Y462814D01*
X129638Y462835D01*
X129615Y462857D01*
X129570Y462913D01*
X101853Y490630D01*
X101853Y564740D01*
X128680Y591567D01*
X153514Y591567D01*
X155672Y589409D01*
X169275Y575806D01*
X169349Y575753D01*
X169418Y575693D01*
X169449Y575681D01*
X169475Y575662D01*
X169562Y575635D01*
X169647Y575601D01*
X169688Y575597D01*
X169710Y575590D01*
X169742Y575591D01*
X169813Y575583D01*
X176512Y575583D01*
X177703Y574392D01*
X177703Y570114D01*
X177706Y570094D01*
X177704Y570075D01*
X177726Y569973D01*
X177742Y569871D01*
X177752Y569854D01*
X177756Y569834D01*
X177809Y569745D01*
X177858Y569654D01*
X177872Y569640D01*
X177882Y569623D01*
X177961Y569556D01*
X178036Y569484D01*
X178054Y569476D01*
X178069Y569463D01*
X178165Y569424D01*
X178259Y569381D01*
X178279Y569379D01*
X178297Y569371D01*
X178464Y569353D01*
X394056Y569353D01*
X394076Y569356D01*
X394095Y569354D01*
X394197Y569376D01*
X394299Y569392D01*
X394316Y569402D01*
X394336Y569406D01*
X394425Y569459D01*
X394516Y569508D01*
X394530Y569522D01*
X394547Y569532D01*
X394614Y569611D01*
X394686Y569686D01*
X394694Y569704D01*
X394707Y569719D01*
X394746Y569815D01*
X394789Y569909D01*
X394791Y569929D01*
X394799Y569947D01*
X394817Y570114D01*
X394817Y572598D01*
X396008Y573789D01*
X405692Y573789D01*
X406883Y572598D01*
X406883Y571320D01*
X406886Y571300D01*
X406884Y571281D01*
X406906Y571179D01*
X406922Y571077D01*
X406932Y571060D01*
X406936Y571040D01*
X406989Y570951D01*
X407038Y570860D01*
X407052Y570846D01*
X407062Y570829D01*
X407141Y570762D01*
X407216Y570690D01*
X407234Y570682D01*
X407249Y570669D01*
X407345Y570630D01*
X407439Y570587D01*
X407459Y570585D01*
X407477Y570577D01*
X407644Y570559D01*
X485672Y570559D01*
X490603Y565628D01*
X490677Y565575D01*
X490746Y565515D01*
X490777Y565503D01*
X490803Y565484D01*
X490890Y565457D01*
X490975Y565423D01*
X491016Y565419D01*
X491038Y565412D01*
X491070Y565413D01*
X491141Y565405D01*
X493769Y565405D01*
X496103Y564438D01*
X497890Y562651D01*
X498857Y560317D01*
X498857Y557791D01*
X497890Y555457D01*
X496103Y553670D01*
X493769Y552703D01*
X491243Y552703D01*
X488909Y553670D01*
X487122Y555457D01*
X486155Y557791D01*
X486155Y560419D01*
X486141Y560509D01*
X486133Y560600D01*
X486121Y560629D01*
X486116Y560661D01*
X486073Y560742D01*
X486037Y560826D01*
X486011Y560858D01*
X486000Y560879D01*
X485977Y560901D01*
X485932Y560957D01*
X483159Y563730D01*
X483085Y563783D01*
X483016Y563843D01*
X482985Y563855D01*
X482959Y563874D01*
X482872Y563901D01*
X482787Y563935D01*
X482746Y563939D01*
X482724Y563946D01*
X482692Y563945D01*
X482621Y563953D01*
X407644Y563953D01*
X407624Y563950D01*
X407605Y563952D01*
X407503Y563930D01*
X407401Y563914D01*
X407384Y563904D01*
X407364Y563900D01*
X407275Y563847D01*
X407184Y563798D01*
X407170Y563784D01*
X407153Y563774D01*
X407086Y563695D01*
X407014Y563620D01*
X407006Y563602D01*
X406993Y563587D01*
X406954Y563491D01*
X406911Y563397D01*
X406909Y563377D01*
X406901Y563359D01*
X406883Y563192D01*
X406883Y561914D01*
X405692Y560723D01*
X396008Y560723D01*
X394817Y561914D01*
X394817Y561986D01*
X394814Y562006D01*
X394816Y562025D01*
X394794Y562127D01*
X394778Y562229D01*
X394768Y562246D01*
X394764Y562266D01*
X394711Y562355D01*
X394662Y562446D01*
X394648Y562460D01*
X394638Y562477D01*
X394559Y562544D01*
X394484Y562616D01*
X394466Y562624D01*
X394451Y562637D01*
X394355Y562676D01*
X394261Y562719D01*
X394241Y562721D01*
X394223Y562729D01*
X394056Y562747D01*
X178464Y562747D01*
X178444Y562744D01*
X178425Y562746D01*
X178323Y562724D01*
X178221Y562708D01*
X178204Y562698D01*
X178184Y562694D01*
X178095Y562641D01*
X178004Y562592D01*
X177990Y562578D01*
X177973Y562568D01*
X177906Y562489D01*
X177834Y562414D01*
X177826Y562396D01*
X177813Y562381D01*
X177774Y562285D01*
X177731Y562191D01*
X177729Y562171D01*
X177721Y562153D01*
X177703Y561986D01*
X177703Y557708D01*
X176512Y556517D01*
X159828Y556517D01*
X158637Y557708D01*
X158637Y574392D01*
X159454Y575209D01*
X159466Y575225D01*
X159481Y575237D01*
X159537Y575325D01*
X159598Y575408D01*
X159603Y575427D01*
X159614Y575444D01*
X159639Y575545D01*
X159670Y575644D01*
X159669Y575663D01*
X159674Y575683D01*
X159666Y575786D01*
X159664Y575889D01*
X159657Y575908D01*
X159655Y575928D01*
X159615Y576023D01*
X159579Y576120D01*
X159567Y576136D01*
X159559Y576154D01*
X159454Y576285D01*
X151001Y584738D01*
X150927Y584791D01*
X150858Y584851D01*
X150827Y584863D01*
X150801Y584882D01*
X150714Y584909D01*
X150629Y584943D01*
X150588Y584947D01*
X150566Y584954D01*
X150534Y584953D01*
X150463Y584961D01*
X131731Y584961D01*
X131641Y584947D01*
X131550Y584939D01*
X131521Y584927D01*
X131489Y584922D01*
X131408Y584879D01*
X131324Y584843D01*
X131292Y584817D01*
X131271Y584806D01*
X131249Y584783D01*
X131193Y584738D01*
X108682Y562227D01*
X108629Y562153D01*
X108569Y562084D01*
X108557Y562053D01*
X108538Y562027D01*
X108511Y561940D01*
X108477Y561855D01*
X108473Y561814D01*
X108466Y561792D01*
X108467Y561760D01*
X108459Y561689D01*
X108459Y493681D01*
X108473Y493591D01*
X108481Y493500D01*
X108493Y493471D01*
X108498Y493439D01*
X108541Y493358D01*
X108577Y493274D01*
X108603Y493242D01*
X108614Y493221D01*
X108637Y493199D01*
X108682Y493143D01*
X136399Y465426D01*
X136399Y222769D01*
X136402Y222749D01*
X136400Y222730D01*
X136422Y222628D01*
X136438Y222526D01*
X136448Y222509D01*
X136452Y222489D01*
X136505Y222400D01*
X136554Y222309D01*
X136568Y222295D01*
X136578Y222278D01*
X136657Y222211D01*
X136732Y222139D01*
X136750Y222131D01*
X136765Y222118D01*
X136861Y222079D01*
X136955Y222036D01*
X136975Y222034D01*
X136993Y222026D01*
X137160Y222008D01*
X142194Y222008D01*
X143385Y220817D01*
X143385Y204133D01*
X142194Y202942D01*
X125510Y202942D01*
G37*
%LPD*%
G36*
X369122Y5967D02*
X369122Y5967D01*
X369170Y5963D01*
X395638Y8012D01*
X395717Y8029D01*
X395796Y8037D01*
X395854Y8060D01*
X395913Y8073D01*
X395984Y8111D01*
X396058Y8141D01*
X396107Y8179D01*
X396161Y8209D01*
X396217Y8265D01*
X396281Y8315D01*
X396317Y8365D01*
X396360Y8408D01*
X396399Y8478D01*
X396446Y8543D01*
X396466Y8601D01*
X396496Y8655D01*
X396513Y8734D01*
X396540Y8809D01*
X396544Y8870D01*
X396557Y8930D01*
X396552Y9011D01*
X396557Y9091D01*
X396543Y9146D01*
X396539Y9212D01*
X396504Y9310D01*
X396484Y9390D01*
X395929Y10730D01*
X395639Y12187D01*
X395639Y16931D01*
X403180Y16931D01*
X403243Y16940D01*
X403308Y16939D01*
X403382Y16959D01*
X403459Y16970D01*
X403517Y16997D01*
X403579Y17014D01*
X403645Y17055D01*
X403716Y17087D01*
X403765Y17128D01*
X403819Y17162D01*
X403820Y17163D01*
X403871Y17220D01*
X403930Y17270D01*
X403931Y17271D01*
X403966Y17324D01*
X404009Y17372D01*
X404043Y17442D01*
X404085Y17506D01*
X404104Y17568D01*
X404132Y17626D01*
X404143Y17695D01*
X404167Y17776D01*
X404169Y17861D01*
X404179Y17930D01*
X404179Y30420D01*
X405380Y30181D01*
X406752Y29613D01*
X407987Y28787D01*
X409037Y27737D01*
X409169Y27540D01*
X409256Y27443D01*
X409340Y27344D01*
X409350Y27338D01*
X409357Y27330D01*
X409468Y27261D01*
X409576Y27190D01*
X409587Y27186D01*
X409597Y27180D01*
X409722Y27145D01*
X409846Y27107D01*
X409857Y27107D01*
X409868Y27104D01*
X409998Y27105D01*
X410128Y27104D01*
X410139Y27107D01*
X410150Y27107D01*
X410274Y27144D01*
X410400Y27179D01*
X410409Y27185D01*
X410420Y27188D01*
X410529Y27259D01*
X410640Y27327D01*
X410647Y27335D01*
X410657Y27342D01*
X410741Y27440D01*
X410829Y27536D01*
X410834Y27547D01*
X410841Y27555D01*
X410895Y27673D01*
X410952Y27790D01*
X410953Y27801D01*
X410958Y27812D01*
X410999Y28091D01*
X410999Y28093D01*
X410999Y28095D01*
X410999Y48376D01*
X410995Y48407D01*
X410997Y48440D01*
X410975Y48547D01*
X410959Y48655D01*
X410946Y48684D01*
X410940Y48716D01*
X410888Y48812D01*
X410843Y48912D01*
X410822Y48936D01*
X410807Y48965D01*
X410731Y49043D01*
X410660Y49126D01*
X410633Y49144D01*
X410610Y49167D01*
X410515Y49220D01*
X410424Y49280D01*
X410393Y49290D01*
X410365Y49306D01*
X410258Y49331D01*
X410154Y49363D01*
X410122Y49363D01*
X410091Y49371D01*
X409981Y49365D01*
X409872Y49367D01*
X409841Y49358D01*
X409809Y49356D01*
X409706Y49320D01*
X409600Y49291D01*
X409573Y49274D01*
X409542Y49264D01*
X409469Y49211D01*
X409360Y49143D01*
X409328Y49107D01*
X409293Y49082D01*
X408306Y48094D01*
X406989Y47214D01*
X405525Y46608D01*
X404179Y46341D01*
X404179Y59840D01*
X404170Y59903D01*
X404171Y59968D01*
X404151Y60042D01*
X404140Y60119D01*
X404113Y60177D01*
X404096Y60239D01*
X404055Y60305D01*
X404023Y60376D01*
X403982Y60425D01*
X403948Y60479D01*
X403947Y60480D01*
X403890Y60531D01*
X403840Y60590D01*
X403839Y60591D01*
X403786Y60626D01*
X403738Y60669D01*
X403668Y60703D01*
X403604Y60745D01*
X403542Y60764D01*
X403484Y60792D01*
X403415Y60803D01*
X403334Y60827D01*
X403249Y60829D01*
X403180Y60839D01*
X395139Y60839D01*
X395139Y66132D01*
X395448Y67685D01*
X396054Y69149D01*
X396252Y69445D01*
X396285Y69513D01*
X396326Y69576D01*
X396346Y69639D01*
X396374Y69699D01*
X396387Y69774D01*
X396409Y69846D01*
X396410Y69912D01*
X396420Y69977D01*
X396411Y70052D01*
X396412Y70128D01*
X396395Y70192D01*
X396387Y70257D01*
X396357Y70327D01*
X396337Y70400D01*
X396303Y70456D01*
X396277Y70517D01*
X396229Y70575D01*
X396189Y70640D01*
X396140Y70684D01*
X396098Y70735D01*
X396036Y70778D01*
X395980Y70829D01*
X395920Y70858D01*
X395866Y70895D01*
X395794Y70919D01*
X395726Y70952D01*
X395666Y70961D01*
X395598Y70984D01*
X395499Y70987D01*
X395421Y70999D01*
X324579Y70999D01*
X324504Y70989D01*
X324428Y70988D01*
X324365Y70969D01*
X324299Y70959D01*
X324231Y70928D01*
X324158Y70907D01*
X324103Y70870D01*
X324042Y70843D01*
X323985Y70794D01*
X323922Y70753D01*
X323878Y70703D01*
X323828Y70660D01*
X323787Y70597D01*
X323737Y70539D01*
X323710Y70479D01*
X323674Y70424D01*
X323652Y70352D01*
X323620Y70283D01*
X323611Y70217D01*
X323591Y70154D01*
X323590Y70079D01*
X323579Y70004D01*
X323588Y69938D01*
X323588Y69872D01*
X323608Y69799D01*
X323618Y69725D01*
X323644Y69669D01*
X323663Y69600D01*
X323715Y69516D01*
X323748Y69445D01*
X323946Y69149D01*
X324552Y67685D01*
X324861Y66132D01*
X324861Y60839D01*
X316820Y60839D01*
X316757Y60830D01*
X316692Y60831D01*
X316618Y60811D01*
X316541Y60800D01*
X316483Y60773D01*
X316421Y60756D01*
X316355Y60715D01*
X316284Y60683D01*
X316235Y60642D01*
X316181Y60608D01*
X316180Y60607D01*
X316128Y60550D01*
X316070Y60500D01*
X316069Y60499D01*
X316034Y60446D01*
X315991Y60398D01*
X315957Y60328D01*
X315915Y60264D01*
X315896Y60202D01*
X315868Y60144D01*
X315857Y60075D01*
X315833Y59994D01*
X315831Y59909D01*
X315821Y59840D01*
X315821Y46341D01*
X314475Y46608D01*
X313011Y47214D01*
X311694Y48094D01*
X310707Y49082D01*
X310681Y49101D01*
X310660Y49126D01*
X310568Y49186D01*
X310481Y49251D01*
X310451Y49263D01*
X310424Y49280D01*
X310319Y49312D01*
X310217Y49351D01*
X310185Y49353D01*
X310154Y49363D01*
X310045Y49364D01*
X309936Y49373D01*
X309904Y49366D01*
X309872Y49367D01*
X309767Y49337D01*
X309660Y49315D01*
X309631Y49300D01*
X309600Y49291D01*
X309507Y49234D01*
X309411Y49183D01*
X309388Y49160D01*
X309360Y49143D01*
X309287Y49062D01*
X309209Y48986D01*
X309193Y48958D01*
X309171Y48934D01*
X309124Y48836D01*
X309070Y48741D01*
X309062Y48709D01*
X309048Y48680D01*
X309034Y48591D01*
X309005Y48466D01*
X309007Y48418D01*
X309001Y48376D01*
X309001Y28095D01*
X309019Y27966D01*
X309035Y27837D01*
X309039Y27827D01*
X309041Y27815D01*
X309094Y27698D01*
X309145Y27578D01*
X309152Y27569D01*
X309157Y27559D01*
X309241Y27460D01*
X309323Y27359D01*
X309333Y27353D01*
X309340Y27344D01*
X309449Y27273D01*
X309556Y27200D01*
X309567Y27196D01*
X309576Y27190D01*
X309700Y27152D01*
X309824Y27111D01*
X309835Y27111D01*
X309846Y27107D01*
X309976Y27106D01*
X310105Y27101D01*
X310116Y27104D01*
X310128Y27104D01*
X310254Y27138D01*
X310379Y27170D01*
X310389Y27176D01*
X310400Y27179D01*
X310510Y27247D01*
X310622Y27313D01*
X310630Y27321D01*
X310640Y27327D01*
X310829Y27536D01*
X310830Y27538D01*
X310831Y27540D01*
X310963Y27737D01*
X312013Y28787D01*
X313248Y29613D01*
X314620Y30181D01*
X315821Y30420D01*
X315821Y17930D01*
X315829Y17868D01*
X315829Y17823D01*
X315829Y17822D01*
X315829Y17802D01*
X315849Y17728D01*
X315860Y17651D01*
X315887Y17593D01*
X315904Y17531D01*
X315945Y17465D01*
X315977Y17394D01*
X316018Y17345D01*
X316052Y17291D01*
X316053Y17290D01*
X316110Y17239D01*
X316160Y17180D01*
X316161Y17179D01*
X316214Y17144D01*
X316262Y17101D01*
X316332Y17067D01*
X316396Y17025D01*
X316458Y17006D01*
X316516Y16978D01*
X316585Y16967D01*
X316666Y16943D01*
X316751Y16941D01*
X316820Y16931D01*
X324361Y16931D01*
X324361Y12187D01*
X324071Y10730D01*
X323501Y9355D01*
X323488Y9302D01*
X323465Y9252D01*
X323453Y9166D01*
X323431Y9082D01*
X323433Y9027D01*
X323425Y8973D01*
X323437Y8887D01*
X323440Y8800D01*
X323457Y8748D01*
X323465Y8694D01*
X323501Y8614D01*
X323528Y8532D01*
X323558Y8487D01*
X323581Y8437D01*
X323637Y8371D01*
X323686Y8299D01*
X323729Y8264D01*
X323764Y8222D01*
X323837Y8175D01*
X323904Y8119D01*
X323954Y8098D01*
X324000Y8068D01*
X324075Y8046D01*
X324163Y8008D01*
X324236Y7999D01*
X324296Y7982D01*
X332617Y6904D01*
X332672Y6905D01*
X332719Y6896D01*
X369067Y5960D01*
X369122Y5967D01*
G37*
%LPC*%
G36*
X492513Y237235D02*
X492513Y237235D01*
X490179Y238202D01*
X488392Y239989D01*
X487425Y242323D01*
X487425Y244849D01*
X488392Y247183D01*
X489234Y248026D01*
X489287Y248100D01*
X489347Y248169D01*
X489359Y248199D01*
X489378Y248225D01*
X489405Y248312D01*
X489439Y248397D01*
X489443Y248438D01*
X489450Y248460D01*
X489449Y248493D01*
X489457Y248564D01*
X489457Y283413D01*
X489443Y283503D01*
X489435Y283594D01*
X489423Y283623D01*
X489418Y283655D01*
X489375Y283736D01*
X489339Y283820D01*
X489313Y283852D01*
X489302Y283873D01*
X489279Y283895D01*
X489234Y283951D01*
X419604Y353582D01*
X419587Y353593D01*
X419575Y353609D01*
X419488Y353665D01*
X419404Y353725D01*
X419385Y353731D01*
X419368Y353742D01*
X419267Y353767D01*
X419169Y353798D01*
X419149Y353797D01*
X419129Y353802D01*
X419026Y353794D01*
X418923Y353791D01*
X418904Y353784D01*
X418884Y353783D01*
X418789Y353742D01*
X418692Y353707D01*
X418676Y353694D01*
X418658Y353686D01*
X418527Y353582D01*
X416003Y351058D01*
X414563Y350461D01*
X414480Y350410D01*
X414394Y350364D01*
X414376Y350346D01*
X414354Y350332D01*
X414292Y350256D01*
X414225Y350186D01*
X414214Y350162D01*
X414197Y350142D01*
X414162Y350051D01*
X414121Y349963D01*
X414118Y349937D01*
X414109Y349913D01*
X414105Y349815D01*
X414094Y349719D01*
X414100Y349693D01*
X414098Y349667D01*
X414126Y349573D01*
X414146Y349478D01*
X414160Y349456D01*
X414167Y349431D01*
X414222Y349351D01*
X414272Y349267D01*
X414292Y349250D01*
X414307Y349229D01*
X414385Y349170D01*
X414459Y349107D01*
X414484Y349097D01*
X414505Y349082D01*
X414597Y349052D01*
X414688Y349015D01*
X414720Y349012D01*
X414738Y349006D01*
X414772Y349006D01*
X414854Y348997D01*
X419960Y348997D01*
X422118Y346839D01*
X435611Y333346D01*
X435611Y314608D01*
X419452Y298449D01*
X390300Y298449D01*
X384935Y303814D01*
X384861Y303867D01*
X384792Y303927D01*
X384761Y303939D01*
X384735Y303958D01*
X384648Y303985D01*
X384563Y304019D01*
X384522Y304023D01*
X384500Y304030D01*
X384468Y304029D01*
X384397Y304037D01*
X382197Y304037D01*
X379221Y307013D01*
X379221Y311223D01*
X382197Y314199D01*
X386407Y314199D01*
X389383Y311223D01*
X389383Y309023D01*
X389397Y308933D01*
X389405Y308842D01*
X389417Y308813D01*
X389422Y308781D01*
X389465Y308700D01*
X389501Y308616D01*
X389527Y308584D01*
X389538Y308563D01*
X389561Y308541D01*
X389606Y308485D01*
X392813Y305278D01*
X392887Y305225D01*
X392956Y305165D01*
X392987Y305153D01*
X393013Y305134D01*
X393100Y305107D01*
X393185Y305073D01*
X393226Y305069D01*
X393248Y305062D01*
X393280Y305063D01*
X393351Y305055D01*
X416401Y305055D01*
X416491Y305069D01*
X416582Y305077D01*
X416611Y305089D01*
X416643Y305094D01*
X416724Y305137D01*
X416808Y305173D01*
X416840Y305199D01*
X416861Y305210D01*
X416883Y305233D01*
X416939Y305278D01*
X428782Y317121D01*
X428835Y317195D01*
X428895Y317264D01*
X428907Y317295D01*
X428926Y317321D01*
X428953Y317408D01*
X428987Y317493D01*
X428991Y317534D01*
X428998Y317556D01*
X428997Y317588D01*
X429005Y317659D01*
X429005Y330295D01*
X428991Y330385D01*
X428983Y330476D01*
X428971Y330505D01*
X428966Y330537D01*
X428923Y330618D01*
X428887Y330702D01*
X428861Y330734D01*
X428850Y330755D01*
X428827Y330777D01*
X428782Y330833D01*
X423956Y335659D01*
X423898Y335701D01*
X423846Y335750D01*
X423799Y335772D01*
X423757Y335803D01*
X423688Y335824D01*
X423623Y335854D01*
X423571Y335860D01*
X423521Y335875D01*
X423450Y335873D01*
X423379Y335881D01*
X423328Y335870D01*
X423276Y335869D01*
X423208Y335844D01*
X423138Y335829D01*
X423093Y335802D01*
X423045Y335784D01*
X422989Y335739D01*
X422927Y335702D01*
X422893Y335663D01*
X422853Y335630D01*
X422814Y335570D01*
X422767Y335516D01*
X422748Y335467D01*
X422720Y335423D01*
X422702Y335354D01*
X422675Y335287D01*
X422667Y335216D01*
X422659Y335185D01*
X422661Y335162D01*
X422657Y335121D01*
X422657Y332159D01*
X419681Y329183D01*
X415471Y329183D01*
X412495Y332159D01*
X412495Y332486D01*
X412492Y332506D01*
X412494Y332525D01*
X412472Y332627D01*
X412456Y332729D01*
X412446Y332746D01*
X412442Y332766D01*
X412389Y332855D01*
X412340Y332946D01*
X412326Y332960D01*
X412316Y332977D01*
X412237Y333044D01*
X412162Y333116D01*
X412144Y333124D01*
X412129Y333137D01*
X412033Y333176D01*
X411939Y333219D01*
X411919Y333221D01*
X411901Y333229D01*
X411734Y333247D01*
X395126Y333247D01*
X382015Y346358D01*
X382015Y363315D01*
X382001Y363405D01*
X381993Y363496D01*
X381981Y363525D01*
X381976Y363557D01*
X381933Y363638D01*
X381897Y363722D01*
X381871Y363754D01*
X381860Y363775D01*
X381837Y363797D01*
X381792Y363853D01*
X262761Y482884D01*
X262687Y482937D01*
X262618Y482997D01*
X262587Y483009D01*
X262561Y483028D01*
X262474Y483055D01*
X262389Y483089D01*
X262348Y483093D01*
X262326Y483100D01*
X262294Y483099D01*
X262223Y483107D01*
X245498Y483107D01*
X245408Y483093D01*
X245317Y483085D01*
X245287Y483073D01*
X245255Y483068D01*
X245174Y483025D01*
X245091Y482989D01*
X245058Y482963D01*
X245038Y482952D01*
X245016Y482929D01*
X244960Y482884D01*
X243151Y481075D01*
X238941Y481075D01*
X235965Y484051D01*
X235965Y488261D01*
X238941Y491237D01*
X243151Y491237D01*
X244452Y489936D01*
X244525Y489883D01*
X244595Y489823D01*
X244625Y489811D01*
X244651Y489792D01*
X244738Y489765D01*
X244823Y489731D01*
X244864Y489727D01*
X244886Y489720D01*
X244919Y489721D01*
X244990Y489713D01*
X265274Y489713D01*
X388082Y366905D01*
X388098Y366893D01*
X388110Y366878D01*
X388198Y366822D01*
X388281Y366762D01*
X388300Y366756D01*
X388317Y366745D01*
X388418Y366720D01*
X388517Y366689D01*
X388536Y366690D01*
X388556Y366685D01*
X388659Y366693D01*
X388762Y366696D01*
X388781Y366702D01*
X388801Y366704D01*
X388896Y366744D01*
X388993Y366780D01*
X389009Y366792D01*
X389027Y366800D01*
X389158Y366905D01*
X403836Y381583D01*
X405994Y383741D01*
X428285Y383741D01*
X428375Y383755D01*
X428466Y383763D01*
X428495Y383775D01*
X428527Y383780D01*
X428608Y383823D01*
X428692Y383859D01*
X428724Y383885D01*
X428745Y383896D01*
X428767Y383919D01*
X428823Y383964D01*
X467898Y423039D01*
X467951Y423113D01*
X468011Y423182D01*
X468023Y423213D01*
X468042Y423239D01*
X468069Y423326D01*
X468103Y423411D01*
X468107Y423452D01*
X468114Y423474D01*
X468113Y423506D01*
X468121Y423577D01*
X468121Y426285D01*
X471097Y429261D01*
X473297Y429261D01*
X473387Y429275D01*
X473478Y429283D01*
X473507Y429295D01*
X473539Y429300D01*
X473620Y429343D01*
X473704Y429379D01*
X473736Y429405D01*
X473757Y429416D01*
X473779Y429439D01*
X473835Y429484D01*
X487836Y443485D01*
X497198Y443485D01*
X497288Y443499D01*
X497379Y443507D01*
X497409Y443519D01*
X497441Y443524D01*
X497522Y443567D01*
X497605Y443603D01*
X497638Y443629D01*
X497658Y443640D01*
X497680Y443663D01*
X497736Y443708D01*
X499037Y445009D01*
X503247Y445009D01*
X506223Y442033D01*
X506223Y437823D01*
X503247Y434847D01*
X499037Y434847D01*
X497228Y436656D01*
X497155Y436709D01*
X497085Y436769D01*
X497055Y436781D01*
X497029Y436800D01*
X496942Y436827D01*
X496857Y436861D01*
X496816Y436865D01*
X496794Y436872D01*
X496761Y436871D01*
X496690Y436879D01*
X490887Y436879D01*
X490797Y436865D01*
X490706Y436857D01*
X490677Y436845D01*
X490645Y436840D01*
X490564Y436797D01*
X490480Y436761D01*
X490448Y436735D01*
X490427Y436724D01*
X490405Y436701D01*
X490349Y436656D01*
X478506Y424813D01*
X478453Y424739D01*
X478393Y424670D01*
X478381Y424639D01*
X478362Y424613D01*
X478335Y424526D01*
X478301Y424441D01*
X478297Y424400D01*
X478290Y424378D01*
X478291Y424346D01*
X478283Y424275D01*
X478283Y422075D01*
X475307Y419099D01*
X473615Y419099D01*
X473525Y419085D01*
X473434Y419077D01*
X473405Y419065D01*
X473373Y419060D01*
X473292Y419017D01*
X473208Y418981D01*
X473176Y418955D01*
X473155Y418944D01*
X473133Y418921D01*
X473077Y418876D01*
X433494Y379293D01*
X431336Y377135D01*
X409045Y377135D01*
X408955Y377121D01*
X408864Y377113D01*
X408835Y377101D01*
X408803Y377096D01*
X408722Y377053D01*
X408638Y377017D01*
X408606Y376991D01*
X408585Y376980D01*
X408563Y376957D01*
X408507Y376912D01*
X395956Y364361D01*
X395903Y364287D01*
X395843Y364218D01*
X395831Y364187D01*
X395812Y364161D01*
X395785Y364074D01*
X395751Y363989D01*
X395747Y363948D01*
X395740Y363926D01*
X395741Y363894D01*
X395733Y363823D01*
X395733Y356521D01*
X395747Y356431D01*
X395755Y356340D01*
X395767Y356311D01*
X395772Y356279D01*
X395815Y356198D01*
X395851Y356114D01*
X395877Y356082D01*
X395888Y356061D01*
X395911Y356039D01*
X395956Y355983D01*
X402719Y349220D01*
X402793Y349167D01*
X402862Y349107D01*
X402893Y349095D01*
X402919Y349076D01*
X403006Y349049D01*
X403091Y349015D01*
X403132Y349011D01*
X403154Y349004D01*
X403186Y349005D01*
X403257Y348997D01*
X405146Y348997D01*
X405242Y349012D01*
X405339Y349022D01*
X405363Y349032D01*
X405389Y349036D01*
X405474Y349082D01*
X405564Y349122D01*
X405583Y349139D01*
X405606Y349152D01*
X405673Y349222D01*
X405745Y349288D01*
X405757Y349311D01*
X405775Y349330D01*
X405816Y349418D01*
X405863Y349504D01*
X405868Y349529D01*
X405879Y349553D01*
X405890Y349650D01*
X405907Y349746D01*
X405903Y349772D01*
X405906Y349797D01*
X405885Y349893D01*
X405871Y349989D01*
X405859Y350012D01*
X405854Y350038D01*
X405804Y350121D01*
X405760Y350208D01*
X405741Y350227D01*
X405728Y350249D01*
X405654Y350312D01*
X405584Y350380D01*
X405555Y350396D01*
X405541Y350409D01*
X405510Y350421D01*
X405437Y350461D01*
X403997Y351058D01*
X401058Y353997D01*
X399467Y357837D01*
X399467Y362163D01*
X401058Y366003D01*
X403997Y368942D01*
X407837Y370533D01*
X412163Y370533D01*
X416003Y368942D01*
X418942Y366003D01*
X419340Y365043D01*
X419402Y364943D01*
X419462Y364843D01*
X419466Y364839D01*
X419470Y364834D01*
X419560Y364759D01*
X419648Y364683D01*
X419654Y364681D01*
X419659Y364677D01*
X419767Y364635D01*
X419877Y364591D01*
X419884Y364590D01*
X419889Y364589D01*
X419907Y364588D01*
X420043Y364573D01*
X421546Y364573D01*
X498603Y287516D01*
X498603Y248056D01*
X498617Y247966D01*
X498625Y247875D01*
X498637Y247845D01*
X498642Y247813D01*
X498685Y247732D01*
X498721Y247649D01*
X498747Y247616D01*
X498758Y247596D01*
X498781Y247574D01*
X498826Y247518D01*
X499160Y247183D01*
X500127Y244849D01*
X500127Y242323D01*
X499160Y239989D01*
X497373Y238202D01*
X495039Y237235D01*
X492513Y237235D01*
G37*
%LPD*%
%LPC*%
G36*
X295155Y306069D02*
X295155Y306069D01*
X292821Y307036D01*
X291034Y308823D01*
X290067Y311157D01*
X290067Y313683D01*
X291034Y316017D01*
X291622Y316606D01*
X291675Y316680D01*
X291735Y316749D01*
X291747Y316779D01*
X291766Y316805D01*
X291793Y316892D01*
X291811Y316939D01*
X291817Y316951D01*
X291817Y316954D01*
X291827Y316977D01*
X291831Y317018D01*
X291838Y317040D01*
X291837Y317073D01*
X291845Y317144D01*
X291845Y335357D01*
X291831Y335447D01*
X291823Y335538D01*
X291811Y335567D01*
X291806Y335599D01*
X291763Y335680D01*
X291727Y335764D01*
X291701Y335796D01*
X291690Y335817D01*
X291667Y335839D01*
X291622Y335895D01*
X269799Y357718D01*
X269799Y391841D01*
X269785Y391931D01*
X269778Y392022D01*
X269765Y392052D01*
X269760Y392084D01*
X269717Y392164D01*
X269681Y392248D01*
X269656Y392280D01*
X269645Y392301D01*
X269621Y392323D01*
X269576Y392379D01*
X173227Y488728D01*
X173227Y517112D01*
X173224Y517132D01*
X173226Y517151D01*
X173204Y517253D01*
X173188Y517355D01*
X173178Y517372D01*
X173174Y517392D01*
X173121Y517481D01*
X173072Y517572D01*
X173058Y517586D01*
X173048Y517603D01*
X172969Y517670D01*
X172894Y517742D01*
X172876Y517750D01*
X172861Y517763D01*
X172765Y517802D01*
X172671Y517845D01*
X172651Y517847D01*
X172633Y517855D01*
X172466Y517873D01*
X161470Y517873D01*
X161450Y517870D01*
X161431Y517872D01*
X161329Y517850D01*
X161227Y517834D01*
X161210Y517824D01*
X161190Y517820D01*
X161101Y517767D01*
X161010Y517718D01*
X160996Y517704D01*
X160979Y517694D01*
X160912Y517615D01*
X160840Y517540D01*
X160832Y517522D01*
X160819Y517507D01*
X160780Y517411D01*
X160737Y517317D01*
X160735Y517297D01*
X160727Y517279D01*
X160709Y517112D01*
X160709Y514104D01*
X159518Y512913D01*
X144834Y512913D01*
X143643Y514104D01*
X143643Y530788D01*
X144834Y531979D01*
X159518Y531979D01*
X160709Y530788D01*
X160709Y527780D01*
X160712Y527760D01*
X160710Y527741D01*
X160732Y527639D01*
X160748Y527537D01*
X160758Y527520D01*
X160762Y527500D01*
X160815Y527411D01*
X160864Y527320D01*
X160878Y527306D01*
X160888Y527289D01*
X160967Y527222D01*
X161042Y527150D01*
X161060Y527142D01*
X161075Y527129D01*
X161171Y527090D01*
X161265Y527047D01*
X161285Y527045D01*
X161303Y527037D01*
X161470Y527019D01*
X173298Y527019D01*
X173388Y527033D01*
X173479Y527041D01*
X173509Y527053D01*
X173541Y527058D01*
X173622Y527101D01*
X173705Y527137D01*
X173738Y527163D01*
X173758Y527174D01*
X173780Y527197D01*
X173836Y527242D01*
X174203Y527608D01*
X176537Y528575D01*
X179063Y528575D01*
X181397Y527608D01*
X183184Y525821D01*
X184151Y523487D01*
X184151Y520961D01*
X183184Y518627D01*
X182596Y518038D01*
X182543Y517964D01*
X182483Y517895D01*
X182471Y517865D01*
X182452Y517839D01*
X182425Y517752D01*
X182391Y517667D01*
X182387Y517626D01*
X182380Y517604D01*
X182381Y517571D01*
X182373Y517500D01*
X182373Y492832D01*
X182387Y492742D01*
X182395Y492651D01*
X182407Y492621D01*
X182412Y492589D01*
X182455Y492508D01*
X182491Y492425D01*
X182517Y492392D01*
X182528Y492372D01*
X182551Y492350D01*
X182596Y492294D01*
X278945Y395944D01*
X278945Y361821D01*
X278960Y361731D01*
X278967Y361640D01*
X278979Y361610D01*
X278985Y361578D01*
X279027Y361498D01*
X279063Y361414D01*
X279089Y361382D01*
X279100Y361361D01*
X279123Y361339D01*
X279168Y361283D01*
X300991Y339460D01*
X300991Y317144D01*
X300993Y317129D01*
X300992Y317117D01*
X301005Y317054D01*
X301013Y316963D01*
X301025Y316933D01*
X301030Y316901D01*
X301073Y316820D01*
X301109Y316737D01*
X301135Y316704D01*
X301146Y316684D01*
X301169Y316662D01*
X301214Y316606D01*
X301802Y316017D01*
X302769Y313683D01*
X302769Y311157D01*
X301802Y308823D01*
X300015Y307036D01*
X297681Y306069D01*
X295155Y306069D01*
G37*
%LPD*%
%LPC*%
G36*
X550868Y154467D02*
X550868Y154467D01*
X549677Y155658D01*
X549677Y172342D01*
X550868Y173533D01*
X554466Y173533D01*
X554486Y173536D01*
X554505Y173534D01*
X554607Y173556D01*
X554709Y173572D01*
X554726Y173582D01*
X554746Y173586D01*
X554835Y173639D01*
X554926Y173688D01*
X554940Y173702D01*
X554957Y173712D01*
X555024Y173791D01*
X555096Y173866D01*
X555104Y173884D01*
X555117Y173899D01*
X555156Y173995D01*
X555199Y174089D01*
X555201Y174109D01*
X555209Y174127D01*
X555227Y174294D01*
X555227Y202181D01*
X555224Y202201D01*
X555226Y202220D01*
X555204Y202322D01*
X555188Y202424D01*
X555178Y202441D01*
X555174Y202461D01*
X555121Y202550D01*
X555072Y202641D01*
X555058Y202655D01*
X555048Y202672D01*
X554969Y202739D01*
X554894Y202811D01*
X554876Y202819D01*
X554861Y202832D01*
X554765Y202871D01*
X554671Y202914D01*
X554651Y202916D01*
X554633Y202924D01*
X554466Y202942D01*
X550188Y202942D01*
X548997Y204133D01*
X548997Y220817D01*
X550188Y222008D01*
X566872Y222008D01*
X568063Y220817D01*
X568063Y204133D01*
X566872Y202942D01*
X562594Y202942D01*
X562574Y202939D01*
X562555Y202941D01*
X562453Y202919D01*
X562351Y202903D01*
X562334Y202893D01*
X562314Y202889D01*
X562225Y202836D01*
X562134Y202787D01*
X562120Y202773D01*
X562103Y202763D01*
X562036Y202684D01*
X561964Y202609D01*
X561956Y202591D01*
X561943Y202576D01*
X561904Y202480D01*
X561861Y202386D01*
X561859Y202366D01*
X561851Y202348D01*
X561833Y202181D01*
X561833Y174294D01*
X561836Y174274D01*
X561834Y174255D01*
X561856Y174153D01*
X561872Y174051D01*
X561882Y174034D01*
X561886Y174014D01*
X561939Y173925D01*
X561988Y173834D01*
X562002Y173820D01*
X562012Y173803D01*
X562091Y173736D01*
X562166Y173664D01*
X562184Y173656D01*
X562199Y173643D01*
X562295Y173604D01*
X562389Y173561D01*
X562409Y173559D01*
X562427Y173551D01*
X562594Y173533D01*
X565552Y173533D01*
X566743Y172342D01*
X566743Y155658D01*
X565552Y154467D01*
X550868Y154467D01*
G37*
%LPD*%
%LPC*%
G36*
X616758Y475897D02*
X616758Y475897D01*
X615567Y477088D01*
X615567Y493772D01*
X616758Y494963D01*
X620036Y494963D01*
X620056Y494966D01*
X620075Y494964D01*
X620177Y494986D01*
X620279Y495002D01*
X620296Y495012D01*
X620316Y495016D01*
X620405Y495069D01*
X620496Y495118D01*
X620510Y495132D01*
X620527Y495142D01*
X620594Y495221D01*
X620666Y495296D01*
X620674Y495314D01*
X620687Y495329D01*
X620726Y495425D01*
X620769Y495519D01*
X620771Y495539D01*
X620779Y495557D01*
X620797Y495724D01*
X620797Y521482D01*
X620794Y521502D01*
X620796Y521521D01*
X620774Y521623D01*
X620758Y521725D01*
X620748Y521742D01*
X620744Y521762D01*
X620691Y521851D01*
X620642Y521942D01*
X620628Y521956D01*
X620618Y521973D01*
X620539Y522040D01*
X620464Y522112D01*
X620446Y522120D01*
X620431Y522133D01*
X620335Y522172D01*
X620241Y522215D01*
X620221Y522217D01*
X620203Y522225D01*
X620036Y522243D01*
X614680Y522243D01*
X613489Y523434D01*
X613489Y540118D01*
X614680Y541309D01*
X631364Y541309D01*
X632555Y540118D01*
X632555Y523434D01*
X631364Y522243D01*
X628164Y522243D01*
X628144Y522240D01*
X628125Y522242D01*
X628023Y522220D01*
X627921Y522204D01*
X627904Y522194D01*
X627884Y522190D01*
X627795Y522137D01*
X627704Y522088D01*
X627690Y522074D01*
X627673Y522064D01*
X627606Y521985D01*
X627534Y521910D01*
X627526Y521892D01*
X627513Y521877D01*
X627474Y521781D01*
X627431Y521687D01*
X627429Y521667D01*
X627421Y521649D01*
X627403Y521482D01*
X627403Y495724D01*
X627406Y495704D01*
X627404Y495685D01*
X627426Y495583D01*
X627442Y495481D01*
X627452Y495464D01*
X627456Y495444D01*
X627509Y495355D01*
X627558Y495264D01*
X627572Y495250D01*
X627582Y495233D01*
X627661Y495166D01*
X627736Y495094D01*
X627754Y495086D01*
X627769Y495073D01*
X627865Y495034D01*
X627959Y494991D01*
X627979Y494989D01*
X627997Y494981D01*
X628164Y494963D01*
X631442Y494963D01*
X632633Y493772D01*
X632633Y477088D01*
X631442Y475897D01*
X616758Y475897D01*
G37*
%LPD*%
%LPC*%
G36*
X161668Y157787D02*
X161668Y157787D01*
X160477Y158978D01*
X160477Y175662D01*
X161668Y176853D01*
X164946Y176853D01*
X164966Y176856D01*
X164985Y176854D01*
X165087Y176876D01*
X165189Y176892D01*
X165206Y176902D01*
X165226Y176906D01*
X165315Y176959D01*
X165406Y177008D01*
X165420Y177022D01*
X165437Y177032D01*
X165504Y177111D01*
X165576Y177186D01*
X165584Y177204D01*
X165597Y177219D01*
X165636Y177315D01*
X165679Y177409D01*
X165681Y177429D01*
X165689Y177447D01*
X165707Y177614D01*
X165707Y202181D01*
X165704Y202201D01*
X165706Y202220D01*
X165684Y202322D01*
X165668Y202424D01*
X165658Y202441D01*
X165654Y202461D01*
X165601Y202550D01*
X165552Y202641D01*
X165538Y202655D01*
X165528Y202672D01*
X165449Y202739D01*
X165374Y202811D01*
X165356Y202819D01*
X165341Y202832D01*
X165245Y202871D01*
X165151Y202914D01*
X165131Y202916D01*
X165113Y202924D01*
X164946Y202942D01*
X160510Y202942D01*
X159319Y204133D01*
X159319Y220817D01*
X160510Y222008D01*
X177194Y222008D01*
X178385Y220817D01*
X178385Y204133D01*
X177194Y202942D01*
X173074Y202942D01*
X173054Y202939D01*
X173035Y202941D01*
X172933Y202919D01*
X172831Y202903D01*
X172814Y202893D01*
X172794Y202889D01*
X172705Y202836D01*
X172614Y202787D01*
X172600Y202773D01*
X172583Y202763D01*
X172516Y202684D01*
X172444Y202609D01*
X172436Y202591D01*
X172423Y202576D01*
X172384Y202480D01*
X172341Y202386D01*
X172339Y202366D01*
X172331Y202348D01*
X172313Y202181D01*
X172313Y177614D01*
X172316Y177594D01*
X172314Y177575D01*
X172336Y177473D01*
X172352Y177371D01*
X172362Y177354D01*
X172366Y177334D01*
X172419Y177245D01*
X172468Y177154D01*
X172482Y177140D01*
X172492Y177123D01*
X172571Y177056D01*
X172646Y176984D01*
X172664Y176976D01*
X172679Y176963D01*
X172775Y176924D01*
X172869Y176881D01*
X172889Y176879D01*
X172907Y176871D01*
X173074Y176853D01*
X176352Y176853D01*
X177543Y175662D01*
X177543Y158978D01*
X176352Y157787D01*
X161668Y157787D01*
G37*
%LPD*%
%LPC*%
G36*
X125834Y512913D02*
X125834Y512913D01*
X124643Y514104D01*
X124643Y530788D01*
X125834Y531979D01*
X129112Y531979D01*
X129132Y531982D01*
X129151Y531980D01*
X129253Y532002D01*
X129355Y532018D01*
X129372Y532028D01*
X129392Y532032D01*
X129481Y532085D01*
X129572Y532134D01*
X129586Y532148D01*
X129603Y532158D01*
X129670Y532237D01*
X129742Y532312D01*
X129750Y532330D01*
X129763Y532345D01*
X129802Y532441D01*
X129845Y532535D01*
X129847Y532555D01*
X129855Y532573D01*
X129873Y532740D01*
X129873Y555756D01*
X129870Y555776D01*
X129872Y555795D01*
X129850Y555897D01*
X129834Y555999D01*
X129824Y556016D01*
X129820Y556036D01*
X129767Y556125D01*
X129718Y556216D01*
X129704Y556230D01*
X129694Y556247D01*
X129615Y556314D01*
X129540Y556386D01*
X129522Y556394D01*
X129507Y556407D01*
X129411Y556446D01*
X129317Y556489D01*
X129297Y556491D01*
X129279Y556499D01*
X129112Y556517D01*
X124828Y556517D01*
X123637Y557708D01*
X123637Y574392D01*
X124828Y575583D01*
X141512Y575583D01*
X142703Y574392D01*
X142703Y557708D01*
X141512Y556517D01*
X137240Y556517D01*
X137220Y556514D01*
X137201Y556516D01*
X137099Y556494D01*
X136997Y556478D01*
X136980Y556468D01*
X136960Y556464D01*
X136871Y556411D01*
X136780Y556362D01*
X136766Y556348D01*
X136749Y556338D01*
X136682Y556259D01*
X136610Y556184D01*
X136602Y556166D01*
X136589Y556151D01*
X136550Y556055D01*
X136507Y555961D01*
X136505Y555941D01*
X136497Y555923D01*
X136479Y555756D01*
X136479Y532740D01*
X136482Y532720D01*
X136480Y532701D01*
X136502Y532599D01*
X136518Y532497D01*
X136528Y532480D01*
X136532Y532460D01*
X136585Y532371D01*
X136634Y532280D01*
X136648Y532266D01*
X136658Y532249D01*
X136737Y532182D01*
X136812Y532110D01*
X136830Y532102D01*
X136845Y532089D01*
X136941Y532050D01*
X137035Y532007D01*
X137055Y532005D01*
X137073Y531997D01*
X137240Y531979D01*
X140518Y531979D01*
X141709Y530788D01*
X141709Y514104D01*
X140518Y512913D01*
X125834Y512913D01*
G37*
%LPD*%
%LPC*%
G36*
X473383Y485647D02*
X473383Y485647D01*
X471828Y487202D01*
X471755Y487255D01*
X471685Y487315D01*
X471655Y487327D01*
X471629Y487346D01*
X471542Y487373D01*
X471457Y487407D01*
X471416Y487411D01*
X471394Y487418D01*
X471361Y487417D01*
X471290Y487425D01*
X425294Y487425D01*
X414345Y498374D01*
X414271Y498427D01*
X414202Y498487D01*
X414171Y498499D01*
X414145Y498518D01*
X414058Y498545D01*
X413973Y498579D01*
X413932Y498583D01*
X413910Y498590D01*
X413878Y498589D01*
X413807Y498597D01*
X401918Y498597D01*
X400727Y499788D01*
X400727Y514472D01*
X401918Y515663D01*
X418602Y515663D01*
X419793Y514472D01*
X419793Y502583D01*
X419807Y502493D01*
X419815Y502402D01*
X419827Y502373D01*
X419832Y502341D01*
X419875Y502260D01*
X419911Y502176D01*
X419937Y502144D01*
X419948Y502123D01*
X419971Y502101D01*
X420016Y502045D01*
X427807Y494254D01*
X427881Y494201D01*
X427950Y494141D01*
X427981Y494129D01*
X428007Y494110D01*
X428094Y494083D01*
X428179Y494049D01*
X428220Y494045D01*
X428242Y494038D01*
X428274Y494039D01*
X428345Y494031D01*
X471290Y494031D01*
X471380Y494045D01*
X471471Y494053D01*
X471501Y494065D01*
X471533Y494070D01*
X471614Y494113D01*
X471697Y494149D01*
X471730Y494175D01*
X471750Y494186D01*
X471772Y494209D01*
X471828Y494254D01*
X473383Y495809D01*
X477593Y495809D01*
X480569Y492833D01*
X480569Y488623D01*
X477593Y485647D01*
X473383Y485647D01*
G37*
%LPD*%
%LPC*%
G36*
X180668Y157787D02*
X180668Y157787D01*
X179477Y158978D01*
X179477Y175662D01*
X180668Y176853D01*
X195352Y176853D01*
X196543Y175662D01*
X196543Y175514D01*
X196546Y175494D01*
X196544Y175475D01*
X196566Y175373D01*
X196582Y175271D01*
X196592Y175254D01*
X196596Y175234D01*
X196649Y175145D01*
X196698Y175054D01*
X196712Y175040D01*
X196722Y175023D01*
X196801Y174956D01*
X196876Y174884D01*
X196894Y174876D01*
X196909Y174863D01*
X197005Y174824D01*
X197099Y174781D01*
X197119Y174779D01*
X197137Y174771D01*
X197304Y174753D01*
X233274Y174753D01*
X233364Y174767D01*
X233455Y174775D01*
X233485Y174787D01*
X233517Y174792D01*
X233598Y174835D01*
X233681Y174871D01*
X233714Y174897D01*
X233734Y174908D01*
X233756Y174931D01*
X233812Y174976D01*
X234401Y175564D01*
X236735Y176531D01*
X239261Y176531D01*
X241595Y175564D01*
X243382Y173777D01*
X244349Y171443D01*
X244349Y168917D01*
X243382Y166583D01*
X241595Y164796D01*
X239261Y163829D01*
X236735Y163829D01*
X234401Y164796D01*
X233812Y165384D01*
X233738Y165437D01*
X233669Y165497D01*
X233639Y165509D01*
X233613Y165528D01*
X233526Y165555D01*
X233441Y165589D01*
X233400Y165593D01*
X233378Y165600D01*
X233345Y165599D01*
X233274Y165607D01*
X197304Y165607D01*
X197284Y165604D01*
X197265Y165606D01*
X197163Y165584D01*
X197061Y165568D01*
X197044Y165558D01*
X197024Y165554D01*
X196935Y165501D01*
X196844Y165452D01*
X196830Y165438D01*
X196813Y165428D01*
X196746Y165349D01*
X196674Y165274D01*
X196666Y165256D01*
X196653Y165241D01*
X196614Y165145D01*
X196571Y165051D01*
X196569Y165031D01*
X196561Y165013D01*
X196543Y164846D01*
X196543Y158978D01*
X195352Y157787D01*
X180668Y157787D01*
G37*
%LPD*%
%LPC*%
G36*
X414027Y157479D02*
X414027Y157479D01*
X411693Y158446D01*
X409906Y160233D01*
X408939Y162567D01*
X408939Y165093D01*
X409906Y167427D01*
X411693Y169214D01*
X414027Y170181D01*
X414859Y170181D01*
X414949Y170195D01*
X415040Y170203D01*
X415069Y170215D01*
X415101Y170220D01*
X415182Y170263D01*
X415266Y170299D01*
X415298Y170325D01*
X415319Y170336D01*
X415341Y170359D01*
X415397Y170404D01*
X420662Y175669D01*
X450524Y175669D01*
X450614Y175683D01*
X450705Y175691D01*
X450735Y175703D01*
X450767Y175708D01*
X450848Y175751D01*
X450931Y175787D01*
X450964Y175813D01*
X450984Y175824D01*
X451006Y175847D01*
X451062Y175892D01*
X451651Y176480D01*
X453985Y177447D01*
X456511Y177447D01*
X458845Y176480D01*
X460632Y174693D01*
X461599Y172359D01*
X461599Y169833D01*
X460632Y167499D01*
X458845Y165712D01*
X456511Y164745D01*
X453985Y164745D01*
X451651Y165712D01*
X451062Y166300D01*
X450988Y166353D01*
X450919Y166413D01*
X450889Y166425D01*
X450863Y166444D01*
X450776Y166471D01*
X450691Y166505D01*
X450650Y166509D01*
X450628Y166516D01*
X450595Y166515D01*
X450524Y166523D01*
X424765Y166523D01*
X424675Y166509D01*
X424584Y166501D01*
X424555Y166489D01*
X424523Y166484D01*
X424442Y166441D01*
X424358Y166405D01*
X424326Y166379D01*
X424305Y166368D01*
X424283Y166345D01*
X424227Y166300D01*
X421864Y163937D01*
X421811Y163863D01*
X421751Y163793D01*
X421739Y163763D01*
X421720Y163737D01*
X421693Y163650D01*
X421659Y163565D01*
X421655Y163524D01*
X421648Y163502D01*
X421649Y163470D01*
X421641Y163399D01*
X421641Y162567D01*
X420674Y160233D01*
X418887Y158446D01*
X416553Y157479D01*
X414027Y157479D01*
G37*
%LPD*%
%LPC*%
G36*
X401918Y517597D02*
X401918Y517597D01*
X400727Y518788D01*
X400727Y533472D01*
X401918Y534663D01*
X406196Y534663D01*
X406216Y534666D01*
X406235Y534664D01*
X406337Y534686D01*
X406439Y534702D01*
X406456Y534712D01*
X406476Y534716D01*
X406565Y534769D01*
X406656Y534818D01*
X406670Y534832D01*
X406687Y534842D01*
X406754Y534921D01*
X406826Y534996D01*
X406834Y535014D01*
X406847Y535029D01*
X406886Y535125D01*
X406929Y535219D01*
X406931Y535239D01*
X406939Y535257D01*
X406957Y535424D01*
X406957Y539962D01*
X406954Y539982D01*
X406956Y540001D01*
X406934Y540103D01*
X406918Y540205D01*
X406908Y540222D01*
X406904Y540242D01*
X406851Y540331D01*
X406802Y540422D01*
X406788Y540436D01*
X406778Y540453D01*
X406699Y540520D01*
X406624Y540592D01*
X406606Y540600D01*
X406591Y540613D01*
X406495Y540652D01*
X406401Y540695D01*
X406381Y540697D01*
X406363Y540705D01*
X406196Y540723D01*
X405508Y540723D01*
X404317Y541914D01*
X404317Y552598D01*
X405508Y553789D01*
X415192Y553789D01*
X416383Y552598D01*
X416383Y541914D01*
X415192Y540723D01*
X414324Y540723D01*
X414304Y540720D01*
X414285Y540722D01*
X414183Y540700D01*
X414081Y540684D01*
X414064Y540674D01*
X414044Y540670D01*
X413955Y540617D01*
X413864Y540568D01*
X413850Y540554D01*
X413833Y540544D01*
X413766Y540465D01*
X413694Y540390D01*
X413686Y540372D01*
X413673Y540357D01*
X413634Y540261D01*
X413591Y540167D01*
X413589Y540147D01*
X413581Y540129D01*
X413563Y539962D01*
X413563Y535424D01*
X413566Y535404D01*
X413564Y535385D01*
X413586Y535283D01*
X413602Y535181D01*
X413612Y535164D01*
X413616Y535144D01*
X413669Y535055D01*
X413718Y534964D01*
X413732Y534950D01*
X413742Y534933D01*
X413821Y534866D01*
X413896Y534794D01*
X413914Y534786D01*
X413929Y534773D01*
X414025Y534734D01*
X414119Y534691D01*
X414139Y534689D01*
X414157Y534681D01*
X414324Y534663D01*
X418602Y534663D01*
X419793Y533472D01*
X419793Y518788D01*
X418602Y517597D01*
X401918Y517597D01*
G37*
%LPD*%
%LPC*%
G36*
X492005Y576833D02*
X492005Y576833D01*
X489671Y577800D01*
X487884Y579587D01*
X486917Y581921D01*
X486917Y584447D01*
X487884Y586781D01*
X489671Y588568D01*
X492005Y589535D01*
X494633Y589535D01*
X494723Y589549D01*
X494814Y589557D01*
X494843Y589569D01*
X494875Y589574D01*
X494956Y589617D01*
X495040Y589653D01*
X495072Y589679D01*
X495093Y589690D01*
X495115Y589713D01*
X495171Y589758D01*
X496486Y591073D01*
X509636Y591073D01*
X509656Y591076D01*
X509675Y591074D01*
X509777Y591096D01*
X509879Y591112D01*
X509896Y591122D01*
X509916Y591126D01*
X510005Y591179D01*
X510096Y591228D01*
X510110Y591242D01*
X510127Y591252D01*
X510194Y591331D01*
X510266Y591406D01*
X510274Y591424D01*
X510287Y591439D01*
X510326Y591535D01*
X510369Y591629D01*
X510371Y591649D01*
X510379Y591667D01*
X510397Y591834D01*
X510397Y596112D01*
X511588Y597303D01*
X524272Y597303D01*
X525463Y596112D01*
X525463Y579428D01*
X524272Y578237D01*
X511588Y578237D01*
X510397Y579428D01*
X510397Y583706D01*
X510394Y583726D01*
X510396Y583745D01*
X510374Y583847D01*
X510358Y583949D01*
X510348Y583966D01*
X510344Y583986D01*
X510291Y584075D01*
X510242Y584166D01*
X510228Y584180D01*
X510218Y584197D01*
X510139Y584264D01*
X510064Y584336D01*
X510046Y584344D01*
X510031Y584357D01*
X509935Y584396D01*
X509841Y584439D01*
X509821Y584441D01*
X509803Y584449D01*
X509636Y584467D01*
X500380Y584467D01*
X500360Y584464D01*
X500341Y584466D01*
X500239Y584444D01*
X500137Y584428D01*
X500120Y584418D01*
X500100Y584414D01*
X500011Y584361D01*
X499920Y584312D01*
X499906Y584298D01*
X499889Y584288D01*
X499822Y584209D01*
X499750Y584134D01*
X499742Y584116D01*
X499729Y584101D01*
X499690Y584005D01*
X499647Y583911D01*
X499645Y583891D01*
X499637Y583873D01*
X499619Y583706D01*
X499619Y581921D01*
X498652Y579587D01*
X496865Y577800D01*
X494531Y576833D01*
X492005Y576833D01*
G37*
%LPD*%
%LPC*%
G36*
X357837Y349467D02*
X357837Y349467D01*
X353997Y351058D01*
X351058Y353997D01*
X350063Y356399D01*
X350001Y356499D01*
X349941Y356599D01*
X349936Y356603D01*
X349933Y356608D01*
X349843Y356683D01*
X349754Y356759D01*
X349748Y356761D01*
X349744Y356765D01*
X349636Y356807D01*
X349526Y356851D01*
X349519Y356852D01*
X349514Y356853D01*
X349496Y356854D01*
X349359Y356869D01*
X340748Y356869D01*
X340658Y356855D01*
X340567Y356847D01*
X340537Y356835D01*
X340505Y356830D01*
X340424Y356787D01*
X340341Y356751D01*
X340308Y356725D01*
X340288Y356714D01*
X340266Y356691D01*
X340210Y356646D01*
X338655Y355091D01*
X334445Y355091D01*
X331469Y358067D01*
X331469Y362277D01*
X334445Y365253D01*
X338655Y365253D01*
X340210Y363698D01*
X340283Y363645D01*
X340353Y363585D01*
X340383Y363573D01*
X340409Y363554D01*
X340496Y363527D01*
X340581Y363493D01*
X340622Y363489D01*
X340644Y363482D01*
X340677Y363483D01*
X340748Y363475D01*
X349502Y363475D01*
X349617Y363494D01*
X349733Y363511D01*
X349738Y363513D01*
X349745Y363514D01*
X349847Y363569D01*
X349952Y363622D01*
X349957Y363627D01*
X349962Y363630D01*
X350042Y363714D01*
X350124Y363798D01*
X350128Y363804D01*
X350131Y363808D01*
X350139Y363825D01*
X350205Y363945D01*
X351058Y366003D01*
X353997Y368942D01*
X357837Y370533D01*
X362163Y370533D01*
X366003Y368942D01*
X368942Y366003D01*
X370533Y362163D01*
X370533Y357837D01*
X368942Y353997D01*
X366003Y351058D01*
X362163Y349467D01*
X357837Y349467D01*
G37*
%LPD*%
%LPC*%
G36*
X498012Y107237D02*
X498012Y107237D01*
X495060Y108460D01*
X492800Y110720D01*
X491577Y113672D01*
X491577Y128868D01*
X492800Y131820D01*
X495060Y134080D01*
X498012Y135303D01*
X501208Y135303D01*
X504160Y134080D01*
X506420Y131820D01*
X507643Y128868D01*
X507643Y113672D01*
X506420Y110720D01*
X504160Y108460D01*
X501208Y107237D01*
X498012Y107237D01*
G37*
%LPD*%
%LPC*%
G36*
X450012Y56297D02*
X450012Y56297D01*
X447060Y57520D01*
X444800Y59780D01*
X443577Y62732D01*
X443577Y77928D01*
X444800Y80880D01*
X447060Y83140D01*
X450012Y84363D01*
X453208Y84363D01*
X456160Y83140D01*
X458420Y80880D01*
X459643Y77928D01*
X459643Y62732D01*
X458420Y59780D01*
X456160Y57520D01*
X453208Y56297D01*
X450012Y56297D01*
G37*
%LPD*%
%LPC*%
G36*
X473390Y39477D02*
X473390Y39477D01*
X469335Y41157D01*
X466232Y44260D01*
X464552Y48315D01*
X464552Y52705D01*
X466232Y56760D01*
X469335Y59863D01*
X473390Y61543D01*
X477780Y61543D01*
X481835Y59863D01*
X484938Y56760D01*
X486618Y52705D01*
X486618Y48315D01*
X484938Y44260D01*
X481835Y41157D01*
X477780Y39477D01*
X473390Y39477D01*
G37*
%LPD*%
%LPC*%
G36*
X473390Y99667D02*
X473390Y99667D01*
X469335Y101347D01*
X466232Y104450D01*
X464552Y108505D01*
X464552Y112895D01*
X466232Y116950D01*
X469335Y120053D01*
X473390Y121733D01*
X477780Y121733D01*
X481835Y120053D01*
X484938Y116950D01*
X486618Y112895D01*
X486618Y108505D01*
X484938Y104450D01*
X481835Y101347D01*
X477780Y99667D01*
X473390Y99667D01*
G37*
%LPD*%
%LPC*%
G36*
X344859Y82803D02*
X344859Y82803D01*
X341883Y85779D01*
X341883Y87979D01*
X341869Y88069D01*
X341861Y88160D01*
X341849Y88189D01*
X341844Y88221D01*
X341801Y88302D01*
X341765Y88386D01*
X341739Y88418D01*
X341728Y88439D01*
X341705Y88461D01*
X341660Y88517D01*
X335405Y94772D01*
X335331Y94825D01*
X335262Y94885D01*
X335231Y94897D01*
X335205Y94916D01*
X335118Y94943D01*
X335033Y94977D01*
X334992Y94981D01*
X334970Y94988D01*
X334938Y94987D01*
X334867Y94995D01*
X326778Y94995D01*
X326688Y94981D01*
X326597Y94973D01*
X326567Y94961D01*
X326535Y94956D01*
X326454Y94913D01*
X326371Y94877D01*
X326338Y94851D01*
X326318Y94840D01*
X326296Y94817D01*
X326240Y94772D01*
X324685Y93217D01*
X320475Y93217D01*
X317499Y96193D01*
X317499Y100403D01*
X320475Y103379D01*
X324685Y103379D01*
X326240Y101824D01*
X326313Y101771D01*
X326383Y101711D01*
X326413Y101699D01*
X326439Y101680D01*
X326526Y101653D01*
X326611Y101619D01*
X326652Y101615D01*
X326674Y101608D01*
X326707Y101609D01*
X326778Y101601D01*
X337918Y101601D01*
X346331Y93188D01*
X346405Y93135D01*
X346474Y93075D01*
X346505Y93063D01*
X346531Y93044D01*
X346618Y93017D01*
X346703Y92983D01*
X346744Y92979D01*
X346766Y92972D01*
X346798Y92973D01*
X346869Y92965D01*
X349069Y92965D01*
X352045Y89989D01*
X352045Y85779D01*
X349069Y82803D01*
X344859Y82803D01*
G37*
%LPD*%
%LPC*%
G36*
X355019Y110743D02*
X355019Y110743D01*
X352043Y113719D01*
X352043Y117929D01*
X355019Y120905D01*
X357219Y120905D01*
X357309Y120919D01*
X357400Y120927D01*
X357429Y120939D01*
X357461Y120944D01*
X357542Y120987D01*
X357626Y121023D01*
X357658Y121049D01*
X357679Y121060D01*
X357701Y121083D01*
X357757Y121128D01*
X369600Y132971D01*
X369653Y133045D01*
X369713Y133114D01*
X369725Y133145D01*
X369744Y133171D01*
X369771Y133258D01*
X369805Y133343D01*
X369809Y133384D01*
X369816Y133406D01*
X369815Y133438D01*
X369823Y133509D01*
X369823Y135201D01*
X372799Y138177D01*
X377009Y138177D01*
X379985Y135201D01*
X379985Y130991D01*
X377009Y128015D01*
X374301Y128015D01*
X374211Y128001D01*
X374120Y127993D01*
X374091Y127981D01*
X374059Y127976D01*
X373978Y127933D01*
X373894Y127897D01*
X373862Y127871D01*
X373841Y127860D01*
X373819Y127837D01*
X373763Y127792D01*
X362428Y116457D01*
X362375Y116383D01*
X362315Y116314D01*
X362303Y116283D01*
X362284Y116257D01*
X362257Y116170D01*
X362223Y116085D01*
X362219Y116044D01*
X362212Y116022D01*
X362213Y115990D01*
X362205Y115919D01*
X362205Y113719D01*
X359229Y110743D01*
X355019Y110743D01*
G37*
%LPD*%
%LPC*%
G36*
X317819Y58841D02*
X317819Y58841D01*
X324861Y58841D01*
X324861Y53548D01*
X324552Y51995D01*
X323946Y50531D01*
X323066Y49214D01*
X321946Y48094D01*
X320629Y47214D01*
X319165Y46608D01*
X317819Y46341D01*
X317819Y58841D01*
G37*
%LPD*%
%LPC*%
G36*
X400835Y46608D02*
X400835Y46608D01*
X399371Y47214D01*
X398054Y48094D01*
X396934Y49214D01*
X396054Y50531D01*
X395448Y51995D01*
X395139Y53548D01*
X395139Y58841D01*
X402181Y58841D01*
X402181Y46341D01*
X400835Y46608D01*
G37*
%LPD*%
%LPC*%
G36*
X311523Y361523D02*
X311523Y361523D01*
X311523Y370950D01*
X312650Y370771D01*
X314291Y370238D01*
X315827Y369455D01*
X317222Y368442D01*
X318442Y367222D01*
X319455Y365827D01*
X320238Y364291D01*
X320771Y362650D01*
X320950Y361523D01*
X311523Y361523D01*
G37*
%LPD*%
%LPC*%
G36*
X311523Y358477D02*
X311523Y358477D01*
X320950Y358477D01*
X320771Y357350D01*
X320238Y355709D01*
X319455Y354173D01*
X318442Y352778D01*
X317222Y351558D01*
X315827Y350545D01*
X314291Y349762D01*
X312650Y349229D01*
X311523Y349050D01*
X311523Y358477D01*
G37*
%LPD*%
%LPC*%
G36*
X299050Y361523D02*
X299050Y361523D01*
X299229Y362650D01*
X299762Y364291D01*
X300545Y365827D01*
X301558Y367222D01*
X302778Y368442D01*
X304173Y369455D01*
X305709Y370238D01*
X307350Y370771D01*
X308477Y370950D01*
X308477Y361523D01*
X299050Y361523D01*
G37*
%LPD*%
%LPC*%
G36*
X307350Y349229D02*
X307350Y349229D01*
X305709Y349762D01*
X304173Y350545D01*
X302778Y351558D01*
X301558Y352778D01*
X300545Y354173D01*
X299762Y355709D01*
X299229Y357350D01*
X299050Y358477D01*
X308477Y358477D01*
X308477Y349050D01*
X307350Y349229D01*
G37*
%LPD*%
%LPC*%
G36*
X317819Y18929D02*
X317819Y18929D01*
X317819Y30420D01*
X319020Y30181D01*
X320392Y29613D01*
X321627Y28787D01*
X322677Y27737D01*
X323503Y26502D01*
X324071Y25130D01*
X324361Y23673D01*
X324361Y18929D01*
X317819Y18929D01*
G37*
%LPD*%
%LPC*%
G36*
X395639Y18929D02*
X395639Y18929D01*
X395639Y23673D01*
X395929Y25130D01*
X396497Y26502D01*
X397323Y27737D01*
X398373Y28787D01*
X399608Y29613D01*
X400980Y30181D01*
X402181Y30420D01*
X402181Y18929D01*
X395639Y18929D01*
G37*
%LPD*%
%LPC*%
G36*
X519453Y526293D02*
X519453Y526293D01*
X519453Y534811D01*
X523764Y534811D01*
X524411Y534638D01*
X524990Y534303D01*
X525463Y533830D01*
X525798Y533251D01*
X525971Y532604D01*
X525971Y526293D01*
X519453Y526293D01*
G37*
%LPD*%
%LPC*%
G36*
X544853Y526293D02*
X544853Y526293D01*
X544853Y534811D01*
X549164Y534811D01*
X549811Y534638D01*
X550390Y534303D01*
X550863Y533830D01*
X551198Y533251D01*
X551371Y532604D01*
X551371Y526293D01*
X544853Y526293D01*
G37*
%LPD*%
%LPC*%
G36*
X544853Y514729D02*
X544853Y514729D01*
X544853Y523247D01*
X551371Y523247D01*
X551371Y516936D01*
X551198Y516289D01*
X550863Y515710D01*
X550390Y515237D01*
X549811Y514902D01*
X549164Y514729D01*
X544853Y514729D01*
G37*
%LPD*%
%LPC*%
G36*
X519453Y514729D02*
X519453Y514729D01*
X519453Y523247D01*
X525971Y523247D01*
X525971Y516936D01*
X525798Y516289D01*
X525463Y515710D01*
X524990Y515237D01*
X524411Y514902D01*
X523764Y514729D01*
X519453Y514729D01*
G37*
%LPD*%
%LPC*%
G36*
X535289Y526293D02*
X535289Y526293D01*
X535289Y532604D01*
X535462Y533251D01*
X535797Y533830D01*
X536270Y534303D01*
X536849Y534638D01*
X537496Y534811D01*
X541807Y534811D01*
X541807Y526293D01*
X535289Y526293D01*
G37*
%LPD*%
%LPC*%
G36*
X509889Y526293D02*
X509889Y526293D01*
X509889Y532604D01*
X510062Y533251D01*
X510397Y533830D01*
X510870Y534303D01*
X511449Y534638D01*
X512096Y534811D01*
X516407Y534811D01*
X516407Y526293D01*
X509889Y526293D01*
G37*
%LPD*%
%LPC*%
G36*
X537496Y514729D02*
X537496Y514729D01*
X536849Y514902D01*
X536270Y515237D01*
X535797Y515710D01*
X535462Y516289D01*
X535289Y516936D01*
X535289Y523247D01*
X541807Y523247D01*
X541807Y514729D01*
X537496Y514729D01*
G37*
%LPD*%
%LPC*%
G36*
X512096Y514729D02*
X512096Y514729D01*
X511449Y514902D01*
X510870Y515237D01*
X510397Y515710D01*
X510062Y516289D01*
X509889Y516936D01*
X509889Y523247D01*
X516407Y523247D01*
X516407Y514729D01*
X512096Y514729D01*
G37*
%LPD*%
%LPC*%
G36*
X392873Y548779D02*
X392873Y548779D01*
X392873Y554297D01*
X395685Y554297D01*
X396331Y554124D01*
X396910Y553789D01*
X397383Y553316D01*
X397718Y552737D01*
X397891Y552090D01*
X397891Y548779D01*
X392873Y548779D01*
G37*
%LPD*%
%LPC*%
G36*
X392873Y540215D02*
X392873Y540215D01*
X392873Y545733D01*
X397891Y545733D01*
X397891Y542422D01*
X397718Y541775D01*
X397383Y541196D01*
X396910Y540723D01*
X396331Y540388D01*
X395684Y540215D01*
X392873Y540215D01*
G37*
%LPD*%
%LPC*%
G36*
X384809Y548779D02*
X384809Y548779D01*
X384809Y552090D01*
X384982Y552737D01*
X385317Y553316D01*
X385790Y553789D01*
X386369Y554124D01*
X387016Y554297D01*
X389827Y554297D01*
X389827Y548779D01*
X384809Y548779D01*
G37*
%LPD*%
%LPC*%
G36*
X387016Y540215D02*
X387016Y540215D01*
X386369Y540388D01*
X385790Y540723D01*
X385317Y541196D01*
X384982Y541775D01*
X384809Y542422D01*
X384809Y545733D01*
X389827Y545733D01*
X389827Y540215D01*
X387016Y540215D01*
G37*
%LPD*%
%LPC*%
G36*
X543329Y524769D02*
X543329Y524769D01*
X543329Y524771D01*
X543331Y524771D01*
X543331Y524769D01*
X543329Y524769D01*
G37*
%LPD*%
%LPC*%
G36*
X517929Y524769D02*
X517929Y524769D01*
X517929Y524771D01*
X517931Y524771D01*
X517931Y524769D01*
X517929Y524769D01*
G37*
%LPD*%
%LPC*%
G36*
X391349Y547255D02*
X391349Y547255D01*
X391349Y547257D01*
X391351Y547257D01*
X391351Y547255D01*
X391349Y547255D01*
G37*
%LPD*%
%LPC*%
G36*
X309999Y359999D02*
X309999Y359999D01*
X309999Y360001D01*
X310001Y360001D01*
X310001Y359999D01*
X309999Y359999D01*
G37*
%LPD*%
D10*
X0Y360000D02*
X108Y368835D01*
X434Y377664D01*
X975Y386483D01*
X1733Y395286D01*
X2707Y404068D01*
X3896Y412823D01*
X5300Y421546D01*
X6917Y430233D01*
X8747Y438876D01*
X10789Y447473D01*
X13041Y456017D01*
X15501Y464502D01*
X18170Y472925D01*
X21044Y481280D01*
X24123Y489562D01*
X27403Y497766D01*
X30884Y505887D01*
X34564Y513920D01*
X38439Y521860D01*
X42508Y529703D01*
X46769Y537443D01*
X51218Y545077D01*
X55853Y552599D01*
X60671Y560005D01*
X65669Y567291D01*
X70845Y574452D01*
X76195Y581483D01*
X81716Y588382D01*
X87405Y595142D01*
X93258Y601761D01*
X99271Y608235D01*
X105442Y614558D01*
X111765Y620729D01*
X118239Y626742D01*
X124858Y632595D01*
X131618Y638284D01*
X138517Y643805D01*
X145548Y649155D01*
X152709Y654331D01*
X159995Y659329D01*
X167401Y664147D01*
X174923Y668782D01*
X182557Y673231D01*
X190297Y677492D01*
X198140Y681561D01*
X206080Y685436D01*
X214113Y689116D01*
X222234Y692597D01*
X230438Y695877D01*
X238720Y698956D01*
X247075Y701830D01*
X255498Y704499D01*
X263983Y706959D01*
X272527Y709211D01*
X281124Y711253D01*
X289767Y713083D01*
X298454Y714700D01*
X307177Y716104D01*
X315932Y717293D01*
X324714Y718267D01*
X333517Y719025D01*
X342336Y719566D01*
X351165Y719892D01*
X360000Y720000D01*
X368835Y719892D01*
X377664Y719566D01*
X386483Y719025D01*
X395286Y718267D01*
X404068Y717293D01*
X412823Y716104D01*
X421546Y714700D01*
X430233Y713083D01*
X438876Y711253D01*
X447473Y709211D01*
X456017Y706959D01*
X464502Y704499D01*
X472925Y701830D01*
X481280Y698956D01*
X489562Y695877D01*
X497766Y692597D01*
X505887Y689116D01*
X513920Y685436D01*
X521860Y681561D01*
X529703Y677492D01*
X537443Y673231D01*
X545077Y668782D01*
X552599Y664147D01*
X560005Y659329D01*
X567291Y654331D01*
X574452Y649155D01*
X581483Y643805D01*
X588382Y638284D01*
X595142Y632595D01*
X601761Y626742D01*
X608235Y620729D01*
X614558Y614558D01*
X620729Y608235D01*
X626742Y601761D01*
X632595Y595142D01*
X638284Y588382D01*
X643805Y581483D01*
X649155Y574452D01*
X654331Y567291D01*
X659329Y560005D01*
X664147Y552599D01*
X668782Y545077D01*
X673231Y537443D01*
X677492Y529703D01*
X681561Y521860D01*
X685436Y513920D01*
X689116Y505887D01*
X692597Y497766D01*
X695877Y489562D01*
X698956Y481280D01*
X701830Y472925D01*
X704499Y464502D01*
X706959Y456017D01*
X709211Y447473D01*
X711253Y438876D01*
X713083Y430233D01*
X714700Y421546D01*
X716104Y412823D01*
X717293Y404068D01*
X718267Y395286D01*
X719025Y386483D01*
X719566Y377664D01*
X719892Y368835D01*
X720000Y360000D01*
X719892Y351165D01*
X719566Y342336D01*
X719025Y333517D01*
X718267Y324714D01*
X717293Y315932D01*
X716104Y307177D01*
X714700Y298454D01*
X713083Y289767D01*
X711253Y281124D01*
X709211Y272527D01*
X706959Y263983D01*
X704499Y255498D01*
X701830Y247075D01*
X698956Y238720D01*
X695877Y230438D01*
X692597Y222234D01*
X689116Y214113D01*
X685436Y206080D01*
X681561Y198140D01*
X677492Y190297D01*
X673231Y182557D01*
X668782Y174923D01*
X664147Y167401D01*
X659329Y159995D01*
X654331Y152709D01*
X649155Y145548D01*
X643805Y138517D01*
X638284Y131618D01*
X632595Y124858D01*
X626742Y118239D01*
X620729Y111765D01*
X614558Y105442D01*
X608235Y99271D01*
X601761Y93258D01*
X595142Y87405D01*
X588382Y81716D01*
X581483Y76195D01*
X574452Y70845D01*
X567291Y65669D01*
X560005Y60671D01*
X552599Y55853D01*
X545077Y51218D01*
X537443Y46769D01*
X529703Y42508D01*
X521860Y38439D01*
X513920Y34564D01*
X505887Y30884D01*
X497766Y27403D01*
X489562Y24123D01*
X481280Y21044D01*
X472925Y18170D01*
X464502Y15501D01*
X456017Y13041D01*
X447473Y10789D01*
X438876Y8747D01*
X430233Y6917D01*
X421546Y5300D01*
X412823Y3896D01*
X404068Y2707D01*
X395286Y1733D01*
X386483Y975D01*
X377664Y434D01*
X368835Y108D01*
X360000Y0D01*
X351165Y108D01*
X342336Y434D01*
X333517Y975D01*
X324714Y1733D01*
X315932Y2707D01*
X307177Y3896D01*
X298454Y5300D01*
X289767Y6917D01*
X281124Y8747D01*
X272527Y10789D01*
X263983Y13041D01*
X255498Y15501D01*
X247075Y18170D01*
X238720Y21044D01*
X230438Y24123D01*
X222234Y27403D01*
X214113Y30884D01*
X206080Y34564D01*
X198140Y38439D01*
X190297Y42508D01*
X182557Y46769D01*
X174923Y51218D01*
X167401Y55853D01*
X159995Y60671D01*
X152709Y65669D01*
X145548Y70845D01*
X138517Y76195D01*
X131618Y81716D01*
X124858Y87405D01*
X118239Y93258D01*
X111765Y99271D01*
X105442Y105442D01*
X99271Y111765D01*
X93258Y118239D01*
X87405Y124858D01*
X81716Y131618D01*
X76195Y138517D01*
X70845Y145548D01*
X65669Y152709D01*
X60671Y159995D01*
X55853Y167401D01*
X51218Y174923D01*
X46769Y182557D01*
X42508Y190297D01*
X38439Y198140D01*
X34564Y206080D01*
X30884Y214113D01*
X27403Y222234D01*
X24123Y230438D01*
X21044Y238720D01*
X18170Y247075D01*
X15501Y255498D01*
X13041Y263983D01*
X10789Y272527D01*
X8747Y281124D01*
X6917Y289767D01*
X5300Y298454D01*
X3896Y307177D01*
X2707Y315932D01*
X1733Y324714D01*
X975Y333517D01*
X434Y342336D01*
X108Y351165D01*
X0Y360000D01*
X460000Y360000D02*
X460015Y361227D01*
X460060Y362453D01*
X460135Y363678D01*
X460241Y364901D01*
X460376Y366121D01*
X460541Y367337D01*
X460736Y368548D01*
X460961Y369755D01*
X461215Y370955D01*
X461498Y372149D01*
X461811Y373336D01*
X462153Y374514D01*
X462524Y375684D01*
X462923Y376844D01*
X463350Y377995D01*
X463806Y379134D01*
X464290Y380262D01*
X464801Y381378D01*
X465339Y382481D01*
X465904Y383570D01*
X466496Y384645D01*
X467114Y385705D01*
X467757Y386750D01*
X468427Y387779D01*
X469121Y388790D01*
X469840Y389785D01*
X470583Y390762D01*
X471349Y391720D01*
X472140Y392659D01*
X472952Y393578D01*
X473788Y394477D01*
X474645Y395355D01*
X475523Y396212D01*
X476422Y397048D01*
X477341Y397860D01*
X478280Y398651D01*
X479238Y399417D01*
X480215Y400160D01*
X481210Y400879D01*
X482221Y401573D01*
X483250Y402243D01*
X484295Y402886D01*
X485355Y403504D01*
X486430Y404096D01*
X487519Y404661D01*
X488622Y405199D01*
X489738Y405710D01*
X490866Y406194D01*
X492005Y406650D01*
X493156Y407077D01*
X494316Y407476D01*
X495486Y407847D01*
X496664Y408189D01*
X497851Y408502D01*
X499045Y408785D01*
X500245Y409039D01*
X501452Y409264D01*
X502663Y409459D01*
X503879Y409624D01*
X505099Y409759D01*
X506322Y409865D01*
X507547Y409940D01*
X508773Y409985D01*
X510000Y410000D01*
X511227Y409985D01*
X512453Y409940D01*
X513678Y409865D01*
X514901Y409759D01*
X516121Y409624D01*
X517337Y409459D01*
X518548Y409264D01*
X519755Y409039D01*
X520955Y408785D01*
X522149Y408502D01*
X523336Y408189D01*
X524514Y407847D01*
X525684Y407476D01*
X526844Y407077D01*
X527995Y406650D01*
X529134Y406194D01*
X530262Y405710D01*
X531378Y405199D01*
X532481Y404661D01*
X533570Y404096D01*
X534645Y403504D01*
X535705Y402886D01*
X536750Y402243D01*
X537779Y401573D01*
X538790Y400879D01*
X539785Y400160D01*
X540762Y399417D01*
X541720Y398651D01*
X542659Y397860D01*
X543578Y397048D01*
X544477Y396212D01*
X545355Y395355D01*
X546212Y394477D01*
X547048Y393578D01*
X547860Y392659D01*
X548651Y391720D01*
X549417Y390762D01*
X550160Y389785D01*
X550879Y388790D01*
X551573Y387779D01*
X552243Y386750D01*
X552886Y385705D01*
X553504Y384645D01*
X554096Y383570D01*
X554661Y382481D01*
X555199Y381378D01*
X555710Y380262D01*
X556194Y379134D01*
X556650Y377995D01*
X557077Y376844D01*
X557476Y375684D01*
X557847Y374514D01*
X558189Y373336D01*
X558502Y372149D01*
X558785Y370955D01*
X559039Y369755D01*
X559264Y368548D01*
X559459Y367337D01*
X559624Y366121D01*
X559759Y364901D01*
X559865Y363678D01*
X559940Y362453D01*
X559985Y361227D01*
X560000Y360000D01*
X559985Y358773D01*
X559940Y357547D01*
X559865Y356322D01*
X559759Y355099D01*
X559624Y353879D01*
X559459Y352663D01*
X559264Y351452D01*
X559039Y350245D01*
X558785Y349045D01*
X558502Y347851D01*
X558189Y346664D01*
X557847Y345486D01*
X557476Y344316D01*
X557077Y343156D01*
X556650Y342005D01*
X556194Y340866D01*
X555710Y339738D01*
X555199Y338622D01*
X554661Y337519D01*
X554096Y336430D01*
X553504Y335355D01*
X552886Y334295D01*
X552243Y333250D01*
X551573Y332221D01*
X550879Y331210D01*
X550160Y330215D01*
X549417Y329238D01*
X548651Y328280D01*
X547860Y327341D01*
X547048Y326422D01*
X546212Y325523D01*
X545355Y324645D01*
X544477Y323788D01*
X543578Y322952D01*
X542659Y322140D01*
X541720Y321349D01*
X540762Y320583D01*
X539785Y319840D01*
X538790Y319121D01*
X537779Y318427D01*
X536750Y317757D01*
X535705Y317114D01*
X534645Y316496D01*
X533570Y315904D01*
X532481Y315339D01*
X531378Y314801D01*
X530262Y314290D01*
X529134Y313806D01*
X527995Y313350D01*
X526844Y312923D01*
X525684Y312524D01*
X524514Y312153D01*
X523336Y311811D01*
X522149Y311498D01*
X520955Y311215D01*
X519755Y310961D01*
X518548Y310736D01*
X517337Y310541D01*
X516121Y310376D01*
X514901Y310241D01*
X513678Y310135D01*
X512453Y310060D01*
X511227Y310015D01*
X510000Y310000D01*
X508773Y310015D01*
X507547Y310060D01*
X506322Y310135D01*
X505099Y310241D01*
X503879Y310376D01*
X502663Y310541D01*
X501452Y310736D01*
X500245Y310961D01*
X499045Y311215D01*
X497851Y311498D01*
X496664Y311811D01*
X495486Y312153D01*
X494316Y312524D01*
X493156Y312923D01*
X492005Y313350D01*
X490866Y313806D01*
X489738Y314290D01*
X488622Y314801D01*
X487519Y315339D01*
X486430Y315904D01*
X485355Y316496D01*
X484295Y317114D01*
X483250Y317757D01*
X482221Y318427D01*
X481210Y319121D01*
X480215Y319840D01*
X479238Y320583D01*
X478280Y321349D01*
X477341Y322140D01*
X476422Y322952D01*
X475523Y323788D01*
X474645Y324645D01*
X473788Y325523D01*
X472952Y326422D01*
X472140Y327341D01*
X471349Y328280D01*
X470583Y329238D01*
X469840Y330215D01*
X469121Y331210D01*
X468427Y332221D01*
X467757Y333250D01*
X467114Y334295D01*
X466496Y335355D01*
X465904Y336430D01*
X465339Y337519D01*
X464801Y338622D01*
X464290Y339738D01*
X463806Y340866D01*
X463350Y342005D01*
X462923Y343156D01*
X462524Y344316D01*
X462153Y345486D01*
X461811Y346664D01*
X461498Y347851D01*
X461215Y349045D01*
X460961Y350245D01*
X460736Y351452D01*
X460541Y352663D01*
X460376Y353879D01*
X460241Y355099D01*
X460135Y356322D01*
X460060Y357547D01*
X460015Y358773D01*
X460000Y360000D01*
X160000Y360000D02*
X160015Y361227D01*
X160060Y362453D01*
X160135Y363678D01*
X160241Y364901D01*
X160376Y366121D01*
X160541Y367337D01*
X160736Y368548D01*
X160961Y369755D01*
X161215Y370955D01*
X161498Y372149D01*
X161811Y373336D01*
X162153Y374514D01*
X162524Y375684D01*
X162923Y376844D01*
X163350Y377995D01*
X163806Y379134D01*
X164290Y380262D01*
X164801Y381378D01*
X165339Y382481D01*
X165904Y383570D01*
X166496Y384645D01*
X167114Y385705D01*
X167757Y386750D01*
X168427Y387779D01*
X169121Y388790D01*
X169840Y389785D01*
X170583Y390762D01*
X171349Y391720D01*
X172140Y392659D01*
X172952Y393578D01*
X173788Y394477D01*
X174645Y395355D01*
X175523Y396212D01*
X176422Y397048D01*
X177341Y397860D01*
X178280Y398651D01*
X179238Y399417D01*
X180215Y400160D01*
X181210Y400879D01*
X182221Y401573D01*
X183250Y402243D01*
X184295Y402886D01*
X185355Y403504D01*
X186430Y404096D01*
X187519Y404661D01*
X188622Y405199D01*
X189738Y405710D01*
X190866Y406194D01*
X192005Y406650D01*
X193156Y407077D01*
X194316Y407476D01*
X195486Y407847D01*
X196664Y408189D01*
X197851Y408502D01*
X199045Y408785D01*
X200245Y409039D01*
X201452Y409264D01*
X202663Y409459D01*
X203879Y409624D01*
X205099Y409759D01*
X206322Y409865D01*
X207547Y409940D01*
X208773Y409985D01*
X210000Y410000D01*
X211227Y409985D01*
X212453Y409940D01*
X213678Y409865D01*
X214901Y409759D01*
X216121Y409624D01*
X217337Y409459D01*
X218548Y409264D01*
X219755Y409039D01*
X220955Y408785D01*
X222149Y408502D01*
X223336Y408189D01*
X224514Y407847D01*
X225684Y407476D01*
X226844Y407077D01*
X227995Y406650D01*
X229134Y406194D01*
X230262Y405710D01*
X231378Y405199D01*
X232481Y404661D01*
X233570Y404096D01*
X234645Y403504D01*
X235705Y402886D01*
X236750Y402243D01*
X237779Y401573D01*
X238790Y400879D01*
X239785Y400160D01*
X240762Y399417D01*
X241720Y398651D01*
X242659Y397860D01*
X243578Y397048D01*
X244477Y396212D01*
X245355Y395355D01*
X246212Y394477D01*
X247048Y393578D01*
X247860Y392659D01*
X248651Y391720D01*
X249417Y390762D01*
X250160Y389785D01*
X250879Y388790D01*
X251573Y387779D01*
X252243Y386750D01*
X252886Y385705D01*
X253504Y384645D01*
X254096Y383570D01*
X254661Y382481D01*
X255199Y381378D01*
X255710Y380262D01*
X256194Y379134D01*
X256650Y377995D01*
X257077Y376844D01*
X257476Y375684D01*
X257847Y374514D01*
X258189Y373336D01*
X258502Y372149D01*
X258785Y370955D01*
X259039Y369755D01*
X259264Y368548D01*
X259459Y367337D01*
X259624Y366121D01*
X259759Y364901D01*
X259865Y363678D01*
X259940Y362453D01*
X259985Y361227D01*
X260000Y360000D01*
X259985Y358773D01*
X259940Y357547D01*
X259865Y356322D01*
X259759Y355099D01*
X259624Y353879D01*
X259459Y352663D01*
X259264Y351452D01*
X259039Y350245D01*
X258785Y349045D01*
X258502Y347851D01*
X258189Y346664D01*
X257847Y345486D01*
X257476Y344316D01*
X257077Y343156D01*
X256650Y342005D01*
X256194Y340866D01*
X255710Y339738D01*
X255199Y338622D01*
X254661Y337519D01*
X254096Y336430D01*
X253504Y335355D01*
X252886Y334295D01*
X252243Y333250D01*
X251573Y332221D01*
X250879Y331210D01*
X250160Y330215D01*
X249417Y329238D01*
X248651Y328280D01*
X247860Y327341D01*
X247048Y326422D01*
X246212Y325523D01*
X245355Y324645D01*
X244477Y323788D01*
X243578Y322952D01*
X242659Y322140D01*
X241720Y321349D01*
X240762Y320583D01*
X239785Y319840D01*
X238790Y319121D01*
X237779Y318427D01*
X236750Y317757D01*
X235705Y317114D01*
X234645Y316496D01*
X233570Y315904D01*
X232481Y315339D01*
X231378Y314801D01*
X230262Y314290D01*
X229134Y313806D01*
X227995Y313350D01*
X226844Y312923D01*
X225684Y312524D01*
X224514Y312153D01*
X223336Y311811D01*
X222149Y311498D01*
X220955Y311215D01*
X219755Y310961D01*
X218548Y310736D01*
X217337Y310541D01*
X216121Y310376D01*
X214901Y310241D01*
X213678Y310135D01*
X212453Y310060D01*
X211227Y310015D01*
X210000Y310000D01*
X208773Y310015D01*
X207547Y310060D01*
X206322Y310135D01*
X205099Y310241D01*
X203879Y310376D01*
X202663Y310541D01*
X201452Y310736D01*
X200245Y310961D01*
X199045Y311215D01*
X197851Y311498D01*
X196664Y311811D01*
X195486Y312153D01*
X194316Y312524D01*
X193156Y312923D01*
X192005Y313350D01*
X190866Y313806D01*
X189738Y314290D01*
X188622Y314801D01*
X187519Y315339D01*
X186430Y315904D01*
X185355Y316496D01*
X184295Y317114D01*
X183250Y317757D01*
X182221Y318427D01*
X181210Y319121D01*
X180215Y319840D01*
X179238Y320583D01*
X178280Y321349D01*
X177341Y322140D01*
X176422Y322952D01*
X175523Y323788D01*
X174645Y324645D01*
X173788Y325523D01*
X172952Y326422D01*
X172140Y327341D01*
X171349Y328280D01*
X170583Y329238D01*
X169840Y330215D01*
X169121Y331210D01*
X168427Y332221D01*
X167757Y333250D01*
X167114Y334295D01*
X166496Y335355D01*
X165904Y336430D01*
X165339Y337519D01*
X164801Y338622D01*
X164290Y339738D01*
X163806Y340866D01*
X163350Y342005D01*
X162923Y343156D01*
X162524Y344316D01*
X162153Y345486D01*
X161811Y346664D01*
X161498Y347851D01*
X161215Y349045D01*
X160961Y350245D01*
X160736Y351452D01*
X160541Y352663D01*
X160376Y353879D01*
X160241Y355099D01*
X160135Y356322D01*
X160060Y357547D01*
X160015Y358773D01*
X160000Y360000D01*
D11*
X409915Y360085D02*
X410085Y360085D01*
X410085Y359915D01*
X409915Y359915D01*
X409915Y360085D01*
X360085Y360085D02*
X359915Y360085D01*
X360085Y360085D02*
X360085Y359915D01*
X359915Y359915D01*
X359915Y360085D01*
X310085Y360085D02*
X309915Y360085D01*
X310085Y360085D02*
X310085Y359915D01*
X309915Y359915D01*
X309915Y360085D01*
D12*
X316820Y22930D02*
X316820Y12930D01*
X403180Y12930D02*
X403180Y22930D01*
D13*
X316820Y54340D02*
X316820Y65340D01*
X403180Y65340D02*
X403180Y54340D01*
D14*
X543330Y524770D03*
X517930Y524770D03*
X543330Y587770D03*
X517930Y587770D03*
D15*
X410350Y547256D03*
X391350Y547256D03*
X400850Y567256D03*
D16*
X588022Y531776D03*
X623022Y531776D03*
D17*
X605100Y485430D03*
X624100Y485430D03*
D16*
X168170Y566050D03*
X133170Y566050D03*
D17*
X152176Y522446D03*
X133176Y522446D03*
D16*
X133852Y212475D03*
X168852Y212475D03*
D17*
X188010Y167320D03*
X169010Y167320D03*
D16*
X593530Y212475D03*
X558530Y212475D03*
D17*
X539210Y164000D03*
X558210Y164000D03*
D18*
X499580Y56660D02*
X499580Y44660D01*
X451610Y64330D02*
X451610Y76330D01*
X499610Y115270D02*
X499610Y127270D01*
D19*
X475585Y50510D03*
X475585Y110700D03*
D20*
X410260Y526130D03*
X410260Y507130D03*
D21*
X493776Y243586D03*
D22*
X494030Y243840D02*
X494030Y285622D01*
X494030Y243840D02*
X493776Y243586D01*
X494030Y285622D02*
X419652Y360000D01*
X410000Y360000D01*
D21*
X415290Y163830D03*
X455248Y171096D03*
D22*
X422556Y171096D02*
X415290Y163830D01*
X422556Y171096D02*
X455248Y171096D01*
D23*
X303000Y380978D03*
X306578Y580644D03*
X343662Y578866D03*
X372872Y577850D03*
X410718Y583184D03*
X295910Y551688D03*
X315468Y551688D03*
X337820Y551180D03*
X360680Y551180D03*
X294894Y529082D03*
X314198Y528320D03*
X295148Y504190D03*
X314198Y504444D03*
X295402Y481330D03*
X316484Y479806D03*
X321310Y460248D03*
X340360Y459740D03*
X334772Y441706D03*
X300576Y429006D03*
X387604Y468884D03*
X387858Y440944D03*
X412750Y450342D03*
X405384Y468376D03*
X411988Y487934D03*
D21*
X237998Y170180D03*
D22*
X188010Y170180D01*
X188010Y167320D01*
D21*
X398780Y201676D03*
D22*
X406908Y193548D01*
X510878Y164000D02*
X539210Y164000D01*
X481330Y193548D02*
X406908Y193548D01*
X481330Y193548D02*
X482092Y192786D01*
X510878Y164000D01*
D21*
X510878Y164000D03*
X570738Y470408D03*
D22*
X585760Y485430D02*
X605100Y485430D01*
X585760Y485430D02*
X570738Y470408D01*
X601182Y485430D02*
X605100Y485430D01*
X565912Y565188D02*
X543330Y587770D01*
X565912Y520700D02*
X601182Y485430D01*
X565912Y520700D02*
X565912Y565188D01*
D21*
X177800Y522224D03*
D22*
X177578Y522446D01*
X152176Y522446D01*
X177800Y490623D02*
X274372Y394050D01*
X177800Y490623D02*
X177800Y522224D01*
X274372Y394050D02*
X274372Y359612D01*
D21*
X296418Y312420D03*
D22*
X296418Y337566D02*
X274372Y359612D01*
X296418Y337566D02*
X296418Y312420D01*
X570738Y470408D02*
X585470Y455676D01*
X525018Y235712D02*
X482092Y192786D01*
X585470Y316484D02*
X585470Y455676D01*
X585470Y316484D02*
X525018Y256032D01*
X525018Y235712D01*
D23*
X336550Y360172D03*
D24*
X359828Y360172D01*
X360000Y360000D01*
D23*
X473202Y424180D03*
D24*
X489204Y440182D01*
X500888Y440182D02*
X501142Y439928D01*
D23*
X501142Y439928D03*
D24*
X500888Y440182D02*
X489204Y440182D01*
D23*
X384302Y309118D03*
D24*
X473456Y423926D02*
X473202Y424180D01*
X418084Y301752D02*
X391668Y301752D01*
X384302Y309118D01*
X418084Y301752D02*
X432308Y315976D01*
X418592Y345694D02*
X401574Y345694D01*
X392430Y354838D01*
X392430Y365506D01*
X407362Y380438D01*
X429968Y380438D02*
X473456Y423926D01*
X429968Y380438D02*
X407362Y380438D01*
X432308Y331978D02*
X432308Y315976D01*
X432308Y331978D02*
X418592Y345694D01*
X624100Y485430D02*
X624100Y530698D01*
X623022Y531776D01*
X133176Y566044D02*
X133170Y566050D01*
X133176Y566044D02*
X133176Y522446D01*
X536296Y87376D02*
X499580Y50660D01*
X536296Y87376D02*
X566166Y87376D01*
X592836Y114046D01*
X592836Y211781D02*
X593530Y212475D01*
X592836Y211781D02*
X592836Y114046D01*
X588022Y531776D02*
X588022Y548120D01*
X585724Y550418D01*
X585724Y550672D01*
D21*
X585724Y550672D03*
X492506Y559054D03*
D24*
X484304Y567256D01*
X400850Y567256D01*
X399644Y566050D01*
X168170Y566050D01*
X593530Y212475D02*
X647700Y266645D01*
X647700Y537210D02*
X634492Y550418D01*
X585724Y550418D01*
X647700Y537210D02*
X647700Y266645D01*
X133096Y213231D02*
X133096Y464058D01*
X133096Y213231D02*
X133852Y212475D01*
X133096Y464058D02*
X105156Y491998D01*
X105156Y563372D01*
X130048Y588264D01*
X152146Y588264D01*
X168170Y572240D02*
X168170Y566050D01*
X168170Y572240D02*
X152146Y588264D01*
X168852Y212475D02*
X169010Y212317D01*
X169010Y167320D01*
X558530Y164320D02*
X558530Y212475D01*
X558530Y164320D02*
X558210Y164000D01*
D23*
X346964Y87884D03*
D24*
X336550Y98298D01*
D23*
X322580Y98298D03*
D24*
X336550Y98298D01*
D23*
X417576Y334264D03*
D24*
X415290Y336550D01*
X396494Y336550D01*
X385318Y347726D02*
X385318Y364998D01*
X263906Y486410D01*
X241300Y486410D02*
X241046Y486156D01*
D23*
X241046Y486156D03*
D24*
X385318Y347726D02*
X396494Y336550D01*
X263906Y486410D02*
X241300Y486410D01*
X497854Y587770D02*
X517930Y587770D01*
D21*
X493268Y583184D03*
D24*
X497854Y587770D01*
X410260Y507130D02*
X426662Y490728D01*
X475488Y490728D01*
D23*
X475488Y490728D03*
D24*
X410350Y547256D02*
X410260Y547166D01*
X410260Y526130D01*
D23*
X357124Y115824D03*
D24*
X374396Y133096D01*
X374904Y133096D01*
D23*
X374904Y133096D03*
M02*
