M48
;GenerationSoftware,Autodesk,EAGLE,9.3.2*%
;CreationDate,2020-02-09T10:09:26Z*%
FMAT,2
ICI,OFF
METRIC,TZ,000.000
T5C0.000
T4C0.001
T3C0.305
T2C0.559
T1C1.200
%
G90
M71
T1
X47558Y11070
X47558Y5051
T2
X45525Y17110
X51088Y16400
X41529Y16383
X49327Y58318
X49251Y55905
X58572Y55067
X29642Y31242
X17780Y52222
X57074Y47041
X39878Y20168
X49378Y24359
X23800Y17018
T3
X29515Y50419
X31420Y50444
X29540Y48133
X31648Y47981
X32131Y46025
X34036Y45974
X33477Y44171
X30058Y42901
X38760Y46888
X38786Y44094
X41275Y45034
X40538Y46838
X41199Y48793
X31420Y52832
X29489Y52908
X36068Y55118
X33782Y55118
X31547Y55169
X29591Y55169
X33655Y36017
X47320Y42418
X50114Y43993
X38430Y30912
X41072Y58318
X37287Y57785
X34696Y8788
X32258Y9830
X41758Y33426
X24105Y48616
X34366Y57887
X47549Y49073
X35712Y11582
X37490Y13310
X30300Y38098
X30658Y58064
T4
X49958Y5066
X45161Y7033
X49961Y12127
T5
X31682Y5984
X40318Y5984
X40318Y1793
X31682Y1793
M30