G04 EAGLE Gerber RS-274X export*
G75*
%MOMM*%
%FSLAX34Y34*%
%LPD*%
%INSlot drills/holes*%
%IPPOS*%
%AMOC8*
5,1,8,0,0,1.08239X$1,22.5*%
G01*
%ADD10C,0.100000*%


D10*
X255000Y25000D02*
X255000Y10000D01*
X254997Y9758D01*
X254988Y9517D01*
X254974Y9276D01*
X254953Y9035D01*
X254927Y8795D01*
X254895Y8555D01*
X254857Y8316D01*
X254814Y8079D01*
X254764Y7842D01*
X254709Y7607D01*
X254649Y7373D01*
X254582Y7141D01*
X254511Y6910D01*
X254433Y6681D01*
X254350Y6454D01*
X254262Y6229D01*
X254168Y6006D01*
X254069Y5786D01*
X253964Y5568D01*
X253855Y5353D01*
X253740Y5140D01*
X253620Y4930D01*
X253495Y4724D01*
X253365Y4520D01*
X253230Y4319D01*
X253090Y4122D01*
X252946Y3928D01*
X252797Y3738D01*
X252643Y3552D01*
X252485Y3369D01*
X252323Y3190D01*
X252156Y3015D01*
X251985Y2844D01*
X251810Y2677D01*
X251631Y2515D01*
X251448Y2357D01*
X251262Y2203D01*
X251072Y2054D01*
X250878Y1910D01*
X250681Y1770D01*
X250480Y1635D01*
X250276Y1505D01*
X250070Y1380D01*
X249860Y1260D01*
X249647Y1145D01*
X249432Y1036D01*
X249214Y931D01*
X248994Y832D01*
X248771Y738D01*
X248546Y650D01*
X248319Y567D01*
X248090Y489D01*
X247859Y418D01*
X247627Y351D01*
X247393Y291D01*
X247158Y236D01*
X246921Y186D01*
X246684Y143D01*
X246445Y105D01*
X246205Y73D01*
X245965Y47D01*
X245724Y26D01*
X245483Y12D01*
X245242Y3D01*
X245000Y0D01*
X15000Y0D01*
X14758Y3D01*
X14517Y12D01*
X14276Y26D01*
X14035Y47D01*
X13795Y73D01*
X13555Y105D01*
X13316Y143D01*
X13079Y186D01*
X12842Y236D01*
X12607Y291D01*
X12373Y351D01*
X12141Y418D01*
X11910Y489D01*
X11681Y567D01*
X11454Y650D01*
X11229Y738D01*
X11006Y832D01*
X10786Y931D01*
X10568Y1036D01*
X10353Y1145D01*
X10140Y1260D01*
X9930Y1380D01*
X9724Y1505D01*
X9520Y1635D01*
X9319Y1770D01*
X9122Y1910D01*
X8928Y2054D01*
X8738Y2203D01*
X8552Y2357D01*
X8369Y2515D01*
X8190Y2677D01*
X8015Y2844D01*
X7844Y3015D01*
X7677Y3190D01*
X7515Y3369D01*
X7357Y3552D01*
X7203Y3738D01*
X7054Y3928D01*
X6910Y4122D01*
X6770Y4319D01*
X6635Y4520D01*
X6505Y4724D01*
X6380Y4930D01*
X6260Y5140D01*
X6145Y5353D01*
X6036Y5568D01*
X5931Y5786D01*
X5832Y6006D01*
X5738Y6229D01*
X5650Y6454D01*
X5567Y6681D01*
X5489Y6910D01*
X5418Y7141D01*
X5351Y7373D01*
X5291Y7607D01*
X5236Y7842D01*
X5186Y8079D01*
X5143Y8316D01*
X5105Y8555D01*
X5073Y8795D01*
X5047Y9035D01*
X5026Y9276D01*
X5012Y9517D01*
X5003Y9758D01*
X5000Y10000D01*
X5000Y25000D01*
X4943Y25303D01*
X4893Y25607D01*
X4851Y25912D01*
X4817Y26218D01*
X4789Y26525D01*
X4769Y26832D01*
X4757Y27140D01*
X4752Y27448D01*
X4755Y27756D01*
X4764Y28064D01*
X4782Y28372D01*
X4807Y28679D01*
X4839Y28985D01*
X4878Y29291D01*
X4925Y29595D01*
X4980Y29898D01*
X5041Y30200D01*
X5110Y30500D01*
X5186Y30799D01*
X5270Y31096D01*
X5360Y31390D01*
X5458Y31682D01*
X5562Y31972D01*
X5674Y32259D01*
X5792Y32544D01*
X5917Y32825D01*
X6049Y33103D01*
X6188Y33378D01*
X6334Y33650D01*
X6485Y33918D01*
X6644Y34182D01*
X6808Y34443D01*
X6979Y34699D01*
X7156Y34951D01*
X7339Y35199D01*
X7528Y35442D01*
X7723Y35681D01*
X7924Y35915D01*
X8130Y36144D01*
X8341Y36367D01*
X8558Y36586D01*
X8781Y36800D01*
X9008Y37008D01*
X9240Y37210D01*
X9477Y37407D01*
X9719Y37598D01*
X9965Y37783D01*
X10216Y37962D01*
X10471Y38135D01*
X10730Y38302D01*
X10993Y38462D01*
X11259Y38616D01*
X11530Y38764D01*
X11804Y38905D01*
X12081Y39039D01*
X12361Y39166D01*
X12645Y39287D01*
X12931Y39401D01*
X13220Y39508D01*
X13511Y39608D01*
X13805Y39701D01*
X14101Y39787D01*
X14399Y39865D01*
X14699Y39936D01*
X15000Y40000D01*
X245000Y40000D01*
X245301Y39936D01*
X245601Y39865D01*
X245899Y39787D01*
X246195Y39701D01*
X246489Y39608D01*
X246780Y39508D01*
X247069Y39401D01*
X247355Y39287D01*
X247639Y39166D01*
X247919Y39039D01*
X248196Y38905D01*
X248470Y38764D01*
X248741Y38616D01*
X249007Y38462D01*
X249270Y38302D01*
X249529Y38135D01*
X249784Y37962D01*
X250035Y37783D01*
X250281Y37598D01*
X250523Y37407D01*
X250760Y37210D01*
X250992Y37008D01*
X251219Y36800D01*
X251442Y36586D01*
X251659Y36367D01*
X251870Y36144D01*
X252076Y35915D01*
X252277Y35681D01*
X252472Y35442D01*
X252661Y35199D01*
X252844Y34951D01*
X253021Y34699D01*
X253192Y34443D01*
X253356Y34182D01*
X253515Y33918D01*
X253666Y33650D01*
X253812Y33378D01*
X253951Y33103D01*
X254083Y32825D01*
X254208Y32544D01*
X254326Y32259D01*
X254438Y31972D01*
X254542Y31682D01*
X254640Y31390D01*
X254730Y31096D01*
X254814Y30799D01*
X254890Y30500D01*
X254959Y30200D01*
X255020Y29898D01*
X255075Y29595D01*
X255122Y29291D01*
X255161Y28985D01*
X255193Y28679D01*
X255218Y28372D01*
X255236Y28064D01*
X255245Y27756D01*
X255248Y27448D01*
X255243Y27140D01*
X255231Y26832D01*
X255211Y26525D01*
X255183Y26218D01*
X255149Y25912D01*
X255107Y25607D01*
X255057Y25303D01*
X255000Y25000D01*
M02*
