M48
;GenerationSoftware,Autodesk,EAGLE,9.3.2*%
;CreationDate,2020-02-09T10:11:04Z*%
FMAT,2
ICI,OFF
METRIC,TZ,000.000
T5C0.305
T4C0.350
T3C0.406
T2C1.016
T1C2.500
%
G90
M71
T1
X46000Y67000
X3000Y67000
T2
X2710Y126260
X5250Y126260
X2710Y123720
X5250Y123720
X2710Y121180
X5250Y121180
X2710Y118640
X5250Y118640
X2710Y116100
X5250Y116100
X2710Y113560
X5250Y113560
X2710Y111020
X5250Y111020
X2710Y78000
X2710Y80540
X2710Y83080
X2710Y85620
X2710Y88160
X2710Y90700
X2710Y93240
X2710Y95780
X2710Y98320
X2710Y100860
X2710Y103400
X2710Y105940
X2710Y108480
X5250Y108480
X5250Y105940
X5250Y103400
X5250Y100860
X5250Y98320
X5250Y95780
X5250Y93240
X5250Y90700
X5250Y88160
X5250Y85620
X5250Y83080
X5250Y80540
X5250Y78000
T3
X18948Y59106
X32544Y68263
X38576Y79851
X19710Y47803
X17780Y53340
X9042Y49149
X7214Y49166
X26111Y55448
X32639Y44679
X1575Y49378
X8052Y50013
X18923Y55169
T4
X4724Y52908
X4699Y48387
T5
X33496Y107791
X36036Y106839
X36513Y83026
X30004Y83026
X35401Y78423
X36354Y80804
X36513Y78105
X8414Y77788
X33338Y70168
X22860Y80328
X36195Y79058
X29686Y84614
X7461Y92551
X20479Y80328
X38418Y78264
X40958Y89694
X15399Y80328
X35878Y76359
X8096Y104140
X12700Y80328
X3810Y76359
X33338Y75883
X22384Y82868
X14764Y105092
X38367Y73082
X28638Y68339
X28257Y70168
X25876Y77788
X25876Y80169
X32385Y75883
X36513Y74136
X17304Y79058
X16510Y83503
X12859Y105092
X27305Y70485
X19526Y82868
X11906Y105092
X39053Y103981
X31432Y113824
X33496Y106521
X38894Y85249
X32702Y84614
X33655Y83026
X30321Y61436
X12224Y61436
X39529Y116999
X44291Y115411
X33655Y84614
X41116Y110807
X34290Y68898
X12541Y63500
X37148Y91599
X2064Y53499
X13017Y76518
X32702Y83026
X36671Y107791
X34608Y106997
X35401Y82074
X10954Y80328
X26511Y80804
X6667Y102870
X34608Y111442
X39211Y64611
X40323Y60960
X38100Y56039
X38259Y56991
X32067Y43339
X27464Y44291
X29845Y60484
X14446Y53022
X19050Y50324
X30480Y63182
X29369Y64294
X19368Y61436
X31909Y63976
X30797Y66516
X16192Y69691
X28734Y62071
X27622Y60484
X29210Y61119
X27464Y51594
X21590Y52229
X23019Y53975
X8890Y76518
X6667Y78740
X14446Y57626
X18415Y61277
X28257Y61119
X35401Y106204
X33179Y103981
X15399Y86995
X10636Y47625
X36855Y68974
X33496Y113030
X34766Y113347
X43021Y92710
X41434Y91122
X43339Y105727
X42863Y116681
X30378Y75870
X31191Y74371
X27026Y93548
X20599Y88849
X29464Y80112
X29134Y77699
X40665Y70104
X38354Y72136
X33503Y72314
X15824Y52984
X24435Y54966
X1448Y51206
X14859Y47574
X23571Y70053
X29947Y68097
X39091Y66675
X35357Y68809
X33503Y74955
X38354Y74955
X38684Y83845
X41427Y94209
X38557Y93066
X43231Y100482
X37236Y117119
X41910Y114859
X45237Y110795
X44501Y124155
X45517Y98171
X37338Y98247
X38100Y88290
X16332Y54788
X15519Y54788
X16434Y55702
X15875Y55347
X15418Y55728
X41275Y116046
X18574Y68104
M30