G04 EAGLE Gerber RS-274X export*
G75*
%MOMM*%
%FSLAX34Y34*%
%LPD*%
%INTop Layer*%
%IPPOS*%
%AMOC8*
5,1,8,0,0,1.08239X$1,22.5*%
G01*
%ADD10C,0.100000*%
%ADD11R,0.720000X0.600000*%
%ADD12C,0.203200*%
%ADD13C,0.654800*%

G36*
X133089Y5592D02*
X133089Y5592D01*
X133160Y5594D01*
X133209Y5612D01*
X133261Y5620D01*
X133324Y5654D01*
X133391Y5679D01*
X133432Y5711D01*
X133478Y5736D01*
X133527Y5788D01*
X133583Y5832D01*
X133612Y5876D01*
X133647Y5914D01*
X133678Y5979D01*
X133716Y6039D01*
X133729Y6090D01*
X133751Y6137D01*
X133759Y6208D01*
X133776Y6278D01*
X133772Y6330D01*
X133778Y6381D01*
X133763Y6452D01*
X133757Y6523D01*
X133737Y6571D01*
X133726Y6622D01*
X133689Y6683D01*
X133661Y6749D01*
X133616Y6805D01*
X133600Y6833D01*
X133582Y6848D01*
X133556Y6880D01*
X132692Y7744D01*
X132618Y7797D01*
X132549Y7857D01*
X132519Y7869D01*
X132492Y7888D01*
X132405Y7915D01*
X132321Y7949D01*
X132280Y7953D01*
X132257Y7960D01*
X132225Y7959D01*
X132154Y7967D01*
X130608Y7967D01*
X130588Y7987D01*
X130572Y7999D01*
X130560Y8014D01*
X130473Y8070D01*
X130389Y8131D01*
X130370Y8136D01*
X130353Y8147D01*
X130252Y8172D01*
X130154Y8203D01*
X130134Y8202D01*
X130114Y8207D01*
X130011Y8199D01*
X129908Y8197D01*
X129889Y8190D01*
X129869Y8188D01*
X129774Y8148D01*
X129677Y8112D01*
X129661Y8100D01*
X129643Y8092D01*
X129512Y7987D01*
X129492Y7967D01*
X120608Y7967D01*
X120588Y7987D01*
X120572Y7999D01*
X120560Y8014D01*
X120473Y8070D01*
X120389Y8131D01*
X120370Y8136D01*
X120353Y8147D01*
X120252Y8172D01*
X120154Y8203D01*
X120134Y8202D01*
X120114Y8207D01*
X120011Y8199D01*
X119908Y8197D01*
X119889Y8190D01*
X119869Y8188D01*
X119774Y8148D01*
X119677Y8112D01*
X119661Y8100D01*
X119643Y8092D01*
X119512Y7987D01*
X119492Y7967D01*
X110608Y7967D01*
X109417Y9158D01*
X109417Y16842D01*
X110608Y18033D01*
X119492Y18033D01*
X119512Y18013D01*
X119528Y18001D01*
X119540Y17986D01*
X119628Y17930D01*
X119711Y17869D01*
X119731Y17864D01*
X119747Y17853D01*
X119848Y17828D01*
X119947Y17797D01*
X119967Y17798D01*
X119986Y17793D01*
X120089Y17801D01*
X120192Y17803D01*
X120211Y17810D01*
X120231Y17812D01*
X120326Y17852D01*
X120423Y17888D01*
X120439Y17900D01*
X120457Y17908D01*
X120588Y18013D01*
X120608Y18033D01*
X129492Y18033D01*
X129512Y18013D01*
X129528Y18001D01*
X129540Y17986D01*
X129628Y17930D01*
X129711Y17869D01*
X129731Y17864D01*
X129747Y17853D01*
X129848Y17828D01*
X129947Y17797D01*
X129967Y17798D01*
X129986Y17793D01*
X130089Y17801D01*
X130192Y17803D01*
X130211Y17810D01*
X130231Y17812D01*
X130326Y17852D01*
X130423Y17888D01*
X130439Y17900D01*
X130457Y17908D01*
X130588Y18013D01*
X130608Y18033D01*
X133806Y18033D01*
X133877Y18044D01*
X133948Y18046D01*
X133997Y18064D01*
X134049Y18072D01*
X134112Y18106D01*
X134179Y18131D01*
X134220Y18163D01*
X134266Y18188D01*
X134315Y18240D01*
X134371Y18284D01*
X134400Y18328D01*
X134435Y18366D01*
X134466Y18431D01*
X134504Y18491D01*
X134517Y18542D01*
X134539Y18589D01*
X134547Y18660D01*
X134564Y18730D01*
X134560Y18782D01*
X134566Y18833D01*
X134551Y18904D01*
X134545Y18975D01*
X134525Y19023D01*
X134514Y19074D01*
X134477Y19135D01*
X134449Y19201D01*
X134404Y19257D01*
X134388Y19285D01*
X134370Y19300D01*
X134344Y19332D01*
X131932Y21744D01*
X131858Y21797D01*
X131789Y21857D01*
X131759Y21869D01*
X131732Y21888D01*
X131645Y21915D01*
X131561Y21949D01*
X131520Y21953D01*
X131497Y21960D01*
X131465Y21959D01*
X131394Y21967D01*
X130415Y21967D01*
X130302Y21949D01*
X130188Y21933D01*
X130178Y21929D01*
X130172Y21928D01*
X130152Y21917D01*
X130034Y21865D01*
X129631Y21632D01*
X128984Y21459D01*
X126549Y21459D01*
X126549Y26262D01*
X126546Y26281D01*
X126548Y26301D01*
X126526Y26403D01*
X126510Y26505D01*
X126500Y26522D01*
X126496Y26542D01*
X126443Y26631D01*
X126394Y26722D01*
X126380Y26736D01*
X126370Y26753D01*
X126291Y26820D01*
X126216Y26891D01*
X126198Y26900D01*
X126183Y26913D01*
X126087Y26951D01*
X125993Y26995D01*
X125973Y26997D01*
X125955Y27005D01*
X125788Y27023D01*
X124312Y27023D01*
X124292Y27020D01*
X124272Y27022D01*
X124171Y27000D01*
X124069Y26983D01*
X124052Y26974D01*
X124032Y26970D01*
X123943Y26917D01*
X123852Y26868D01*
X123838Y26854D01*
X123821Y26844D01*
X123754Y26765D01*
X123682Y26690D01*
X123674Y26672D01*
X123661Y26657D01*
X123622Y26560D01*
X123579Y26467D01*
X123577Y26447D01*
X123569Y26429D01*
X123551Y26262D01*
X123551Y21459D01*
X121116Y21459D01*
X120469Y21632D01*
X120066Y21865D01*
X119959Y21906D01*
X119852Y21949D01*
X119842Y21950D01*
X119836Y21952D01*
X119814Y21953D01*
X119685Y21967D01*
X110608Y21967D01*
X109417Y23158D01*
X109417Y23368D01*
X109414Y23388D01*
X109416Y23407D01*
X109394Y23509D01*
X109378Y23611D01*
X109368Y23628D01*
X109364Y23648D01*
X109311Y23737D01*
X109262Y23828D01*
X109248Y23842D01*
X109238Y23859D01*
X109159Y23926D01*
X109084Y23998D01*
X109066Y24006D01*
X109051Y24019D01*
X108955Y24058D01*
X108861Y24101D01*
X108841Y24103D01*
X108823Y24111D01*
X108656Y24129D01*
X68525Y24129D01*
X68435Y24115D01*
X68344Y24107D01*
X68315Y24095D01*
X68283Y24090D01*
X68202Y24047D01*
X68118Y24011D01*
X68086Y23985D01*
X68065Y23974D01*
X68043Y23951D01*
X67987Y23906D01*
X65952Y21871D01*
X61556Y21871D01*
X58447Y24980D01*
X58447Y29376D01*
X61556Y32485D01*
X65952Y32485D01*
X67987Y30450D01*
X68061Y30397D01*
X68131Y30337D01*
X68161Y30325D01*
X68187Y30306D01*
X68274Y30279D01*
X68359Y30245D01*
X68400Y30241D01*
X68422Y30234D01*
X68454Y30235D01*
X68525Y30227D01*
X108656Y30227D01*
X108676Y30230D01*
X108695Y30228D01*
X108797Y30250D01*
X108899Y30266D01*
X108916Y30276D01*
X108936Y30280D01*
X109025Y30333D01*
X109116Y30382D01*
X109130Y30396D01*
X109147Y30406D01*
X109214Y30485D01*
X109286Y30560D01*
X109294Y30578D01*
X109307Y30593D01*
X109346Y30689D01*
X109389Y30783D01*
X109391Y30803D01*
X109399Y30821D01*
X109399Y30824D01*
X110608Y32033D01*
X112242Y32033D01*
X112332Y32047D01*
X112423Y32055D01*
X112453Y32067D01*
X112485Y32072D01*
X112565Y32115D01*
X112649Y32151D01*
X112681Y32177D01*
X112702Y32188D01*
X112724Y32211D01*
X112780Y32256D01*
X113644Y33120D01*
X113686Y33178D01*
X113735Y33230D01*
X113757Y33277D01*
X113788Y33319D01*
X113809Y33388D01*
X113839Y33453D01*
X113845Y33505D01*
X113860Y33555D01*
X113858Y33626D01*
X113866Y33697D01*
X113855Y33748D01*
X113854Y33800D01*
X113829Y33868D01*
X113814Y33938D01*
X113787Y33982D01*
X113769Y34031D01*
X113724Y34087D01*
X113688Y34149D01*
X113648Y34183D01*
X113616Y34223D01*
X113555Y34262D01*
X113501Y34309D01*
X113452Y34328D01*
X113409Y34356D01*
X113339Y34374D01*
X113273Y34401D01*
X113201Y34409D01*
X113170Y34417D01*
X113147Y34415D01*
X113106Y34419D01*
X15839Y34419D01*
X15811Y34415D01*
X15782Y34417D01*
X15618Y34386D01*
X14821Y34144D01*
X14795Y34131D01*
X14768Y34125D01*
X14619Y34048D01*
X12542Y32657D01*
X12494Y32612D01*
X12440Y32575D01*
X12387Y32512D01*
X12363Y32489D01*
X12353Y32472D01*
X12332Y32447D01*
X10946Y30367D01*
X10919Y30308D01*
X10883Y30253D01*
X10858Y30173D01*
X10849Y30154D01*
X10845Y30146D01*
X10845Y30145D01*
X10845Y30143D01*
X10843Y30124D01*
X10833Y30093D01*
X10348Y27641D01*
X10347Y27613D01*
X10339Y27586D01*
X10337Y27418D01*
X10420Y26583D01*
X10427Y26556D01*
X10428Y26528D01*
X10474Y26367D01*
X10581Y26110D01*
X10581Y25628D01*
X10585Y25605D01*
X10596Y25479D01*
X10690Y25006D01*
X10595Y24526D01*
X10594Y24502D01*
X10581Y24379D01*
X10581Y10000D01*
X10585Y9974D01*
X10584Y9925D01*
X10655Y9212D01*
X10662Y9184D01*
X10662Y9156D01*
X10709Y8995D01*
X11255Y7676D01*
X11290Y7621D01*
X11315Y7560D01*
X11367Y7496D01*
X11385Y7467D01*
X11400Y7455D01*
X11420Y7429D01*
X12429Y6420D01*
X12483Y6382D01*
X12529Y6336D01*
X12603Y6296D01*
X12629Y6277D01*
X12648Y6271D01*
X12676Y6255D01*
X13995Y5709D01*
X14023Y5702D01*
X14048Y5689D01*
X14212Y5655D01*
X14925Y5584D01*
X14952Y5586D01*
X15000Y5581D01*
X133018Y5581D01*
X133089Y5592D01*
G37*
D10*
X255000Y25000D02*
X255000Y10000D01*
X254997Y9758D01*
X254988Y9517D01*
X254974Y9276D01*
X254953Y9035D01*
X254927Y8795D01*
X254895Y8555D01*
X254857Y8316D01*
X254814Y8079D01*
X254764Y7842D01*
X254709Y7607D01*
X254649Y7373D01*
X254582Y7141D01*
X254511Y6910D01*
X254433Y6681D01*
X254350Y6454D01*
X254262Y6229D01*
X254168Y6006D01*
X254069Y5786D01*
X253964Y5568D01*
X253855Y5353D01*
X253740Y5140D01*
X253620Y4930D01*
X253495Y4724D01*
X253365Y4520D01*
X253230Y4319D01*
X253090Y4122D01*
X252946Y3928D01*
X252797Y3738D01*
X252643Y3552D01*
X252485Y3369D01*
X252323Y3190D01*
X252156Y3015D01*
X251985Y2844D01*
X251810Y2677D01*
X251631Y2515D01*
X251448Y2357D01*
X251262Y2203D01*
X251072Y2054D01*
X250878Y1910D01*
X250681Y1770D01*
X250480Y1635D01*
X250276Y1505D01*
X250070Y1380D01*
X249860Y1260D01*
X249647Y1145D01*
X249432Y1036D01*
X249214Y931D01*
X248994Y832D01*
X248771Y738D01*
X248546Y650D01*
X248319Y567D01*
X248090Y489D01*
X247859Y418D01*
X247627Y351D01*
X247393Y291D01*
X247158Y236D01*
X246921Y186D01*
X246684Y143D01*
X246445Y105D01*
X246205Y73D01*
X245965Y47D01*
X245724Y26D01*
X245483Y12D01*
X245242Y3D01*
X245000Y0D01*
X15000Y0D01*
X14758Y3D01*
X14517Y12D01*
X14276Y26D01*
X14035Y47D01*
X13795Y73D01*
X13555Y105D01*
X13316Y143D01*
X13079Y186D01*
X12842Y236D01*
X12607Y291D01*
X12373Y351D01*
X12141Y418D01*
X11910Y489D01*
X11681Y567D01*
X11454Y650D01*
X11229Y738D01*
X11006Y832D01*
X10786Y931D01*
X10568Y1036D01*
X10353Y1145D01*
X10140Y1260D01*
X9930Y1380D01*
X9724Y1505D01*
X9520Y1635D01*
X9319Y1770D01*
X9122Y1910D01*
X8928Y2054D01*
X8738Y2203D01*
X8552Y2357D01*
X8369Y2515D01*
X8190Y2677D01*
X8015Y2844D01*
X7844Y3015D01*
X7677Y3190D01*
X7515Y3369D01*
X7357Y3552D01*
X7203Y3738D01*
X7054Y3928D01*
X6910Y4122D01*
X6770Y4319D01*
X6635Y4520D01*
X6505Y4724D01*
X6380Y4930D01*
X6260Y5140D01*
X6145Y5353D01*
X6036Y5568D01*
X5931Y5786D01*
X5832Y6006D01*
X5738Y6229D01*
X5650Y6454D01*
X5567Y6681D01*
X5489Y6910D01*
X5418Y7141D01*
X5351Y7373D01*
X5291Y7607D01*
X5236Y7842D01*
X5186Y8079D01*
X5143Y8316D01*
X5105Y8555D01*
X5073Y8795D01*
X5047Y9035D01*
X5026Y9276D01*
X5012Y9517D01*
X5003Y9758D01*
X5000Y10000D01*
X5000Y25000D01*
X4943Y25303D01*
X4893Y25607D01*
X4851Y25912D01*
X4817Y26218D01*
X4789Y26525D01*
X4769Y26832D01*
X4757Y27140D01*
X4752Y27448D01*
X4755Y27756D01*
X4764Y28064D01*
X4782Y28372D01*
X4807Y28679D01*
X4839Y28985D01*
X4878Y29291D01*
X4925Y29595D01*
X4980Y29898D01*
X5041Y30200D01*
X5110Y30500D01*
X5186Y30799D01*
X5270Y31096D01*
X5360Y31390D01*
X5458Y31682D01*
X5562Y31972D01*
X5674Y32259D01*
X5792Y32544D01*
X5917Y32825D01*
X6049Y33103D01*
X6188Y33378D01*
X6334Y33650D01*
X6485Y33918D01*
X6644Y34182D01*
X6808Y34443D01*
X6979Y34699D01*
X7156Y34951D01*
X7339Y35199D01*
X7528Y35442D01*
X7723Y35681D01*
X7924Y35915D01*
X8130Y36144D01*
X8341Y36367D01*
X8558Y36586D01*
X8781Y36800D01*
X9008Y37008D01*
X9240Y37210D01*
X9477Y37407D01*
X9719Y37598D01*
X9965Y37783D01*
X10216Y37962D01*
X10471Y38135D01*
X10730Y38302D01*
X10993Y38462D01*
X11259Y38616D01*
X11530Y38764D01*
X11804Y38905D01*
X12081Y39039D01*
X12361Y39166D01*
X12645Y39287D01*
X12931Y39401D01*
X13220Y39508D01*
X13511Y39608D01*
X13805Y39701D01*
X14101Y39787D01*
X14399Y39865D01*
X14699Y39936D01*
X15000Y40000D01*
X245000Y40000D01*
X245301Y39936D01*
X245601Y39865D01*
X245899Y39787D01*
X246195Y39701D01*
X246489Y39608D01*
X246780Y39508D01*
X247069Y39401D01*
X247355Y39287D01*
X247639Y39166D01*
X247919Y39039D01*
X248196Y38905D01*
X248470Y38764D01*
X248741Y38616D01*
X249007Y38462D01*
X249270Y38302D01*
X249529Y38135D01*
X249784Y37962D01*
X250035Y37783D01*
X250281Y37598D01*
X250523Y37407D01*
X250760Y37210D01*
X250992Y37008D01*
X251219Y36800D01*
X251442Y36586D01*
X251659Y36367D01*
X251870Y36144D01*
X252076Y35915D01*
X252277Y35681D01*
X252472Y35442D01*
X252661Y35199D01*
X252844Y34951D01*
X253021Y34699D01*
X253192Y34443D01*
X253356Y34182D01*
X253515Y33918D01*
X253666Y33650D01*
X253812Y33378D01*
X253951Y33103D01*
X254083Y32825D01*
X254208Y32544D01*
X254326Y32259D01*
X254438Y31972D01*
X254542Y31682D01*
X254640Y31390D01*
X254730Y31096D01*
X254814Y30799D01*
X254890Y30500D01*
X254959Y30200D01*
X255020Y29898D01*
X255075Y29595D01*
X255122Y29291D01*
X255161Y28985D01*
X255193Y28679D01*
X255218Y28372D01*
X255236Y28064D01*
X255245Y27756D01*
X255248Y27448D01*
X255243Y27140D01*
X255231Y26832D01*
X255211Y26525D01*
X255183Y26218D01*
X255149Y25912D01*
X255107Y25607D01*
X255057Y25303D01*
X255000Y25000D01*
D11*
X145050Y13000D03*
X135050Y13000D03*
X125050Y13000D03*
X115050Y13000D03*
X115050Y27000D03*
X125050Y27000D03*
X135050Y27000D03*
X145050Y27000D03*
D12*
X125050Y13000D02*
X115050Y13000D01*
X144962Y27089D02*
X145050Y27000D01*
X145050Y29194D01*
X140942Y33302D01*
X118138Y33302D01*
X115050Y30214D01*
X115050Y27000D01*
X114872Y27178D01*
D13*
X63754Y27178D03*
D12*
X114872Y27178D01*
X145050Y13000D02*
X157772Y13000D01*
X157834Y12998D01*
X157895Y12993D01*
X157957Y12983D01*
X158017Y12970D01*
X158077Y12954D01*
X158135Y12933D01*
X158192Y12910D01*
X158248Y12883D01*
X158302Y12852D01*
X158354Y12819D01*
X158404Y12782D01*
X158451Y12742D01*
X158496Y12700D01*
X158496Y13180D01*
D13*
X158496Y13180D03*
D12*
X135050Y22938D02*
X135050Y27000D01*
X135050Y22938D02*
X137668Y20320D01*
X155956Y25908D02*
X161290Y31242D01*
X161290Y31146D01*
D13*
X161290Y31146D03*
D12*
X152146Y20320D02*
X137668Y20320D01*
X152146Y20320D02*
X155956Y24130D01*
X155956Y25908D01*
X137890Y6858D02*
X135050Y9698D01*
X135050Y13000D01*
X195326Y6858D02*
X197866Y9398D01*
X198120Y9398D01*
D13*
X198120Y9398D03*
D12*
X195326Y6858D02*
X137890Y6858D01*
X125050Y23943D02*
X125050Y27000D01*
X125050Y23943D02*
X125048Y23813D01*
X125042Y23684D01*
X125032Y23555D01*
X125019Y23426D01*
X125001Y23298D01*
X124980Y23170D01*
X124954Y23043D01*
X124925Y22917D01*
X124893Y22792D01*
X124856Y22667D01*
X124815Y22544D01*
X124771Y22422D01*
X124724Y22302D01*
X124672Y22183D01*
X124617Y22066D01*
X124559Y21950D01*
X124497Y21837D01*
X124432Y21725D01*
X124363Y21615D01*
X124291Y21507D01*
X124216Y21402D01*
X124137Y21299D01*
X124056Y21198D01*
X123972Y21100D01*
X123884Y21004D01*
X123794Y20911D01*
X123720Y20840D01*
X123643Y20771D01*
X123564Y20705D01*
X123482Y20642D01*
X123399Y20581D01*
X123313Y20524D01*
X123226Y20470D01*
X123136Y20419D01*
X123045Y20371D01*
X122952Y20327D01*
X122857Y20286D01*
X122762Y20248D01*
X122664Y20214D01*
X122566Y20183D01*
X122467Y20156D01*
X122366Y20132D01*
X122265Y20112D01*
X122164Y20095D01*
X122061Y20083D01*
X121959Y20073D01*
X121856Y20068D01*
X121753Y20066D01*
X107546Y20066D02*
X107490Y20064D01*
X107433Y20059D01*
X107378Y20049D01*
X107323Y20037D01*
X107269Y20020D01*
X107216Y20000D01*
X107164Y19977D01*
X107114Y19950D01*
X107067Y19921D01*
X107021Y19888D01*
X106977Y19852D01*
X106936Y19813D01*
X106935Y19813D02*
X102108Y14986D01*
D13*
X102108Y14986D03*
D12*
X107546Y20066D02*
X121753Y20066D01*
M02*
