G04 EAGLE Gerber RS-274X export*
G75*
%MOMM*%
%FSLAX34Y34*%
%LPD*%
%INBottom layer*%
%IPPOS*%
%AMOC8*
5,1,8,0,0,1.08239X$1,22.5*%
G01*
%ADD10C,0.100000*%
%ADD11C,2.000000*%
%ADD12C,0.654800*%
%ADD13C,0.203200*%

G36*
X192665Y5592D02*
X192665Y5592D01*
X192737Y5594D01*
X192786Y5612D01*
X192837Y5620D01*
X192901Y5654D01*
X192968Y5679D01*
X193009Y5711D01*
X193055Y5736D01*
X193104Y5788D01*
X193160Y5832D01*
X193188Y5876D01*
X193224Y5914D01*
X193254Y5979D01*
X193293Y6039D01*
X193306Y6090D01*
X193328Y6137D01*
X193336Y6208D01*
X193353Y6278D01*
X193349Y6330D01*
X193355Y6381D01*
X193340Y6452D01*
X193334Y6523D01*
X193314Y6571D01*
X193303Y6622D01*
X193266Y6683D01*
X193238Y6749D01*
X193193Y6805D01*
X193176Y6833D01*
X193159Y6848D01*
X193133Y6880D01*
X192813Y7200D01*
X192813Y11596D01*
X195922Y14705D01*
X198030Y14705D01*
X198075Y14712D01*
X198121Y14710D01*
X198196Y14732D01*
X198273Y14744D01*
X198313Y14766D01*
X198357Y14779D01*
X198421Y14823D01*
X198490Y14860D01*
X198522Y14893D01*
X198559Y14919D01*
X198606Y14981D01*
X198659Y15038D01*
X198679Y15080D01*
X198706Y15116D01*
X198730Y15190D01*
X198763Y15261D01*
X198768Y15307D01*
X198782Y15350D01*
X198782Y15428D01*
X198790Y15505D01*
X198780Y15550D01*
X198780Y15596D01*
X198742Y15728D01*
X198738Y15746D01*
X198735Y15750D01*
X198733Y15757D01*
X197967Y17607D01*
X197967Y22393D01*
X199799Y26816D01*
X203184Y30201D01*
X207607Y32033D01*
X212393Y32033D01*
X216816Y30201D01*
X220201Y26816D01*
X222033Y22393D01*
X222033Y17607D01*
X220201Y13184D01*
X216816Y9799D01*
X212393Y7967D01*
X207607Y7967D01*
X204479Y9263D01*
X204435Y9273D01*
X204393Y9292D01*
X204316Y9301D01*
X204240Y9319D01*
X204194Y9314D01*
X204149Y9320D01*
X204072Y9303D01*
X203995Y9296D01*
X203953Y9277D01*
X203908Y9267D01*
X203841Y9227D01*
X203770Y9196D01*
X203736Y9165D01*
X203697Y9141D01*
X203646Y9082D01*
X203589Y9029D01*
X203567Y8989D01*
X203537Y8954D01*
X203508Y8882D01*
X203471Y8814D01*
X203462Y8769D01*
X203445Y8726D01*
X203430Y8590D01*
X203427Y8572D01*
X203428Y8567D01*
X203427Y8559D01*
X203427Y7200D01*
X203107Y6880D01*
X203065Y6822D01*
X203016Y6770D01*
X202994Y6723D01*
X202964Y6681D01*
X202942Y6612D01*
X202912Y6547D01*
X202907Y6495D01*
X202891Y6445D01*
X202893Y6374D01*
X202885Y6303D01*
X202896Y6252D01*
X202898Y6200D01*
X202922Y6132D01*
X202937Y6062D01*
X202964Y6017D01*
X202982Y5969D01*
X203027Y5913D01*
X203064Y5851D01*
X203103Y5817D01*
X203136Y5777D01*
X203196Y5738D01*
X203251Y5691D01*
X203299Y5672D01*
X203343Y5644D01*
X203412Y5626D01*
X203479Y5599D01*
X203550Y5591D01*
X203581Y5583D01*
X203604Y5585D01*
X203645Y5581D01*
X245000Y5581D01*
X245026Y5585D01*
X245075Y5584D01*
X245788Y5655D01*
X245816Y5662D01*
X245844Y5662D01*
X246005Y5709D01*
X247324Y6255D01*
X247379Y6290D01*
X247440Y6315D01*
X247504Y6367D01*
X247533Y6385D01*
X247545Y6400D01*
X247571Y6420D01*
X248580Y7429D01*
X248618Y7483D01*
X248664Y7529D01*
X248704Y7602D01*
X248723Y7629D01*
X248729Y7648D01*
X248745Y7676D01*
X249291Y8995D01*
X249297Y9023D01*
X249311Y9048D01*
X249345Y9212D01*
X249416Y9925D01*
X249414Y9952D01*
X249419Y10000D01*
X249419Y24379D01*
X249415Y24403D01*
X249405Y24526D01*
X249310Y25006D01*
X249404Y25479D01*
X249405Y25502D01*
X249419Y25628D01*
X249419Y26110D01*
X249526Y26367D01*
X249532Y26394D01*
X249545Y26419D01*
X249580Y26583D01*
X249663Y27418D01*
X249661Y27446D01*
X249667Y27474D01*
X249652Y27641D01*
X249167Y30093D01*
X249144Y30154D01*
X249131Y30218D01*
X249093Y30292D01*
X249081Y30323D01*
X249069Y30338D01*
X249054Y30367D01*
X247668Y32447D01*
X247623Y32495D01*
X247586Y32549D01*
X247522Y32603D01*
X247500Y32627D01*
X247483Y32636D01*
X247458Y32657D01*
X245381Y34048D01*
X245355Y34060D01*
X245333Y34077D01*
X245179Y34144D01*
X244382Y34386D01*
X244354Y34390D01*
X244327Y34401D01*
X244161Y34419D01*
X167358Y34419D01*
X167338Y34416D01*
X167319Y34418D01*
X167217Y34396D01*
X167115Y34380D01*
X167098Y34370D01*
X167078Y34366D01*
X166989Y34313D01*
X166898Y34264D01*
X166884Y34250D01*
X166867Y34240D01*
X166800Y34161D01*
X166728Y34086D01*
X166720Y34068D01*
X166707Y34053D01*
X166668Y33957D01*
X166625Y33863D01*
X166623Y33843D01*
X166615Y33825D01*
X166597Y33658D01*
X166597Y32754D01*
X166604Y32708D01*
X166602Y32662D01*
X166624Y32588D01*
X166636Y32511D01*
X166658Y32470D01*
X166671Y32426D01*
X166715Y32362D01*
X166752Y32294D01*
X166785Y32262D01*
X166811Y32224D01*
X166874Y32178D01*
X166930Y32124D01*
X166972Y32105D01*
X167008Y32077D01*
X167082Y32053D01*
X167153Y32021D01*
X167199Y32016D01*
X167242Y32001D01*
X167320Y32002D01*
X167397Y31994D01*
X167442Y32003D01*
X167488Y32004D01*
X167588Y32033D01*
X172393Y32033D01*
X176816Y30201D01*
X180201Y26816D01*
X182033Y22393D01*
X182033Y17607D01*
X180201Y13184D01*
X176816Y9799D01*
X172393Y7967D01*
X167607Y7967D01*
X163255Y9770D01*
X163141Y9796D01*
X163028Y9825D01*
X163022Y9824D01*
X163016Y9826D01*
X162899Y9815D01*
X162783Y9806D01*
X162777Y9803D01*
X162771Y9803D01*
X162664Y9755D01*
X162556Y9710D01*
X162551Y9705D01*
X162546Y9703D01*
X162532Y9690D01*
X162426Y9605D01*
X160694Y7873D01*
X156298Y7873D01*
X153189Y10982D01*
X153189Y15378D01*
X156298Y18487D01*
X157206Y18487D01*
X157226Y18490D01*
X157245Y18488D01*
X157347Y18510D01*
X157449Y18526D01*
X157466Y18536D01*
X157486Y18540D01*
X157575Y18593D01*
X157666Y18642D01*
X157680Y18656D01*
X157697Y18666D01*
X157764Y18745D01*
X157836Y18820D01*
X157844Y18838D01*
X157857Y18853D01*
X157896Y18949D01*
X157939Y19043D01*
X157941Y19063D01*
X157949Y19081D01*
X157967Y19248D01*
X157967Y22393D01*
X159111Y25155D01*
X159138Y25269D01*
X159167Y25382D01*
X159166Y25389D01*
X159167Y25395D01*
X159156Y25511D01*
X159147Y25628D01*
X159145Y25633D01*
X159144Y25640D01*
X159097Y25747D01*
X159051Y25854D01*
X159046Y25860D01*
X159044Y25864D01*
X159032Y25878D01*
X158946Y25985D01*
X157057Y27874D01*
X156983Y27927D01*
X156913Y27987D01*
X156883Y27999D01*
X156857Y28018D01*
X156770Y28045D01*
X156685Y28079D01*
X156644Y28083D01*
X156622Y28090D01*
X156590Y28089D01*
X156519Y28097D01*
X142724Y28097D01*
X142634Y28083D01*
X142543Y28075D01*
X142513Y28063D01*
X142481Y28058D01*
X142401Y28015D01*
X142317Y27979D01*
X142285Y27953D01*
X142264Y27942D01*
X142242Y27919D01*
X142186Y27874D01*
X140832Y26520D01*
X140763Y26425D01*
X140694Y26332D01*
X140692Y26326D01*
X140688Y26321D01*
X140654Y26209D01*
X140618Y26098D01*
X140618Y26092D01*
X140616Y26086D01*
X140619Y25969D01*
X140620Y25852D01*
X140622Y25845D01*
X140622Y25840D01*
X140629Y25822D01*
X140667Y25691D01*
X142033Y22393D01*
X142033Y17607D01*
X140201Y13184D01*
X136816Y9799D01*
X132393Y7967D01*
X127607Y7967D01*
X123184Y9799D01*
X119799Y13184D01*
X117967Y17607D01*
X117967Y22393D01*
X119799Y26816D01*
X123184Y30201D01*
X127607Y32033D01*
X132393Y32033D01*
X135691Y30667D01*
X135804Y30640D01*
X135918Y30612D01*
X135924Y30612D01*
X135930Y30611D01*
X136047Y30622D01*
X136163Y30631D01*
X136169Y30633D01*
X136175Y30634D01*
X136283Y30682D01*
X136389Y30727D01*
X136395Y30732D01*
X136400Y30734D01*
X136414Y30747D01*
X136520Y30832D01*
X138808Y33120D01*
X138850Y33178D01*
X138899Y33230D01*
X138921Y33277D01*
X138952Y33319D01*
X138973Y33388D01*
X139003Y33453D01*
X139009Y33505D01*
X139024Y33555D01*
X139022Y33626D01*
X139030Y33697D01*
X139019Y33748D01*
X139018Y33800D01*
X138993Y33868D01*
X138978Y33938D01*
X138951Y33982D01*
X138933Y34031D01*
X138888Y34087D01*
X138852Y34149D01*
X138812Y34183D01*
X138780Y34223D01*
X138719Y34262D01*
X138665Y34309D01*
X138616Y34328D01*
X138573Y34356D01*
X138503Y34374D01*
X138437Y34401D01*
X138365Y34409D01*
X138334Y34417D01*
X138311Y34415D01*
X138270Y34419D01*
X15839Y34419D01*
X15811Y34415D01*
X15782Y34417D01*
X15618Y34386D01*
X14821Y34144D01*
X14795Y34131D01*
X14768Y34125D01*
X14619Y34048D01*
X12542Y32657D01*
X12494Y32612D01*
X12440Y32575D01*
X12387Y32512D01*
X12363Y32489D01*
X12353Y32472D01*
X12332Y32447D01*
X10946Y30367D01*
X10919Y30308D01*
X10883Y30253D01*
X10858Y30173D01*
X10849Y30154D01*
X10845Y30146D01*
X10845Y30145D01*
X10845Y30143D01*
X10843Y30124D01*
X10833Y30093D01*
X10348Y27641D01*
X10347Y27613D01*
X10339Y27586D01*
X10337Y27418D01*
X10420Y26583D01*
X10427Y26556D01*
X10428Y26528D01*
X10474Y26367D01*
X10581Y26110D01*
X10581Y25628D01*
X10585Y25605D01*
X10596Y25479D01*
X10690Y25006D01*
X10595Y24526D01*
X10594Y24502D01*
X10581Y24379D01*
X10581Y10000D01*
X10585Y9974D01*
X10584Y9925D01*
X10655Y9212D01*
X10662Y9184D01*
X10662Y9156D01*
X10709Y8995D01*
X11255Y7676D01*
X11290Y7621D01*
X11315Y7560D01*
X11367Y7496D01*
X11385Y7467D01*
X11400Y7455D01*
X11420Y7429D01*
X12429Y6420D01*
X12483Y6382D01*
X12529Y6336D01*
X12603Y6296D01*
X12629Y6277D01*
X12648Y6271D01*
X12676Y6255D01*
X13995Y5709D01*
X14023Y5702D01*
X14048Y5689D01*
X14212Y5655D01*
X14925Y5584D01*
X14952Y5586D01*
X15000Y5581D01*
X192595Y5581D01*
X192665Y5592D01*
G37*
%LPC*%
G36*
X47607Y7967D02*
X47607Y7967D01*
X43184Y9799D01*
X39799Y13184D01*
X37967Y17607D01*
X37967Y22393D01*
X39799Y26816D01*
X43184Y30201D01*
X47607Y32033D01*
X52393Y32033D01*
X56614Y30285D01*
X56677Y30270D01*
X56738Y30245D01*
X56821Y30236D01*
X56853Y30229D01*
X56872Y30230D01*
X56905Y30227D01*
X58983Y30227D01*
X59073Y30241D01*
X59164Y30249D01*
X59193Y30261D01*
X59225Y30266D01*
X59306Y30309D01*
X59390Y30345D01*
X59422Y30371D01*
X59443Y30382D01*
X59465Y30405D01*
X59521Y30450D01*
X61556Y32485D01*
X65952Y32485D01*
X69061Y29376D01*
X69061Y24980D01*
X65952Y21871D01*
X62794Y21871D01*
X62774Y21868D01*
X62755Y21870D01*
X62653Y21848D01*
X62551Y21832D01*
X62534Y21822D01*
X62514Y21818D01*
X62425Y21765D01*
X62334Y21716D01*
X62320Y21702D01*
X62303Y21692D01*
X62236Y21613D01*
X62164Y21538D01*
X62156Y21520D01*
X62143Y21505D01*
X62104Y21409D01*
X62061Y21315D01*
X62059Y21295D01*
X62051Y21277D01*
X62033Y21110D01*
X62033Y17607D01*
X60201Y13184D01*
X56816Y9799D01*
X52393Y7967D01*
X47607Y7967D01*
G37*
%LPD*%
%LPC*%
G36*
X91523Y21523D02*
X91523Y21523D01*
X91523Y32456D01*
X92937Y32232D01*
X94814Y31622D01*
X96573Y30726D01*
X98170Y29566D01*
X99566Y28170D01*
X100726Y26573D01*
X101622Y24814D01*
X102232Y22937D01*
X102456Y21523D01*
X91523Y21523D01*
G37*
%LPD*%
%LPC*%
G36*
X77544Y21523D02*
X77544Y21523D01*
X77768Y22937D01*
X78378Y24814D01*
X79274Y26573D01*
X80434Y28170D01*
X81830Y29566D01*
X83427Y30726D01*
X85186Y31622D01*
X87063Y32232D01*
X88477Y32456D01*
X88477Y21523D01*
X77544Y21523D01*
G37*
%LPD*%
%LPC*%
G36*
X91523Y18477D02*
X91523Y18477D01*
X102456Y18477D01*
X102232Y17063D01*
X101622Y15186D01*
X100726Y13427D01*
X99566Y11830D01*
X98170Y10434D01*
X96573Y9274D01*
X94814Y8378D01*
X92937Y7768D01*
X91523Y7544D01*
X91523Y18477D01*
G37*
%LPD*%
%LPC*%
G36*
X87063Y7768D02*
X87063Y7768D01*
X85186Y8378D01*
X83427Y9274D01*
X81830Y10434D01*
X80434Y11830D01*
X79274Y13427D01*
X78378Y15186D01*
X77768Y17063D01*
X77544Y18477D01*
X88477Y18477D01*
X88477Y7544D01*
X87063Y7768D01*
G37*
%LPD*%
%LPC*%
G36*
X89999Y19999D02*
X89999Y19999D01*
X89999Y20001D01*
X90001Y20001D01*
X90001Y19999D01*
X89999Y19999D01*
G37*
%LPD*%
D10*
X255000Y25000D02*
X255000Y10000D01*
X254997Y9758D01*
X254988Y9517D01*
X254974Y9276D01*
X254953Y9035D01*
X254927Y8795D01*
X254895Y8555D01*
X254857Y8316D01*
X254814Y8079D01*
X254764Y7842D01*
X254709Y7607D01*
X254649Y7373D01*
X254582Y7141D01*
X254511Y6910D01*
X254433Y6681D01*
X254350Y6454D01*
X254262Y6229D01*
X254168Y6006D01*
X254069Y5786D01*
X253964Y5568D01*
X253855Y5353D01*
X253740Y5140D01*
X253620Y4930D01*
X253495Y4724D01*
X253365Y4520D01*
X253230Y4319D01*
X253090Y4122D01*
X252946Y3928D01*
X252797Y3738D01*
X252643Y3552D01*
X252485Y3369D01*
X252323Y3190D01*
X252156Y3015D01*
X251985Y2844D01*
X251810Y2677D01*
X251631Y2515D01*
X251448Y2357D01*
X251262Y2203D01*
X251072Y2054D01*
X250878Y1910D01*
X250681Y1770D01*
X250480Y1635D01*
X250276Y1505D01*
X250070Y1380D01*
X249860Y1260D01*
X249647Y1145D01*
X249432Y1036D01*
X249214Y931D01*
X248994Y832D01*
X248771Y738D01*
X248546Y650D01*
X248319Y567D01*
X248090Y489D01*
X247859Y418D01*
X247627Y351D01*
X247393Y291D01*
X247158Y236D01*
X246921Y186D01*
X246684Y143D01*
X246445Y105D01*
X246205Y73D01*
X245965Y47D01*
X245724Y26D01*
X245483Y12D01*
X245242Y3D01*
X245000Y0D01*
X15000Y0D01*
X14758Y3D01*
X14517Y12D01*
X14276Y26D01*
X14035Y47D01*
X13795Y73D01*
X13555Y105D01*
X13316Y143D01*
X13079Y186D01*
X12842Y236D01*
X12607Y291D01*
X12373Y351D01*
X12141Y418D01*
X11910Y489D01*
X11681Y567D01*
X11454Y650D01*
X11229Y738D01*
X11006Y832D01*
X10786Y931D01*
X10568Y1036D01*
X10353Y1145D01*
X10140Y1260D01*
X9930Y1380D01*
X9724Y1505D01*
X9520Y1635D01*
X9319Y1770D01*
X9122Y1910D01*
X8928Y2054D01*
X8738Y2203D01*
X8552Y2357D01*
X8369Y2515D01*
X8190Y2677D01*
X8015Y2844D01*
X7844Y3015D01*
X7677Y3190D01*
X7515Y3369D01*
X7357Y3552D01*
X7203Y3738D01*
X7054Y3928D01*
X6910Y4122D01*
X6770Y4319D01*
X6635Y4520D01*
X6505Y4724D01*
X6380Y4930D01*
X6260Y5140D01*
X6145Y5353D01*
X6036Y5568D01*
X5931Y5786D01*
X5832Y6006D01*
X5738Y6229D01*
X5650Y6454D01*
X5567Y6681D01*
X5489Y6910D01*
X5418Y7141D01*
X5351Y7373D01*
X5291Y7607D01*
X5236Y7842D01*
X5186Y8079D01*
X5143Y8316D01*
X5105Y8555D01*
X5073Y8795D01*
X5047Y9035D01*
X5026Y9276D01*
X5012Y9517D01*
X5003Y9758D01*
X5000Y10000D01*
X5000Y25000D01*
X4943Y25303D01*
X4893Y25607D01*
X4851Y25912D01*
X4817Y26218D01*
X4789Y26525D01*
X4769Y26832D01*
X4757Y27140D01*
X4752Y27448D01*
X4755Y27756D01*
X4764Y28064D01*
X4782Y28372D01*
X4807Y28679D01*
X4839Y28985D01*
X4878Y29291D01*
X4925Y29595D01*
X4980Y29898D01*
X5041Y30200D01*
X5110Y30500D01*
X5186Y30799D01*
X5270Y31096D01*
X5360Y31390D01*
X5458Y31682D01*
X5562Y31972D01*
X5674Y32259D01*
X5792Y32544D01*
X5917Y32825D01*
X6049Y33103D01*
X6188Y33378D01*
X6334Y33650D01*
X6485Y33918D01*
X6644Y34182D01*
X6808Y34443D01*
X6979Y34699D01*
X7156Y34951D01*
X7339Y35199D01*
X7528Y35442D01*
X7723Y35681D01*
X7924Y35915D01*
X8130Y36144D01*
X8341Y36367D01*
X8558Y36586D01*
X8781Y36800D01*
X9008Y37008D01*
X9240Y37210D01*
X9477Y37407D01*
X9719Y37598D01*
X9965Y37783D01*
X10216Y37962D01*
X10471Y38135D01*
X10730Y38302D01*
X10993Y38462D01*
X11259Y38616D01*
X11530Y38764D01*
X11804Y38905D01*
X12081Y39039D01*
X12361Y39166D01*
X12645Y39287D01*
X12931Y39401D01*
X13220Y39508D01*
X13511Y39608D01*
X13805Y39701D01*
X14101Y39787D01*
X14399Y39865D01*
X14699Y39936D01*
X15000Y40000D01*
X245000Y40000D01*
X245301Y39936D01*
X245601Y39865D01*
X245899Y39787D01*
X246195Y39701D01*
X246489Y39608D01*
X246780Y39508D01*
X247069Y39401D01*
X247355Y39287D01*
X247639Y39166D01*
X247919Y39039D01*
X248196Y38905D01*
X248470Y38764D01*
X248741Y38616D01*
X249007Y38462D01*
X249270Y38302D01*
X249529Y38135D01*
X249784Y37962D01*
X250035Y37783D01*
X250281Y37598D01*
X250523Y37407D01*
X250760Y37210D01*
X250992Y37008D01*
X251219Y36800D01*
X251442Y36586D01*
X251659Y36367D01*
X251870Y36144D01*
X252076Y35915D01*
X252277Y35681D01*
X252472Y35442D01*
X252661Y35199D01*
X252844Y34951D01*
X253021Y34699D01*
X253192Y34443D01*
X253356Y34182D01*
X253515Y33918D01*
X253666Y33650D01*
X253812Y33378D01*
X253951Y33103D01*
X254083Y32825D01*
X254208Y32544D01*
X254326Y32259D01*
X254438Y31972D01*
X254542Y31682D01*
X254640Y31390D01*
X254730Y31096D01*
X254814Y30799D01*
X254890Y30500D01*
X254959Y30200D01*
X255020Y29898D01*
X255075Y29595D01*
X255122Y29291D01*
X255161Y28985D01*
X255193Y28679D01*
X255218Y28372D01*
X255236Y28064D01*
X255245Y27756D01*
X255248Y27448D01*
X255243Y27140D01*
X255231Y26832D01*
X255211Y26525D01*
X255183Y26218D01*
X255149Y25912D01*
X255107Y25607D01*
X255057Y25303D01*
X255000Y25000D01*
D11*
X50000Y20000D03*
X90000Y20000D03*
X210000Y20000D03*
X130000Y20000D03*
X170000Y20000D03*
D12*
X63754Y27178D03*
D13*
X57178Y27178D01*
X50000Y20000D01*
D12*
X158496Y13180D03*
D13*
X158933Y13180D02*
X166183Y16183D01*
X158933Y13180D02*
X158496Y13180D01*
X166183Y16183D02*
X170000Y20000D01*
D12*
X161290Y31146D03*
D13*
X141146Y31146D01*
X130000Y20000D01*
D12*
X198120Y9398D03*
D13*
X198127Y9399D01*
X198133Y9404D01*
X208730Y20000D02*
X210000Y20000D01*
X208730Y20000D02*
X198134Y9404D01*
D12*
X102108Y14986D03*
D13*
X100008Y17086D01*
X92973Y20000D01*
X92972Y19999D02*
X92859Y20044D01*
X92744Y20086D01*
X92628Y20123D01*
X92511Y20157D01*
X92393Y20188D01*
X92274Y20214D01*
X92154Y20237D01*
X92033Y20256D01*
X91912Y20272D01*
X91791Y20283D01*
X91669Y20291D01*
X91547Y20295D01*
X91425Y20295D01*
X91303Y20291D01*
X91181Y20283D01*
X91060Y20272D01*
X90939Y20256D01*
X90818Y20237D01*
X90698Y20214D01*
X90579Y20188D01*
X90461Y20157D01*
X90344Y20123D01*
X90228Y20086D01*
X90113Y20044D01*
X90000Y19999D01*
M02*
